<svg width="56" height="57" viewBox="0 0 56 57" fill="none" xmlns="http://www.w3.org/2000/svg">
<g clip-path="url(#clip0_607_2021)">
<path fill-rule="evenodd" clip-rule="evenodd" d="M55.8994 29.9342L55.8826 29.6201C55.8826 29.0827 55.74 29.0166 55.7149 28.5289C55.782 28.1155 55.3878 26.3712 55.153 25.2882C55.2117 25.28 55.1698 25.0154 55.086 24.9824C55.0021 24.5773 54.9015 24.1722 54.8008 23.7671C54.675 23.2133 54.5325 22.7834 54.3732 22.4196C54.4402 22.1386 54.0629 21.6591 53.9455 21.0804C53.6772 20.2289 53.4759 19.923 53.2914 19.3278C53.1069 18.774 52.9392 18.65 52.7463 18.187C52.5535 17.7571 52.3438 17.3355 52.1342 16.9222C52.0168 16.7155 51.8826 16.4096 51.7987 16.3848C51.1111 15.1531 50.9686 15.0291 50.1887 13.8717C50.1132 13.789 50.0294 13.6733 49.9371 13.5658C49.8197 13.6402 49.6604 13.665 49.5094 13.5824C49.3753 13.508 49.2495 13.4088 49.1237 13.3013C48.9644 13.1938 48.7966 13.0864 48.6709 12.9458C48.6122 12.8797 48.5702 12.797 48.5535 12.7061C48.4864 12.6234 48.4193 12.5407 48.369 12.4581C48.26 12.301 48.3103 12.1109 48.4193 11.9786C47.8574 11.5653 47.304 11.1436 46.7505 10.722C46.6583 10.7468 46.5493 10.7468 46.4403 10.689C45.9958 10.474 45.6268 10.2343 45.283 9.96148C44.7547 9.64734 44.2264 9.358 43.6981 9.05213C44.0168 9.29187 43.9916 9.21747 44.1761 9.34974C44.1929 9.37454 44.1509 9.37454 44.2683 9.4572C44.4361 9.52334 44.7715 9.90362 44.9811 10.0028L45.4172 10.3996C45.3585 10.2591 45.6939 10.598 45.8784 10.7882C45.9455 10.8543 46.0042 10.9122 46.0042 10.8791C46.2055 11.1602 46.5325 11.3503 46.9182 11.8463C47.5807 12.6647 47.6562 12.7557 48.2516 13.6072C48.2935 13.4749 48.4696 13.8386 48.5199 13.9626C48.5702 13.9544 48.6205 13.9626 48.7379 14.1858L48.7044 14.2024C48.7379 14.4091 49.2075 15.0952 49.4004 15.5003C49.5094 15.6904 49.6352 15.988 49.7023 16.0128C49.7945 16.1616 49.8868 16.3022 49.9706 16.3848C50.2474 16.7899 50.7589 17.9473 50.8428 18.2614C51.1195 18.683 51.3962 19.6502 51.6394 20.3364C51.7568 20.7828 51.891 20.8159 51.9916 21.3119C52.2935 22.2791 52.5786 23.1802 52.7715 24.321L52.7966 24.4698C52.8805 24.7178 52.8805 25.3296 53.0147 25.3378L53.0398 25.4866C53.1237 26.024 53.1992 26.5531 53.2662 27.0904L53.3585 27.9667C53.6017 29.9425 53.6101 31.6868 53.5094 33.3815C53.4843 33.7204 53.4591 34.0594 53.4256 34.3983C53.5262 34.7538 53.174 35.4151 53.3166 35.845C53.2495 36.2749 53.174 36.6965 53.0901 37.1264C52.8805 38.3912 52.696 38.7054 52.5115 39.6395C52.4193 39.9041 52.3354 40.1769 52.2348 40.4414C52.0922 41.0449 51.7987 41.7476 51.3375 42.6569L51.1447 43.0289C50.8344 43.5828 50.5325 44.054 50.2893 44.4343C49.9455 44.9138 49.6688 45.3354 49.2746 45.8562C48.914 46.3109 48.2432 46.9888 47.9413 47.3938C47.153 48.237 46.8008 48.6008 46.2222 49.1795L45.8952 49.4688C45.4256 49.8326 44.696 50.436 44.218 50.899C43.631 51.3123 43.3543 51.6347 42.6667 52.0233C42.0042 52.4449 41.3836 52.8169 40.9057 53.1476C40.3857 53.4534 39.4717 53.7841 39.1614 54.0156L38.4654 54.2967C38.0964 54.4455 37.6604 54.6025 37.4759 54.6191L37.4843 54.6935C37.2998 54.7596 37.3501 54.6687 37.1908 54.7183C37.1992 54.7513 37.0818 54.8009 37.0566 54.834C36.1761 55.0737 34.8847 55.4871 33.8365 55.6855C33.5765 55.7434 32.9644 55.7847 32.9392 55.8508C32.3857 55.9252 31.8323 55.9748 31.2788 56.0162L30.9769 56.0327C30.6415 56.1071 29.8616 56.0906 29.2998 56.0906C28.956 56.1319 28.1845 56.074 27.6226 56.0327L27.1698 55.9914C26.5493 55.95 25.8281 55.8591 25.0566 55.702C24.1593 55.5036 23.6897 55.4458 22.826 55.1895L22.5325 55.1068C22.1887 55.0076 21.9623 54.9663 21.5094 54.8009L20.9224 54.5612C19.7736 54.1479 18.3396 53.5113 17.3333 52.9078C17.2243 52.85 17.0734 52.759 17.0566 52.7756C16.6625 52.5441 16.2767 52.3043 15.8994 52.0563C15.3962 51.7505 14.8679 51.4033 14.2725 50.932C13.9958 50.7171 13.7275 50.4939 13.4507 50.2707L13.1069 49.9731C12.8134 49.7995 12.2683 49.2539 11.8658 48.8653C11.2788 48.2453 10.935 48.0056 10.3899 47.3525L10.0964 47.0135C9.87002 46.7407 9.65199 46.4762 9.43396 46.1951C9.13208 45.9802 8.57023 45.0295 8.28512 44.7898C8.05031 44.3434 7.68973 43.93 7.22851 43.1529L7.07757 42.8967C6.80922 42.5577 6.51572 42.0204 6.23899 41.483C6.18868 41.4665 6.13836 41.5161 6.07128 41.3921C6.04612 41.0118 5.34172 39.9785 5.3501 39.7552C5.2327 39.4824 5.42558 39.532 5.22432 39.1766L5.0566 39.2262L4.88889 38.8128C4.51153 38.0192 3.93291 36.4981 3.73166 35.4399L3.67296 35.4482L3.49686 34.729C3.39623 34.481 3.39623 33.8692 3.25367 33.8692C3.09434 33.1087 3.16981 33.0012 3.01048 32.4143C2.99371 32.3233 2.97694 32.2407 2.91824 32.2737C2.90147 32.0836 2.97694 32.0671 2.93501 31.8273C2.826 31.6455 2.80084 31.1908 2.77568 30.8022L2.7673 30.6534C2.68344 30.2236 2.67505 30.1988 2.73375 29.7689C2.71698 29.5953 2.74214 29.3555 2.65828 29.3225C2.63312 28.5537 2.74214 27.6691 2.67505 27.107C2.67505 26.4952 2.7086 26.5944 2.80922 25.9331C2.73375 25.7264 2.83438 25.28 2.90147 24.8997L3.01887 24.321C3.22013 23.6101 3.22013 23.1885 3.38784 22.585C3.60587 21.841 3.67296 21.2705 4.05031 20.4687L4.16771 20.1959C4.24319 19.9892 4.40252 19.7081 4.33543 19.6089C4.53669 19.1377 4.74633 18.6748 4.96436 18.2449L5.09015 17.9803C5.16562 17.443 5.60168 17.1619 5.65199 16.7568L5.72746 16.6246C6.05451 16.3683 6.13836 15.5416 6.68344 14.9381C7.0608 14.3595 7.54717 13.7725 7.75681 13.3178L7.84906 13.2021C8.20964 12.7557 8.55346 12.3589 8.74633 12.0034L8.84696 11.8959C9.29979 11.7802 9.61845 10.7799 10.1384 10.6642L10.0797 10.6063L10.7338 9.99455L11.4046 9.4076C11.9413 9.05213 12.0252 8.63052 12.3774 8.72972C12.6289 8.29158 12.7799 8.30811 13.2495 7.8865C13.2914 7.95264 13.5178 7.82037 13.4927 7.7129C14.0713 7.31609 14.6583 6.94408 15.2621 6.59687L15.2285 6.52247C15.631 6.25793 15.7484 6.38193 16.1845 6.09259C16.4025 5.92726 17.0063 5.77845 16.956 5.61311C17.3166 5.43951 17.6771 5.26591 18.0461 5.1171C18.8512 4.71203 19.2537 4.63763 20.2851 4.25735C20.7715 4.03414 20.6289 4.12508 21.1237 3.91014C21.1321 4.04241 22.0377 3.7696 21.9958 3.66214C22.4486 3.65387 22.6164 3.4472 23.3124 3.348C23.5556 3.29013 23.7987 3.24053 24.0503 3.19919C24.7883 3.07519 25.4088 2.95119 25.979 2.81892C26.0713 2.82718 26.5577 2.92639 26.5744 2.75278C26.8763 2.72798 27.1698 2.68665 27.4717 2.67011L27.6226 2.66185C28.3774 2.60398 29.1321 2.58744 29.8784 2.57918C30.9266 2.47997 31.1698 2.60398 32.4528 2.60398C32.805 2.62878 33.1572 2.67011 33.501 2.71145L33.652 2.72798C33.9455 2.68665 34.3899 2.87678 34.8679 2.83545C34.8931 2.98425 35.5975 2.97599 35.891 3.07519C36.0419 3.10826 36.0839 3.06692 36.2096 3.07519C36.6038 3.14959 36.9979 3.24879 37.392 3.33973C37.9371 3.45546 38.6667 3.72 39.0189 3.72C39.0105 3.75307 39.0105 3.78614 39.1447 3.81094C39.7233 3.94321 40.6038 4.20775 41.6017 4.60456L41.8868 4.71203C42.3312 4.88563 42.8931 5.1667 43.1614 5.20804L43.2956 5.27417C43.6562 5.50565 44.6122 5.85285 45.3249 6.291L45.4591 6.3654C45.9623 6.66301 46.4319 6.91928 46.7924 7.10115C46.9182 7.18382 46.9686 7.17555 47.0776 7.23342C47.0776 7.44009 47.9497 7.75423 48.4444 8.18411C48.5702 8.27504 48.5702 8.30811 48.6709 8.38251C48.7212 8.38251 48.805 8.43211 48.9476 8.53958C49.1237 8.68012 49.4004 8.87026 49.4088 8.92813C49.4004 8.99426 49.1992 8.84546 49.0901 8.80412C49.3333 8.97773 49.2998 9.0108 49.4088 9.11C49.6939 9.17613 49.5514 9.14306 49.9119 9.4572C50.1048 9.48201 49.9706 9.3828 50.2893 9.54814C50.5577 9.77135 50.7421 9.92015 50.8931 10.0194C50.8679 10.0359 51.1866 10.3087 51.2369 10.317C51.673 10.7386 51.7987 10.8047 51.9832 11.0527C51.8994 10.8295 52.5786 11.5405 52.6792 11.6727C53.0985 12.1439 52.0503 11.1023 52.4025 11.4826C52.6625 11.7223 52.8218 11.8877 52.9308 12.0199C53.0482 12.2431 53.8029 12.9872 54.0545 13.1773C53.543 12.5903 53.0482 11.9869 52.5786 11.3668C52.5031 11.2676 52.4948 11.1602 52.5199 11.061C52.1174 10.6228 51.6981 10.2012 51.2453 9.79615C51.0021 9.58121 50.6499 9.4324 50.8763 9.3084C50.6415 9.0604 50.2054 8.67185 50.0294 8.54785L49.5178 7.46489L49.0314 7.05155C48.8721 6.91101 47.8826 6.86141 47.7149 6.72914C46.7421 6.01819 46.4151 5.13364 45.2243 4.43922C44.9476 4.28215 44.3103 4.08375 44.0252 3.92668L44.3354 4.53016C43.8071 4.33175 42.0126 2.74451 40.9057 2.30637C40.6457 2.1989 40.4361 2.13277 40.2851 2.11623C40.0335 1.9509 39.1447 1.72769 38.457 1.47142L37.9958 1.32261C37.4256 1.15728 36.8553 0.99194 36.2767 0.851404C35.8239 0.743934 35.2453 0.578597 34.9937 0.619932C33.9287 0.363659 32.327 0.173521 30.8008 0.0495181C30.4235 -8.30334e-05 30.1635 0.0164507 29.9707 0.0660518L29.8113 0.057785C29.4256 -0.0827516 28.8637 0.0825856 27.8407 0.0412513L27.1866 0.0660518C26.5744 0.231389 26.0545 -8.30272e-05 25.543 0.239656C24.6038 0.363659 24.2935 0.272723 23.5807 0.487662C23.2201 0.429794 22.6834 0.586864 22.608 0.661266L22.4486 0.694333C22.0126 0.768735 21.5849 0.876204 21.1572 0.975406C20.8386 1.05807 20.5199 1.14901 20.1929 1.23995C20.2516 1.43835 20.1761 1.68636 19.9245 1.77729C18.9434 2.14103 17.9958 2.57918 17.0482 3.00905C16.9979 3.06692 16.9392 3.12479 16.847 3.14959C16.2767 3.348 15.74 3.63734 15.1698 3.83574C14.9937 3.89361 14.8428 3.81921 14.7505 3.70347C14.2642 4.00108 13.8113 4.37309 13.3585 4.73683C13.4172 4.9435 13.3501 5.17497 13.0818 5.21631C13.0231 5.22457 12.9644 5.24937 12.914 5.25764C13.2998 5.36511 13.4088 5.97686 12.9476 6.04299C12.8973 6.05126 12.8553 6.06779 12.805 6.09259C12.7547 6.13393 12.6876 6.17526 12.6289 6.20833C12.5954 6.23313 12.5618 6.24966 12.5199 6.2662C11.9665 6.64647 11.3711 6.99368 10.8931 7.44836C10.499 7.8121 9.80293 7.6137 10.1971 7.24995C10.6751 6.80354 11.0776 7.24995 11.6226 6.87794C11.6646 6.79528 12.3857 6.30753 12.5199 6.27446C12.587 6.22486 12.7547 5.64618 12.8218 5.59658C12.6373 5.58831 12.0671 5.23284 12.0335 5.0675L12.914 5.26591C12.0335 5.0675 10.8595 6.01819 10.5744 6.09259C9.55975 6.98541 8.34381 8.01877 7.26205 9.15133C6.66667 10.0111 6.02935 10.6476 5.37526 11.4909C5.16562 11.7141 5.06499 11.8877 4.98113 12.0613C5.174 11.9786 5.37526 11.9125 5.59329 11.8629C5.92034 11.7885 6.16352 12.0613 6.10482 12.3671C6.10482 12.3754 6.09644 12.3919 6.09644 12.4002C6.28931 12.4002 6.46541 12.5407 6.51572 12.7143C6.75891 12.7805 6.9434 13.0285 6.75891 13.293C4.96436 15.8227 4.19287 18.807 2.84277 21.5599C2.60797 22.0476 1.91195 21.6178 2.12159 21.1465C2.54088 20.1793 2.91824 19.2286 3.19497 18.2118C3.50524 17.2694 3.75681 16.3104 4.20964 15.4341C3.91614 15.4507 3.59748 15.1035 3.79874 14.8059C4.20964 14.2024 4.71279 13.6072 5.03145 12.9458C4.69602 13.1029 4.38574 13.3096 4.07547 13.5328C3.77358 14.0618 3.59748 14.4504 3.08595 15.3349L3.01048 15.4755C2.77568 16.1534 2.50734 16.3683 2.27254 17.1454C2.23061 17.1206 2.13836 17.2281 2.20545 17.3025C1.87841 18.0134 1.69392 18.5094 1.40881 19.2204C1.50105 19.5014 1.06499 19.9561 1.19078 20.0305L1.14046 20.1876C0.536688 22.0311 0.259958 23.8002 0.159329 25.5445C0.109015 25.9744 0.067086 26.4125 0.0419287 26.8507C0.0167715 27.2392 0.00838574 27.6195 0 27.9998C0.1174 29.4134 0.0587002 30.4137 0.39413 31.5876C0.436059 31.91 0.477987 32.2324 0.528302 32.5465C0.486373 32.5548 0.45283 32.5713 0.486373 32.7119C0.595388 32.7367 0.612159 33.0922 0.67086 33.3484L0.704403 33.5055C0.922432 34.2082 1.13208 35.1093 1.40042 36.0021L1.59329 36.6138C1.71069 36.9776 1.85325 37.0437 1.97065 37.5149C2.06289 37.7629 2.15514 38.0192 2.25577 38.2589C2.37317 38.4656 2.50734 39.036 2.62474 38.9864C3.03564 40.0942 3.77358 41.111 4.03354 41.6814C4.13417 41.8137 4.26834 42.1196 4.36897 42.2684C4.47799 42.0452 4.77149 41.9212 5.02306 42.1526C5.04822 42.1774 5.07338 42.2022 5.10692 42.227C5.21593 42.1609 5.3501 42.1444 5.47589 42.2105C5.49266 42.2105 5.50105 42.194 5.51782 42.194C5.42558 42.0865 5.33333 41.9708 5.24109 41.8633C5.12369 41.8468 5.00629 41.7972 4.92243 41.6897C4.53669 41.1937 4.19287 40.7307 3.9413 40.1686C3.91614 40.1107 3.90776 40.0529 3.89937 40.0033C3.13627 39.1352 2.23061 38.3582 2.06289 37.0685C1.99581 36.5394 2.83438 36.5477 2.90147 37.0685C3.03564 38.1267 3.80713 38.8542 4.51992 39.6147C4.57023 39.6478 4.62054 39.6891 4.66247 39.747C4.7044 39.8049 4.74633 39.8545 4.78826 39.9123C4.9979 40.1521 5.19916 40.4083 5.35849 40.6729C5.74423 41.1689 6.14675 41.6649 6.55765 42.1444C6.72537 42.3428 5.50105 40.5241 5.35849 40.6729C5.39203 40.7969 6.52411 42.9793 6.44864 43.0785C6.96855 43.7812 7.4717 44.4839 7.8826 45.261C7.91614 45.3271 7.92453 45.3932 7.92453 45.4594C8.15094 45.757 8.37736 46.0546 8.587 46.3687C8.72117 46.5754 8.63732 46.7821 8.47799 46.8895C8.77987 47.1376 9.08176 47.3938 9.35849 47.6666C9.57652 47.8816 9.47589 48.1544 9.28302 48.2866C9.87841 48.8488 10.3564 49.2952 11.2537 50.0723C11.7484 50.4526 11.6394 50.3699 12.109 50.775C12.5702 51.0808 13.283 51.643 13.9119 52.0563C14.0713 52.1638 14.2809 52.3043 14.3312 52.2961C14.6331 52.5523 15.3962 52.9492 16.0755 53.3625L16.2096 53.4369C16.4612 53.5609 16.9979 53.8998 17.0566 53.8585C17.5681 54.1231 18.0881 54.3711 18.6164 54.6025C18.8344 54.6935 19.1447 54.834 19.2117 54.834C19.6394 55.0159 20.0839 55.1647 20.5199 55.3217C20.5115 55.3217 20.4948 55.3135 20.478 55.3052C20.4948 55.3135 20.5031 55.3135 20.5199 55.3217C20.8218 55.4292 21.1153 55.5532 21.4172 55.6524C21.7778 55.7599 22.4906 56.0162 22.6331 55.9914C22.8847 56.0658 23.1363 56.1319 23.3962 56.1898C23.9581 56.3468 24.1426 56.3386 24.6373 56.446L25.4088 56.5948C25.8532 56.6692 26.4235 56.7684 26.6583 56.7684L26.8176 56.7932C27.3878 56.8594 27.9665 56.9255 28.5367 56.9586L28.696 56.9669C29.3082 56.9669 29.87 57.0164 30.9099 56.9999H31.0692C31.7904 56.9586 32.9644 56.9255 33.5933 56.7932L33.7526 56.7767C34.7254 56.661 35.1782 56.57 35.782 56.4543L36.2516 56.3634C36.8386 56.2394 37.2159 56.1567 37.3333 56.0906C38.2977 55.8508 39.0105 55.6442 39.4633 55.4458C41.2746 54.8257 42.826 54.0487 44.4864 53.0649C45.1153 52.726 45.4927 52.4283 45.9455 52.0977L46.0797 52.0067C46.4319 51.767 46.7757 51.5273 47.1111 51.271C47.7233 50.7336 48.1761 50.4278 49.1572 49.5019C49.6436 49.0059 50.499 48.3114 50.6834 47.8816C51.0692 47.5674 50.935 47.6253 51.3124 47.1706L51.4214 47.0549C51.9161 46.625 52.2348 46.0298 52.9727 45.0047C53.1405 44.7484 53.2914 44.4756 53.4423 44.2111C53.2579 44.1863 53.0901 44.0623 53.0985 43.8225C53.1069 43.3513 53.1824 42.8884 53.2746 42.442C53.2495 42.3262 53.2746 42.2022 53.3417 42.0948C53.4423 41.6649 53.5514 41.235 53.6688 40.8051C53.5849 40.739 53.5346 40.6481 53.5178 40.5158C53.4088 39.3336 53.7946 38.2259 54.0964 37.1016C54.239 36.5725 54.9769 36.8122 54.9015 37.3248L54.8763 37.5149C54.9015 37.5811 54.9182 37.6555 54.9015 37.7381C54.8092 38.3085 54.7086 38.8707 54.6163 39.4411C54.8344 39.4246 55.0692 39.5568 55.0608 39.8379C55.0524 40.0859 54.9686 40.2347 54.8008 40.4083C54.9015 40.5241 54.9518 40.6977 54.8679 40.8795C54.8512 40.9043 54.8428 40.9374 54.8344 40.9622C54.8428 40.9705 54.8428 40.9787 54.8428 40.987C54.8847 40.863 54.9266 40.739 54.9686 40.6067C54.9686 40.2182 55.2788 39.8627 55.2201 39.5072L55.304 39.2014C55.6981 38.0771 55.8658 36.1013 56.0084 34.1917L56.0168 34.0346C56.0084 32.7367 56 31.9017 55.8994 29.9342ZM7.11111 11.8794C7.26205 11.4909 7.52201 11.1602 7.67296 10.7799C7.85744 10.2839 8.67086 10.4988 8.47799 11.0031C8.32704 11.3917 8.06709 11.7223 7.91614 12.1026C7.73166 12.5903 6.91824 12.3754 7.11111 11.8794ZM55.5975 35.2746C55.5975 35.812 54.7589 35.812 54.7589 35.2746V33.6212C54.7589 33.0839 55.5975 33.0839 55.5975 33.6212V35.2746Z" fill="#161B22"/>
<path d="M32.1667 21H29.6667C28.5616 21 27.5018 21.439 26.7204 22.2204C25.939 23.0018 25.5 24.0616 25.5 25.1667V27.6667H23V31H25.5V37.6667H28.8333V31H31.3333L32.1667 27.6667H28.8333V25.1667C28.8333 24.9457 28.9211 24.7337 29.0774 24.5774C29.2337 24.4211 29.4457 24.3333 29.6667 24.3333H32.1667V21Z" fill="#161B22"/>
</g>
<defs>
<clipPath id="clip0_607_2021">
<rect width="56" height="57" fill="white"/>
</clipPath>
</defs>
</svg>
