<svg width="42" height="43" viewBox="0 0 42 43" fill="none" xmlns="http://www.w3.org/2000/svg">
<path fill-rule="evenodd" clip-rule="evenodd" d="M41.912 22.5806L41.8994 22.3437C41.8994 21.9383 41.7925 21.8884 41.7737 21.5205C41.824 21.2087 41.5284 19.8929 41.3524 19.076C41.3964 19.0698 41.365 18.8702 41.3021 18.8453C41.2392 18.5397 41.1638 18.2341 41.0883 17.9286C40.994 17.5107 40.8871 17.1865 40.7677 16.9121C40.818 16.7001 40.535 16.3384 40.447 15.9018C40.2458 15.2595 40.0949 15.0288 39.9566 14.5798C39.8183 14.162 39.6925 14.0684 39.5479 13.7192C39.4033 13.395 39.2461 13.0769 39.0889 12.7651C39.0009 12.6092 38.9003 12.3785 38.8374 12.3598C38.3219 11.4306 38.215 11.3371 37.6302 10.464C37.5737 10.4017 37.5108 10.3144 37.4416 10.2333C37.3536 10.2894 37.2341 10.3081 37.121 10.2458C37.0204 10.1896 36.926 10.1148 36.8317 10.0337C36.7123 9.95266 36.5865 9.87159 36.4922 9.76558C36.4482 9.71569 36.4168 9.65333 36.4042 9.58474C36.3539 9.52238 36.3036 9.46001 36.2659 9.39765C36.1841 9.27917 36.2219 9.13574 36.3036 9.03596C35.8823 8.72416 35.4674 8.40612 35.0524 8.08809C34.9832 8.10679 34.9015 8.10679 34.8198 8.06314C34.4865 7.901 34.2099 7.72016 33.9521 7.51437C33.556 7.2774 33.1599 7.05914 32.7638 6.8284C33.0027 7.00925 32.9838 6.95313 33.1222 7.0529C33.1347 7.07161 33.1033 7.07161 33.1913 7.13397C33.3171 7.18386 33.5686 7.47072 33.7257 7.54555L34.0527 7.84488C34.0087 7.73887 34.2602 7.99454 34.3985 8.13797C34.4488 8.18786 34.4928 8.23151 34.4928 8.20657C34.6437 8.4186 34.8889 8.56202 35.1781 8.93619C35.6749 9.55356 35.7314 9.62215 36.1778 10.2645C36.2093 10.1647 36.3413 10.4391 36.379 10.5326C36.4168 10.5264 36.4545 10.5326 36.5425 10.701L36.5174 10.7135C36.5425 10.8694 36.8946 11.387 37.0392 11.6925C37.121 11.8359 37.2153 12.0604 37.2656 12.0792C37.3347 12.1914 37.4039 12.2974 37.4668 12.3598C37.6743 12.6653 38.0578 13.5384 38.1207 13.7754C38.3281 14.0934 38.5356 14.823 38.718 15.3406C38.806 15.6773 38.9066 15.7023 38.982 16.0765C39.2084 16.8061 39.4222 17.4858 39.5668 18.3464L39.5856 18.4586C39.6485 18.6457 39.6485 19.1072 39.7491 19.1134L39.768 19.2257C39.8308 19.631 39.8874 20.0301 39.9377 20.4355L40.0069 21.0965C40.1892 22.5869 40.1955 23.9027 40.1201 25.1811C40.1012 25.4368 40.0823 25.6924 40.0572 25.9481C40.1326 26.2163 39.8686 26.7151 39.9755 27.0394C39.9252 27.3637 39.8686 27.6817 39.8057 28.006C39.6485 28.9601 39.5102 29.1971 39.3719 29.9018C39.3027 30.1013 39.2398 30.3071 39.1644 30.5067C39.0575 30.9619 38.8374 31.492 38.4916 32.1779L38.347 32.4585C38.1144 32.8764 37.888 33.2318 37.7057 33.5187C37.4479 33.8804 37.2404 34.1984 36.9449 34.5913C36.6745 34.9343 36.1716 35.4456 35.9452 35.7512C35.3542 36.3873 35.0901 36.6616 34.6563 37.0982L34.4111 37.3164C34.059 37.5908 33.512 38.046 33.1536 38.3953C32.7135 38.7071 32.506 38.9503 31.9904 39.2434C31.4937 39.5614 31.0284 39.842 30.6701 40.0915C30.2802 40.3222 29.5949 40.5716 29.3623 40.7462L28.8404 40.9583C28.5638 41.0705 28.2368 41.189 28.0985 41.2015L28.1048 41.2576C27.9665 41.3075 28.0042 41.2389 27.8847 41.2763C27.891 41.3013 27.803 41.3387 27.7841 41.3636C27.124 41.5445 26.1557 41.8563 25.3698 42.0059C25.1748 42.0496 24.7159 42.0808 24.697 42.1306C24.282 42.1868 23.8671 42.2242 23.4521 42.2554L23.2257 42.2678C22.9743 42.324 22.3895 42.3115 21.9683 42.3115C21.7105 42.3427 21.132 42.299 20.7108 42.2678L20.3713 42.2367C19.906 42.2055 19.3653 42.1369 18.7868 42.0184C18.1141 41.8687 17.762 41.8251 17.1144 41.6318L16.8943 41.5694C16.6365 41.4946 16.4668 41.4634 16.1272 41.3387L15.6871 41.1578C14.8257 40.846 13.7506 40.3658 12.9961 39.9106C12.9144 39.867 12.8012 39.7984 12.7886 39.8108C12.4931 39.6362 12.2039 39.4554 11.921 39.2683C11.5437 39.0376 11.1476 38.7757 10.7012 38.4202C10.4937 38.2581 10.2925 38.0897 10.085 37.9213L9.82725 37.6968C9.60719 37.5659 9.1985 37.1543 8.89671 36.8612C8.45659 36.3935 8.1988 36.2126 7.79012 35.72L7.57006 35.4643C7.4003 35.2585 7.23683 35.059 7.07335 34.8469C6.84701 34.6848 6.42575 33.9677 6.21198 33.7868C6.03593 33.4501 5.76557 33.1383 5.41976 32.5521L5.30659 32.3588C5.10539 32.1031 4.88533 31.6977 4.67784 31.2924C4.64012 31.2799 4.6024 31.3173 4.5521 31.2238C4.53323 30.9369 4.00509 30.1574 4.01138 29.9891C3.92335 29.7833 4.06796 29.8207 3.91707 29.5525L3.79132 29.59L3.66557 29.2782C3.38263 28.6795 2.9488 27.5321 2.7979 26.7339L2.75389 26.7401L2.62186 26.1976C2.54641 26.0105 2.54641 25.549 2.43952 25.549C2.32006 24.9753 2.37665 24.8942 2.25719 24.4515C2.24461 24.3829 2.23204 24.3205 2.18802 24.3455C2.17545 24.202 2.23204 24.1895 2.2006 24.0087C2.11886 23.8715 2.1 23.5285 2.08114 23.2354L2.07485 23.1232C2.01198 22.7989 2.00569 22.7802 2.0497 22.4559C2.03713 22.325 2.05599 22.1441 1.99311 22.1192C1.97425 21.5392 2.05599 20.872 2.00569 20.4479C2.00569 19.9865 2.03084 20.0613 2.10629 19.5624C2.0497 19.4065 2.12515 19.0698 2.17545 18.7829L2.26347 18.3464C2.41437 17.8101 2.41437 17.492 2.54012 17.0368C2.70359 16.4756 2.75389 16.0453 3.03683 15.4404L3.12485 15.2346C3.18144 15.0787 3.3009 14.8667 3.2506 14.7918C3.4015 14.4364 3.55868 14.0872 3.72216 13.7629L3.81647 13.5633C3.87305 13.158 4.2 12.946 4.23772 12.6404L4.29431 12.5406C4.53952 12.3473 4.6024 11.7237 5.01108 11.2685C5.29401 10.8319 5.65868 10.3892 5.81587 10.0462L5.88503 9.9589C6.15539 9.62215 6.41317 9.32282 6.55778 9.05467L6.63323 8.9736C6.97275 8.8863 7.21168 8.13174 7.6015 8.04443L7.55749 8.00078L8.0479 7.53931L8.5509 7.09655C8.95329 6.8284 9.01617 6.51037 9.28024 6.5852C9.46886 6.25469 9.58204 6.26716 9.93413 5.94912C9.96557 5.99901 10.1353 5.89923 10.1165 5.81817C10.5503 5.51884 10.9904 5.23821 11.4431 4.9763L11.418 4.92018C11.7198 4.72062 11.8078 4.81416 12.1347 4.5959C12.2982 4.47118 12.7509 4.35893 12.7132 4.23421C12.9835 4.10325 13.2539 3.9723 13.5305 3.86005C14.1341 3.55448 14.4359 3.49836 15.2093 3.2115C15.574 3.04313 15.4671 3.11172 15.838 2.94959C15.8443 3.04936 16.5234 2.84357 16.4919 2.7625C16.8314 2.75627 16.9572 2.60037 17.479 2.52553C17.6614 2.48188 17.8437 2.44447 18.0323 2.41329C18.5856 2.31975 19.0509 2.2262 19.4784 2.12643C19.5476 2.13266 19.9123 2.2075 19.9249 2.07654C20.1512 2.05783 20.3713 2.02665 20.5976 2.01418L20.7108 2.00794C21.2766 1.96429 21.8425 1.95182 22.4021 1.94558C23.188 1.87075 23.3704 1.96429 24.3323 1.96429C24.5964 1.983 24.8605 2.01418 25.1183 2.04536L25.2314 2.05783C25.4515 2.02665 25.7847 2.17008 26.1431 2.1389C26.162 2.25115 26.6901 2.24491 26.9102 2.31975C27.0234 2.34469 27.0548 2.31351 27.1491 2.31975C27.4446 2.37587 27.7401 2.4507 28.0356 2.5193C28.4443 2.6066 28.9913 2.80616 29.2554 2.80616C29.2491 2.8311 29.2491 2.85605 29.3497 2.87475C29.7835 2.97453 30.4437 3.17408 31.1919 3.47341L31.4057 3.55448C31.7389 3.68544 32.1602 3.89746 32.3614 3.92864L32.462 3.97853C32.7323 4.15314 33.4491 4.41506 33.9835 4.74557L34.0841 4.80169C34.4614 5.02619 34.8135 5.21951 35.0838 5.3567C35.1781 5.41906 35.2159 5.41282 35.2976 5.45648C35.2976 5.61238 35.9515 5.84935 36.3225 6.17362C36.4168 6.24222 36.4168 6.26716 36.4922 6.32329C36.5299 6.32329 36.5928 6.3607 36.6997 6.44177C36.8317 6.54778 37.0392 6.69121 37.0455 6.73486C37.0392 6.78475 36.8883 6.6725 36.8066 6.64132C36.9889 6.77228 36.9638 6.79722 37.0455 6.87206C37.2593 6.92195 37.1524 6.897 37.4228 7.13397C37.5674 7.15268 37.4668 7.07785 37.7057 7.20257C37.9069 7.37094 38.0452 7.48319 38.1584 7.55802C38.1395 7.57049 38.3784 7.77628 38.4162 7.78252C38.7431 8.10056 38.8374 8.15045 38.9757 8.33753C38.9129 8.16915 39.4222 8.70545 39.4976 8.80523C39.812 9.16068 39.026 8.37494 39.2901 8.6618C39.485 8.84265 39.6045 8.96737 39.6862 9.06714C39.7743 9.23552 40.3401 9.79676 40.5287 9.94019C40.1452 9.49743 39.7743 9.0422 39.4222 8.5745C39.3656 8.49966 39.3593 8.4186 39.3781 8.34376C39.0763 8.01325 38.762 7.69521 38.4225 7.38965C38.2401 7.22751 37.976 7.11526 38.1458 7.02172C37.9698 6.83464 37.6428 6.54155 37.5108 6.44801L37.1272 5.63108L36.7626 5.31928C36.6431 5.21327 35.9012 5.17585 35.7755 5.07608C35.0461 4.53978 34.8009 3.87252 33.9081 3.34869C33.7006 3.23021 33.2228 3.08054 33.009 2.96206L33.2416 3.41729C32.8455 3.26762 31.5 2.0703 30.6701 1.73979C30.4751 1.65872 30.318 1.60884 30.2048 1.59636C30.0162 1.47164 29.3497 1.30327 28.8341 1.10995L28.4883 0.997704C28.0608 0.872983 27.6332 0.748262 27.1994 0.64225C26.8599 0.561181 26.426 0.43646 26.2374 0.467641C25.4389 0.274323 24.238 0.130894 23.0937 0.0373536C22.8108 -6.26356e-05 22.6159 0.0124095 22.4713 0.0498257L22.3518 0.0435897C22.0626 -0.0624231 21.6413 0.0622978 20.8743 0.0311176L20.3838 0.0498257C19.9248 0.174547 19.535 -6.2631e-05 19.1515 0.180783C18.4473 0.274323 18.2147 0.205727 17.6802 0.367864C17.4099 0.324212 17.0075 0.442696 16.9509 0.498821L16.8314 0.523765C16.5045 0.579889 16.1838 0.660958 15.8632 0.73579C15.6243 0.798151 15.3853 0.866747 15.1401 0.935344C15.1841 1.08501 15.1275 1.27209 14.9389 1.34069C14.2033 1.61507 13.4928 1.94558 12.7823 2.26986C12.7446 2.31351 12.7006 2.35716 12.6314 2.37587C12.2039 2.52553 11.8015 2.7438 11.374 2.89346C11.2419 2.93711 11.1287 2.88099 11.0596 2.79368C10.6949 3.01818 10.3554 3.2988 10.0159 3.57319C10.0599 3.72909 10.0096 3.9037 9.80838 3.93488C9.76437 3.94112 9.72036 3.95982 9.68263 3.96606C9.97186 4.04713 10.0536 4.5086 9.70778 4.55848C9.67006 4.56472 9.63862 4.57719 9.6009 4.5959C9.56317 4.62708 9.51287 4.65826 9.46886 4.68321C9.44371 4.70191 9.41856 4.71439 9.38713 4.72686C8.97216 5.01372 8.52575 5.27563 8.16737 5.61861C7.87186 5.893 7.35 5.74333 7.64551 5.46895C8.00389 5.1322 8.30569 5.46895 8.71437 5.18833C8.74581 5.12596 9.28653 4.75804 9.38713 4.73309C9.43743 4.69568 9.56317 4.25915 9.61347 4.22174C9.47515 4.2155 9.04761 3.94735 9.02246 3.82263L9.68263 3.9723C9.02245 3.82263 8.14222 4.53978 7.92844 4.5959C7.16766 5.26939 6.25599 6.0489 5.44491 6.90324C4.9985 7.55179 4.52066 8.03196 4.03024 8.66804C3.87305 8.83641 3.7976 8.96737 3.73473 9.09832C3.87934 9.03596 4.03024 8.98608 4.19371 8.94866C4.43892 8.89254 4.62126 9.09832 4.57725 9.32906C4.57725 9.33529 4.57096 9.34777 4.57096 9.354C4.71557 9.354 4.8476 9.46001 4.88533 9.59097C5.06766 9.64086 5.20599 9.82794 5.06766 10.0275C3.72216 11.9357 3.14371 14.1869 2.13144 16.2635C1.95539 16.6315 1.43353 16.3072 1.59072 15.9517C1.90509 15.2221 2.18802 14.505 2.39551 13.7379C2.62814 13.027 2.81677 12.3036 3.15629 11.6426C2.93623 11.6551 2.69731 11.3932 2.8482 11.1687C3.15629 10.7135 3.53353 10.2645 3.77246 9.76558C3.52096 9.88407 3.28832 10.04 3.05569 10.2083C2.82934 10.6074 2.69731 10.9005 2.31377 11.5678L2.25719 11.6738C2.08114 12.1852 1.87994 12.3473 1.70389 12.9335C1.67246 12.9148 1.60329 12.9959 1.65359 13.052C1.40838 13.5883 1.27006 13.9624 1.05629 14.4987C1.12545 14.7108 0.798503 15.0537 0.892814 15.1099L0.85509 15.2284C0.402395 16.619 0.19491 17.9535 0.119461 19.2693C0.0817365 19.5936 0.0502994 19.9241 0.0314371 20.2546C0.0125749 20.5477 0.00628743 20.8346 0 21.1214C0.088024 22.1878 0.044012 22.9423 0.295509 23.8279C0.326946 24.0711 0.358383 24.3143 0.396108 24.5512C0.364671 24.5575 0.339521 24.5699 0.364671 24.676C0.446407 24.6947 0.458982 24.9628 0.502994 25.1561L0.528144 25.2746C0.691617 25.8047 0.848802 26.4844 1.05 27.1579L1.19461 27.6194C1.28263 27.8938 1.38952 27.9436 1.47754 28.2991C1.54671 28.4862 1.61587 28.6795 1.69132 28.8603C1.77934 29.0162 1.87994 29.4465 1.96796 29.4091C2.27605 30.2447 2.82934 31.0118 3.02425 31.4421C3.0997 31.5418 3.2003 31.7726 3.27575 31.8848C3.35749 31.7165 3.57754 31.6229 3.76617 31.7975C3.78503 31.8162 3.80389 31.8349 3.82904 31.8536C3.91078 31.8038 4.01138 31.7913 4.10569 31.8412C4.11826 31.8412 4.12455 31.8287 4.13713 31.8287C4.06796 31.7476 3.9988 31.6603 3.92964 31.5793C3.84162 31.5668 3.75359 31.5294 3.69072 31.4483C3.4015 31.0741 3.14371 30.7249 2.95509 30.3009C2.93623 30.2572 2.92994 30.2136 2.92365 30.1761C2.3515 29.5214 1.67246 28.9352 1.54671 27.9624C1.49641 27.5632 2.12515 27.5695 2.17545 27.9624C2.27605 28.7606 2.85449 29.3093 3.38892 29.8831C3.42665 29.908 3.46437 29.9392 3.49581 29.9828C3.52725 30.0265 3.55868 30.0639 3.59012 30.1076C3.74731 30.2884 3.8982 30.4817 4.01766 30.6813C4.30689 31.0554 4.60868 31.4296 4.91677 31.7913C5.04252 31.9409 4.12455 30.569 4.01766 30.6813C4.04281 30.7748 4.89162 32.4211 4.83503 32.496C5.22485 33.026 5.6021 33.5561 5.91018 34.1423C5.93533 34.1922 5.94162 34.2421 5.94162 34.2919C6.11138 34.5164 6.28114 34.7409 6.43832 34.9779C6.53892 35.1338 6.47605 35.2897 6.35659 35.3708C6.58293 35.5579 6.80928 35.7512 7.01677 35.957C7.18024 36.1191 7.10479 36.3249 6.96018 36.4247C7.40659 36.8487 7.76497 37.1855 8.43772 37.7717C8.80868 38.0585 8.72695 37.9961 9.07904 38.3017C9.42485 38.5324 9.95928 38.9565 10.4308 39.2683C10.5503 39.3494 10.7075 39.4554 10.7452 39.4491C10.9716 39.6425 11.5437 39.9418 12.053 40.2536L12.1536 40.3097C12.3422 40.4033 12.7446 40.6589 12.7886 40.6278C13.1722 40.8273 13.562 41.0144 13.9581 41.189C14.1216 41.2576 14.3542 41.3636 14.4045 41.3636C14.7251 41.5008 15.0584 41.6131 15.3853 41.7315C15.379 41.7315 15.3665 41.7253 15.3539 41.7191C15.3665 41.7253 15.3728 41.7253 15.3853 41.7315C15.6117 41.8126 15.8317 41.9061 16.0581 41.981C16.3284 42.062 16.8629 42.2554 16.9698 42.2367C17.1584 42.2928 17.347 42.3427 17.5419 42.3863C17.9632 42.5048 18.1015 42.4986 18.4725 42.5796L19.0509 42.6919C19.3841 42.748 19.8117 42.8228 19.9877 42.8228L20.1072 42.8416C20.5347 42.8914 20.9686 42.9413 21.3961 42.9663L21.5156 42.9725C21.9746 42.9725 22.3958 43.0099 23.1754 42.9975H23.2949C23.8356 42.9663 24.7159 42.9413 25.1874 42.8416L25.3069 42.8291C26.0362 42.7418 26.3757 42.6732 26.8284 42.5859L27.1805 42.5173C27.6207 42.4237 27.9036 42.3614 27.9916 42.3115C28.7147 42.1306 29.2491 41.9747 29.5886 41.8251C30.9467 41.3574 32.1099 40.7712 33.3548 40.0291C33.8263 39.7734 34.1093 39.5489 34.4488 39.2995L34.5494 39.2309C34.8135 39.05 35.0713 38.8692 35.3228 38.6759C35.7817 38.2705 36.1213 38.0398 36.8569 37.3414C37.2216 36.9672 37.8629 36.4434 38.0012 36.1191C38.2904 35.8821 38.1898 35.9258 38.4728 35.5828L38.5545 35.4955C38.9254 35.1712 39.1644 34.7222 39.7177 33.949C39.8434 33.7556 39.9566 33.5498 40.0698 33.3503C39.9314 33.3316 39.8057 33.238 39.812 33.0572C39.8183 32.7017 39.8748 32.3525 39.944 32.0158C39.9251 31.9285 39.944 31.8349 39.9943 31.7539C40.0698 31.4296 40.1515 31.1053 40.2395 30.781C40.1766 30.7312 40.1389 30.6626 40.1263 30.5628C40.0446 29.671 40.3338 28.8354 40.5602 27.9873C40.6671 27.5882 41.2204 27.769 41.1638 28.1557L41.1449 28.2991C41.1638 28.349 41.1763 28.4051 41.1638 28.4675C41.0946 28.8978 41.0192 29.3218 40.95 29.7521C41.1135 29.7396 41.2895 29.8394 41.2832 30.0514C41.2769 30.2385 41.2141 30.3508 41.0883 30.4817C41.1638 30.569 41.2015 30.7 41.1386 30.8372C41.126 30.8559 41.1198 30.8808 41.1135 30.8995C41.1198 30.9058 41.1198 30.912 41.1198 30.9182C41.1512 30.8247 41.1826 30.7312 41.2141 30.6314C41.2141 30.3383 41.4467 30.0701 41.4027 29.802L41.4656 29.5713C41.7611 28.7232 41.8868 27.2327 41.9937 25.7922L42 25.6737C41.9937 24.6947 41.9874 24.0648 41.912 22.5806ZM5.33174 8.96113C5.44491 8.66804 5.63982 8.4186 5.75299 8.13174C5.89132 7.75757 6.5012 7.91971 6.35659 8.30011C6.24341 8.59321 6.0485 8.84265 5.93533 9.1295C5.79701 9.49743 5.18713 9.33529 5.33174 8.96113ZM41.6856 26.6091C41.6856 27.0145 41.0569 27.0145 41.0569 26.6091V25.3619C41.0569 24.9566 41.6856 24.9566 41.6856 25.3619V26.6091Z" fill="#161B22"/>
<path d="M19.8428 12.9202L21.1608 30.6506C21.2126 31.3497 23.4457 30.8967 23.3823 30.0689L22.0701 12.3441C22.0183 11.645 19.7852 12.098 19.8485 12.9258L19.8428 12.9202Z" fill="#161B22"/>
<path d="M12.9652 23.8883C18.876 23.0493 24.804 22.2774 30.7378 21.5839C31.1234 21.5391 31.9407 21.3154 32.004 20.8512C32.0673 20.387 31.3652 20.3534 31.0429 20.387C25.109 21.0805 19.1867 21.8524 13.2702 22.6913C12.8846 22.7473 12.0673 22.9542 12.004 23.424C11.9407 23.8939 12.6429 23.933 12.9652 23.8883V23.8883Z" fill="#161B22"/>
</svg>
