<svg width="74" height="25" viewBox="0 0 74 25" fill="none" xmlns="http://www.w3.org/2000/svg">
<path d="M73.9683 10.7422C74.0154 10.8272 74.0101 11.0319 73.9001 11.0007L73.7954 10.6641L73.9683 10.7422Z" fill="#161B22"/>
<path d="M73.3019 11.4348C73.1622 11.2787 72.9928 10.9976 73.047 10.6749C73.1989 10.9941 73.2181 10.8553 73.3857 11.237C73.4957 11.2682 73.5638 11.1121 73.5341 10.9872C73.5795 11.0722 73.6947 10.8987 73.7698 11.1087C73.6528 11.3863 73.4765 11.4106 73.274 11.2058C73.2408 11.2856 73.2879 11.3724 73.3019 11.4348Z" fill="#161B22"/>
<path d="M62.853 12.7168L62.9192 12.6703C62.9031 12.6953 62.8798 12.7097 62.853 12.7168Z" fill="#161B22"/>
<path d="M56.3518 13.2507C56.4025 13.256 56.4235 13.2891 56.4287 13.3206C56.3815 13.3014 56.3431 13.2822 56.3518 13.2507Z" fill="#161B22"/>
<path d="M55.2578 13.6813C55.281 13.6688 55.3025 13.6635 55.3239 13.6545C55.2989 13.6885 55.2739 13.7081 55.2578 13.6813Z" fill="#161B22"/>
<path d="M62.8527 12.7162L62.6851 12.835C62.6676 12.7232 62.7706 12.7476 62.8527 12.7162Z" fill="#161B22"/>
<path d="M71.7896 10.7211C71.828 10.7351 71.8594 10.7648 71.8908 10.8049C71.8594 10.7927 71.8297 10.7822 71.8 10.7753C71.7965 10.7578 71.7948 10.7421 71.7896 10.7211Z" fill="#161B22"/>
<path d="M65.7393 12.8165L65.7916 12.813C65.8091 12.8514 65.8283 12.8985 65.8458 12.9509L65.7393 12.8165Z" fill="#161B22"/>
<path d="M67.9444 12.7172C67.8955 12.7328 67.857 12.443 67.8291 12.3164C67.8658 12.4344 67.906 12.4899 67.9514 12.5089C67.9566 12.5662 67.9548 12.6322 67.9444 12.7172Z" fill="#161B22"/>
<path d="M71.3926 11.9423L71.4587 11.978C71.4426 11.9673 71.4122 11.9566 71.3926 11.9423Z" fill="#161B22"/>
<path d="M64.1686 12.9818C64.1668 13.0255 64.1616 13.0639 64.1546 13.0884C64.1529 13.0517 64.1581 13.0167 64.1686 12.9818Z" fill="#161B22"/>
<path d="M2.65216 10.484C2.65216 10.5055 2.64858 10.5197 2.64858 10.5376C2.63786 10.5054 2.63429 10.484 2.65216 10.484Z" fill="#161B22"/>
<path d="M0 11.7455L0.0331648 11.7629C0.0331648 11.8184 0.0314137 11.8722 0.0279216 11.9277L0 11.7455Z" fill="#161B22"/>
<path d="M53.2344 14.1356C53.2379 14.132 53.2397 14.132 53.2433 14.1302C53.3005 14.1606 53.2683 14.1571 53.2344 14.1356Z" fill="#161B22"/>
<path d="M34.5038 14.2612C34.7168 14.001 34.1598 13.9247 34.4793 13.6349C34.4479 13.7477 34.7675 14.0912 34.5038 14.2612Z" fill="#161B22"/>
<path d="M71.7363 10.7651C71.7066 10.7633 71.6769 10.7633 71.6455 10.7686C71.6857 10.7563 71.7136 10.7546 71.7363 10.7651Z" fill="#161B22"/>
<path d="M34.479 13.6328V13.631L34.5138 13.6018C34.4991 13.6146 34.49 13.6218 34.479 13.6328Z" fill="#161B22"/>
<path d="M48.5293 14.1169C48.538 14.0646 48.5555 14.0244 48.5729 13.986C48.5729 14.0174 48.5625 14.0541 48.5293 14.1169Z" fill="#161B22"/>
<path d="M52.0152 13.5892L51.9297 13.6328C51.9629 13.6049 51.9908 13.5944 52.0152 13.5892Z" fill="#161B22"/>
<path d="M46.7022 13.7556C46.655 13.7801 46.6411 13.8202 46.5747 13.7836C46.5799 13.7679 46.5852 13.7574 46.5939 13.7469C46.6184 13.7871 46.6498 13.8045 46.7022 13.7556Z" fill="#161B22"/>
<path d="M44.8105 13.7942C44.8193 13.7715 44.8332 13.7541 44.8437 13.7349C44.8629 13.7401 44.8839 13.7453 44.9031 13.7488L44.8105 13.7942Z" fill="#161B22"/>
<path d="M8.34995 11.0062C8.30455 11.086 8.27313 11.1745 8.24694 11.2629C8.28885 11.0565 8.01646 10.9663 8.34995 11.0062Z" fill="#161B22"/>
<path d="M71.8022 10.8848C71.7847 10.8114 71.7655 10.7765 71.7358 10.7625C71.7568 10.7643 71.7795 10.7678 71.7987 10.773C71.8092 10.8184 71.8144 10.8586 71.8022 10.8848Z" fill="#161B22"/>
<path d="M46.5696 11.4501L46.271 11.5024C46.3548 11.471 46.4613 11.4536 46.5696 11.4501Z" fill="#161B22"/>
<path d="M21.8377 11.6533L21.7681 11.6158C21.7967 11.6104 21.8199 11.6194 21.8377 11.6533Z" fill="#161B22"/>
<path d="M45.3834 11.4762C45.3328 11.5803 45.2769 11.641 45.2193 11.6809C45.2071 11.6584 45.1913 11.6393 45.1826 11.6064L45.3834 11.4762Z" fill="#161B22"/>
<path d="M8.24463 11.2666C8.24463 11.2639 8.24463 11.2613 8.24463 11.2613C8.24463 11.2613 8.2473 11.2639 8.24463 11.2666Z" fill="#161B22"/>
<path d="M18.2114 10.0149C18.4455 10.0244 18.3004 10.3657 18.3392 10.5705C18.6121 10.6895 18.4828 10.3212 18.5891 10.1482C18.7586 10.253 18.8735 10.5847 19.0041 10.5799C19.0171 10.5228 19.0429 10.5038 19.0185 10.4292C19.1865 10.7213 19.5642 10.4815 19.7595 10.8466C19.7768 10.8165 19.7868 10.7879 19.7926 10.7609C19.748 10.9339 19.7322 11.1133 19.7337 11.2403C19.8385 11.253 19.9161 11.4753 19.9692 11.2483C19.9046 11.2499 19.9046 11.1578 19.8773 11.0832L19.9821 11.1911C20.0985 10.8688 19.8385 11.0673 19.8514 10.8228C20.0597 10.9451 20.2952 11.2355 20.4647 11.1546C20.5164 10.8339 20.0855 11.0197 20.3211 10.7466L20.0597 10.8514C20.2808 10.3562 19.9031 10.8768 20.1114 10.3435C20.4503 10.272 20.4762 10.5355 20.8151 10.4625C20.8811 10.6466 20.7763 10.726 20.8424 10.9101C21.3005 11.2609 21.2574 10.1197 21.5848 10.5705C21.6638 10.7911 21.6782 11.2022 21.9381 11.0006L21.8721 10.6308C22.1981 10.6133 22.0315 11.1672 22.3819 10.9403C22.3287 10.7926 22.1335 10.8038 22.1837 10.7641C22.4178 10.4879 22.3288 10.98 22.4982 10.9895L22.5485 10.6688C22.8903 10.7403 23.2594 10.9959 23.6399 11.0768C23.6227 10.98 23.5624 10.8736 23.6557 10.78C24.1297 10.972 24.6854 10.8006 25.1579 10.6276L25.3245 10.9149C25.3662 10.9133 25.4064 10.7926 25.3633 10.7355C25.5485 10.6387 25.3647 10.9133 25.448 11.0276C25.55 11.0514 25.5902 10.8736 25.5284 10.7863C25.8386 11.0387 26.4188 11.3387 26.7678 11.0561L26.7046 10.9705C26.9717 10.8689 26.9789 11.5562 27.2331 11.3086L27.1886 11.2562C27.7616 11.1625 28.3835 11.4483 28.8315 11.0403C28.9005 11.4451 29.4002 10.8816 29.4203 11.4435C29.7549 11.1768 29.6645 11.0736 30.1283 10.9022C30.2518 10.8816 30.3007 11.2593 30.45 11.3228L30.4615 11.0292L30.6583 11.3434L30.7775 10.9958L30.9168 11.0768C30.8593 11.0927 30.7933 11.2038 30.799 11.2895C31.0173 11.4308 31.3447 11.1054 31.3548 10.9546L31.8718 11.2212C31.8632 11.1022 31.777 11.0593 31.7095 10.9816C31.9809 11.2911 31.7684 10.6736 32.0168 10.9578C31.9809 11.0229 32.0312 11.134 32.0355 11.1927C32.1676 11.0197 32.4592 11.0244 32.6717 11.1038L32.6358 10.9006C33.025 10.8593 33.453 11.0181 33.8896 11.0244C33.7316 11.1149 33.7603 11.4657 33.8867 11.5038L33.9441 11.1942C34.0231 11.3879 33.8077 11.3086 33.9728 11.5467C34.1365 11.5149 34.0892 11.1958 33.9987 11.0926L34.194 11.2054C34.2069 11.1133 34.1624 11.0625 34.1523 10.9451C34.2299 11.1403 34.4999 10.6418 34.6105 10.9799L34.6234 10.8879C35.06 10.8959 35.2553 11.0069 35.61 11.0323C35.6129 11.3006 35.7522 11.2434 35.8556 11.4625C36.1184 11.38 36.4114 11.1736 36.7259 11.2006C36.9456 11.3371 36.7876 11.4276 36.8853 11.5895C36.9054 11.3451 37.2185 11.3721 37.0576 11.1959C37.4353 11.2403 37.5387 11.2514 38.0155 11.4561C37.9624 11.5546 37.9035 11.5975 37.9337 11.6816C38.0198 11.7229 38.1319 11.5816 38.1204 11.4641L38.0974 11.4387C38.6316 11.8117 39.3411 10.745 39.7633 11.2577L39.7389 11.2324L40.1798 11.4974C40.3837 11.4562 40.0591 11.3133 40.2099 11.1625C40.6853 11.5705 40.9653 11.1053 41.3574 11.3768C41.6633 10.6577 42.4373 11.4292 42.8481 10.9705L42.8251 11.1403C42.9314 11.307 42.9529 11.0435 43.0319 11.0054C43.0204 11.1371 42.917 11.1578 42.9831 11.2498C43.8835 11.4562 44.84 10.9879 45.7591 10.8292C46.0951 10.78 45.9587 11.7038 46.3795 11.2959L46.256 10.9816C46.5978 11.1673 46.9468 11.1609 47.2929 11.1467C47.639 11.1292 47.9822 11.1053 48.3183 11.2577C48.2781 11.1863 48.2752 11.0911 48.2106 11.0943C48.3484 10.8625 48.7304 11.072 48.7362 11.2594C48.8396 11.2355 48.7577 11.0911 48.8195 10.9943C48.9588 10.8562 49.1785 11.2784 49.2503 11.0499C49.2618 11.0133 49.2101 10.9768 49.1828 10.9593C49.2762 11.0689 49.6108 10.9228 49.5275 11.1879C49.7759 11.0577 50.0086 11.2958 50.2053 11.1355C50.3418 11.4276 50.6304 10.9848 50.6807 11.4006C50.6534 10.9705 51.1115 11.0451 51.2738 11.2419C51.2178 11.1133 51.4088 11.1022 51.3428 10.9244C51.5237 10.9244 51.6903 10.999 51.6644 11.2212C51.9847 10.6958 52.3423 11.6149 52.5132 10.9482C53.0546 11.1625 53.5558 11.3038 54.0412 11.3895C54.011 10.9609 53.507 11.3641 53.5156 10.9117C53.978 11.0736 54.2523 11.4339 54.7033 11.3165C54.8196 11.2546 54.6315 11.1324 54.5884 11.0609C55.0508 11.2244 55.4702 10.9847 55.8852 11.2038C55.8823 11.1641 55.8378 11.1228 55.7947 11.0911C55.8752 11.1022 55.9786 11.0196 55.9771 11.2149L55.8967 11.1657C55.7775 11.4546 56.2342 11.7434 56.2543 11.8926C56.0992 11.3387 56.6521 11.7356 56.4108 11.0371C56.4654 11.0721 56.5343 11.1609 56.5271 11.2927C56.6047 11.2514 56.6262 11.1736 56.5415 11.0292C56.8316 11.1228 56.7383 11.3355 56.9982 11.3196C56.9939 11.2244 56.9408 11.1911 56.9092 11.0816C57.047 11.2593 57.1863 11.4387 57.4032 11.3498C57.3874 11.2942 57.4103 11.2181 57.3457 11.2228C57.7249 11.2355 58.0078 11.6863 58.4157 11.4895C58.2778 11.0847 58.5507 11.3482 58.5593 10.9927L58.7862 11.0879L58.7043 11.2657C58.8996 11.2482 59.082 11.499 59.2457 11.3736L59.0949 11.2356L59.4626 11.2831L59.2615 11.4292C59.4669 11.6022 59.2586 11.8799 59.5143 11.7672C59.4597 11.7339 59.7096 11.753 59.8029 11.5371C59.8029 11.5371 59.8029 11.5371 59.8029 11.5355C59.9049 11.6434 60.0083 11.7561 60.149 11.6609C60.1821 11.545 60.1017 11.2705 60.1232 11.1927C60.2309 11.4848 60.5842 11.2498 60.7177 11.5594C60.6746 11.4879 60.6632 11.3006 60.6747 11.2625L60.7651 11.499C60.8527 11.4165 60.8642 11.3784 60.8427 11.2308C61.1127 11.172 60.7766 11.6864 61.0911 11.4737C61.0653 11.4562 61.0753 11.4181 61.0208 11.3848C61.3396 11.2657 61.6541 11.5038 61.9471 11.3689C62.0174 11.007 61.6828 11.2959 61.769 10.9879C62.2013 11.0308 62.678 11.3672 63.0902 11.2545L63.0141 11.299C63.0974 11.799 63.3114 11.0292 63.5325 11.253C63.4794 11.2197 63.4507 10.9784 63.4679 11.0323C63.748 10.9323 64.0553 11.1181 64.4947 11.2483L64.4344 11.1229C64.5953 10.9959 64.8725 11.0276 65.0505 10.9561C65.1109 11.0815 65.2143 11.0546 65.1611 11.2466C65.6781 10.4704 66.2497 11.5752 66.7093 10.9196C66.6504 10.9228 66.5613 10.8165 66.6087 10.8133L67.0381 10.9006C67.018 11.1228 66.9907 11.0371 66.9132 11.2149C66.9749 11.3403 67.0999 11.4324 67.2047 11.4244C67.0065 11.2943 67.1846 11.072 67.2593 10.9434C67.2492 11.0117 67.2823 11.0832 67.2794 11.153C67.4762 10.7451 67.344 11.5927 67.6284 11.3054L67.6054 11.1911C67.7217 11.2419 67.8352 11.3863 67.9544 11.3434C67.9888 11.0863 67.8266 11.2339 67.8064 11.026C67.9773 11.0276 68.1727 11.4816 68.312 11.2165C68.2344 11.1514 68.131 11.1577 68.0535 11.0926C68.2028 10.7815 68.2272 10.8562 68.3493 10.799L68.3378 10.8069L68.6178 10.6498L68.5489 10.7371C68.8045 11.3832 68.9912 10.8244 69.3072 11.2356C69.0013 10.8467 69.2454 11.0022 69.2052 10.7165C69.2727 10.6308 69.379 10.5324 69.3417 10.4546C69.4924 10.6768 69.5556 10.2546 69.7696 10.5784C69.7725 10.4847 69.9147 10.5577 69.8673 10.3276C70.0482 10.3863 69.8371 10.4927 69.8587 10.607C70.1531 10.9038 70.4719 10.1673 70.8927 10.5689C71.2431 10.7181 71.3264 11.0244 71.651 11.153C71.7457 10.9959 71.5404 10.8228 71.5404 10.8228C71.7012 10.672 71.8305 10.6847 71.9999 10.7768C71.9611 10.699 71.9899 10.6276 72.0315 10.5196C72.1622 10.5323 72.1421 10.8498 72.303 10.6974C72.2656 10.5958 72.2168 10.4355 72.1464 10.3371C72.3044 10.4085 72.4667 10.5688 72.6304 10.6387C72.6606 10.4736 72.5169 10.4022 72.4538 10.3022C72.6361 10.3593 72.9219 10.4085 72.9966 10.6578L72.8903 10.7594C72.9564 10.7657 72.9075 10.5371 72.8558 10.4943C72.6893 10.307 72.6433 10.6022 72.6419 10.6958L72.7582 10.745C72.6835 11.2974 72.3015 10.6974 72.0789 10.7498L72.2024 11.1371L71.9468 10.8292C71.9052 10.9371 71.8879 11.1594 72.0028 11.2086C71.8549 11.4181 71.8491 11.0815 71.7256 11.3101C71.7127 11.345 71.7213 11.3641 71.7357 11.3784L71.5691 11.2752C71.6064 11.3562 71.5634 11.5562 71.6553 11.4911C71.3867 11.7435 71.1756 11.2355 71.0909 11.5435L71.1167 11.5657C70.7132 11.4673 71.0578 11.2784 70.739 10.9657L70.5897 11.699L70.5308 11.4133C70.4906 11.4276 70.4116 11.4562 70.4346 11.5705C70.2694 11.3847 70.4518 11.4419 70.3513 11.2625C70.1732 11.5451 69.8041 11.1831 69.7897 11.6482C69.705 11.4339 69.9649 11.4641 69.7467 11.326C69.7208 11.8276 69.4996 11.2594 69.3359 11.5006C69.4077 11.753 69.5686 11.6038 69.4049 11.8466C69.2684 11.4212 69.063 11.9689 68.9065 11.8975C68.8778 11.553 68.569 11.7784 68.3091 11.6832C68.3321 11.7974 67.8438 11.9102 67.6169 12.053L67.6269 12.1101C67.5594 11.7641 67.3211 11.8498 67.1401 11.7911C67.1602 11.9991 67.1961 12.08 67.2981 12.1657L67.1315 12.1768C67.0855 12.0673 67.0295 12.0133 66.9189 11.9815L66.9764 12.2387C66.7538 12.2403 66.5125 11.9673 66.2368 12.161C66.2066 11.9181 66.4235 11.4689 66.1133 11.326C66.1104 11.4578 66.1118 11.6847 66.1937 11.7324C66.1664 11.7165 66.0946 11.6292 66.0458 11.6895L66.1793 11.9022C66.0558 12.0085 66.1003 11.7212 65.9984 11.7498C66.0113 11.9371 65.9294 11.8895 65.9524 12.0371C65.9797 12.053 66.0386 11.953 66.0831 12.0244C65.9682 12.0657 65.8332 12.1863 65.7944 12.3323C65.7987 12.2244 65.7801 12.08 65.6925 12.0609C65.4699 12.0625 65.6293 12.2911 65.5058 12.3974C65.444 12.2705 65.3105 12.4149 65.2918 12.1339C65.2272 12.1403 65.2229 12.272 65.2013 12.3482C65.0793 12.2324 64.6628 12.3483 64.7762 12.0419L64.805 12.0197C64.7992 12.0149 64.792 12.0149 64.7848 12.0085C64.7863 12.0085 64.7848 12.0085 64.7863 12.0085H64.7848C64.3942 11.7546 64.0122 12.2181 63.6331 12.1228L63.6388 12.2165C63.4105 12.1244 63.1405 12.1863 62.971 11.9943C62.905 11.999 62.8245 12.1752 62.8576 12.2863C62.6838 12.226 62.6594 12.1244 62.421 12.2927C62.6005 12.4466 62.3693 12.4419 62.6019 12.4022C62.3851 12.4974 62.342 12.6482 62.0921 12.4054C62.184 12.6419 61.9399 12.7181 61.8307 12.6514L61.9772 12.4705C61.8566 12.4419 61.7546 12.4689 61.6512 12.4942L61.723 12.807C61.2864 13.2165 60.8757 12.1959 60.5598 12.8594C60.4305 12.6451 60.7996 12.6895 60.6804 12.4371C60.4736 12.4911 60.2769 12.9578 60.2108 12.9625C59.9322 13.153 59.925 12.5149 59.6306 12.6514C59.6636 12.5371 59.6881 12.234 59.4597 12.1387C59.2529 12.1911 59.2227 12.6261 59.3592 12.7102C59.4094 12.7165 59.4324 12.68 59.4281 12.6419C59.497 12.6784 59.5875 12.7229 59.51 12.8498L59.4784 12.7387C59.3793 12.8593 59.0921 12.8625 59.1667 13.0451C59.0045 12.9467 59.0921 12.8641 59.2055 12.799C58.9441 12.9768 58.7876 12.8276 58.5162 12.9498C58.5578 12.8863 58.5923 12.7514 58.5492 12.7546C58.15 12.9117 58.3625 12.5482 58.0868 12.5101C57.9374 12.6895 58.1586 12.9181 57.8771 12.7864C57.7134 12.9102 57.8527 13.088 57.923 13.1768C57.6631 12.9705 57.4592 13.3403 57.317 13.3863L57.4534 13.4721C57.3716 13.4213 57.3069 13.426 57.2409 13.4292L57.3084 13.2006C57.2323 13.2435 57.1662 13.2467 57.1705 13.3403C57.0858 13.1959 57.2179 12.9625 57.0528 12.7673C56.9537 12.8864 56.7325 12.6578 56.7081 12.9594C57.0298 12.8435 56.6822 13.2626 56.9608 13.2991C56.9063 13.2657 56.8417 13.2705 56.7656 13.3133C56.7555 13.3467 56.7785 13.3753 56.8 13.3911C56.497 13.6721 56.6449 13.0578 56.3218 13.0784C56.3692 13.2451 56.2571 13.4022 56.204 13.3689C56.3347 13.3594 56.2571 13.0848 56.1336 12.9594C55.9311 13.099 55.9053 12.8704 55.7976 12.8911L55.9197 12.8244C55.8723 12.6578 55.7689 12.6832 55.6238 12.6372C55.6152 12.7689 55.7574 12.7228 55.7086 12.7816C55.5391 12.4911 55.3567 13.1054 55.1269 12.915C55.0264 13.034 55.1269 13.2323 55.0379 13.3149C54.7808 13.1069 54.7737 13.5562 54.5037 13.3832C54.5726 13.153 54.5884 13.2086 54.396 12.9927L54.8339 13.1387L54.5467 12.8181C54.6774 12.8101 54.8268 12.9514 54.9043 12.9101C54.7664 12.7292 54.7822 12.7848 54.8383 12.5943C54.6702 12.9403 54.4778 12.4069 54.2782 12.6434L54.3011 13.2054C53.9967 13.4657 53.7411 12.9339 53.3418 13.0895L53.4682 12.988C53.4079 12.7657 53.2183 12.9641 53.0848 12.8784C53.102 13.0657 53.0216 13.1372 52.9699 13.2562C52.9727 13.1165 52.674 13.2784 52.6281 12.9038L52.4543 13.1578C52.1312 13.2689 52.0694 12.6339 51.7578 12.7086C51.8569 12.9101 51.7176 13.0483 51.9301 13.1864C51.8253 13.1911 51.7319 13.2292 51.7276 13.099C51.6687 13.2181 51.4318 12.8546 51.3399 13.0371C51.2939 12.9561 51.2752 12.7593 51.1589 12.7784C51.1474 12.8165 51.1618 12.8705 51.1618 12.8705C51.1589 12.7784 50.9751 12.7483 51.0742 12.5387C50.764 13.1324 50.1737 12.5149 49.9038 13.0245C49.674 12.9657 49.3982 12.9118 49.1914 12.9022C49.2058 12.9578 49.1943 12.9959 49.2331 12.9753C48.9501 13.1562 49.0492 12.4387 48.7275 12.6403C48.5667 12.9482 48.9028 12.8006 48.8008 12.9181C48.7649 13.5371 48.4073 12.8419 48.1933 13.207L48.2465 13.2419C48.0827 13.4562 47.8343 13.0165 47.5629 13.0657C47.5629 13.0657 47.5772 13.1196 47.5657 13.1593C47.3747 12.8498 47.02 12.7482 46.7558 12.6625C46.8405 12.9038 46.8764 12.7895 46.829 13.0355C46.7112 13.0022 46.8592 12.6403 46.6236 12.5736C46.549 12.707 46.3795 12.8244 46.3608 13.0863L46.5834 13.099C46.4728 13.4403 46.2962 13.0896 46.1799 13.1499L46.1957 13.2974C45.8553 13.253 45.8467 12.8784 45.4819 12.9086L45.5193 12.7959C45.3168 12.4276 45.3541 13.0054 45.1516 12.7323L45.0942 13.1086C44.9621 13.0197 44.6303 12.7498 44.3933 12.6816C44.5283 12.9594 44.8055 13.0991 44.9778 13.2626C44.8472 13.2657 44.5341 13.2387 44.4637 13.0546C44.5168 13.0911 44.5829 13.1816 44.6346 13.1228C44.4723 12.8292 44.2612 12.6848 44.0013 12.6943C44.0501 13.4229 43.3234 12.8848 43.1367 13.4483C42.6757 13.1784 42.2219 13.5609 41.6848 13.5165C41.8758 12.9498 41.5283 13.5006 41.5613 12.9181C41.4364 12.88 41.389 12.8895 41.3775 12.9276L40.9984 13.2752C40.9079 13.445 41.1176 13.4038 41.1046 13.534C40.8303 13.5784 40.9883 13.78 40.8073 13.9355C40.8447 13.7276 40.7126 13.6371 40.556 13.7165L40.7772 13.4483C40.3952 13.1372 40.444 13.9372 40.0591 13.6292L40.1798 13.8133C39.9816 13.7054 39.4488 13.8149 39.2578 13.3435C39.2219 13.4101 39.1745 13.5689 39.2621 13.6117C38.7882 13.6752 38.2137 13.1006 37.8432 13.3832L37.8777 13.526C37.7901 13.4831 37.7269 13.2562 37.6148 13.3991C37.6206 13.4578 37.6493 13.5419 37.6077 13.5499C37.5617 13.5007 37.3765 13.2975 37.2587 13.3784L37.3563 13.5403C36.8925 13.7213 36.6526 13.1403 36.2677 13.0371C36.2634 13.4562 35.8972 13.5895 35.7149 13.6514L35.7206 13.7102C35.1821 13.7483 34.813 13.3403 34.319 13.1641C34.0016 13.6118 33.2691 13.3292 32.7665 13.572C32.844 13.4974 32.7622 13.2451 32.6746 13.2006C32.5568 13.2832 32.3601 12.9022 32.3687 13.2864L32.4103 13.28C32.3141 13.6546 32.0757 13.5498 31.889 13.553L31.8704 13.0498C31.362 13.7641 30.5979 12.7355 30.3121 13.38C30.1973 13.2498 30.0522 13.2466 29.9388 13.1165L29.9373 13.3863C29.6085 13.4435 29.4433 13.4705 29.0412 13.3927L29.1173 13.5879C28.889 13.5975 28.8545 12.8006 28.6448 12.7768L28.5687 13.1768C28.1709 13.1578 27.7573 13.4896 27.3767 13.107C27.381 13.1657 27.3882 13.2832 27.4528 13.3022C27.2661 13.3038 26.719 13.5404 26.808 12.9911C26.7894 13.3499 26.3973 13.0069 26.189 12.8387L26.212 13.1054C26.044 12.7578 26.0426 12.6657 25.7927 12.5594C25.7309 12.5911 25.7324 12.7689 25.8142 12.7054C25.6089 12.8355 25.6692 12.4466 25.4207 12.5768L25.504 12.7499C25.2972 12.761 25.3173 12.6705 25.2125 12.4673C25.0876 12.3546 24.8204 12.5165 24.7802 12.7546C24.7587 12.607 24.6553 12.407 24.5303 12.4705C24.5102 12.5609 24.5519 12.6181 24.5734 12.6466C24.2216 12.8117 24.0765 12.3102 23.8295 12.5578C23.8209 12.6451 23.8036 12.688 23.7821 12.7134C24.055 12.7229 24.2747 12.7213 24.256 12.7006C24.246 12.9451 24.0234 12.9752 24.1842 13.3229C24.0148 13.1276 23.7304 12.7102 23.5107 12.8133C23.4992 12.8372 23.4877 12.8594 23.4791 12.8959L23.5006 12.9244C23.4504 12.9466 23.4059 12.9213 23.3671 12.8768C23.2967 12.9133 23.2522 12.9403 23.1861 12.9403C23.1517 13.1403 22.9276 13.0339 22.8185 13.0371C22.84 12.7704 22.695 12.8054 22.84 12.5927C22.8213 12.6117 22.8587 12.626 22.9319 12.6419C22.9477 12.6514 22.9678 12.6562 22.9779 12.672C22.9764 12.6657 22.9736 12.6562 22.9721 12.6483C23.044 12.661 23.1373 12.6721 23.245 12.6816C23.1646 12.5403 23.0799 12.4213 22.9506 12.5625C22.9018 12.3879 22.8486 12.207 22.817 12.1228C22.649 12.4863 22.3503 12.6721 22.2986 12.8991C21.9697 12.7292 21.513 12.7546 21.3278 12.2387C21.2359 12.1689 21.2115 12.3768 21.1712 12.453C21.2244 12.507 21.289 12.5022 21.3163 12.5768C21.1325 12.4371 20.7533 12.4943 20.7275 12.1403C20.479 12.2847 20.8452 12.472 20.5192 12.3943L20.558 12.5054C19.8787 13.0213 19.5513 11.5371 18.793 12.2054C18.8447 12.1641 18.872 12.1466 18.8849 12.0879C18.0462 12.345 17.2133 11.6768 16.3732 12.1133C16.1362 12.1958 16.1261 11.9705 15.9969 11.7879L15.9294 12.0704L15.7111 11.7197C15.3865 11.4498 15.0763 12.3753 14.6757 11.8832L14.7446 11.6942C14.5881 11.718 14.2621 11.5403 14.2735 11.7641C14.2606 11.7276 14.2362 11.5593 14.1687 11.6546L14.1543 11.8038L13.7924 11.5165C13.4909 11.6006 13.7968 12.1165 13.3645 12.1101C13.2079 12.0387 12.9408 11.6371 13.0069 11.5403C13.0715 11.5387 13.1778 11.4593 13.1936 11.3101L13.0528 11.2197C13.0571 10.7752 12.9782 10.3133 13.3573 10.0339L13.5871 10.3244L13.6819 10.1165L13.4736 10.0863C13.6072 9.89424 13.6689 10.0784 13.7451 10.2085C13.7723 10.0958 13.814 10.0196 13.8657 9.97996L14.0811 10.4228C14.1228 10.253 13.9949 10.0704 14.1658 9.98787C14.2664 10.1926 14.0294 10.3672 14.2104 10.5101C14.3439 10.3196 14.3195 10.153 14.4473 10.3356C14.4746 10.2229 14.4502 10.1483 14.3985 10.0943C14.5134 10.2403 14.7245 10.1784 14.7719 10.4197C14.9126 10.1816 15.1883 10.5181 15.2027 10.099C15.2357 10.2022 15.4009 10.4451 15.5129 10.472C15.3363 9.95458 15.9423 10.4768 15.9222 9.93555C16.0471 10.399 16.4679 10.1815 16.725 10.453C16.7121 10.4165 16.6862 10.3403 16.6604 10.3625C16.8169 10.3371 16.8701 10.2054 16.9749 10.1276C16.972 10.5006 17.2061 10.6038 17.3224 10.8419C17.5335 10.4959 17.2348 10.3958 17.3153 10.0562C17.288 10.3577 17.6255 10.38 17.5465 10.6276C17.7044 10.4149 17.6771 10.5292 17.7705 10.2244C17.7676 10.6911 17.8997 10.3133 18.0031 10.607C18.2257 10.3927 18.0821 10.1752 18.3047 10.3324C18.4053 10.1943 18.2114 10.0149 18.2114 10.0149ZM23.6342 11.1689C23.6342 11.1657 23.6342 11.1641 23.6342 11.1641C23.5868 11.1546 23.548 11.1466 23.5222 11.1419C23.5452 11.1466 23.5782 11.1546 23.6342 11.1689ZM24.0937 11.1991C24.0377 11.207 23.9674 11.2038 23.8941 11.1974C23.874 11.2879 23.8869 11.3847 23.9329 11.3831C23.9114 11.3196 24.0219 11.2737 24.0937 11.1991ZM23.0353 12.9959C23.1071 13.0387 23.133 12.9864 23.1459 12.9324C23.1114 12.926 23.0712 12.9149 23.0195 12.8927C23.0181 12.8848 23.0138 12.8689 23.0123 12.8594C23.0167 12.9102 23.0224 12.9594 23.0353 12.9959Z" fill="#161B22"/>
<path d="M12.05 13.3153C12.0378 13.3083 12.0309 13.296 12.0151 13.2925C12.0343 13.2681 12.0536 13.2471 12.071 13.2297C12.0798 13.2611 12.0902 13.2943 12.0972 13.324C12.0815 13.3205 12.064 13.317 12.05 13.3153Z" fill="#161B22"/>
<path d="M62.9305 12.6648L62.918 12.6719C62.9269 12.6594 62.9358 12.6469 62.9412 12.6272C62.934 12.6433 62.9358 12.6523 62.9305 12.6648Z" fill="#161B22"/>
<path d="M21.2198 11.4882L21.2162 11.5632L21.168 11.4953L21.2198 11.4882Z" fill="#161B22"/>
<path d="M65.9478 11.4695C65.9512 11.4433 65.9617 11.4153 65.9827 11.3909C65.9827 11.4101 65.967 11.4381 65.9478 11.4695Z" fill="#161B22"/>
<path d="M67.272 11.3115L67.4518 11.1946C67.375 11.2592 67.3174 11.2906 67.272 11.3115Z" fill="#161B22"/>
<path d="M68.2832 11.0955C68.3007 11.1462 68.3059 11.1846 68.3129 11.2195C68.3129 11.2195 68.3111 11.2194 68.3111 11.2212L68.2832 11.0955Z" fill="#161B22"/>
<path d="M52.0141 11.6309C52.0002 11.6291 51.9862 11.6257 51.974 11.6187C51.8797 11.5663 51.9443 11.5855 52.0141 11.6309Z" fill="#161B22"/>
<path d="M56.8826 12.1133C56.8285 12.0626 56.7761 12.012 56.7202 11.9823C56.8058 11.9544 56.8721 11.9457 56.8826 12.1133Z" fill="#161B22"/>
<path d="M46.6026 11.4446C46.6026 11.4482 46.6026 11.4465 46.6026 11.4501C46.5898 11.4501 46.5807 11.4501 46.5679 11.4519L46.6026 11.4446Z" fill="#161B22"/>
<path d="M56.4951 11.9983C56.5789 11.9354 56.6505 11.9442 56.7204 11.9826C56.6505 12.0053 56.5685 12.0384 56.4951 11.9983Z" fill="#161B22"/>
<path d="M72.6973 10.6219L72.7473 10.6058C72.7473 10.6255 72.7527 10.6415 72.758 10.6541L72.6973 10.6219Z" fill="#161B22"/>
<path d="M72.7549 10.6512L72.8138 10.6815C72.7888 10.6851 72.7656 10.6833 72.7549 10.6512Z" fill="#161B22"/>
<path d="M72.9344 10.7476L72.814 10.6829C72.8524 10.6777 72.9013 10.6655 72.9344 10.7476Z" fill="#161B22"/>
<path d="M71.3575 10.864L71.333 10.7592C71.3435 10.7802 71.3522 10.8151 71.3575 10.864Z" fill="#161B22"/>
<path d="M70.9438 10.8677C71.0399 10.8365 71.1709 10.6231 71.314 10.6786L71.3332 10.7619C71.2564 10.6075 71.0521 11.0377 70.9438 10.8677Z" fill="#161B22"/>
<path d="M69.3286 12.3091L69.6673 12.198C69.615 12.316 69.5469 12.474 69.7075 12.4879C69.2972 12.8591 69.7773 12.231 69.3286 12.3091Z" fill="#161B22"/>
<path d="M68.2692 12.5471C68.4577 12.587 68.2797 12.7102 68.2936 12.7744C68.1679 12.6807 68.1382 12.6564 68.2692 12.5471Z" fill="#161B22"/>
<path d="M60.525 13.0415L60.5581 13.3069C60.4132 13.2757 60.5511 13.2028 60.525 13.0415Z" fill="#161B22"/>
<path d="M58.9712 11.7414L59.1021 11.5697L59.1808 11.8108L58.9712 11.7414Z" fill="#161B22"/>
<path d="M58.1945 13.6794L58.2591 13.7144L58.0146 13.6288L58.1945 13.6794Z" fill="#161B22"/>
<path d="M45.1533 14.0458L45.19 13.7178C45.2878 13.7751 45.3157 14.1429 45.1533 14.0458Z" fill="#161B22"/>
<path d="M39.5182 13.7942C39.4588 13.959 39.3017 14.0649 39.2021 13.9052C39.3296 13.8809 39.4536 13.7525 39.5182 13.7942Z" fill="#161B22"/>
<path d="M22.6274 14.1666L22.7374 14.28L22.5278 14.1805L22.6274 14.1666Z" fill="#161B22"/>
<path d="M38.7068 22.1187C38.7802 22.2404 38.8945 22.535 38.8237 22.4972L38.5762 22.0187L38.7068 22.1187Z" fill="#161B22"/>
<path d="M38.7856 23.1672C38.6278 22.951 38.3802 22.559 38.2197 22.0913C38.4809 22.5428 38.4075 22.3372 38.7122 22.8779C38.7856 22.9157 38.7258 22.6834 38.6387 22.5076C38.7094 22.6266 38.6659 22.367 38.8237 22.6671C38.9271 23.0753 38.8564 23.1239 38.6387 22.8428C38.6714 22.9563 38.7421 23.078 38.7856 23.1672Z" fill="#161B22"/>
<path d="M40.894 21.6096L40.8886 21.6804C40.8831 21.6451 40.8859 21.6232 40.894 21.6096Z" fill="#161B22"/>
<path d="M43.6587 20.1643C43.6315 20.1616 43.6016 20.1152 43.5825 20.0717C43.6152 20.0962 43.6451 20.1181 43.6587 20.1643Z" fill="#161B22"/>
<path d="M43.9245 19.4147C43.9218 19.4338 43.9136 19.4446 43.9082 19.4609C43.9 19.412 43.9001 19.3821 43.9245 19.4147Z" fill="#161B22"/>
<path d="M40.8945 21.6104L40.9081 21.4226C40.9789 21.5832 40.9163 21.5587 40.8945 21.6104Z" fill="#161B22"/>
<path d="M37.6348 22.2505C37.662 22.2668 37.6946 22.3076 37.7327 22.3621C37.7109 22.3457 37.6891 22.3349 37.6701 22.3267C37.6592 22.2995 37.6484 22.2777 37.6348 22.2505Z" fill="#161B22"/>
<path d="M39.4579 21.7235L39.4334 21.7317C39.4035 21.6746 39.3682 21.6065 39.3301 21.5357L39.4579 21.7235Z" fill="#161B22"/>
<path d="M38.4541 22.0454C38.4677 22.0184 38.65 22.4373 38.7343 22.6184C38.65 22.4508 38.601 22.3724 38.5656 22.3481C38.533 22.267 38.4976 22.1698 38.4541 22.0454Z" fill="#161B22"/>
<path d="M38.1548 24.0404L38.2065 24.0867C38.1901 24.0703 38.1711 24.0595 38.1548 24.0404Z" fill="#161B22"/>
<path d="M40.1154 21.3511C40.0909 21.2885 40.0719 21.2314 40.061 21.196C40.0855 21.2477 40.1018 21.2994 40.1154 21.3511Z" fill="#161B22"/>
<path d="M68.6574 13.4165C68.6438 13.3866 68.6383 13.3676 68.6274 13.3404C68.6492 13.3812 68.6656 13.4111 68.6574 13.4165Z" fill="#161B22"/>
<path d="M68.9249 10.8674L68.9004 10.8512C68.8651 10.7728 68.8325 10.6944 68.7998 10.616L68.9249 10.8674Z" fill="#161B22"/>
<path d="M44.5996 18.5096C44.5996 18.5151 44.5996 18.5151 44.5996 18.5205C44.5561 18.4797 44.5724 18.4824 44.5996 18.5096Z" fill="#161B22"/>
<path d="M52.984 15.4549C53.0465 15.8713 53.3349 15.8768 53.3675 16.3525C53.3131 16.1822 52.9676 15.7469 52.984 15.4549Z" fill="#161B22"/>
<path d="M37.6351 22.3158C37.6188 22.3158 37.6051 22.3185 37.5942 22.3293C37.6051 22.3076 37.616 22.3022 37.6351 22.3158Z" fill="#161B22"/>
<path d="M53.3687 16.352L53.3714 16.3546L53.3741 16.4009C53.3714 16.3818 53.3687 16.371 53.3687 16.352Z" fill="#161B22"/>
<path d="M46.7754 17.9165C46.8026 17.9926 46.8163 18.0525 46.8299 18.1096C46.8135 18.0688 46.7972 18.0117 46.7754 17.9165Z" fill="#161B22"/>
<path d="M45.481 19.1475L45.4946 19.074C45.4973 19.1202 45.4891 19.1393 45.481 19.1475Z" fill="#161B22"/>
<path d="M47.8234 18.188C47.8316 18.1472 47.8153 18.0846 47.867 18.1309C47.8724 18.1526 47.8778 18.1689 47.8806 18.1852C47.8452 18.1308 47.8207 18.1091 47.8234 18.188Z" fill="#161B22"/>
<path d="M48.6584 17.8497L48.6774 17.9421C48.6665 17.9394 48.653 17.934 48.6421 17.9312L48.6584 17.8497Z" fill="#161B22"/>
<path d="M66.0408 14.2463C66.0109 14.1193 65.9674 13.9841 65.9238 13.8517C66.0327 14.1571 66.1986 14.2139 66.0408 14.2463Z" fill="#161B22"/>
<path d="M37.7357 22.4861C37.684 22.3827 37.6541 22.331 37.6323 22.3147C37.6432 22.3147 37.6568 22.3202 37.6704 22.3256C37.7003 22.3882 37.7275 22.4453 37.7357 22.4861Z" fill="#161B22"/>
<path d="M49.2329 21.4998L49.3391 21.3827C49.32 21.4399 49.2792 21.4807 49.2329 21.4998Z" fill="#161B22"/>
<path d="M60.0308 16.6248L60.0825 16.6629C60.0743 16.6793 60.058 16.6711 60.0308 16.6248Z" fill="#161B22"/>
<path d="M49.7576 21.2859C49.7195 21.1264 49.7086 21.0318 49.7113 20.9642C49.7304 20.9966 49.7467 21.0182 49.7712 21.0669L49.7576 21.2859Z" fill="#161B22"/>
<path d="M65.9214 13.8449L65.9248 13.8518L65.9214 13.8449Z" fill="#161B22"/>
<path d="M67.2079 14.4924C67.0855 14.5546 66.925 13.9735 66.7672 13.668C66.5522 13.5707 66.8651 14.1033 66.9304 14.4088C66.7754 14.3006 66.4924 13.8221 66.4325 13.8707C66.4652 13.9653 66.4652 14.0032 66.5278 14.1114C66.2476 13.7113 66.223 14.2113 65.8775 13.7031C65.8884 13.7545 65.9048 13.8032 65.9184 13.8464C65.8232 13.5599 65.7089 13.2786 65.6218 13.0786C65.562 13.0921 65.3715 12.7705 65.4994 13.1435C65.5293 13.1192 65.5919 13.2625 65.6572 13.3706L65.5321 13.2382C65.6926 13.7816 65.6871 13.3841 65.8476 13.7707C65.6626 13.649 65.3498 13.2733 65.3226 13.4544C65.5157 13.9707 65.6001 13.541 65.6708 14.0438L65.7279 13.7923C65.9538 14.6385 65.7878 13.7032 66.0462 14.6007C65.9265 14.8224 65.7361 14.4222 65.6191 14.6466C65.4613 14.379 65.4586 14.2222 65.3008 13.9545C64.8356 13.549 65.6273 15.317 65.1593 14.7168C64.9716 14.3978 64.6859 13.7598 64.6914 14.1545L64.9743 14.7114C64.822 14.8412 64.5336 13.9248 64.5091 14.3871C64.6343 14.6007 64.724 14.5223 64.7267 14.6007C64.7947 15.1035 64.5091 14.3087 64.4166 14.3438L64.6098 14.8628C64.3894 14.8574 64.033 14.5735 63.7881 14.5654C63.8616 14.7114 63.9622 14.8574 63.9786 15.0331C63.614 14.8844 63.4508 15.3224 63.3229 15.7252L63.0454 15.3251C63.0264 15.3386 63.0862 15.5414 63.1461 15.6171C63.1162 15.8252 63.0264 15.3386 62.9067 15.1845C62.8386 15.1764 62.9366 15.4684 63.0263 15.5846C62.6999 15.2818 62.202 14.9818 62.2156 15.5252L62.3054 15.6414C62.2374 15.8766 61.7722 14.8034 61.8102 15.2683L61.8674 15.3359C61.6388 15.6522 61.1329 15.3873 61.1737 16.1469C60.8662 15.5306 60.9859 16.5525 60.6023 15.6766C60.6078 16.1875 60.7247 16.3254 60.5996 16.7201C60.5506 16.7876 60.2731 16.2065 60.1534 16.1497L60.3411 16.612L60.031 16.1713L60.1997 16.7471L60.0745 16.6605C60.0936 16.62 60.0528 16.4254 59.9929 16.2957C59.7861 16.1335 59.8351 16.7363 59.9303 16.9742L59.4868 16.6984C59.5712 16.8822 59.6447 16.9255 59.729 17.0309C59.3835 16.62 59.9031 17.5284 59.5848 17.1526C59.5603 17.0391 59.4624 16.8823 59.4188 16.7876C59.4651 17.0958 59.31 17.1607 59.144 17.0904L59.2991 17.4013C59.1223 17.5689 58.7931 17.4283 58.5619 17.5311C58.5836 17.3472 58.3361 16.8039 58.2463 16.7796L58.4204 17.2796C58.2517 16.9958 58.415 17.066 58.1728 16.7335C58.1075 16.8254 58.3442 17.3148 58.4585 17.4527L58.2816 17.3257C58.336 17.4744 58.3932 17.5419 58.4748 17.723C58.3061 17.4364 58.4938 18.288 58.2109 17.7879L58.2653 17.9366C58.0313 18.0366 57.8545 17.9122 57.6532 17.9663C57.4763 17.5445 57.4382 17.6689 57.2423 17.3526C57.158 17.5445 57.139 17.9393 56.954 17.9744C56.7472 17.8122 56.7717 17.6311 56.6139 17.4013C56.7636 17.7906 56.5785 17.8231 56.7826 18.0637C56.554 18.0826 56.4915 18.0934 56.1052 17.8852C56.0671 17.7176 56.0725 17.6365 56.0018 17.5122C55.9283 17.4689 55.961 17.7176 56.0453 17.8987L56.0753 17.9339C55.5475 17.4744 55.8712 19.3261 55.3108 18.6178L55.3406 18.6529L54.9298 18.334C54.8482 18.4448 55.1148 18.5962 55.1312 18.8665C54.6088 18.3312 54.7639 19.1261 54.3749 18.7854C54.6796 19.9857 53.76 18.9422 53.8362 19.7559L53.7382 19.4829C53.5723 19.245 53.7328 19.664 53.7165 19.7424C53.6376 19.5316 53.6784 19.4775 53.5832 19.3478C52.9656 19.2234 52.7425 20.1452 52.3453 20.5886C52.1929 20.7345 51.6706 19.2504 51.706 19.9803L51.9753 20.4506C51.3632 20.0073 51.2326 20.7778 50.6667 20.4183C50.7347 20.5237 50.7973 20.6724 50.8327 20.6561C50.9061 21.0481 50.5606 20.7886 50.4355 20.4939C50.3919 20.5507 50.5334 20.7642 50.5606 20.9291C50.5715 21.1724 50.1797 20.548 50.2885 20.9211C50.3049 20.9832 50.3592 21.0292 50.3837 21.0508C50.2613 20.8967 50.1715 21.1887 50.0464 20.7534C49.9947 21.0075 49.7117 20.6751 49.7063 20.9644C49.4451 20.5291 49.5676 21.2806 49.2738 20.6345C49.5649 21.3103 49.2629 21.2779 49.0452 20.9941C49.1595 21.1887 49.0588 21.2373 49.2085 21.5077C49.1078 21.5374 48.9663 21.4482 48.8384 21.0913C48.9935 21.9753 48.2072 20.5831 48.5364 21.6671C48.0957 21.4211 47.7284 21.2833 47.402 21.2293C47.6903 21.9024 47.7175 21.1806 48.0005 21.8943C47.6386 21.7159 47.2578 21.1941 47.0809 21.4563C47.0565 21.5753 47.2388 21.7348 47.3068 21.8429C46.9449 21.6645 46.8552 22.0997 46.4851 21.8185C46.5124 21.8807 46.564 21.9403 46.6076 21.9835C46.5559 21.9781 46.5477 22.124 46.4252 21.8131L46.5014 21.8807C46.3872 21.4049 45.9437 21.0184 45.8403 20.7859C46.2784 21.6374 45.7152 21.0967 46.2919 22.1619C46.2402 22.1159 46.1451 21.9835 46.0662 21.7754C46.0498 21.8511 46.0852 21.9781 46.2239 22.1943C46.0008 22.0889 45.9192 21.7402 45.7832 21.8051C45.8458 21.9537 45.8975 21.9997 45.9845 22.17C45.7941 21.9078 45.601 21.6456 45.5357 21.8213C45.5792 21.9078 45.6145 22.0294 45.6499 22.0132C45.4268 22.0511 44.9833 21.3806 44.8772 21.7537C45.2091 22.3755 44.8881 21.9969 45.1085 22.5619L44.9208 22.443L44.8555 22.151C44.7549 22.2024 44.4936 21.8321 44.4773 22.0537L44.6515 22.2539L44.4093 22.2268L44.4338 21.9699C44.208 21.7239 44.1536 21.2562 44.0774 21.4698C44.1291 21.5157 43.974 21.5185 44.0556 21.8726C43.9305 21.7158 43.7999 21.5509 43.7781 21.7212C43.8325 21.9078 44.0502 22.3349 44.0856 22.4592C43.8407 22.0132 43.7863 22.4295 43.5142 21.9565C43.5849 22.0646 43.7074 22.3592 43.7237 22.4214L43.5224 22.0592C43.5251 22.1997 43.5414 22.2619 43.6448 22.4944C43.5278 22.6241 43.3973 21.7645 43.351 22.143C43.3782 22.1673 43.3945 22.2268 43.4462 22.2727C43.3374 22.5025 43.0082 22.17 42.9266 22.4214C43.1116 23.0053 43.1225 22.5025 43.2667 22.9999C42.9919 22.9918 42.5076 22.5187 42.339 22.743L42.3552 22.6648C41.9961 21.8808 42.3498 23.127 42.0832 22.7972C42.1349 22.8458 42.3009 23.2244 42.2573 23.1379C42.1567 23.3271 41.8628 23.0702 41.5282 22.9135L41.6425 23.1054C41.6289 23.3244 41.4493 23.3081 41.3895 23.4405C41.2752 23.2486 41.2344 23.3054 41.1446 22.9919C41.3241 24.2787 40.3121 22.6025 40.4454 23.6812C40.478 23.6703 40.5951 23.8298 40.5706 23.8406L40.2658 23.7461C40.1407 23.392 40.2087 23.5244 40.1461 23.2351C40.0319 23.0405 39.9013 22.908 39.8468 22.9323C40.0427 23.1216 40.0754 23.4892 40.1107 23.7C40.0754 23.5919 40.0101 23.4811 39.9693 23.3703C40.1053 24.0353 39.6619 22.6809 39.67 23.1621L39.7544 23.3406C39.6564 23.273 39.4986 23.054 39.4551 23.1324C39.5938 23.5433 39.5966 23.2918 39.738 23.6216C39.6374 23.6351 39.2429 22.9351 39.3245 23.3703C39.4089 23.4649 39.466 23.446 39.5503 23.5406C39.6537 24.0488 39.5938 23.9326 39.5584 24.0353L39.5612 24.0217L39.4932 24.2975L39.4796 24.1542C38.9328 23.1567 39.1667 24.0597 38.7287 23.4379C39.1477 24.0245 38.9082 23.8028 39.1069 24.2515C39.1205 24.3948 39.1177 24.5598 39.1885 24.6814C38.9627 24.3435 39.1858 25.0193 38.8593 24.5273C38.9164 24.676 38.7858 24.5733 38.9545 24.9355C38.813 24.8599 38.8729 24.6706 38.7886 24.4922C38.4349 24.0515 38.6933 25.2383 38.1981 24.6382C38.1056 24.5733 38.0186 24.4813 37.9343 24.3813L37.3901 23.0972C37.5806 23.3135 37.7574 23.5757 37.9451 23.6946C37.9016 23.4378 37.6704 23.1864 37.6704 23.1864C37.6676 22.9323 37.7547 22.9431 37.9125 23.0729C37.8391 22.954 37.8119 22.8378 37.7683 22.6648C37.8527 22.6729 38.0431 23.1729 38.0431 22.9215C37.9561 22.7647 37.8254 22.5161 37.722 22.3674C37.8608 22.4647 38.0594 22.7025 38.2009 22.7972C38.1138 22.5349 37.9832 22.4349 37.8826 22.2808C38.0268 22.3538 38.2281 22.4052 38.4294 22.7945V22.962C38.473 22.9674 38.2989 22.6107 38.2417 22.5485C38.0241 22.27 38.1846 22.7377 38.2444 22.8864L38.3451 22.954C38.6525 23.8326 38.0458 22.9215 37.9451 23.0216L38.2634 23.619L37.918 23.1567C37.9615 23.3297 38.0948 23.6838 38.1928 23.7514C38.239 24.0947 38.0213 23.565 38.0948 23.938C38.1084 23.9948 38.1274 24.0217 38.1437 24.0434L37.9778 23.8947C38.0513 24.0191 38.1547 24.3381 38.1655 24.2272C38.1683 24.5219 37.9506 24.2326 37.869 24.1948L37.4799 23.2757C37.5153 23.2919 37.5262 23.2594 37.4854 23.108L37.4554 23.0755C37.7547 23.1999 37.665 23.5243 38.0458 23.9974L37.6867 22.8242L37.8962 23.273C37.9125 23.2487 37.9397 23.1946 37.8553 23.0161C38.0676 23.2973 37.9234 23.2215 38.0921 23.4973C38.0241 23.0377 38.4621 23.5731 38.1846 22.835C38.3669 23.1676 38.1954 23.146 38.4076 23.3406C38.1165 22.5431 38.5926 23.4217 38.5409 23.0216C38.3451 22.6296 38.3424 22.8809 38.2879 22.4781C38.628 23.1404 38.4131 22.251 38.5491 22.3484C38.7776 22.8917 38.8185 22.5052 39.0307 22.6295C38.9463 22.4484 39.164 22.224 39.2075 21.9753L39.1667 21.8861C39.4197 22.4268 39.5068 22.27 39.6482 22.3457C39.5095 22.0186 39.4388 21.8942 39.3245 21.7672L39.4143 21.7321C39.5095 21.8997 39.5748 21.9807 39.6591 22.0213L39.466 21.6185C39.5939 21.5915 39.9067 22.005 39.9448 21.6671C40.1108 22.0483 40.2658 22.7863 40.5324 22.9783C40.4535 22.7674 40.3121 22.4105 40.2332 22.343C40.2577 22.3646 40.3529 22.4945 40.3447 22.3944L40.1352 22.0726C40.1407 21.8915 40.293 22.3484 40.3338 22.2944C40.2114 21.9997 40.2876 22.0672 40.1815 21.8348C40.1543 21.8131 40.1842 21.978 40.1135 21.8699C40.1543 21.7915 40.157 21.5833 40.0917 21.3508C40.157 21.5212 40.2577 21.751 40.3175 21.7699C40.4454 21.7429 40.2114 21.3968 40.2169 21.2157C40.3311 21.4103 40.3176 21.1644 40.5026 21.6077C40.5352 21.5915 40.4563 21.3806 40.4209 21.2562C40.5624 21.4265 40.731 21.1941 40.8562 21.6942L40.8535 21.7321C40.8589 21.7402 40.8644 21.7402 40.8725 21.7483C41.2561 22.1051 41.1881 21.3265 41.4683 21.4347L41.4057 21.286C41.5962 21.4077 41.7132 21.2779 41.9309 21.5618C41.9662 21.5456 41.9036 21.2562 41.8138 21.0859C41.9526 21.1589 42.0315 21.3211 42.0615 21.0238C41.8628 20.8021 41.9988 20.7804 41.89 20.8724C41.9553 20.6966 41.8846 20.4479 42.1811 20.7994C41.9798 20.4371 42.0723 20.2858 42.1757 20.375L42.2057 20.6804C42.2927 20.7102 42.3335 20.6534 42.377 20.5994L42.1403 20.1127C42.1321 19.4071 43.0055 20.967 42.7715 19.8748C42.981 20.1965 42.7416 20.175 42.9674 20.5589C43.0517 20.4453 42.8722 19.6829 42.9075 19.6667C42.9456 19.3288 43.351 20.3371 43.4353 20.083C43.487 20.2695 43.6638 20.7534 43.8543 20.8724C43.9386 20.7615 43.6829 20.0696 43.5551 19.956C43.5224 19.9506 43.5333 20.0128 43.5578 20.0749C43.4952 20.0263 43.4163 19.9668 43.3809 19.7559L43.468 19.929C43.4489 19.7235 43.6094 19.6803 43.4544 19.4045C43.6094 19.5397 43.6122 19.683 43.5877 19.7992C43.6258 19.4829 43.8081 19.6992 43.8842 19.4667C43.9006 19.5748 43.9658 19.7937 43.9876 19.7802C44.1127 19.472 44.2216 20.0804 44.4011 20.0966C44.3739 19.7911 44.1046 19.4612 44.3467 19.6288C44.3603 19.4071 44.1699 19.1477 44.0747 19.0179C44.3522 19.3072 44.2325 18.6908 44.2842 18.5962L44.1536 18.4826C44.2325 18.5502 44.2651 18.534 44.3005 18.5178L44.4066 18.8908C44.4229 18.8124 44.4583 18.7962 44.3957 18.6475C44.5344 18.8638 44.6079 19.2531 44.8256 19.5369C44.8065 19.3342 45.0759 19.6613 44.899 19.1828C44.7902 19.4153 44.7222 18.6989 44.5426 18.6854C44.5943 18.7313 44.627 18.7124 44.6433 18.634C44.627 18.58 44.597 18.5394 44.5753 18.5151C44.5671 18.0258 44.8718 19.018 45.0405 18.9369C44.9072 18.68 44.8718 18.415 44.9235 18.461C44.8555 18.4934 45.0731 18.9179 45.2228 19.0963C45.2472 18.8449 45.4078 19.2017 45.4568 19.1531L45.4295 19.2774C45.5628 19.5342 45.6037 19.4775 45.7152 19.5289C45.6363 19.318 45.5846 19.4152 45.5764 19.3125C45.8567 19.7451 45.571 18.7476 45.8213 19.0153C45.8022 18.8125 45.6199 18.5124 45.6172 18.3691C45.8947 18.6584 45.6118 17.9447 45.8703 18.1718C45.9764 18.5475 45.9328 18.461 46.1777 18.7692L45.8403 18.6124L46.2049 19.072C46.1369 19.1045 45.9628 18.907 45.9465 18.9854C46.1369 19.2477 46.0934 19.1612 46.1831 19.4721C46.058 18.8963 46.5015 19.7073 46.4634 19.2991L46.0933 18.4151C46.0961 17.9528 46.5776 18.7476 46.7027 18.4367L46.6973 18.6178C46.8714 18.9584 46.8524 18.6124 46.9803 18.7259C46.8524 18.4313 46.8497 18.307 46.8034 18.1096C46.8905 18.3313 46.9531 18.0258 47.217 18.6098L47.1517 18.1798C47.2605 17.9501 47.6985 18.9422 47.8264 18.7719C47.6441 18.4718 47.6332 18.2285 47.4237 18.0447C47.4782 18.0176 47.5053 17.9447 47.5924 18.1501C47.5489 17.9528 47.9135 18.4854 47.8482 18.1826C47.9243 18.3043 48.0604 18.6097 48.1148 18.561C48.0957 18.4989 48.0549 18.4151 48.0549 18.4151C48.1148 18.561 48.2345 18.5745 48.3161 18.9233C48.1066 17.9284 48.8276 18.7935 48.6507 17.9392C48.814 17.9879 49.0017 18.0231 49.1214 18.0015C49.0779 17.915 49.0588 17.8527 49.0507 17.8933C49.0915 17.5553 49.4969 18.7043 49.5431 18.3258C49.4343 17.8095 49.3445 18.1042 49.3254 17.9015C48.9473 16.9174 49.5921 17.9473 49.4724 17.331L49.4206 17.285C49.3744 16.9174 49.7934 17.5662 49.9103 17.4364C49.9103 17.4364 49.8668 17.3526 49.8478 17.2904C50.1525 17.7473 50.411 17.8338 50.6096 17.9149C50.4082 17.5527 50.4626 17.7392 50.3293 17.3418C50.4164 17.3715 50.5687 17.9717 50.7401 18.0284C50.6939 17.8041 50.7102 17.5824 50.5524 17.1661L50.4246 17.1931C50.2641 16.6336 50.5851 17.1499 50.6096 17.0309L50.5061 16.8011C50.7211 16.8038 50.9659 17.3904 51.1455 17.2688L51.1972 17.4554C51.5454 17.9961 51.151 17.0904 51.4366 17.4797L51.2244 16.8741C51.355 16.9876 51.7087 17.3445 51.8801 17.4039C51.627 16.993 51.3849 16.8309 51.1863 16.6065C51.2543 16.5741 51.442 16.5525 51.5998 16.8309C51.5481 16.785 51.4529 16.6552 51.4611 16.7579C51.7386 17.1878 51.9481 17.3716 52.0814 17.304C51.5835 16.1659 52.3263 16.866 52.0597 15.9333C52.4813 16.2577 52.4759 15.5522 52.7915 15.5036C53.0581 16.4389 52.8867 15.4955 53.2458 16.42C53.3383 16.4525 53.3574 16.4254 53.3383 16.3633L53.3165 15.7334C53.254 15.4468 53.1696 15.5577 53.0907 15.3495C53.2077 15.2198 52.9928 14.9359 52.9874 14.652C53.1016 14.9872 53.2322 15.1007 53.2649 14.9412L53.322 15.4117C53.7301 15.8172 53.1805 14.5682 53.5886 14.9683L53.4036 14.706C53.5805 14.8331 53.7926 14.5411 54.2007 15.2359C54.1762 15.1223 54.0974 14.8602 54.0239 14.8143C54.2307 14.6007 54.9136 15.3684 54.9217 14.8331L54.8101 14.6169C54.8836 14.6629 55.0659 15.0061 55.0333 14.7547C54.9924 14.6628 54.9217 14.5385 54.938 14.5169C54.9951 14.5844 55.2264 14.8602 55.2346 14.7034L55.0768 14.4736C55.2019 14.0789 55.7107 14.9331 55.98 15.0034C55.708 14.3438 55.8141 14.0492 55.8658 13.9032L55.8249 13.8113C56.0807 13.6113 56.5404 14.16 56.9132 14.3087C56.7826 13.5247 57.3512 13.7788 57.4491 13.2679C57.4573 13.4058 57.6695 13.7788 57.743 13.8274C57.7511 13.6679 58.1048 14.2167 57.8437 13.6139L57.8273 13.6355C57.6287 13.0218 57.8219 13.1273 57.9171 13.0705L58.2598 13.8573C58.0449 12.5975 59.1223 14.0005 58.8394 12.9111C58.9836 13.0841 59.0625 13.0489 59.2067 13.222L59.0271 12.7976C59.1577 12.6165 59.223 12.5299 59.4815 12.5407L59.3128 12.2541C59.4243 12.1784 59.9738 13.4166 60.0963 13.395L59.8678 12.7461C60.0854 12.6677 60.0718 12.0243 60.518 12.5136C60.4771 12.4217 60.3928 12.2407 60.3493 12.2298C60.4418 12.1731 60.5615 11.6433 60.8825 12.5272C60.6513 11.9595 61.0784 12.3813 61.2988 12.584L61.1084 12.1731C61.4267 12.6678 61.4892 12.8138 61.6851 12.9057C61.696 12.8381 61.5763 12.5596 61.5763 12.6839C61.5926 12.4217 61.8239 13.0463 61.862 12.7705L61.7042 12.5218C61.8021 12.4434 61.8511 12.5921 62.0415 12.8786C62.1803 13.0192 62.2075 12.6867 62.066 12.3028C62.1749 12.5272 62.3626 12.811 62.3843 12.6759C62.3353 12.5299 62.2728 12.4515 62.2428 12.411C62.3109 12.0514 62.719 12.7867 62.6754 12.3217C62.621 12.1811 62.5993 12.1082 62.5938 12.0622C62.4523 12.1325 62.3435 12.2028 62.368 12.2298C62.2075 11.8433 62.3 11.7297 61.9844 11.235C62.1993 11.4864 62.6237 12.0514 62.6618 11.8243C62.6509 11.7838 62.6427 11.7459 62.621 11.6838L62.5911 11.6459C62.602 11.5972 62.64 11.6216 62.689 11.6784C62.6999 11.6 62.7026 11.5431 62.7353 11.5242C62.6183 11.1998 62.8006 11.2972 62.8523 11.2566C63.0209 11.681 63.0699 11.581 63.1434 11.9595C63.1407 11.9244 63.1107 11.9135 63.0645 11.9108C63.0509 11.9027 63.0372 11.9 63.0209 11.8783C63.0263 11.8891 63.0345 11.9028 63.04 11.9136C62.9964 11.9163 62.9421 11.927 62.8822 11.9459C63.0182 12.1406 63.1406 12.3028 63.108 12.0406C63.2494 12.292 63.3964 12.5542 63.4726 12.6867C63.3093 12.0649 63.3338 11.6837 63.2059 11.3134C63.4834 11.4756 63.6956 11.2972 64.1364 12.0433C64.2289 12.1244 64.101 11.7918 64.0684 11.6593C64.0058 11.5918 63.9758 11.6189 63.9133 11.5107C64.101 11.6729 64.2507 11.4648 64.5037 12.0109C64.5309 11.7081 64.2207 11.5297 64.4357 11.5486L64.3431 11.389C64.3268 10.3617 65.4939 12.5705 65.4123 11.2783C65.415 11.3594 65.4151 11.3972 65.4477 11.4918C65.6817 10.8106 66.5495 11.5919 66.6584 10.6187C66.7155 10.4078 66.876 10.7564 67.061 10.9943L66.9005 10.5294L67.246 10.9998C67.5861 11.3079 67.1046 9.75898 67.6351 10.3889L67.7303 10.7051C67.7901 10.6132 68.0677 10.7782 67.9099 10.4322C67.9425 10.4835 68.0677 10.7376 68.035 10.5673L67.9398 10.3293L68.3125 10.651C68.3996 10.4158 67.899 9.72107 68.1112 9.5805C68.2336 9.63727 68.6417 10.1699 68.6743 10.3429C68.6444 10.37 68.6471 10.5268 68.7423 10.7647L68.8729 10.8565C69.1749 11.5486 69.5313 12.2406 69.5395 12.8056L69.2293 12.4326L69.3246 12.7894L69.447 12.7651C69.515 13.1111 69.3572 12.8435 69.232 12.6705C69.2946 12.8543 69.33 12.9895 69.33 13.0679L68.9219 12.4542C69.0199 12.7354 69.2049 12.9733 69.1776 13.1598C68.9872 12.8759 68.9845 12.5217 68.7968 12.3622C68.8621 12.7056 68.9899 12.957 68.8022 12.7164C68.8647 12.9002 68.9301 13.0084 68.9927 13.076C68.8376 12.8867 68.7777 13.057 68.59 12.7002C68.6852 13.1192 68.3206 12.692 68.6008 13.3489C68.5138 13.2003 68.2689 12.8786 68.1955 12.8759C68.6362 13.622 67.9833 13.0165 68.3642 13.8545C67.986 13.176 67.9316 13.6626 67.6215 13.3274C67.6541 13.3815 67.7167 13.4896 67.7139 13.4464C67.6541 13.5383 67.7194 13.7626 67.7221 13.9194C67.4691 13.3355 67.2841 13.2544 67.0637 12.9191C67.197 13.5274 67.412 13.5842 67.6024 14.1411C67.412 13.6626 67.2297 13.7383 67.0991 13.3274C67.1672 13.7113 67.1018 13.5247 67.2623 14.0302C66.944 13.3003 67.1372 13.9357 66.8869 13.5085C66.925 13.9167 67.1426 14.2086 66.925 14.0356C66.9903 14.2789 67.2079 14.4924 67.2079 14.4924ZM63.7337 14.4249C63.7364 14.4303 63.7364 14.433 63.7364 14.433C63.7664 14.433 63.7909 14.433 63.8072 14.433C63.7909 14.4303 63.7718 14.4303 63.7337 14.4249ZM63.4807 14.5195C63.5052 14.4898 63.5405 14.4736 63.5814 14.4601C63.5297 14.3114 63.4589 14.1654 63.4372 14.1816C63.4916 14.2735 63.4671 14.3816 63.4807 14.5195ZM62.7979 11.381C62.7353 11.3377 62.7543 11.4243 62.7842 11.5135C62.806 11.5135 62.8332 11.5188 62.874 11.535C62.8822 11.5485 62.8903 11.5675 62.9012 11.5837C62.8658 11.508 62.8305 11.435 62.7979 11.381Z" fill="#161B22"/>
<path d="M63.0964 11.9043C63.1073 11.9125 63.1155 11.9288 63.1264 11.9288C63.1345 11.9696 63.14 12.005 63.1427 12.0349C63.1182 11.9914 63.0965 11.9479 63.0747 11.9071C63.0829 11.9071 63.0883 11.9043 63.0964 11.9043Z" fill="#161B22"/>
<path d="M40.8857 21.6941V21.6832C40.8885 21.7022 40.8912 21.7213 40.8994 21.7485C40.8939 21.7213 40.8912 21.7104 40.8857 21.6941Z" fill="#161B22"/>
<path d="M60.3926 16.7227L60.3491 16.6139L60.409 16.6982L60.3926 16.7227Z" fill="#161B22"/>
<path d="M40.1182 23.6964C40.1318 23.7345 40.1427 23.7754 40.1454 23.8135C40.1345 23.7835 40.1263 23.7427 40.1182 23.6964Z" fill="#161B22"/>
<path d="M39.5691 24.031L39.5474 24.2161C39.5474 24.1154 39.5555 24.0637 39.5691 24.031Z" fill="#161B22"/>
<path d="M39.2015 24.4275C39.1662 24.354 39.1417 24.2997 39.1172 24.248V24.2452L39.2015 24.4275Z" fill="#161B22"/>
<path d="M46.6157 21.9833C46.6239 21.9833 46.632 21.9859 46.6402 21.9941C46.7163 22.0594 46.6729 22.0378 46.6157 21.9833Z" fill="#161B22"/>
<path d="M44.064 21.8715C44.1184 21.9395 44.1728 22.0048 44.2163 22.0429C44.1891 22.0918 44.1619 22.1109 44.064 21.8715Z" fill="#161B22"/>
<path d="M49.2197 21.5132L49.2168 21.5046C49.2226 21.5046 49.2284 21.5017 49.2313 21.4988L49.2197 21.5132Z" fill="#161B22"/>
<path d="M44.3109 21.9934C44.3081 22.094 44.2673 22.0886 44.2129 22.0424C44.2319 22.0016 44.251 21.9417 44.3109 21.9934Z" fill="#161B22"/>
<path d="M38.0186 22.0401L38.0322 22.0129C38.0431 22.0401 38.0539 22.0618 38.0648 22.0781L38.0186 22.0401Z" fill="#161B22"/>
<path d="M38.0649 22.0775L38.1112 22.1184C38.1004 22.1239 38.0894 22.1238 38.0649 22.0775Z" fill="#161B22"/>
<path d="M38.2055 22.2024L38.1104 22.1182C38.1267 22.11 38.143 22.0854 38.2055 22.2024Z" fill="#161B22"/>
<path d="M37.5075 22.489L37.4341 22.3394C37.4531 22.3694 37.4776 22.4183 37.5075 22.489Z" fill="#161B22"/>
<path d="M37.3086 22.5213C37.3358 22.4672 37.2759 22.151 37.3793 22.2213L37.4365 22.3402C37.3086 22.1266 37.4582 22.7592 37.3086 22.5213Z" fill="#161B22"/>
<path d="M38.0154 22.7485L37.912 22.9324C37.8712 22.7594 37.8167 22.5242 37.7297 22.5134C37.7242 21.9511 37.8412 22.8945 38.0154 22.7485Z" fill="#161B22"/>
<path d="M38.3912 22.3184C38.2769 22.2751 38.2933 22.0805 38.2524 21.9913C38.3667 22.1183 38.3939 22.1508 38.3912 22.3184Z" fill="#161B22"/>
<path d="M41.8173 20.9211L41.6514 20.5399C41.7357 20.5697 41.7112 20.6887 41.8173 20.9211Z" fill="#161B22"/>
<path d="M43.2911 22.6378L43.3264 22.8999L43.1523 22.562L43.2911 22.6378Z" fill="#161B22"/>
<path d="M42.5483 19.7449L42.4966 19.7013L42.6598 19.7993L42.5483 19.7449Z" fill="#161B22"/>
<path d="M48.3569 17.5364L48.5337 18.0176C48.4548 17.95 48.2263 17.4229 48.3569 17.5364Z" fill="#161B22"/>
<path d="M51.0398 17.0066C50.9691 16.7579 50.9772 16.5795 51.116 16.793C51.0725 16.8471 51.0915 17.0553 51.0398 17.0066Z" fill="#161B22"/>
<path d="M58.1675 13.2004L58.0532 13.0618L58.2028 13.1542L58.1675 13.2004Z" fill="#161B22"/>
<path d="M39.9811 3.65496C39.8396 3.6604 39.5241 3.6251 39.5893 3.58429L40.1307 3.59518L39.9811 3.65496Z" fill="#161B22"/>
<path d="M39.0073 3.27126C39.2739 3.23882 39.7364 3.2145 40.2289 3.28749C39.7065 3.2983 39.9214 3.32809 39.3011 3.3362C39.2358 3.37675 39.4671 3.42801 39.6657 3.43612C39.5269 3.44153 39.7772 3.51459 39.4371 3.51189C39.0236 3.41998 39.0127 3.3442 39.3637 3.29554C39.2494 3.27121 39.108 3.27666 39.0073 3.27126Z" fill="#161B22"/>
<path d="M41.2729 1.34057L41.2158 1.38135C41.2403 1.35414 41.2593 1.34329 41.2729 1.34057Z" fill="#161B22"/>
<path d="M43.7891 2.41675C43.7782 2.39498 43.7945 2.34338 43.819 2.29985C43.819 2.34066 43.8163 2.37594 43.7891 2.41675Z" fill="#161B22"/>
<path d="M44.4773 2.11626C44.461 2.12714 44.4501 2.12981 44.4365 2.13525C44.4692 2.09717 44.4909 2.07817 44.4773 2.11626Z" fill="#161B22"/>
<path d="M41.2729 1.34058L41.4226 1.23178C41.3383 1.38413 41.3246 1.32425 41.2729 1.34058Z" fill="#161B22"/>
<path d="M40.3556 2.76769C40.3284 2.78129 40.2767 2.78948 40.2114 2.79492C40.2359 2.78404 40.2577 2.77313 40.2713 2.76224C40.2985 2.76496 40.3257 2.76769 40.3556 2.76769Z" fill="#161B22"/>
<path d="M40.4702 0.354004L40.4512 0.343111C40.4811 0.285978 40.5138 0.218038 40.5491 0.147302L40.4702 0.354004Z" fill="#161B22"/>
<path d="M37.8311 0.889225C37.8121 0.86746 38.2718 0.894746 38.4704 0.902907C38.28 0.900187 38.1902 0.908237 38.1522 0.924561C38.0678 0.919119 37.9644 0.908269 37.8311 0.889225Z" fill="#161B22"/>
<path d="M38.5194 2.414L38.4541 2.43579C38.4731 2.43035 38.4922 2.42217 38.5194 2.414Z" fill="#161B22"/>
<path d="M41.082 0.608154C41.1174 0.551022 41.1528 0.49933 41.1718 0.472124C41.1446 0.521095 41.112 0.564625 41.082 0.608154Z" fill="#161B22"/>
<path d="M63.8975 13.5815C63.9056 13.5489 63.911 13.5298 63.9165 13.5026C63.911 13.5489 63.9056 13.5815 63.8975 13.5815Z" fill="#161B22"/>
<path d="M65.4891 11.6458L65.481 11.6187C65.5 11.5349 65.5191 11.4511 65.5354 11.37L65.4891 11.6458Z" fill="#161B22"/>
<path d="M45.4974 1.99211C45.4947 1.99483 45.492 1.99484 45.4893 1.99756C45.4947 1.94043 45.5029 1.95402 45.4974 1.99211Z" fill="#161B22"/>
<path d="M52.3239 5.55822C52.0844 5.89884 52.2531 6.09621 51.9565 6.46387C52.0382 6.30167 52.1225 5.75827 52.3239 5.55822Z" fill="#161B22"/>
<path d="M40.2964 2.74072C40.3018 2.72984 40.3072 2.7162 40.3045 2.7026C40.3181 2.72164 40.3154 2.73256 40.2964 2.74072Z" fill="#161B22"/>
<path d="M51.9564 6.46334L51.9537 6.466L51.9238 6.50146C51.9374 6.48514 51.9456 6.47422 51.9564 6.46334Z" fill="#161B22"/>
<path d="M47.0949 3.11037C47.0541 3.18111 47.0214 3.23277 46.9888 3.28174C47.0078 3.23821 47.0378 3.18927 47.0949 3.11037Z" fill="#161B22"/>
<path d="M45.5063 3.03833L45.5662 3.0002C45.5363 3.03013 45.52 3.03833 45.5063 3.03833Z" fill="#161B22"/>
<path d="M47.4814 4.02218C47.5141 4.00041 47.5467 3.94606 47.544 4.01407C47.5304 4.03312 47.5223 4.0467 47.5114 4.0603C47.5304 3.99773 47.5331 3.96504 47.4814 4.02218Z" fill="#161B22"/>
<path d="M48.1886 4.36027L48.1369 4.43652C48.1341 4.42564 48.1287 4.41473 48.126 4.40384L48.1886 4.36027Z" fill="#161B22"/>
<path d="M61.5527 12.7489C61.6044 12.6299 61.6534 12.4975 61.6997 12.365C61.6017 12.6732 61.686 12.8138 61.5527 12.7489Z" fill="#161B22"/>
<path d="M40.0972 2.74929C40.2114 2.75473 40.2713 2.75206 40.2958 2.74118C40.2903 2.74934 40.2794 2.75746 40.2685 2.76562C40.2032 2.7629 40.138 2.75745 40.0972 2.74929Z" fill="#161B22"/>
<path d="M45.9248 7.26894L46.0717 7.26349C46.02 7.28797 45.9656 7.2907 45.9248 7.26894Z" fill="#161B22"/>
<path d="M55.9974 10.956L56.0083 11.0185C55.9919 11.024 55.9865 11.0077 55.9974 10.956Z" fill="#161B22"/>
<path d="M46.3906 7.49048C46.4804 7.35531 46.5457 7.28234 46.5947 7.23638C46.5838 7.27152 46.5757 7.29854 46.5566 7.3499L46.3906 7.49048Z" fill="#161B22"/>
<path d="M61.7027 12.3581L61.6992 12.365L61.7027 12.3581Z" fill="#161B22"/>
<path d="M62.2406 13.6223C62.1181 13.6034 62.3358 13.0411 62.4011 12.7032C62.3032 12.5004 62.2215 13.1114 62.0909 13.3952C62.0419 13.2168 62.1181 12.6679 62.0474 12.6733C62.0175 12.768 61.993 12.7978 61.9767 12.9222C62.0093 12.4383 61.7046 12.8248 61.7536 12.2193C61.7318 12.2679 61.7128 12.3166 61.6992 12.3598C61.7971 12.076 61.8814 11.7813 61.9358 11.5705C61.8869 11.5462 61.9386 11.1784 61.8134 11.5515C61.8488 11.5488 61.808 11.7029 61.7917 11.8246L61.7808 11.6461C61.5795 12.176 61.8053 11.8543 61.691 12.2544C61.6311 12.0516 61.6339 11.5624 61.506 11.6948C61.3401 12.2193 61.6475 11.9299 61.4053 12.3679L61.5904 12.203C61.2585 13.0113 61.6855 12.1679 61.3428 13.0357C61.1305 13.1411 61.2285 12.7113 61.0163 12.8167C61.0625 12.5112 61.1523 12.3842 61.1986 12.0787C61.1115 11.4812 60.6272 13.3573 60.6544 12.6003C60.7116 12.2354 60.8884 11.5596 60.6599 11.8786L60.5293 12.4896C60.347 12.5031 60.6871 11.6028 60.3987 11.957C60.3606 12.2003 60.4695 12.1923 60.4232 12.2571C60.1729 12.6978 60.445 11.8948 60.3607 11.8705L60.1865 12.395C60.0369 12.2598 59.958 11.8272 59.7975 11.6704C59.7594 11.8299 59.743 12.0056 59.6505 12.1543C59.4873 11.8164 59.1146 12.0597 58.7827 12.3003L58.8344 11.8192C58.8126 11.8165 58.731 12.0138 58.7256 12.1084C58.5814 12.2517 58.8126 11.8192 58.8235 11.6272C58.7827 11.5786 58.6739 11.8678 58.663 12.0137C58.6222 11.5785 58.4698 11.0432 58.146 11.4785L58.1352 11.6245C57.9447 11.7677 58.2875 10.6486 58.0291 11.0325L58.0264 11.1217C57.6781 11.2244 57.504 10.708 57.0605 11.3163C57.2374 10.6512 56.6823 11.5136 56.9707 10.5999C56.6551 10.9946 56.647 11.1731 56.3151 11.3974C56.2389 11.4191 56.4185 10.8027 56.3777 10.6837L56.2117 11.1568L56.2825 10.6243L56.0321 11.1704L56.005 11.0244C56.0431 11.0055 56.1383 10.8325 56.1818 10.6973C56.1464 10.4459 55.8009 10.9324 55.7111 11.173L55.5914 10.6811C55.5289 10.873 55.5506 10.9541 55.5424 11.0866C55.5751 10.5567 55.3411 11.5731 55.371 11.0892C55.4255 10.9892 55.4608 10.8053 55.4935 10.708C55.3275 10.9702 55.1833 10.9217 55.1181 10.7649L55.0228 11.0974C54.7997 11.1109 54.6718 10.7973 54.4515 10.727C54.5848 10.6027 54.7725 10.0377 54.7317 9.9593L54.5222 10.4459C54.5956 10.1242 54.6583 10.2837 54.7127 9.87548C54.612 9.90252 54.4488 10.4188 54.4352 10.5973L54.4025 10.3891C54.3426 10.5351 54.3345 10.6215 54.2719 10.8135C54.3454 10.4918 53.9182 11.2461 54.0597 10.6919L53.9999 10.8379C53.7822 10.7595 53.7496 10.554 53.5836 10.4621C53.7414 10.035 53.638 10.1025 53.7169 9.73755C53.5373 9.82676 53.2653 10.1079 53.1238 10.0133C53.0966 9.76188 53.2327 9.64026 53.2816 9.36993C53.1239 9.7538 52.9823 9.65918 52.9551 9.96736C52.7946 9.83489 52.7484 9.79978 52.6396 9.39158C52.7266 9.24289 52.7837 9.18612 52.8218 9.04825C52.8055 8.96715 52.6613 9.17257 52.5933 9.3591L52.5879 9.40504C52.5607 8.7238 51.5323 10.2891 51.6466 9.4024L51.6411 9.44556L51.5975 8.94278C51.4697 8.96981 51.5377 9.25641 51.3663 9.46457C51.399 8.73197 50.9582 9.41048 50.9473 8.90226C50.3243 9.97008 50.4577 8.60212 49.9516 9.2374L50.0768 8.97789C50.1366 8.69674 49.9489 9.10235 49.8836 9.1483C49.9788 8.94555 50.0414 8.93464 50.0713 8.77514C49.7748 8.27502 49.0049 8.78052 48.4499 8.81566C48.254 8.81296 48.9722 7.41271 48.4852 7.95068L48.322 8.46428C48.2621 7.73168 47.6391 8.1885 47.552 7.5424C47.5194 7.66405 47.4514 7.81011 47.4813 7.82092C47.2501 8.14262 47.2256 7.72085 47.3589 7.43429C47.2936 7.4424 47.2256 7.68846 47.1249 7.82092C46.9589 7.99664 47.1685 7.29101 46.9671 7.62622C46.9345 7.68029 46.9317 7.7506 46.9317 7.78304C46.9698 7.5911 46.7059 7.72894 46.9426 7.34506C46.7304 7.48293 46.8012 7.05855 46.5917 7.25319C46.7495 6.772 46.2815 7.37479 46.5726 6.72599C46.2597 7.39101 46.1047 7.16125 46.1809 6.81522C46.1074 7.02608 46.0149 6.99099 45.9088 7.28025C45.8272 7.22889 45.8109 7.06662 45.9904 6.73681C45.4436 7.44779 45.9904 5.94754 45.4001 6.91263C45.3239 6.43414 45.2124 6.07999 45.0627 5.81506C44.739 6.47197 45.2804 6.00422 44.9212 6.68546C44.8423 6.3097 45.0029 5.68793 44.7118 5.7393C44.6111 5.80147 44.5975 6.03674 44.5594 6.15839C44.4832 5.78263 44.116 6.00424 44.1105 5.55278C44.0806 5.61225 44.0642 5.69065 44.0588 5.75012C44.0316 5.70957 43.9228 5.80151 44.0806 5.50684L44.0751 5.6069C44.3581 5.20951 44.3962 4.63642 44.5104 4.40663C44.1295 5.28522 44.2139 4.52283 43.7514 5.64201C43.7568 5.57443 43.7976 5.41762 43.9091 5.22569C43.8438 5.26353 43.7704 5.37165 43.6888 5.61495C43.6398 5.38517 43.852 5.09588 43.7296 5.04181C43.6534 5.18509 43.648 5.25278 43.5718 5.4258C43.6588 5.11762 43.7459 4.80672 43.5799 4.87431C43.5391 4.96352 43.4684 5.06895 43.501 5.08247C43.3487 4.9473 43.599 4.19025 43.2671 4.35515C42.9896 5.00125 43.093 4.52284 42.7937 5.05L42.7774 4.83642L42.9596 4.6012C42.8644 4.56065 42.9977 4.13082 42.8263 4.26328L42.7719 4.51738L42.6604 4.32545L42.8645 4.17682C42.9243 3.85242 43.2426 3.50906 43.044 3.59286C43.0386 3.66044 42.9515 3.55235 42.7339 3.8389C42.7339 3.8389 42.7339 3.83884 42.7339 3.84155C42.7828 3.64961 42.8372 3.44689 42.6985 3.54151C42.5869 3.70101 42.3856 4.1362 42.3122 4.24163C42.5162 3.77396 42.1707 4.00375 42.3802 3.50363C42.3367 3.62528 42.1815 3.9037 42.1435 3.95506L42.3094 3.57662C42.2033 3.66854 42.168 3.72263 42.0483 3.94701C41.8878 3.94431 42.4645 3.29824 42.1544 3.5064C42.1489 3.54154 42.1136 3.59286 42.1081 3.66044C41.8769 3.72803 41.9503 3.27932 41.7164 3.37664C41.3736 3.88487 41.7599 3.574 41.4606 3.99572C41.3191 3.78756 41.4225 3.13061 41.1641 3.14683L41.2321 3.10895C41.6375 2.34931 40.8784 3.39829 40.9872 2.99279C40.979 3.06037 40.7778 3.42263 40.8186 3.33612C40.62 3.38208 40.6608 3.00084 40.6063 2.65751L40.5193 2.86304C40.3424 2.99009 40.2608 2.84677 40.1302 2.88732C40.22 2.68457 40.1547 2.68722 40.3479 2.4277C39.4501 3.36036 40.2228 1.56537 39.461 2.33042C39.4855 2.34934 39.4229 2.53316 39.4011 2.52235L39.3195 2.23578C39.529 1.92489 39.4637 2.05736 39.6541 1.83028C39.7466 1.62482 39.7847 1.4464 39.7385 1.41936C39.6922 1.68159 39.4229 1.93299 39.2787 2.08979C39.344 1.99517 39.3984 1.87902 39.4637 1.7817C39.0175 2.29263 39.8419 1.12741 39.4746 1.43019L39.3794 1.60324C39.3821 1.48699 39.4719 1.23828 39.3902 1.2545C39.14 1.61134 39.3358 1.45999 39.1535 1.76546C39.0909 1.69788 39.4365 0.976099 39.14 1.3032C39.1073 1.42485 39.1536 1.45453 39.1236 1.57618C38.7808 1.96546 38.8406 1.84925 38.7427 1.88439L38.7536 1.87898L38.5033 1.99791L38.6094 1.90063C38.7155 1.68707 38.7727 1.5491 38.7999 1.45989L39.7113 1.0004C39.363 1.06257 39.8092 1.19226 39.2134 1.26255C39.929 1.17604 39.6215 1.27069 40.1166 1.30043C40.2499 1.34909 40.3996 1.41665 40.5383 1.41395C40.1357 1.4518 40.843 1.55451 40.2527 1.60588C40.4104 1.6221 40.2608 1.68166 40.6607 1.69788C40.5274 1.77898 40.386 1.65464 40.1874 1.64653C39.6351 1.74115 40.8185 2.02498 40.0595 2.16555C39.7385 2.31424 39.2025 2.30343 38.9223 2.4413C39.1726 2.51429 39.5045 2.44394 39.5045 2.44394C39.7303 2.54937 39.684 2.61158 39.4936 2.67916C39.6323 2.67375 39.7494 2.70071 39.9262 2.73856C39.8799 2.80074 39.344 2.73596 39.5725 2.84139C39.7521 2.84139 40.035 2.84408 40.2146 2.82515C40.0622 2.89003 39.7603 2.94402 39.6106 3.01431C39.8854 3.05756 40.035 2.99812 40.2173 2.98461C40.084 3.06571 39.9479 3.19818 39.5072 3.19277L39.3548 3.12255C39.3304 3.15499 39.7303 3.16847 39.812 3.15225C40.1602 3.10088 39.6677 3.02789 39.5099 3.01167L39.4039 3.06037C38.4789 2.92791 39.5725 2.8414 39.5263 2.72246L38.8461 2.71704L39.4175 2.64405C39.2434 2.6035 38.8679 2.55751 38.7618 2.60617C38.4326 2.49803 39.0094 2.55215 38.6421 2.45212C38.5849 2.43861 38.5523 2.4413 38.5251 2.44671L38.7346 2.38177C38.5904 2.38717 38.2585 2.33041 38.351 2.38718C37.9728 2.21146 38.8788 2.19259 38.37 2.09797L38.3265 2.10602C38.5714 1.92219 38.8243 2.12493 39.4201 2.0222L38.2013 1.82486L38.6992 1.84387C38.6829 1.82224 38.6503 1.77899 38.4489 1.77088C38.7944 1.71951 38.6639 1.80062 38.9876 1.7817C38.5441 1.64653 39.2216 1.52217 38.4326 1.43837C38.8135 1.43296 38.7155 1.55722 38.9876 1.47071C38.1388 1.37339 39.1427 1.35991 38.759 1.23826C38.3183 1.23015 38.5441 1.33562 38.1578 1.21397C38.906 1.21667 38.0082 1.02198 38.1578 0.957102C38.4054 0.976026 38.4925 0.951716 38.5224 0.911166L39.208 0.000108719L39.4256 0.456958C39.4555 0.521837 39.5671 0.508305 39.5698 0.643472C39.6677 0.470458 39.948 0.492085 40.1629 0.373138L40.2119 0.286678C39.9208 0.80572 40.084 0.776015 40.0976 0.927402C40.2799 0.621924 40.3397 0.492175 40.3805 0.329974L40.4513 0.37591C40.3696 0.548923 40.3397 0.648969 40.3506 0.735476L40.5656 0.343438C40.6472 0.421835 40.4867 0.908484 40.7642 0.730063C40.5574 1.08961 40.0649 1.66275 40.0568 1.97904C40.1765 1.7898 40.3805 1.46263 40.3941 1.3626C40.3914 1.39504 40.337 1.54648 40.4105 1.47889L40.5519 1.12197C40.6934 1.01383 40.4186 1.41124 40.4812 1.40854C40.6444 1.1328 40.6336 1.23289 40.756 1.01122C40.7614 0.978782 40.6472 1.10034 40.6961 0.98139C40.7778 0.962466 40.9355 0.838176 41.0825 0.640832C40.9845 0.794923 40.8594 1.01115 40.8757 1.07062C40.96 1.14902 41.107 0.759789 41.2484 0.651656C41.1587 0.85711 41.3382 0.694894 41.0933 1.1085C41.1233 1.12202 41.243 0.932777 41.3192 0.827347C41.262 1.03821 41.5232 1.01386 41.2076 1.41936L41.1777 1.44101C41.175 1.45182 41.1777 1.45185 41.175 1.46266C41.0988 1.96818 41.6565 1.42755 41.7191 1.69788L41.8007 1.55994C41.8061 1.77351 41.964 1.779 41.8633 2.11962C41.8932 2.13584 42.0782 1.90601 42.1625 1.73299C42.1761 1.88168 42.0973 2.04118 42.3367 1.87357C42.3993 1.58702 42.4863 1.67344 42.3611 1.65181C42.5271 1.58693 42.6767 1.37617 42.5624 1.81681C42.7311 1.43834 42.8917 1.4086 42.8781 1.54107L42.6659 1.75728C42.6876 1.83838 42.7529 1.83304 42.8155 1.82764L43.0576 1.34373C43.58 0.878753 42.8699 2.517 43.5609 1.64112C43.4304 2.00066 43.3215 1.81404 43.1529 2.22495C43.2807 2.21144 43.7541 1.58695 43.784 1.60046C44.056 1.40853 43.5201 2.3548 43.7514 2.24937C43.6426 2.40887 43.3759 2.84945 43.3895 3.06301C43.5174 3.0522 43.8928 2.41698 43.9091 2.24937C43.8955 2.22234 43.8548 2.27088 43.8248 2.32765C43.8276 2.24925 43.8303 2.15741 43.9663 1.9925L43.8847 2.16819C44.0262 2.02221 44.1431 2.1087 44.2628 1.81404C44.2438 2.01409 44.1404 2.10872 44.0425 2.16819C44.2955 1.98707 44.2302 2.2628 44.4424 2.16278C44.3717 2.24658 44.2465 2.43583 44.2655 2.44394C44.5594 2.3331 44.1703 2.80885 44.2519 2.94672C44.4614 2.72505 44.5594 2.31683 44.5676 2.59798C44.7362 2.46281 44.826 2.15464 44.8695 2.00055C44.8042 2.38713 45.1933 1.89519 45.2885 1.86816L45.3021 1.70052C45.2939 1.80054 45.3239 1.81412 45.3538 1.82764L45.1388 2.14932C45.2041 2.10877 45.2341 2.12232 45.3103 1.97904C45.2259 2.21964 44.9811 2.5304 44.8913 2.87373C45.03 2.72504 44.9348 3.13333 45.1906 2.68999C44.9648 2.76838 45.4463 2.24389 45.3619 2.10602C45.3565 2.1736 45.3865 2.18445 45.4545 2.1439C45.4871 2.09525 45.498 2.04653 45.5034 2.01679C45.8544 1.68428 45.2967 2.56016 45.4463 2.62504C45.5633 2.36011 45.7347 2.15737 45.7293 2.22495C45.6694 2.20062 45.4789 2.63589 45.4272 2.86026C45.6231 2.70888 45.449 3.06031 45.5116 3.06301L45.4082 3.12796C45.2939 3.39289 45.3565 3.38468 45.381 3.49822C45.4898 3.30087 45.3946 3.33063 45.4626 3.25494C45.3021 3.74154 45.868 2.87374 45.8109 3.22788C45.9469 3.0792 46.0639 2.74942 46.1645 2.6521C46.1047 3.04409 46.4665 2.36289 46.442 2.6954C46.2325 3.0225 46.2679 2.936 46.1809 3.31447L46.1101 2.97378L45.9768 3.5361C45.9142 3.51177 45.9632 3.25769 45.8979 3.29824C45.8136 3.60912 45.8517 3.51993 45.6749 3.79297C46.0231 3.31718 45.6802 4.17415 45.955 3.87138L46.3876 3.01708C46.7223 2.70619 46.4121 3.5794 46.7032 3.45505L46.5699 3.57398C46.423 3.92542 46.6597 3.67671 46.6488 3.84432C46.7875 3.55506 46.8773 3.46855 46.9916 3.30365C46.8828 3.51451 47.1331 3.34956 46.8637 3.93078L47.1331 3.59286C47.3562 3.51176 46.8964 4.49584 47.0868 4.4688C47.1984 4.13629 47.3616 3.96325 47.3779 3.69291C47.4269 3.71454 47.4949 3.68202 47.397 3.88207C47.5139 3.71446 47.3371 4.33629 47.5139 4.08218C47.4731 4.21735 47.3317 4.52286 47.397 4.52556C47.4323 4.46879 47.465 4.38221 47.465 4.38221C47.397 4.52549 47.4541 4.61469 47.2528 4.91206C47.8377 4.08213 47.6364 5.1743 48.1369 4.46062C48.1941 4.6066 48.2757 4.75801 48.3601 4.8256C48.3954 4.73639 48.4281 4.68227 48.3955 4.70389C48.6539 4.49574 48.0826 5.5744 48.3737 5.34462C48.6702 4.91208 48.4144 5.05268 48.545 4.89859C49.0157 3.95242 48.6647 5.1122 49.0239 4.60397L49.0266 4.53639C49.2551 4.24713 49.043 4.98775 49.2007 4.97423C49.2007 4.97423 49.2334 4.88771 49.266 4.82824C49.1273 5.35539 49.2171 5.59058 49.2769 5.77982C49.4102 5.38783 49.3123 5.55552 49.5109 5.18516C49.5408 5.26356 49.2144 5.79066 49.2742 5.94746C49.4048 5.75822 49.5653 5.61225 49.7584 5.20945L49.666 5.14187C49.9571 4.63905 49.7911 5.22027 49.8863 5.15269L49.9842 4.92024C50.1067 5.06352 49.8455 5.64739 50.0359 5.68254L49.9407 5.85017C49.7748 6.46924 50.1638 5.5609 50.0632 6.03128L50.3516 5.45814C50.3488 5.62574 50.3134 6.12047 50.376 6.27996C50.5066 5.81769 50.4767 5.53652 50.512 5.24456C50.5746 5.26619 50.697 5.37976 50.6018 5.68254C50.6018 5.61495 50.6345 5.45815 50.5719 5.53654C50.4413 6.03126 50.4413 6.30158 50.5665 6.34213C51.0426 5.19322 51.0099 6.19083 51.4806 5.34198C51.5132 5.85291 51.9812 5.33924 52.1989 5.51226C51.7336 6.36651 52.2614 5.56898 51.8588 6.4773C51.8914 6.56111 51.9213 6.55572 51.9512 6.49895L52.3566 6.02587C52.509 5.77716 52.3866 5.80147 52.4764 5.59872C52.6314 5.5825 52.6913 5.2338 52.8763 5.02294C52.7239 5.34463 52.7239 5.50959 52.849 5.41497L52.5715 5.79605C52.5471 6.35565 53.0449 5.08783 53.0231 5.64201L53.0858 5.33115C53.1075 5.53931 53.4258 5.46087 53.2164 6.23403C53.2762 6.134 53.3986 5.89075 53.385 5.80965C53.6489 5.78532 53.5591 6.79359 53.9128 6.40431L53.9862 6.17186C54.0026 6.25296 53.8911 6.62606 54.0325 6.4179C54.0679 6.32329 54.106 6.18531 54.1304 6.17991C54.1223 6.26641 54.0842 6.62067 54.1903 6.50713L54.242 6.23403C54.5739 6.02046 54.3317 6.97747 54.4569 7.20184C54.7126 6.53412 54.9684 6.38272 55.0935 6.30702L55.1262 6.21238C55.4092 6.22319 55.3411 6.92605 55.4798 7.27748C55.8934 6.60705 56.0866 7.15315 56.4702 6.82604C56.3913 6.93688 56.2852 7.35049 56.3042 7.43429C56.4076 7.31805 56.2879 7.9533 56.5028 7.33424L56.4783 7.33965C56.7368 6.75032 56.7912 6.95047 56.8864 6.96398L56.6144 7.77762C57.2619 6.68277 57.0714 8.42647 57.5666 7.41542C57.553 7.63709 57.6237 7.65601 57.6101 7.87768L57.757 7.44248C57.9502 7.38301 58.0454 7.35328 58.2032 7.52089L58.2685 7.19643C58.3854 7.20454 57.9801 8.49668 58.0753 8.55615L58.3229 7.91556C58.5106 7.98855 58.8888 7.48027 58.8806 8.13178C58.9078 8.03446 58.9649 7.84517 58.9432 7.80732C59.0384 7.82084 59.4302 7.48024 59.1091 8.36423C59.2996 7.78031 59.3241 8.36695 59.3459 8.65621L59.4683 8.22101C59.3785 8.79952 59.335 8.95088 59.4084 9.14012C59.4547 9.09416 59.5445 8.80223 59.471 8.90226C59.6397 8.70491 59.4166 9.33476 59.607 9.14012L59.6505 8.85091C59.7594 8.84821 59.705 8.99413 59.6587 9.33205C59.6669 9.52398 59.8818 9.28065 60.0179 8.89407C59.958 9.13737 59.9145 9.4726 60.007 9.37798C60.0614 9.232 60.0668 9.13466 60.0695 9.086C60.3253 8.8427 60.162 9.66457 60.4069 9.27529C60.4531 9.13201 60.483 9.06438 60.5048 9.02383C60.3688 8.99409 60.2572 8.98327 60.2572 9.01841C60.3797 8.62102 60.5075 8.58318 60.5919 8.00466C60.5837 8.33177 60.5293 9.02929 60.6898 8.8752C60.7062 8.83735 60.7225 8.80221 60.7442 8.74003L60.747 8.69132C60.7823 8.65888 60.7932 8.70215 60.7932 8.77514C60.8449 8.71837 60.883 8.67779 60.9156 8.6805C61.0271 8.35339 61.0897 8.53728 61.1496 8.53728C61.0136 8.97252 61.1061 8.92384 60.9319 9.26446C60.951 9.23472 60.9374 9.21038 60.9075 9.18064C60.9021 9.16442 60.8966 9.15633 60.8993 9.12929C60.8966 9.14011 60.8939 9.1563 60.8912 9.16982C60.8612 9.14819 60.8177 9.12386 60.766 9.10223C60.7415 9.33743 60.7306 9.53477 60.8612 9.3104C60.8095 9.59425 60.7524 9.8889 60.7252 10.0376C60.9809 9.44825 61.2176 9.15909 61.3482 8.78874C61.438 9.0807 61.6828 9.05898 61.5468 9.91324C61.5631 10.0322 61.6693 9.69162 61.7237 9.56727C61.721 9.47806 61.6856 9.48075 61.7046 9.3591C61.7373 9.597 61.9549 9.52131 61.8134 10.1025C62.0039 9.87544 61.8978 9.55368 62.0311 9.69425L62.0583 9.51315C62.6296 8.68322 62.1644 11.127 62.8445 10.0376C62.801 10.1025 62.7793 10.135 62.7466 10.2296C63.288 9.81332 63.4485 10.9432 64.0634 10.216C64.2184 10.0755 64.1368 10.4486 64.1341 10.7487L64.2783 10.281L64.2592 10.8568C64.3272 11.3001 64.8414 9.76183 64.8659 10.5728L64.7598 10.8865C64.8523 10.8459 64.9557 11.1352 65.0346 10.7621C65.0292 10.8216 64.9775 11.1027 65.0482 10.9432L65.1108 10.6945L65.1952 11.1676C65.3856 11.0216 65.4101 10.1728 65.6331 10.1755C65.6876 10.2918 65.6848 10.9568 65.6168 11.1163C65.5814 11.1217 65.4971 11.2514 65.4373 11.5001L65.4781 11.6489C65.3175 12.3869 65.1979 13.1546 64.8931 13.6223L64.8741 13.141L64.7489 13.4871L64.8496 13.5358C64.7082 13.8575 64.7408 13.5493 64.7462 13.3357C64.6918 13.5222 64.6401 13.652 64.5993 13.7141L64.6429 12.9816C64.5585 13.2654 64.5613 13.5655 64.4388 13.7033C64.4579 13.3627 64.651 13.0735 64.6047 12.8356C64.4633 13.1546 64.4143 13.4303 64.4116 13.1275C64.3545 13.3141 64.3409 13.4384 64.349 13.5276C64.3409 13.2843 64.2048 13.3898 64.2674 12.9924C64.1014 13.3871 64.0797 12.8329 63.9137 13.5276C63.9355 13.3573 63.9382 12.9545 63.8865 12.914C63.7859 13.7709 63.6553 12.9086 63.4594 13.8062C63.5682 13.0411 63.2554 13.406 63.2227 12.9545C63.2146 13.0167 63.1982 13.141 63.2227 13.1059C63.1275 13.1464 63.0458 13.3655 62.9588 13.4925C63.1084 12.8735 63.0241 12.7004 63.0567 12.3057C62.8064 12.8734 62.9262 13.0437 62.7466 13.606C62.8827 13.1086 62.7085 13.0654 62.8527 12.6572C62.6813 13.006 62.7411 12.8194 62.5697 13.3195C62.7602 12.5463 62.5344 13.1708 62.5997 12.6842C62.3929 13.0356 62.3793 13.3952 62.3249 13.133C62.2107 13.3222 62.2406 13.6223 62.2406 13.6223ZM59.8464 11.5244C59.8464 11.5298 59.8437 11.5326 59.8437 11.5326C59.8655 11.5488 59.8818 11.5651 59.8927 11.5759C59.8818 11.5651 59.8682 11.5515 59.8464 11.5244ZM59.6179 11.4461C59.6506 11.438 59.6859 11.4461 59.724 11.4596C59.7784 11.3109 59.8165 11.1542 59.792 11.1542C59.7703 11.2596 59.6914 11.3299 59.6179 11.4461ZM61.0108 8.56434C60.9945 8.49135 60.9564 8.57511 60.9238 8.66162C60.9374 8.67514 60.9537 8.69413 60.9701 8.73198C60.9673 8.7482 60.9619 8.76974 60.9592 8.78596C60.9809 8.70216 61 8.62381 61.0108 8.56434Z" fill="#161B22"/>
<path d="M60.9023 9.15528C60.905 9.16616 60.9023 9.18517 60.9077 9.19061C60.8887 9.2287 60.8723 9.25872 60.856 9.2832C60.8668 9.23423 60.875 9.18798 60.8832 9.14173C60.8914 9.14717 60.8995 9.14984 60.9023 9.15528Z" fill="#161B22"/>
<path d="M41.2071 1.38626L41.218 1.38081C41.2044 1.39441 41.1936 1.40813 41.1772 1.43262C41.1908 1.41085 41.1963 1.40258 41.2071 1.38626Z" fill="#161B22"/>
<path d="M56.1763 11.2595L56.2144 11.1481L56.2008 11.2514L56.1763 11.2595Z" fill="#161B22"/>
<path d="M39.2793 2.06181C39.2575 2.09446 39.2303 2.12713 39.2031 2.15161C39.2194 2.12713 39.2467 2.09718 39.2793 2.06181Z" fill="#161B22"/>
<path d="M38.7371 1.85669L38.582 1.95459C38.6609 1.89202 38.7072 1.86757 38.7371 1.85669Z" fill="#161B22"/>
<path d="M40.3099 1.27856C40.2256 1.27584 40.1685 1.27318 40.1141 1.27046H40.1113L40.3099 1.27856Z" fill="#161B22"/>
<path d="M44.0674 5.73031C44.0729 5.73575 44.0729 5.74394 44.0729 5.75754C44.0674 5.85548 44.0593 5.8092 44.0674 5.73031Z" fill="#161B22"/>
<path d="M42.7365 3.81558C42.7148 3.89992 42.6957 3.98149 42.6902 4.03862C42.6413 4.0495 42.6114 4.04411 42.7365 3.81558Z" fill="#161B22"/>
<path d="M45.9087 7.27197L45.9116 7.26337C45.9145 7.26626 45.9203 7.26915 45.926 7.26915L45.9087 7.27197Z" fill="#161B22"/>
<path d="M42.7794 4.07612C42.7033 4.1387 42.6869 4.10608 42.6924 4.03534C42.7304 4.02446 42.7849 3.99995 42.7794 4.07612Z" fill="#161B22"/>
<path d="M40.3672 3.15448L40.3835 3.17627C40.3536 3.17355 40.3291 3.17361 40.3101 3.17361L40.3672 3.15448Z" fill="#161B22"/>
<path d="M40.3096 3.17363L40.2524 3.19263C40.2552 3.18174 40.2606 3.17363 40.3096 3.17363Z" fill="#161B22"/>
<path d="M40.1353 3.23047L40.2549 3.18969C40.2549 3.20873 40.2658 3.23047 40.1353 3.23047Z" fill="#161B22"/>
<path d="M40.2012 2.57073L40.3672 2.57617C40.3345 2.57617 40.2801 2.57617 40.2012 2.57073Z" fill="#161B22"/>
<path d="M40.2635 2.39915C40.2989 2.44268 40.6091 2.53257 40.5003 2.58154L40.3669 2.5761C40.6172 2.56793 39.9806 2.41547 40.2635 2.39915Z" fill="#161B22"/>
<path d="M38.2721 1.51525L38.3919 1.67041C38.2178 1.6296 37.981 1.57795 37.9348 1.64052C37.4233 1.41743 38.3265 1.71385 38.2721 1.51525Z" fill="#161B22"/>
<path d="M38.0517 1.04836C37.9647 1.11909 37.796 1.02664 37.6953 1.02392C37.8585 0.985827 37.8994 0.977623 38.0517 1.04836Z" fill="#161B22"/>
<path d="M42.2666 1.57593L42.4679 1.21095C42.4897 1.29205 42.389 1.35155 42.2666 1.57593Z" fill="#161B22"/>
<path d="M41.7459 3.74944L41.5664 3.94678L41.7297 3.60081L41.7459 3.74944Z" fill="#161B22"/>
<path d="M43.5205 1.34816L43.5287 1.2828L43.5396 1.4624L43.5205 1.34816Z" fill="#161B22"/>
<path d="M48.2375 3.93593L47.998 4.39014C48.0035 4.29011 48.2457 3.76832 48.2375 3.93593Z" fill="#161B22"/>
<path d="M50.1387 5.38257C50.2666 5.16089 50.3944 5.03651 50.3291 5.28251C50.2638 5.29332 50.136 5.45285 50.1387 5.38257Z" fill="#161B22"/>
<path d="M56.9404 7.17749L56.9513 7.00054L56.9867 7.1666L56.9404 7.17749Z" fill="#161B22"/>
</svg>
