<svg width="74" height="25" viewBox="0 0 74 25" fill="none" xmlns="http://www.w3.org/2000/svg">
<path d="M73.9685 10.8072C74.0157 10.8922 74.0104 11.0969 73.9004 11.0656L73.7957 10.7291L73.9685 10.8072Z" fill="white"/>
<path d="M73.3019 11.4995C73.1622 11.3434 72.9928 11.0623 73.047 10.7396C73.1989 11.0588 73.2181 10.92 73.3857 11.3017C73.4957 11.3329 73.5638 11.1768 73.5341 11.0519C73.5795 11.1369 73.6947 10.9634 73.7698 11.1734C73.6528 11.451 73.4765 11.4753 73.274 11.2705C73.2408 11.3503 73.2879 11.4371 73.3019 11.4995Z" fill="white"/>
<path d="M62.853 12.7817L62.9192 12.7352C62.9031 12.7603 62.8798 12.7746 62.853 12.7817Z" fill="white"/>
<path d="M56.3518 13.3154C56.4025 13.3207 56.4235 13.3538 56.4287 13.3853C56.3815 13.366 56.3431 13.3469 56.3518 13.3154Z" fill="white"/>
<path d="M55.2581 13.7458C55.2813 13.7333 55.3027 13.7279 55.3242 13.719C55.2992 13.7529 55.2741 13.7726 55.2581 13.7458Z" fill="white"/>
<path d="M62.8529 12.7807L62.6853 12.8994C62.6678 12.7877 62.7709 12.8121 62.8529 12.7807Z" fill="white"/>
<path d="M71.7896 10.7858C71.828 10.7998 71.8594 10.8295 71.8908 10.8696C71.8594 10.8574 71.8297 10.8469 71.8 10.84C71.7965 10.8225 71.7948 10.8068 71.7896 10.7858Z" fill="white"/>
<path d="M65.739 12.8812L65.7914 12.8777C65.8089 12.9161 65.8281 12.9632 65.8455 13.0156L65.739 12.8812Z" fill="white"/>
<path d="M67.9446 12.7816C67.8957 12.7972 67.8573 12.5075 67.8293 12.3808C67.866 12.4988 67.9062 12.5543 67.9516 12.5734C67.9568 12.6306 67.9551 12.6966 67.9446 12.7816Z" fill="white"/>
<path d="M71.3928 12.0073L71.4589 12.043C71.4428 12.0322 71.4125 12.0216 71.3928 12.0073Z" fill="white"/>
<path d="M64.1683 13.0463C64.1666 13.0899 64.1614 13.1284 64.1544 13.1528C64.1526 13.1162 64.1578 13.0812 64.1683 13.0463Z" fill="white"/>
<path d="M2.6524 10.5485C2.6524 10.5699 2.64882 10.5842 2.64882 10.6021C2.6381 10.5699 2.63453 10.5485 2.6524 10.5485Z" fill="white"/>
<path d="M0 11.81L0.0331648 11.8273C0.0331648 11.8828 0.0314137 11.9367 0.0279216 11.9922L0 11.81Z" fill="white"/>
<path d="M53.2341 14.2001C53.2377 14.1965 53.2395 14.1964 53.2431 14.1947C53.3002 14.225 53.2681 14.2215 53.2341 14.2001Z" fill="white"/>
<path d="M34.5041 14.3257C34.7171 14.0654 34.1601 13.9891 34.4796 13.6994C34.4482 13.8122 34.7677 14.1557 34.5041 14.3257Z" fill="white"/>
<path d="M71.7366 10.83C71.7069 10.8283 71.6772 10.8283 71.6458 10.8335C71.6859 10.8213 71.7139 10.8195 71.7366 10.83Z" fill="white"/>
<path d="M34.479 13.6978V13.696L34.5138 13.6667C34.4991 13.6795 34.49 13.6868 34.479 13.6978Z" fill="white"/>
<path d="M48.5295 14.1816C48.5383 14.1293 48.5557 14.0891 48.5732 14.0507C48.5732 14.0821 48.5627 14.1188 48.5295 14.1816Z" fill="white"/>
<path d="M52.0155 13.6541L51.9299 13.6978C51.9631 13.6698 51.991 13.6593 52.0155 13.6541Z" fill="white"/>
<path d="M46.7022 13.8205C46.655 13.845 46.6411 13.8852 46.5747 13.8485C46.5799 13.8328 46.5852 13.8223 46.5939 13.8119C46.6184 13.852 46.6498 13.8694 46.7022 13.8205Z" fill="white"/>
<path d="M44.8105 13.8589C44.8193 13.8362 44.8332 13.8188 44.8437 13.7995C44.8629 13.8048 44.8839 13.81 44.9031 13.8135L44.8105 13.8589Z" fill="white"/>
<path d="M8.34995 11.0709C8.30455 11.1507 8.27313 11.2392 8.24694 11.3276C8.28885 11.1212 8.01646 11.031 8.34995 11.0709Z" fill="white"/>
<path d="M71.8019 10.9492C71.7845 10.8759 71.7653 10.8409 71.7356 10.827C71.7565 10.8287 71.7792 10.8322 71.7984 10.8374C71.8089 10.8828 71.8141 10.923 71.8019 10.9492Z" fill="white"/>
<path d="M46.5698 11.5145L46.2712 11.5669C46.3551 11.5355 46.4616 11.518 46.5698 11.5145Z" fill="white"/>
<path d="M21.838 11.7178L21.7683 11.6803C21.7969 11.6749 21.8201 11.6838 21.838 11.7178Z" fill="white"/>
<path d="M45.3837 11.5409C45.333 11.645 45.2771 11.7057 45.2195 11.7456C45.2073 11.7231 45.1916 11.704 45.1829 11.6711L45.3837 11.5409Z" fill="white"/>
<path d="M8.24463 11.3315C8.24463 11.3289 8.24463 11.3262 8.24463 11.3262C8.24463 11.3262 8.2473 11.3289 8.24463 11.3315Z" fill="white"/>
<path d="M18.2114 10.0799C18.4455 10.0894 18.3004 10.4307 18.3392 10.6354C18.6121 10.7545 18.4828 10.3862 18.5891 10.2132C18.7586 10.3179 18.8735 10.6496 19.0041 10.6449C19.0171 10.5877 19.0429 10.5687 19.0185 10.4941C19.1865 10.7862 19.5642 10.5465 19.7595 10.9116C19.7768 10.8814 19.7868 10.8528 19.7926 10.8259C19.748 10.9989 19.7322 11.1782 19.7337 11.3052C19.8385 11.3179 19.9161 11.5402 19.9692 11.3132C19.9046 11.3148 19.9046 11.2227 19.8773 11.1481L19.9821 11.256C20.0985 10.9338 19.8385 11.1322 19.8514 10.8878C20.0597 11.01 20.2952 11.3005 20.4647 11.2195C20.5164 10.8989 20.0855 11.0846 20.3211 10.8116L20.0597 10.9164C20.2808 10.4211 19.9031 10.9417 20.1114 10.4084C20.4503 10.337 20.4762 10.6005 20.8151 10.5275C20.8811 10.7116 20.7763 10.7909 20.8424 10.9751C21.3005 11.3258 21.2574 10.1846 21.5848 10.6354C21.6638 10.8561 21.6782 11.2672 21.9381 11.0656L21.8721 10.6957C22.1981 10.6783 22.0315 11.2322 22.3819 11.0052C22.3287 10.8576 22.1335 10.8687 22.1837 10.829C22.4178 10.5528 22.3288 11.0449 22.4982 11.0544L22.5485 10.7338C22.8903 10.8052 23.2594 11.0608 23.6399 11.1418C23.6227 11.0449 23.5624 10.9386 23.6557 10.8449C24.1297 11.037 24.6854 10.8656 25.1579 10.6925L25.3245 10.9799C25.3662 10.9783 25.4064 10.8576 25.3633 10.8004C25.5485 10.7036 25.3647 10.9783 25.448 11.0925C25.55 11.1164 25.5902 10.9386 25.5284 10.8513C25.8386 11.1037 26.4188 11.4036 26.7678 11.1211L26.7046 11.0354C26.9717 10.9338 26.9789 11.6211 27.2331 11.3735L27.1886 11.3211C27.7616 11.2275 28.3835 11.5132 28.8315 11.1053C28.9005 11.51 29.4002 10.9465 29.4203 11.5084C29.7549 11.2418 29.6645 11.1386 30.1283 10.9671C30.2518 10.9465 30.3007 11.3243 30.45 11.3878L30.4615 11.0941L30.6583 11.4084L30.7775 11.0608L30.9168 11.1418C30.8593 11.1576 30.7933 11.2687 30.799 11.3544C31.0173 11.4957 31.3447 11.1703 31.3548 11.0195L31.8718 11.2862C31.8632 11.1671 31.777 11.1243 31.7095 11.0465C31.9809 11.356 31.7684 10.7386 32.0168 11.0227C31.9809 11.0878 32.0312 11.1989 32.0355 11.2576C32.1676 11.0846 32.4592 11.0894 32.6717 11.1687L32.6358 10.9655C33.025 10.9242 33.453 11.083 33.8896 11.0894C33.7316 11.1798 33.7603 11.5306 33.8867 11.5687L33.9441 11.2592C34.0231 11.4528 33.8077 11.3735 33.9728 11.6116C34.1365 11.5799 34.0892 11.2608 33.9987 11.1576L34.194 11.2703C34.2069 11.1783 34.1624 11.1275 34.1523 11.01C34.2299 11.2052 34.4999 10.7068 34.6105 11.0449L34.6234 10.9529C35.06 10.9608 35.2553 11.0719 35.61 11.0973C35.6129 11.3655 35.7522 11.3084 35.8556 11.5274C36.1184 11.4449 36.4114 11.2386 36.7259 11.2655C36.9456 11.4021 36.7876 11.4926 36.8853 11.6545C36.9054 11.41 37.2185 11.437 37.0576 11.2608C37.4353 11.3053 37.5387 11.3163 38.0155 11.5211C37.9624 11.6195 37.9035 11.6624 37.9337 11.7465C38.0198 11.7878 38.1319 11.6465 38.1204 11.5291L38.0974 11.5036C38.6316 11.8767 39.3411 10.81 39.7633 11.3227L39.7389 11.2973L40.1798 11.5624C40.3837 11.5211 40.0591 11.3783 40.2099 11.2275C40.6853 11.6354 40.9653 11.1703 41.3574 11.4417C41.6633 10.7227 42.4373 11.4942 42.8481 11.0354L42.8251 11.2052C42.9314 11.3719 42.9529 11.1084 43.0319 11.0703C43.0204 11.2021 42.917 11.2227 42.9831 11.3148C43.8835 11.5211 44.84 11.0529 45.7591 10.8941C46.0951 10.8449 45.9587 11.7687 46.3795 11.3608L46.256 11.0465C46.5978 11.2322 46.9468 11.2259 47.2929 11.2116C47.639 11.1941 47.9822 11.1703 48.3183 11.3227C48.2781 11.2512 48.2752 11.156 48.2106 11.1592C48.3484 10.9275 48.7304 11.137 48.7362 11.3243C48.8396 11.3005 48.7577 11.156 48.8195 11.0592C48.9588 10.9211 49.1785 11.3434 49.2503 11.1148C49.2618 11.0783 49.2101 11.0417 49.1828 11.0243C49.2762 11.1338 49.6108 10.9877 49.5275 11.2528C49.7759 11.1227 50.0086 11.3608 50.2053 11.2004C50.3418 11.4925 50.6304 11.0497 50.6807 11.4656C50.6534 11.0354 51.1115 11.11 51.2738 11.3069C51.2178 11.1783 51.4088 11.1672 51.3428 10.9894C51.5237 10.9894 51.6903 11.0639 51.6644 11.2862C51.9847 10.7608 52.3423 11.6799 52.5132 11.0132C53.0546 11.2275 53.5558 11.3687 54.0412 11.4544C54.011 11.0258 53.507 11.4291 53.5156 10.9767C53.978 11.1386 54.2523 11.4989 54.7033 11.3814C54.8196 11.3195 54.6315 11.1973 54.5884 11.1259C55.0508 11.2894 55.4702 11.0497 55.8852 11.2687C55.8823 11.229 55.8378 11.1878 55.7947 11.156C55.8752 11.1671 55.9786 11.0846 55.9771 11.2798L55.8967 11.2307C55.7775 11.5196 56.2342 11.8084 56.2543 11.9576C56.0992 11.4036 56.6521 11.8005 56.4108 11.1021C56.4654 11.137 56.5343 11.2259 56.5271 11.3576C56.6047 11.3163 56.6262 11.2385 56.5415 11.0941C56.8316 11.1878 56.7383 11.4005 56.9982 11.3846C56.9939 11.2894 56.9408 11.256 56.9092 11.1465C57.047 11.3243 57.1863 11.5036 57.4032 11.4147C57.3874 11.3592 57.4103 11.283 57.3457 11.2878C57.7249 11.3005 58.0078 11.7512 58.4157 11.5544C58.2778 11.1496 58.5507 11.4132 58.5593 11.0576L58.7862 11.1528L58.7043 11.3306C58.8996 11.3132 59.082 11.5639 59.2457 11.4385L59.0949 11.3005L59.4626 11.3481L59.2615 11.4941C59.4669 11.6671 59.2586 11.9449 59.5143 11.8322C59.4597 11.7989 59.7096 11.8179 59.8029 11.6021C59.8029 11.6021 59.8029 11.602 59.8029 11.6004C59.9049 11.7084 60.0083 11.8211 60.149 11.7258C60.1821 11.61 60.1017 11.3354 60.1232 11.2576C60.2309 11.5497 60.5842 11.3148 60.7177 11.6243C60.6746 11.5529 60.6632 11.3656 60.6747 11.3275L60.7651 11.5639C60.8527 11.4814 60.8642 11.4433 60.8427 11.2957C61.1127 11.237 60.7766 11.7513 61.0911 11.5386C61.0653 11.5211 61.0753 11.483 61.0208 11.4497C61.3396 11.3306 61.6541 11.5687 61.9471 11.4338C62.0174 11.0719 61.6828 11.3608 61.769 11.0529C62.2013 11.0957 62.678 11.4322 63.0902 11.3195L63.0141 11.364C63.0974 11.864 63.3114 11.0941 63.5325 11.3179C63.4794 11.2846 63.4507 11.0433 63.4679 11.0973C63.748 10.9973 64.0553 11.183 64.4947 11.3132L64.4344 11.1878C64.5953 11.0608 64.8725 11.0925 65.0505 11.0211C65.1109 11.1465 65.2143 11.1195 65.1611 11.3116C65.6781 10.5354 66.2497 11.6401 66.7093 10.9846C66.6504 10.9878 66.5613 10.8814 66.6087 10.8782L67.0381 10.9655C67.018 11.1877 66.9907 11.102 66.9132 11.2798C66.9749 11.4052 67.0999 11.4973 67.2047 11.4894C67.0065 11.3592 67.1846 11.137 67.2593 11.0084C67.2492 11.0766 67.2823 11.1481 67.2794 11.218C67.4762 10.81 67.344 11.6576 67.6284 11.3703L67.6054 11.256C67.7217 11.3068 67.8352 11.4512 67.9544 11.4084C67.9888 11.1512 67.8266 11.2989 67.8064 11.0909C67.9773 11.0925 68.1727 11.5465 68.312 11.2814C68.2344 11.2164 68.131 11.2227 68.0535 11.1576C68.2028 10.8465 68.2272 10.9211 68.3493 10.864L68.3378 10.8719L68.6178 10.7148L68.5489 10.8021C68.8045 11.4481 68.9912 10.8894 69.3072 11.3005C69.0013 10.9116 69.2454 11.0672 69.2052 10.7814C69.2727 10.6957 69.379 10.5973 69.3417 10.5195C69.4924 10.7418 69.5556 10.3195 69.7696 10.6433C69.7725 10.5497 69.9147 10.6227 69.8673 10.3925C70.0482 10.4512 69.8371 10.5576 69.8587 10.6719C70.1531 10.9688 70.4719 10.2322 70.8927 10.6338C71.2431 10.783 71.3264 11.0894 71.651 11.218C71.7457 11.0608 71.5404 10.8878 71.5404 10.8878C71.7012 10.737 71.8305 10.7497 71.9999 10.8417C71.9611 10.764 71.9899 10.6925 72.0315 10.5846C72.1622 10.5973 72.1421 10.9148 72.303 10.7624C72.2656 10.6608 72.2168 10.5005 72.1464 10.4021C72.3044 10.4735 72.4667 10.6338 72.6304 10.7036C72.6606 10.5385 72.5169 10.4671 72.4538 10.3671C72.6361 10.4242 72.9219 10.4735 72.9966 10.7227L72.8903 10.8243C72.9564 10.8307 72.9075 10.6021 72.8558 10.5592C72.6893 10.3719 72.6433 10.6671 72.6419 10.7607L72.7582 10.81C72.6835 11.3624 72.3015 10.7624 72.0789 10.8148L72.2024 11.2021L71.9468 10.8941C71.9052 11.0021 71.8879 11.2243 72.0028 11.2735C71.8549 11.4831 71.8491 11.1465 71.7256 11.3751C71.7127 11.41 71.7213 11.4291 71.7357 11.4433L71.5691 11.3402C71.6064 11.4211 71.5634 11.6211 71.6553 11.556C71.3867 11.8084 71.1756 11.3005 71.0909 11.6084L71.1167 11.6307C70.7132 11.5323 71.0578 11.3433 70.739 11.0306L70.5897 11.764L70.5308 11.4782C70.4906 11.4925 70.4116 11.5211 70.4346 11.6354C70.2694 11.4497 70.4518 11.5068 70.3513 11.3275C70.1732 11.61 69.8041 11.2481 69.7897 11.7131C69.705 11.4989 69.9649 11.529 69.7467 11.3909C69.7208 11.8925 69.4996 11.3243 69.3359 11.5656C69.4077 11.818 69.5686 11.6687 69.4049 11.9116C69.2684 11.4862 69.063 12.0338 68.9065 11.9624C68.8778 11.6179 68.569 11.8433 68.3091 11.7481C68.3321 11.8624 67.8438 11.9751 67.6169 12.118L67.6269 12.1751C67.5594 11.829 67.3211 11.9148 67.1401 11.8561C67.1602 12.064 67.1961 12.1449 67.2981 12.2306L67.1315 12.2417C67.0855 12.1322 67.0295 12.0782 66.9189 12.0465L66.9764 12.3037C66.7538 12.3052 66.5125 12.0323 66.2368 12.2259C66.2066 11.9831 66.4235 11.5338 66.1133 11.3909C66.1104 11.5227 66.1118 11.7497 66.1937 11.7973C66.1664 11.7814 66.0946 11.6941 66.0458 11.7544L66.1793 11.9671C66.0558 12.0735 66.1003 11.7862 65.9984 11.8147C66.0113 12.0021 65.9294 11.9544 65.9524 12.1021C65.9797 12.1179 66.0386 12.0179 66.0831 12.0894C65.9682 12.1306 65.8332 12.2512 65.7944 12.3973C65.7987 12.2893 65.7801 12.1449 65.6925 12.1259C65.4699 12.1274 65.6293 12.356 65.5058 12.4624C65.444 12.3354 65.3105 12.4798 65.2918 12.1989C65.2272 12.2052 65.2229 12.337 65.2013 12.4132C65.0793 12.2973 64.6628 12.4132 64.7762 12.1069L64.805 12.0846C64.7992 12.0799 64.792 12.0798 64.7848 12.0735C64.7863 12.0735 64.7848 12.0735 64.7863 12.0735H64.7848C64.3942 11.8195 64.0122 12.283 63.6331 12.1878L63.6388 12.2814C63.4105 12.1893 63.1405 12.2513 62.971 12.0592C62.905 12.064 62.8245 12.2401 62.8576 12.3512C62.6838 12.2909 62.6594 12.1893 62.421 12.3576C62.6005 12.5116 62.3693 12.5068 62.6019 12.4671C62.3851 12.5624 62.342 12.7132 62.0921 12.4703C62.184 12.7068 61.9399 12.783 61.8307 12.7164L61.9772 12.5354C61.8566 12.5068 61.7546 12.5338 61.6512 12.5592L61.723 12.8719C61.2864 13.2815 60.8757 12.2608 60.5598 12.9243C60.4305 12.71 60.7996 12.7545 60.6804 12.5021C60.4736 12.556 60.2769 13.0227 60.2108 13.0275C59.9322 13.218 59.925 12.5799 59.6306 12.7164C59.6636 12.6021 59.6881 12.2989 59.4597 12.2037C59.2529 12.2561 59.2227 12.691 59.3592 12.7751C59.4094 12.7815 59.4324 12.7449 59.4281 12.7068C59.497 12.7433 59.5875 12.7878 59.51 12.9148L59.4784 12.8036C59.3793 12.9243 59.0921 12.9275 59.1667 13.11C59.0045 13.0116 59.0921 12.929 59.2055 12.8639C58.9441 13.0417 58.7876 12.8925 58.5162 13.0148C58.5578 12.9513 58.5923 12.8164 58.5492 12.8195C58.15 12.9767 58.3625 12.6132 58.0868 12.5751C57.9374 12.7544 58.1586 12.9831 57.8771 12.8513C57.7134 12.9751 57.8527 13.1529 57.923 13.2418C57.6631 13.0354 57.4592 13.4053 57.317 13.4513L57.4534 13.537C57.3716 13.4862 57.3069 13.491 57.2409 13.4941L57.3084 13.2656C57.2323 13.3084 57.1662 13.3116 57.1705 13.4052C57.0858 13.2608 57.2179 13.0275 57.0528 12.8322C56.9537 12.9513 56.7325 12.7227 56.7081 13.0243C57.0298 12.9084 56.6822 13.3275 56.9608 13.364C56.9063 13.3307 56.8417 13.3354 56.7656 13.3783C56.7555 13.4116 56.7785 13.4402 56.8 13.4561C56.497 13.737 56.6449 13.1227 56.3218 13.1434C56.3692 13.31 56.2571 13.4672 56.204 13.4338C56.3347 13.4243 56.2571 13.1497 56.1336 13.0243C55.9311 13.164 55.9053 12.9354 55.7976 12.956L55.9197 12.8894C55.8723 12.7227 55.7689 12.7481 55.6238 12.7021C55.6152 12.8339 55.7574 12.7878 55.7086 12.8465C55.5391 12.556 55.3567 13.1704 55.1269 12.9799C55.0264 13.0989 55.1269 13.2973 55.0379 13.3798C54.7808 13.1719 54.7737 13.6211 54.5037 13.4481C54.5726 13.2179 54.5884 13.2735 54.396 13.0576L54.8339 13.2037L54.5467 12.883C54.6774 12.8751 54.8268 13.0164 54.9043 12.9751C54.7664 12.7941 54.7822 12.8497 54.8383 12.6593C54.6702 13.0053 54.4778 12.4719 54.2782 12.7084L54.3011 13.2703C53.9967 13.5306 53.7411 12.9989 53.3418 13.1544L53.4682 13.0529C53.4079 12.8307 53.2183 13.029 53.0848 12.9433C53.102 13.1306 53.0216 13.2021 52.9699 13.3212C52.9727 13.1815 52.674 13.3433 52.6281 12.9687L52.4543 13.2227C52.1312 13.3338 52.0694 12.6989 51.7578 12.7735C51.8569 12.9751 51.7176 13.1132 51.9301 13.2513C51.8253 13.2561 51.7319 13.2941 51.7276 13.164C51.6687 13.283 51.4318 12.9195 51.3399 13.102C51.2939 13.0211 51.2752 12.8243 51.1589 12.8433C51.1474 12.8814 51.1618 12.9354 51.1618 12.9354C51.1589 12.8433 50.9751 12.8132 51.0742 12.6037C50.764 13.1973 50.1737 12.5799 49.9038 13.0894C49.674 13.0307 49.3982 12.9767 49.1914 12.9672C49.2058 13.0227 49.1943 13.0608 49.2331 13.0402C48.9501 13.2211 49.0492 12.5036 48.7275 12.7052C48.5667 13.0132 48.9028 12.8655 48.8008 12.983C48.7649 13.602 48.4073 12.9069 48.1933 13.2719L48.2465 13.3068C48.0827 13.5211 47.8343 13.0814 47.5629 13.1306C47.5629 13.1306 47.5772 13.1846 47.5657 13.2243C47.3747 12.9147 47.02 12.8132 46.7558 12.7275C46.8405 12.9687 46.8764 12.8545 46.829 13.1005C46.7112 13.0672 46.8592 12.7052 46.6236 12.6386C46.549 12.7719 46.3795 12.8894 46.3608 13.1513L46.5834 13.164C46.4728 13.5052 46.2962 13.1545 46.1799 13.2148L46.1957 13.3624C45.8553 13.3179 45.8467 12.9434 45.4819 12.9735L45.5193 12.8608C45.3168 12.4926 45.3541 13.0703 45.1516 12.7973L45.0942 13.1735C44.9621 13.0846 44.6303 12.8148 44.3933 12.7465C44.5283 13.0243 44.8055 13.164 44.9778 13.3275C44.8472 13.3307 44.5341 13.3037 44.4637 13.1196C44.5168 13.1561 44.5829 13.2465 44.6346 13.1878C44.4723 12.8941 44.2612 12.7497 44.0013 12.7592C44.0501 13.4878 43.3234 12.9497 43.1367 13.5132C42.6757 13.2434 42.2219 13.6259 41.6848 13.5814C41.8758 13.0147 41.5283 13.5655 41.5613 12.983C41.4364 12.9449 41.389 12.9544 41.3775 12.9925L40.9984 13.3401C40.9079 13.51 41.1176 13.4688 41.1046 13.5989C40.8303 13.6434 40.9883 13.8449 40.8073 14.0005C40.8447 13.7925 40.7126 13.7021 40.556 13.7815L40.7772 13.5132C40.3952 13.2021 40.444 14.0021 40.0591 13.6942L40.1798 13.8783C39.9816 13.7703 39.4488 13.8799 39.2578 13.4084C39.2219 13.4751 39.1745 13.6338 39.2621 13.6767C38.7882 13.7402 38.2137 13.1656 37.8432 13.4481L37.8777 13.5909C37.7901 13.5481 37.7269 13.3211 37.6148 13.464C37.6206 13.5227 37.6493 13.6069 37.6077 13.6148C37.5617 13.5656 37.3765 13.3624 37.2587 13.4434L37.3563 13.6053C36.8925 13.7862 36.6526 13.2052 36.2677 13.102C36.2634 13.5211 35.8972 13.6544 35.7149 13.7164L35.7206 13.7751C35.1821 13.8132 34.813 13.4053 34.319 13.2291C34.0016 13.6767 33.2691 13.3941 32.7665 13.637C32.844 13.5624 32.7622 13.31 32.6746 13.2656C32.5568 13.3481 32.3601 12.9672 32.3687 13.3513L32.4103 13.3449C32.3141 13.7196 32.0757 13.6147 31.889 13.6179L31.8704 13.1148C31.362 13.829 30.5979 12.8005 30.3121 13.4449C30.1973 13.3148 30.0522 13.3116 29.9388 13.1814L29.9373 13.4513C29.6085 13.5084 29.4433 13.5354 29.0412 13.4576L29.1173 13.6529C28.889 13.6624 28.8545 12.8656 28.6448 12.8418L28.5687 13.2418C28.1709 13.2227 27.7573 13.5545 27.3767 13.172C27.381 13.2307 27.3882 13.3481 27.4528 13.3672C27.2661 13.3688 26.719 13.6053 26.808 13.0561C26.7894 13.4148 26.3973 13.0719 26.189 12.9036L26.212 13.1703C26.044 12.8227 26.0426 12.7306 25.7927 12.6243C25.7309 12.656 25.7324 12.8338 25.8142 12.7703C25.6089 12.9005 25.6692 12.5116 25.4207 12.6417L25.504 12.8148C25.2972 12.8259 25.3173 12.7354 25.2125 12.5322C25.0876 12.4195 24.8204 12.5814 24.7802 12.8195C24.7587 12.6719 24.6553 12.4719 24.5303 12.5354C24.5102 12.6259 24.5519 12.683 24.5734 12.7116C24.2216 12.8766 24.0765 12.3751 23.8295 12.6227C23.8209 12.71 23.8036 12.7529 23.7821 12.7783C24.055 12.7878 24.2747 12.7862 24.256 12.7656C24.246 13.01 24.0234 13.0402 24.1842 13.3878C24.0148 13.1926 23.7304 12.7751 23.5107 12.8783C23.4992 12.9021 23.4877 12.9243 23.4791 12.9608L23.5006 12.9893C23.4504 13.0116 23.4059 12.9862 23.3671 12.9418C23.2967 12.9783 23.2522 13.0052 23.1861 13.0052C23.1517 13.2052 22.9276 13.0989 22.8185 13.102C22.84 12.8354 22.695 12.8703 22.84 12.6576C22.8213 12.6767 22.8587 12.691 22.9319 12.7068C22.9477 12.7164 22.9678 12.7211 22.9779 12.737C22.9764 12.7306 22.9736 12.7211 22.9721 12.7132C23.044 12.7259 23.1373 12.737 23.245 12.7465C23.1646 12.6053 23.0799 12.4862 22.9506 12.6275C22.9018 12.4529 22.8486 12.2719 22.817 12.1878C22.649 12.5513 22.3503 12.737 22.2986 12.964C21.9697 12.7942 21.513 12.8195 21.3278 12.3037C21.2359 12.2338 21.2115 12.4418 21.1712 12.518C21.2244 12.5719 21.289 12.5671 21.3163 12.6417C21.1325 12.5021 20.7533 12.5592 20.7275 12.2052C20.479 12.3497 20.8452 12.537 20.5192 12.4592L20.558 12.5704C19.8787 13.0862 19.5513 11.6021 18.793 12.2703C18.8447 12.2291 18.872 12.2116 18.8849 12.1528C18.0462 12.41 17.2133 11.7417 16.3732 12.1783C16.1362 12.2608 16.1261 12.0354 15.9969 11.8529L15.9294 12.1354L15.7111 11.7846C15.3865 11.5148 15.0763 12.4402 14.6757 11.9481L14.7446 11.7592C14.5881 11.783 14.2621 11.6053 14.2735 11.8291C14.2606 11.7926 14.2362 11.6243 14.1687 11.7195L14.1543 11.8688L13.7924 11.5815C13.4909 11.6656 13.7968 12.1814 13.3645 12.1751C13.2079 12.1036 12.9408 11.7021 13.0069 11.6053C13.0715 11.6037 13.1778 11.5243 13.1936 11.3751L13.0528 11.2846C13.0571 10.8402 12.9782 10.3782 13.3573 10.0988L13.5871 10.3893L13.6819 10.1814L13.4736 10.1512C13.6072 9.95918 13.6689 10.1433 13.7451 10.2735C13.7723 10.1608 13.814 10.0846 13.8657 10.0449L14.0811 10.4878C14.1228 10.3179 13.9949 10.1354 14.1658 10.0528C14.2664 10.2576 14.0294 10.4322 14.2104 10.575C14.3439 10.3846 14.3195 10.218 14.4473 10.4005C14.4746 10.2878 14.4502 10.2132 14.3985 10.1592C14.5134 10.3053 14.7245 10.2433 14.7719 10.4846C14.9126 10.2465 15.1883 10.583 15.2027 10.164C15.2357 10.2671 15.4009 10.51 15.5129 10.537C15.3363 10.0195 15.9423 10.5418 15.9222 10.0005C16.0471 10.464 16.4679 10.2465 16.725 10.5179C16.7121 10.4814 16.6862 10.4053 16.6604 10.4275C16.8169 10.4021 16.8701 10.2703 16.9749 10.1926C16.972 10.5656 17.2061 10.6687 17.3224 10.9068C17.5335 10.5608 17.2348 10.4608 17.3153 10.1211C17.288 10.4227 17.6255 10.4449 17.5465 10.6925C17.7044 10.4798 17.6771 10.5941 17.7705 10.2894C17.7676 10.756 17.8997 10.3783 18.0031 10.6719C18.2257 10.4576 18.0821 10.2402 18.3047 10.3973C18.4053 10.2592 18.2114 10.0799 18.2114 10.0799ZM23.6342 11.2338C23.6342 11.2307 23.6342 11.229 23.6342 11.229C23.5868 11.2195 23.548 11.2116 23.5222 11.2068C23.5452 11.2116 23.5782 11.2196 23.6342 11.2338ZM24.0937 11.264C24.0377 11.2719 23.9674 11.2687 23.8941 11.2624C23.874 11.3528 23.8869 11.4497 23.9329 11.4481C23.9114 11.3846 24.0219 11.3386 24.0937 11.264ZM23.0353 13.0608C23.1071 13.1037 23.133 13.0513 23.1459 12.9973C23.1114 12.991 23.0712 12.9799 23.0195 12.9576C23.0181 12.9497 23.0138 12.9338 23.0123 12.9243C23.0167 12.9751 23.0224 13.0243 23.0353 13.0608Z" fill="white"/>
<path d="M12.0498 13.38C12.0376 13.373 12.0306 13.3607 12.0149 13.3572C12.0341 13.3328 12.0533 13.3118 12.0708 13.2944C12.0795 13.3258 12.09 13.359 12.097 13.3887C12.0812 13.3852 12.0638 13.3817 12.0498 13.38Z" fill="white"/>
<path d="M62.9302 12.7293L62.9177 12.7363C62.9267 12.7238 62.9356 12.7113 62.9409 12.6917C62.9338 12.7077 62.9356 12.7168 62.9302 12.7293Z" fill="white"/>
<path d="M21.22 11.5529L21.2165 11.6279L21.1682 11.56L21.22 11.5529Z" fill="white"/>
<path d="M65.9475 11.5342C65.951 11.508 65.9615 11.48 65.9824 11.4556C65.9824 11.4748 65.9667 11.5028 65.9475 11.5342Z" fill="white"/>
<path d="M67.272 11.3765L67.4518 11.2595C67.375 11.3241 67.3174 11.3555 67.272 11.3765Z" fill="white"/>
<path d="M68.2832 11.1605C68.3007 11.2111 68.3059 11.2495 68.3129 11.2844C68.3129 11.2844 68.3111 11.2844 68.3111 11.2861L68.2832 11.1605Z" fill="white"/>
<path d="M52.0139 11.6958C51.9999 11.6941 51.986 11.6906 51.9737 11.6836C51.8794 11.6312 51.9441 11.6504 52.0139 11.6958Z" fill="white"/>
<path d="M56.8828 12.1782C56.8287 12.1276 56.7763 12.077 56.7205 12.0473C56.806 12.0193 56.8724 12.0106 56.8828 12.1782Z" fill="white"/>
<path d="M46.6026 11.5093C46.6026 11.5129 46.6026 11.5112 46.6026 11.5148C46.5898 11.5148 46.5807 11.5148 46.5679 11.5166L46.6026 11.5093Z" fill="white"/>
<path d="M56.4951 12.0632C56.5789 12.0003 56.6505 12.0091 56.7204 12.0475C56.6505 12.0702 56.5685 12.1034 56.4951 12.0632Z" fill="white"/>
<path d="M72.697 10.6866L72.7471 10.6705C72.7471 10.6902 72.7524 10.7062 72.7578 10.7188L72.697 10.6866Z" fill="white"/>
<path d="M72.7551 10.7159L72.8141 10.7462C72.789 10.7498 72.7658 10.748 72.7551 10.7159Z" fill="white"/>
<path d="M72.9344 10.8125L72.814 10.7479C72.8524 10.7426 72.9013 10.7304 72.9344 10.8125Z" fill="white"/>
<path d="M71.3575 10.9287L71.333 10.8239C71.3435 10.8449 71.3522 10.8798 71.3575 10.9287Z" fill="white"/>
<path d="M70.9438 10.9322C71.0399 10.9009 71.1709 10.6876 71.314 10.7431L71.3332 10.8264C71.2564 10.6719 71.0521 11.1022 70.9438 10.9322Z" fill="white"/>
<path d="M69.3286 12.3738L69.6673 12.2627C69.615 12.3807 69.5469 12.5387 69.7075 12.5526C69.2972 12.9238 69.7773 12.2957 69.3286 12.3738Z" fill="white"/>
<path d="M68.2692 12.6116C68.4577 12.6515 68.2797 12.7747 68.2936 12.8389C68.1679 12.7452 68.1382 12.7209 68.2692 12.6116Z" fill="white"/>
<path d="M60.5247 13.1062L60.5579 13.3716C60.413 13.3404 60.5509 13.2675 60.5247 13.1062Z" fill="white"/>
<path d="M58.9712 11.8061L59.1021 11.6344L59.1808 11.8755L58.9712 11.8061Z" fill="white"/>
<path d="M58.1945 13.7443L58.2591 13.7793L58.0146 13.6937L58.1945 13.7443Z" fill="white"/>
<path d="M45.1533 14.1102L45.19 13.7823C45.2878 13.8395 45.3157 14.2074 45.1533 14.1102Z" fill="white"/>
<path d="M39.5182 13.8589C39.4588 14.0237 39.3017 14.1296 39.2021 13.9699C39.3296 13.9456 39.4536 13.8172 39.5182 13.8589Z" fill="white"/>
<path d="M22.6276 14.2312L22.7376 14.3447L22.5281 14.2452L22.6276 14.2312Z" fill="white"/>
<path d="M38.7068 22.1832C38.7802 22.3048 38.8945 22.5995 38.8237 22.5616L38.5762 22.0831L38.7068 22.1832Z" fill="white"/>
<path d="M38.7859 23.2319C38.6281 23.0157 38.3805 22.6237 38.22 22.156C38.4811 22.6075 38.4077 22.4019 38.7124 22.9426C38.7859 22.9804 38.726 22.7481 38.639 22.5723C38.7097 22.6913 38.6661 22.4317 38.8239 22.7318C38.9273 23.14 38.8566 23.1886 38.639 22.9075C38.6716 23.021 38.7423 23.1427 38.7859 23.2319Z" fill="white"/>
<path d="M40.894 21.6743L40.8886 21.7451C40.8831 21.7097 40.8859 21.6879 40.894 21.6743Z" fill="white"/>
<path d="M43.6589 20.229C43.6317 20.2263 43.6018 20.1799 43.5828 20.1364C43.6154 20.1609 43.6453 20.1828 43.6589 20.229Z" fill="white"/>
<path d="M43.925 19.4792C43.9223 19.4982 43.9141 19.5091 43.9087 19.5254C43.9005 19.4764 43.9005 19.4465 43.925 19.4792Z" fill="white"/>
<path d="M40.895 21.6748L40.9086 21.4871C40.9794 21.6476 40.9168 21.6231 40.895 21.6748Z" fill="white"/>
<path d="M37.635 22.3152C37.6622 22.3315 37.6948 22.3723 37.7329 22.4268C37.7111 22.4104 37.6894 22.3996 37.6703 22.3914C37.6595 22.3642 37.6486 22.3424 37.635 22.3152Z" fill="white"/>
<path d="M39.4579 21.7882L39.4334 21.7964C39.4035 21.7393 39.3682 21.6712 39.3301 21.6004L39.4579 21.7882Z" fill="white"/>
<path d="M38.4543 22.1101C38.4679 22.0831 38.6502 22.502 38.7346 22.6831C38.6502 22.5155 38.6012 22.4371 38.5659 22.4128C38.5332 22.3317 38.4979 22.2345 38.4543 22.1101Z" fill="white"/>
<path d="M38.1553 24.1051L38.2069 24.1514C38.1906 24.135 38.1716 24.1242 38.1553 24.1051Z" fill="white"/>
<path d="M40.1157 21.4155C40.0912 21.353 40.0722 21.2959 40.0613 21.2605C40.0858 21.3122 40.1021 21.3638 40.1157 21.4155Z" fill="white"/>
<path d="M68.6579 13.481C68.6443 13.451 68.6388 13.432 68.6279 13.4048C68.6497 13.4456 68.666 13.4755 68.6579 13.481Z" fill="white"/>
<path d="M68.9252 10.9321L68.9007 10.9159C68.8653 10.8375 68.8327 10.7591 68.8 10.6807L68.9252 10.9321Z" fill="white"/>
<path d="M44.5996 18.5741C44.5996 18.5795 44.5996 18.5795 44.5996 18.585C44.5561 18.5442 44.5724 18.5469 44.5996 18.5741Z" fill="white"/>
<path d="M52.9844 15.5194C53.047 15.9357 53.3354 15.9412 53.368 16.417C53.3136 16.2467 52.9681 15.8114 52.9844 15.5194Z" fill="white"/>
<path d="M37.6356 22.3805C37.6193 22.3805 37.6056 22.3832 37.5947 22.394C37.6056 22.3723 37.6165 22.3669 37.6356 22.3805Z" fill="white"/>
<path d="M53.3689 16.4164L53.3716 16.4191L53.3743 16.4653C53.3716 16.4463 53.3689 16.4355 53.3689 16.4164Z" fill="white"/>
<path d="M46.7756 17.9807C46.8028 18.0569 46.8165 18.1167 46.8301 18.1738C46.8138 18.133 46.7974 18.0759 46.7756 17.9807Z" fill="white"/>
<path d="M45.4812 19.2119L45.4948 19.1385C45.4975 19.1847 45.4894 19.2038 45.4812 19.2119Z" fill="white"/>
<path d="M47.8237 18.2524C47.8319 18.2116 47.8155 18.1491 47.8672 18.1953C47.8726 18.2171 47.8781 18.2333 47.8808 18.2497C47.8454 18.1952 47.821 18.1735 47.8237 18.2524Z" fill="white"/>
<path d="M48.6584 17.9144L48.6774 18.0068C48.6665 18.0041 48.653 17.9987 48.6421 17.9959L48.6584 17.9144Z" fill="white"/>
<path d="M66.041 14.311C66.0111 14.184 65.9676 14.0488 65.9241 13.9164C66.0329 14.2218 66.1988 14.2786 66.041 14.311Z" fill="white"/>
<path d="M37.7357 22.5508C37.684 22.4474 37.6541 22.3957 37.6323 22.3794C37.6432 22.3794 37.6568 22.3849 37.6704 22.3903C37.7003 22.4529 37.7275 22.51 37.7357 22.5508Z" fill="white"/>
<path d="M49.2329 21.5645L49.3391 21.4474C49.32 21.5046 49.2792 21.5454 49.2329 21.5645Z" fill="white"/>
<path d="M60.031 16.6895L60.0827 16.7276C60.0746 16.744 60.0582 16.7358 60.031 16.6895Z" fill="white"/>
<path d="M49.7578 21.3506C49.7197 21.1911 49.7089 21.0965 49.7116 21.0289C49.7306 21.0613 49.7469 21.0829 49.7714 21.1316L49.7578 21.3506Z" fill="white"/>
<path d="M65.9216 13.9096L65.9251 13.9165L65.9216 13.9096Z" fill="white"/>
<path d="M67.2082 14.5569C67.0858 14.6191 66.9252 14.0379 66.7674 13.7324C66.5525 13.6351 66.8654 14.1677 66.9307 14.4732C66.7756 14.3651 66.4926 13.8865 66.4328 13.9352C66.4654 14.0298 66.4655 14.0677 66.528 14.1758C66.2478 13.7757 66.2233 14.2758 65.8778 13.7675C65.8887 13.8189 65.905 13.8676 65.9186 13.9109C65.8234 13.6243 65.7091 13.3431 65.622 13.1431C65.5622 13.1566 65.3718 12.8349 65.4996 13.208C65.5296 13.1837 65.5922 13.3269 65.6575 13.435L65.5323 13.3026C65.6928 13.846 65.6874 13.4485 65.8479 13.8351C65.6629 13.7135 65.35 13.3377 65.3228 13.5189C65.516 14.0352 65.6003 13.6054 65.6711 14.1082L65.7282 13.8568C65.954 14.7029 65.788 13.7676 66.0465 14.6651C65.9268 14.8868 65.7363 14.4867 65.6193 14.7111C65.4615 14.4434 65.4588 14.2866 65.301 14.019C64.8358 13.6135 65.6275 15.3814 65.1596 14.7813C64.9718 14.4623 64.6862 13.8243 64.6916 14.219L64.9746 14.7759C64.8222 14.9056 64.5339 13.9893 64.5094 14.4516C64.6345 14.6651 64.7242 14.5867 64.727 14.6651C64.795 15.168 64.5093 14.3731 64.4168 14.4083L64.61 14.9273C64.3896 14.9219 64.0332 14.638 63.7884 14.6299C63.8618 14.7759 63.9625 14.9218 63.9788 15.0976C63.6142 14.9489 63.451 15.3868 63.3232 15.7896L63.0457 15.3895C63.0266 15.4031 63.0865 15.6058 63.1463 15.6815C63.1164 15.8897 63.0266 15.4031 62.9069 15.249C62.8389 15.2409 62.9368 15.5328 63.0266 15.6491C62.7001 15.3463 62.2023 15.0463 62.2159 15.5897L62.3057 15.7058C62.2376 15.941 61.7724 14.8678 61.8105 15.3328L61.8676 15.4004C61.6391 15.7167 61.1331 15.4517 61.1739 16.2114C60.8665 15.595 60.9862 16.6169 60.6026 15.7411C60.608 16.252 60.725 16.3898 60.5998 16.7845C60.5509 16.8521 60.2734 16.2709 60.1537 16.2141L60.3414 16.6764L60.0312 16.2358L60.1999 16.8116L60.0748 16.725C60.0938 16.6844 60.053 16.4899 59.9931 16.3601C59.7864 16.1979 59.8354 16.8007 59.9306 17.0386L59.4871 16.7629C59.5714 16.9467 59.6449 16.9899 59.7293 17.0954C59.3837 16.6845 59.9034 17.5928 59.5851 17.2171C59.5606 17.1035 59.4626 16.9467 59.4191 16.8521C59.4653 17.1603 59.3102 17.2252 59.1443 17.1549L59.2994 17.4658C59.1225 17.6334 58.7934 17.4928 58.5621 17.5955C58.5839 17.4117 58.3363 16.8684 58.2465 16.844L58.4206 17.3441C58.252 17.0602 58.4152 17.1305 58.1731 16.798C58.1078 16.8899 58.3445 17.3792 58.4588 17.5171L58.2819 17.3901C58.3363 17.5388 58.3934 17.6063 58.475 17.7874C58.3064 17.5009 58.4941 18.3525 58.2111 17.8524L58.2655 18.001C58.0316 18.101 57.8547 17.9766 57.6534 18.0307C57.4766 17.609 57.4385 17.7333 57.2426 17.4171C57.1583 17.609 57.1393 18.0038 56.9543 18.0389C56.7475 17.8767 56.772 17.6955 56.6142 17.4658C56.7638 17.855 56.5788 17.8875 56.7828 18.1281C56.5543 18.1471 56.4917 18.1578 56.1054 17.9497C56.0673 17.7821 56.0728 17.701 56.002 17.5766C55.9286 17.5334 55.9612 17.782 56.0456 17.9631L56.0755 17.9984C55.5477 17.5388 55.8714 19.3905 55.311 18.6823L55.3409 18.7174L54.9301 18.3985C54.8485 18.5093 55.1151 18.6606 55.1314 18.9309C54.609 18.3957 54.7642 19.1905 54.3751 18.8499C54.6798 20.0502 53.7603 19.0067 53.8365 19.8204L53.7385 19.5474C53.5725 19.3095 53.733 19.7285 53.7167 19.8069C53.6378 19.596 53.6786 19.542 53.5834 19.4122C52.9658 19.2879 52.7427 20.2097 52.3455 20.653C52.1932 20.799 51.6708 19.3149 51.7062 20.0448L51.9755 20.5151C51.3634 20.0717 51.2328 20.8423 50.6669 20.4827C50.7349 20.5882 50.7975 20.7368 50.8329 20.7206C50.9064 21.1126 50.5609 20.853 50.4357 20.5584C50.3922 20.6151 50.5336 20.8287 50.5608 20.9936C50.5717 21.2369 50.18 20.6125 50.2888 20.9855C50.3051 21.0477 50.3595 21.0936 50.384 21.1153C50.2615 20.9612 50.1718 21.2531 50.0466 20.8179C49.9949 21.072 49.712 20.7396 49.7065 21.0288C49.4454 20.5936 49.5678 21.345 49.274 20.6989C49.5651 21.3748 49.2631 21.3424 49.0455 21.0585C49.1597 21.2531 49.0591 21.3018 49.2087 21.5721C49.1081 21.6019 48.9666 21.5126 48.8387 21.1558C48.9938 22.0398 48.2075 20.6475 48.5367 21.7316C48.0959 21.4856 47.7287 21.3478 47.4022 21.2937C47.6906 21.9669 47.7178 21.2451 48.0007 21.9587C47.6389 21.7803 47.258 21.2585 47.0812 21.5208C47.0567 21.6397 47.239 21.7993 47.307 21.9074C46.9452 21.729 46.8554 22.1641 46.4854 21.883C46.5126 21.9452 46.5643 22.0047 46.6078 22.048C46.5561 22.0426 46.5479 22.1884 46.4255 21.8776L46.5017 21.9451C46.3874 21.4694 45.944 21.0828 45.8406 20.8503C46.2786 21.7019 45.7154 21.1612 46.2922 22.2263C46.2405 22.1803 46.1453 22.048 46.0664 21.8398C46.0501 21.9155 46.0854 22.0425 46.2242 22.2588C46.0011 22.1533 45.9195 21.8046 45.7835 21.8695C45.846 22.0182 45.8977 22.0642 45.9848 22.2345C45.7943 21.9723 45.6012 21.71 45.5359 21.8857C45.5794 21.9723 45.6148 22.0939 45.6502 22.0777C45.4271 22.1155 44.9836 21.4451 44.8775 21.8182C45.2094 22.4399 44.8884 22.0614 45.1088 22.6264L44.921 22.5075L44.8558 22.2155C44.7551 22.2668 44.4939 21.8965 44.4776 22.1182L44.6517 22.3183L44.4095 22.2912L44.4341 22.0344C44.2082 21.7884 44.1538 21.3207 44.0776 21.5342C44.1293 21.5802 43.9742 21.583 44.0559 21.9371C43.9307 21.7803 43.8001 21.6154 43.7783 21.7857C43.8328 21.9722 44.0504 22.3993 44.0858 22.5237C43.841 22.0776 43.7865 22.494 43.5145 22.0209C43.5852 22.129 43.7076 22.4236 43.7239 22.4858L43.5226 22.1236C43.5253 22.2642 43.5417 22.3263 43.645 22.5588C43.5281 22.6886 43.3975 21.829 43.3513 22.2074C43.3785 22.2318 43.3947 22.2912 43.4464 22.3372C43.3376 22.567 43.0084 22.2344 42.9268 22.4858C43.1118 23.0697 43.1227 22.567 43.2669 23.0644C42.9921 23.0563 42.5079 22.5831 42.3392 22.8075L42.3555 22.7292C41.9964 21.9453 42.35 23.1914 42.0834 22.8616C42.1351 22.9103 42.3011 23.2888 42.2576 23.2023C42.1569 23.3915 41.863 23.1347 41.5284 22.9779L41.6427 23.1698C41.6291 23.3888 41.4496 23.3725 41.3897 23.505C41.2755 23.313 41.2346 23.3699 41.1448 23.0563C41.3244 24.3431 40.3123 22.667 40.4456 23.7456C40.4783 23.7348 40.5953 23.8943 40.5708 23.9051L40.2661 23.8106C40.1409 23.4564 40.209 23.5888 40.1464 23.2996C40.0321 23.1049 39.9015 22.9725 39.8471 22.9968C40.043 23.186 40.0756 23.5536 40.111 23.7645C40.0756 23.6564 40.0103 23.5456 39.9695 23.4348C40.1055 24.0998 39.6621 22.7454 39.6703 23.2266L39.7546 23.4051C39.6567 23.3375 39.4989 23.1185 39.4553 23.1969C39.5941 23.6078 39.5968 23.3563 39.7383 23.6861C39.6376 23.6996 39.2431 22.9995 39.3248 23.4348C39.4091 23.5294 39.4662 23.5104 39.5506 23.605C39.654 24.1133 39.5941 23.997 39.5587 24.0998L39.5614 24.0862L39.4934 24.3619L39.4798 24.2187C38.933 23.2212 39.167 24.1241 38.729 23.5023C39.1479 24.089 38.9085 23.8672 39.1071 24.316C39.1207 24.4593 39.118 24.6243 39.1887 24.7459C38.9629 24.408 39.186 25.0837 38.8595 24.5917C38.9167 24.7404 38.786 24.6378 38.9547 25C38.8133 24.9243 38.8731 24.735 38.7888 24.5566C38.4351 24.116 38.6935 25.3027 38.1984 24.7026C38.1059 24.6377 38.0188 24.5458 37.9345 24.4457L37.3904 23.1616C37.5808 23.3779 37.7577 23.6401 37.9454 23.7591C37.9019 23.5023 37.6706 23.2509 37.6706 23.2509C37.6679 22.9968 37.755 23.0076 37.9128 23.1374C37.8393 23.0184 37.8121 22.9022 37.7686 22.7292C37.8529 22.7373 38.0434 23.2374 38.0434 22.986C37.9563 22.8292 37.8257 22.5805 37.7223 22.4318C37.861 22.5291 38.0596 22.767 38.2011 22.8616C38.1141 22.5994 37.9835 22.4993 37.8828 22.3452C38.027 22.4182 38.2283 22.4697 38.4297 22.859V23.0265C38.4732 23.0319 38.2991 22.6751 38.242 22.6129C38.0243 22.3345 38.1848 22.8022 38.2447 22.9508L38.3453 23.0184C38.6527 23.897 38.0461 22.986 37.9454 23.086L38.2637 23.6834L37.9182 23.2212C37.9618 23.3942 38.0951 23.7483 38.193 23.8158C38.2393 24.1592 38.0216 23.6294 38.095 24.0025C38.1086 24.0593 38.1277 24.0862 38.144 24.1078L37.9781 23.9592C38.0515 24.0835 38.1549 24.4025 38.1658 24.2917C38.1685 24.5864 37.9508 24.2971 37.8692 24.2592L37.4802 23.3401C37.5155 23.3563 37.5264 23.3239 37.4856 23.1725L37.4557 23.14C37.7549 23.2644 37.6652 23.5888 38.0461 24.0619L37.687 22.8887L37.8964 23.3375C37.9128 23.3131 37.9399 23.259 37.8556 23.0806C38.0678 23.3617 37.9236 23.286 38.0923 23.5617C38.0243 23.1022 38.4623 23.6375 38.1848 22.8995C38.3671 23.232 38.1957 23.2104 38.4079 23.4051C38.1168 22.6076 38.5929 23.4861 38.5412 23.086C38.3453 22.694 38.3426 22.9454 38.2882 22.5426C38.6283 23.2049 38.4133 22.3155 38.5494 22.4128C38.7779 22.9562 38.8187 22.5696 39.0309 22.694C38.9466 22.5129 39.1643 22.2885 39.2078 22.0398L39.1669 21.9506C39.42 22.4912 39.507 22.3345 39.6485 22.4102C39.5097 22.0831 39.439 21.9587 39.3248 21.8316L39.4146 21.7965C39.5098 21.9641 39.575 22.0452 39.6594 22.0857L39.4662 21.683C39.5941 21.656 39.907 22.0695 39.9451 21.7316C40.111 22.1127 40.2661 22.8508 40.5327 23.0427C40.4538 22.8319 40.3124 22.475 40.2335 22.4074C40.2579 22.429 40.3531 22.5589 40.345 22.4589L40.1355 22.1371C40.1409 21.9559 40.2933 22.4129 40.3341 22.3588C40.2117 22.0642 40.2878 22.1317 40.1817 21.8992C40.1545 21.8776 40.1844 22.0425 40.1137 21.9343C40.1545 21.8559 40.1573 21.6478 40.092 21.4153C40.1573 21.5856 40.2579 21.8155 40.3177 21.8344C40.4456 21.8074 40.2117 21.4613 40.2171 21.2801C40.3314 21.4748 40.3178 21.2288 40.5028 21.6722C40.5354 21.656 40.4565 21.445 40.4212 21.3207C40.5626 21.491 40.7313 21.2585 40.8564 21.7586L40.8537 21.7965C40.8591 21.8046 40.8646 21.8046 40.8728 21.8128C41.2564 22.1696 41.1883 21.391 41.4686 21.4991L41.406 21.3505C41.5964 21.4721 41.7135 21.3424 41.9311 21.6262C41.9665 21.61 41.9039 21.3207 41.8141 21.1504C41.9528 21.2234 42.0318 21.3856 42.0617 21.0882C41.8631 20.8665 41.9991 20.8449 41.8903 20.9368C41.9556 20.7611 41.8848 20.5124 42.1814 20.8638C41.9801 20.5016 42.0726 20.3502 42.1759 20.4394L42.2059 20.7449C42.293 20.7746 42.3337 20.7179 42.3773 20.6638L42.1405 20.1772C42.1324 19.4716 43.0057 21.0314 42.7717 19.9393C42.9812 20.261 42.7418 20.2394 42.9676 20.6233C43.0519 20.5098 42.8724 19.7473 42.9078 19.7311C42.9459 19.3932 43.3512 20.4016 43.4355 20.1475C43.4872 20.334 43.6641 20.8179 43.8545 20.9368C43.9389 20.826 43.6832 20.134 43.5553 20.0205C43.5227 20.0151 43.5335 20.0772 43.558 20.1394C43.4955 20.0907 43.4165 20.0312 43.3811 19.8204L43.4682 19.9934C43.4492 19.788 43.6097 19.7447 43.4546 19.469C43.6097 19.6041 43.6124 19.7474 43.5879 19.8637C43.626 19.5474 43.8083 19.7636 43.8845 19.5311C43.9008 19.6393 43.9661 19.8582 43.9878 19.8446C44.113 19.5365 44.2218 20.1448 44.4014 20.161C44.3742 19.8556 44.1048 19.5256 44.347 19.6932C44.3606 19.4716 44.1701 19.2121 44.0749 19.0824C44.3524 19.3716 44.2327 18.7552 44.2844 18.6606L44.1538 18.5471C44.2327 18.6147 44.2654 18.5984 44.3007 18.5822L44.4068 18.9552C44.4231 18.8768 44.4585 18.8606 44.3959 18.712C44.5347 18.9282 44.6082 19.3175 44.8258 19.6014C44.8068 19.3986 45.0761 19.7257 44.8993 19.2472C44.7904 19.4797 44.7224 18.7634 44.5428 18.7498C44.5945 18.7958 44.6272 18.7769 44.6435 18.6985C44.6272 18.6444 44.5973 18.6039 44.5755 18.5796C44.5674 18.0903 44.8721 19.0824 45.0407 19.0013C44.9074 18.7445 44.8721 18.4795 44.9238 18.5254C44.8558 18.5579 45.0734 18.9823 45.223 19.1608C45.2475 18.9093 45.408 19.2662 45.457 19.2175L45.4298 19.3419C45.5631 19.5987 45.6039 19.542 45.7154 19.5933C45.6365 19.3825 45.5849 19.4797 45.5767 19.377C45.8569 19.8095 45.5712 18.8121 45.8215 19.0797C45.8025 18.877 45.6202 18.5769 45.6175 18.4336C45.895 18.7228 45.6121 18.0092 45.8705 18.2362C45.9766 18.612 45.9331 18.5255 46.1779 18.8337L45.8406 18.6769L46.2052 19.1365C46.1371 19.1689 45.963 18.9715 45.9467 19.0499C46.1372 19.3121 46.0936 19.2257 46.1834 19.5366C46.0582 18.9607 46.5017 19.7717 46.4636 19.3635L46.0936 18.4795C46.0963 18.0172 46.5778 18.812 46.703 18.5012L46.6975 18.6823C46.8717 19.0229 46.8526 18.6768 46.9805 18.7904C46.8526 18.4957 46.8499 18.3714 46.8037 18.1741C46.8907 18.3957 46.9533 18.0903 47.2172 18.6742L47.1519 18.2443C47.2608 18.0145 47.6988 19.0066 47.8266 18.8363C47.6444 18.5362 47.6335 18.293 47.424 18.1091C47.4784 18.0821 47.5056 18.0091 47.5926 18.2146C47.5491 18.0172 47.9137 18.5498 47.8484 18.2471C47.9246 18.3687 48.0606 18.6742 48.115 18.6255C48.096 18.5633 48.0552 18.4795 48.0552 18.4795C48.115 18.6255 48.2347 18.639 48.3164 18.9877C48.1069 17.9929 48.8278 18.8579 48.651 18.0037C48.8142 18.0523 49.0019 18.0876 49.1216 18.066C49.0781 17.9795 49.0591 17.9172 49.0509 17.9577C49.0917 17.6198 49.4971 18.7687 49.5433 18.3903C49.4345 17.8739 49.3447 18.1687 49.3257 17.9659C48.9475 16.9819 49.5923 18.0118 49.4726 17.3954L49.4209 17.3495C49.3746 16.9818 49.7936 17.6306 49.9106 17.5009C49.9106 17.5009 49.8671 17.4171 49.848 17.3549C50.1527 17.8117 50.4112 17.8983 50.6098 17.9794C50.4085 17.6171 50.4629 17.8036 50.3296 17.4062C50.4166 17.436 50.569 18.0361 50.7404 18.0929C50.6941 17.8685 50.7105 17.6469 50.5527 17.2305L50.4248 17.2576C50.2643 16.698 50.5853 17.2143 50.6098 17.0954L50.5064 16.8656C50.7213 16.8683 50.9662 17.4549 51.1457 17.3332L51.1974 17.5199C51.5457 18.0605 51.1512 17.1549 51.4369 17.5442L51.2247 16.9386C51.3552 17.0521 51.7089 17.4089 51.8803 17.4684C51.6273 17.0575 51.3851 16.8954 51.1865 16.671C51.2545 16.6386 51.4423 16.6169 51.6001 16.8954C51.5484 16.8494 51.4532 16.7197 51.4613 16.8224C51.7388 17.2522 51.9483 17.4361 52.0816 17.3685C51.5837 16.2304 52.3265 16.9305 52.0599 15.9978C52.4816 16.3222 52.4761 15.6167 52.7917 15.568C53.0583 16.5034 52.8869 15.5599 53.246 16.4845C53.3385 16.5169 53.3576 16.4899 53.3386 16.4277L53.3168 15.7978C53.2542 15.5113 53.1698 15.6221 53.091 15.414C53.2079 15.2842 52.993 15.0003 52.9876 14.7165C53.1019 15.0517 53.2325 15.1652 53.2651 15.0057L53.3222 15.4761C53.7303 15.8816 53.1808 14.6327 53.5888 15.0328L53.4039 14.7705C53.5807 14.8975 53.7929 14.6056 54.201 15.3003C54.1765 15.1868 54.0976 14.9247 54.0242 14.8787C54.2309 14.6651 54.9138 15.4328 54.922 14.8976L54.8104 14.6814C54.8838 14.7273 55.0661 15.0706 55.0335 14.8192C54.9927 14.7273 54.9219 14.6029 54.9382 14.5813C54.9954 14.6489 55.2267 14.9246 55.2348 14.7678L55.077 14.538C55.2022 14.1433 55.7109 14.9976 55.9803 15.0679C55.7082 14.4082 55.8143 14.1136 55.866 13.9677L55.8252 13.8758C56.0809 13.6757 56.5407 14.2245 56.9134 14.3732C56.7828 13.5892 57.3514 13.8433 57.4494 13.3323C57.4575 13.4702 57.6697 13.8432 57.7432 13.8919C57.7514 13.7324 58.1051 14.2812 57.8439 13.6783L57.8276 13.7C57.629 13.0863 57.8221 13.1918 57.9174 13.135L58.2601 13.9217C58.0452 12.662 59.1226 14.065 58.8396 12.9755C58.9838 13.1486 59.0627 13.1134 59.2069 13.2864L59.0273 12.862C59.1579 12.6809 59.2232 12.5943 59.4817 12.6052L59.313 12.3186C59.4245 12.2429 59.9741 13.4811 60.0965 13.4595L59.868 12.8105C60.0857 12.7322 60.072 12.0888 60.5182 12.5781C60.4774 12.4862 60.3931 12.3051 60.3496 12.2943C60.4421 12.2375 60.5618 11.7077 60.8828 12.5917C60.6515 12.024 61.0787 12.4457 61.299 12.6485L61.1086 12.2375C61.4269 12.7323 61.4895 12.8782 61.6854 12.9701C61.6962 12.9026 61.5766 12.624 61.5766 12.7484C61.5929 12.4862 61.8241 13.1107 61.8622 12.835L61.7044 12.5863C61.8024 12.5079 61.8513 12.6565 62.0418 12.9431C62.1805 13.0837 62.2077 12.7512 62.0663 12.3673C62.1751 12.5917 62.3628 12.8755 62.3846 12.7403C62.3356 12.5943 62.273 12.516 62.2431 12.4754C62.3111 12.1159 62.7192 12.8511 62.6757 12.3862C62.6213 12.2456 62.5995 12.1726 62.5941 12.1267C62.4526 12.1969 62.3437 12.2673 62.3682 12.2943C62.2077 11.9077 62.3002 11.7941 61.9846 11.2994C62.1996 11.5508 62.624 12.1159 62.6621 11.8888C62.6512 11.8483 62.643 11.8104 62.6212 11.7482L62.5913 11.7103C62.6022 11.6617 62.6403 11.686 62.6892 11.7428C62.7001 11.6644 62.7029 11.6076 62.7355 11.5886C62.6185 11.2642 62.8008 11.3616 62.8525 11.3211C63.0212 11.7455 63.0702 11.6455 63.1436 12.024C63.1409 11.9888 63.111 11.978 63.0647 11.9753C63.0511 11.9671 63.0375 11.9644 63.0211 11.9428C63.0266 11.9536 63.0348 11.9672 63.0402 11.978C62.9967 11.9807 62.9423 11.9914 62.8825 12.0104C63.0185 12.205 63.1409 12.3672 63.1082 12.105C63.2497 12.3564 63.3966 12.6187 63.4728 12.7512C63.3096 12.1294 63.3341 11.7482 63.2062 11.3778C63.4837 11.54 63.6959 11.3617 64.1366 12.1078C64.2291 12.1889 64.1012 11.8563 64.0686 11.7238C64.006 11.6562 63.9761 11.6833 63.9135 11.5752C64.1012 11.7374 64.2509 11.5292 64.5039 12.0753C64.5311 11.7725 64.221 11.5941 64.4359 11.6131L64.3434 11.4535C64.3271 10.4262 65.4942 12.6349 65.4126 11.3427C65.4153 11.4238 65.4153 11.4617 65.448 11.5563C65.6819 10.8751 66.5498 11.6563 66.6586 10.6831C66.7157 10.4723 66.8763 10.8209 67.0613 11.0588L66.9007 10.5939L67.2462 11.0642C67.5863 11.3724 67.1048 9.82343 67.6353 10.4533L67.7305 10.7696C67.7904 10.6777 68.0679 10.8426 67.9101 10.4966C67.9428 10.548 68.0679 10.8021 68.0353 10.6318L67.94 10.3938L68.3128 10.7155C68.3998 10.4803 67.8992 9.78552 68.1114 9.64495C68.2339 9.70172 68.6419 10.2344 68.6746 10.4074C68.6446 10.4344 68.6473 10.5912 68.7426 10.8291L68.8732 10.921C69.1751 11.613 69.5316 12.3051 69.5398 12.8701L69.2296 12.4971L69.3248 12.8538L69.4472 12.8296C69.5152 13.1756 69.3574 12.9079 69.2323 12.7349C69.2949 12.9187 69.3303 13.054 69.3303 13.1324L68.9222 12.5187C69.0201 12.7998 69.2051 13.0377 69.1779 13.2242C68.9874 12.9404 68.9848 12.5862 68.797 12.4267C68.8623 12.77 68.9901 13.0214 68.8024 12.7809C68.865 12.9647 68.9303 13.0728 68.9929 13.1404C68.8378 12.9512 68.778 13.1215 68.5903 12.7646C68.6855 13.1836 68.3209 12.7565 68.6011 13.4134C68.514 13.2647 68.2692 12.943 68.1957 12.9403C68.6365 13.6864 67.9836 13.0809 68.3644 13.9189C67.9863 13.2404 67.9319 13.7271 67.6217 13.3919C67.6544 13.4459 67.7169 13.5541 67.7142 13.5108C67.6543 13.6027 67.7196 13.8271 67.7223 13.9839C67.4693 13.4 67.2843 13.3188 67.064 12.9836C67.1973 13.5919 67.4122 13.6486 67.6027 14.2055C67.4122 13.727 67.23 13.8028 67.0994 13.3919C67.1674 13.7757 67.1021 13.5891 67.2626 14.0946C66.9443 13.3647 67.1375 14.0001 66.8872 13.573C66.9253 13.9812 67.1429 14.2731 66.9252 14.1C66.9905 14.3433 67.2082 14.5569 67.2082 14.5569ZM63.734 14.4893C63.7367 14.4947 63.7367 14.4975 63.7367 14.4975C63.7666 14.4975 63.7911 14.4975 63.8074 14.4975C63.7911 14.4948 63.7721 14.4947 63.734 14.4893ZM63.481 14.584C63.5055 14.5542 63.5408 14.5381 63.5816 14.5246C63.5299 14.3759 63.4592 14.2298 63.4374 14.246C63.4918 14.338 63.4674 14.4461 63.481 14.584ZM62.7981 11.4454C62.7355 11.4022 62.7546 11.4887 62.7845 11.5779C62.8062 11.5779 62.8335 11.5832 62.8743 11.5995C62.8824 11.613 62.8906 11.6319 62.9015 11.6482C62.8661 11.5725 62.8307 11.4995 62.7981 11.4454Z" fill="white"/>
<path d="M63.0967 11.9685C63.1076 11.9767 63.1157 11.993 63.1266 11.993C63.1348 12.0338 63.1402 12.0692 63.143 12.0991C63.1185 12.0556 63.0967 12.0121 63.075 11.9713C63.0831 11.9713 63.0885 11.9685 63.0967 11.9685Z" fill="white"/>
<path d="M40.8857 21.7585V21.7476C40.8885 21.7667 40.8912 21.7858 40.8994 21.813C40.8939 21.7858 40.8912 21.7748 40.8857 21.7585Z" fill="white"/>
<path d="M60.3931 16.7871L60.3496 16.6783L60.4095 16.7627L60.3931 16.7871Z" fill="white"/>
<path d="M40.1184 23.7609C40.132 23.799 40.1429 23.8398 40.1456 23.8779C40.1348 23.848 40.1266 23.8071 40.1184 23.7609Z" fill="white"/>
<path d="M39.5696 24.0957L39.5479 24.2808C39.5479 24.1801 39.556 24.1284 39.5696 24.0957Z" fill="white"/>
<path d="M39.2018 24.4922C39.1664 24.4187 39.1419 24.3644 39.1174 24.3127V24.3099L39.2018 24.4922Z" fill="white"/>
<path d="M46.616 22.0476C46.6241 22.0476 46.6322 22.0502 46.6404 22.0583C46.7166 22.1236 46.6731 22.102 46.616 22.0476Z" fill="white"/>
<path d="M44.0642 21.9357C44.1186 22.0037 44.173 22.069 44.2166 22.1071C44.1894 22.156 44.1622 22.1751 44.0642 21.9357Z" fill="white"/>
<path d="M49.2199 21.5776L49.217 21.569C49.2228 21.569 49.2286 21.5661 49.2315 21.5632L49.2199 21.5776Z" fill="white"/>
<path d="M44.3111 22.0578C44.3084 22.1585 44.2675 22.1531 44.2131 22.1068C44.2322 22.066 44.2513 22.0061 44.3111 22.0578Z" fill="white"/>
<path d="M38.019 22.1046L38.0327 22.0774C38.0435 22.1046 38.0544 22.1263 38.0653 22.1426L38.019 22.1046Z" fill="white"/>
<path d="M38.0652 22.1422L38.1115 22.1831C38.1006 22.1886 38.0897 22.1885 38.0652 22.1422Z" fill="white"/>
<path d="M38.2058 22.2671L38.1106 22.1829C38.1269 22.1747 38.1432 22.1501 38.2058 22.2671Z" fill="white"/>
<path d="M37.5075 22.5537L37.4341 22.4041C37.4531 22.4341 37.4776 22.483 37.5075 22.5537Z" fill="white"/>
<path d="M37.3088 22.5858C37.336 22.5317 37.2761 22.2154 37.3795 22.2857L37.4367 22.4047C37.3088 22.1911 37.4585 22.8236 37.3088 22.5858Z" fill="white"/>
<path d="M38.0158 22.8127L37.9125 22.9966C37.8717 22.8236 37.8172 22.5884 37.7302 22.5776C37.7247 22.0153 37.8417 22.9587 38.0158 22.8127Z" fill="white"/>
<path d="M38.3914 22.3828C38.2772 22.3396 38.2935 22.1449 38.2527 22.0557C38.367 22.1828 38.3942 22.2152 38.3914 22.3828Z" fill="white"/>
<path d="M41.8173 20.9858L41.6514 20.6046C41.7357 20.6344 41.7112 20.7534 41.8173 20.9858Z" fill="white"/>
<path d="M43.2911 22.7022L43.3264 22.9644L43.1523 22.6264L43.2911 22.7022Z" fill="white"/>
<path d="M42.5485 19.8093L42.4968 19.7657L42.6601 19.8638L42.5485 19.8093Z" fill="white"/>
<path d="M48.3574 17.6009L48.5342 18.082C48.4553 18.0144 48.2268 17.4874 48.3574 17.6009Z" fill="white"/>
<path d="M51.04 17.0713C50.9693 16.8226 50.9775 16.6442 51.1162 16.8577C51.0727 16.9118 51.0917 17.12 51.04 17.0713Z" fill="white"/>
<path d="M58.1677 13.2651L58.0535 13.1264L58.203 13.2189L58.1677 13.2651Z" fill="white"/>
<path d="M39.9809 3.71966C39.8394 3.7251 39.5238 3.6898 39.5891 3.64899L40.1305 3.65988L39.9809 3.71966Z" fill="white"/>
<path d="M39.0071 3.33546C39.2737 3.30302 39.7362 3.27871 40.2286 3.3517C39.7063 3.36251 39.9212 3.3923 39.3009 3.40041C39.2356 3.44096 39.4668 3.49222 39.6654 3.50033C39.5267 3.50574 39.777 3.5788 39.4369 3.5761C39.0234 3.48419 39.0125 3.40841 39.3634 3.35975C39.2492 3.33542 39.1077 3.34087 39.0071 3.33546Z" fill="white"/>
<path d="M41.2729 1.40502L41.2158 1.4458C41.2403 1.41859 41.2593 1.40774 41.2729 1.40502Z" fill="white"/>
<path d="M43.7893 2.48145C43.7784 2.45968 43.7948 2.40807 43.8193 2.36454C43.8193 2.40535 43.8165 2.44064 43.7893 2.48145Z" fill="white"/>
<path d="M44.4771 2.18071C44.4607 2.19159 44.4499 2.19427 44.4363 2.19971C44.4689 2.16162 44.4907 2.14262 44.4771 2.18071Z" fill="white"/>
<path d="M41.2729 1.40527L41.4226 1.29648C41.3383 1.44883 41.3246 1.38895 41.2729 1.40527Z" fill="white"/>
<path d="M40.3556 2.83214C40.3284 2.84575 40.2767 2.85393 40.2114 2.85938C40.2359 2.84849 40.2577 2.83758 40.2713 2.8267C40.2985 2.82942 40.3257 2.83214 40.3556 2.83214Z" fill="white"/>
<path d="M40.47 0.418457L40.4509 0.407564C40.4809 0.350431 40.5135 0.282491 40.5489 0.211755L40.47 0.418457Z" fill="white"/>
<path d="M37.8311 0.953922C37.8121 0.932157 38.2718 0.959443 38.4704 0.967605C38.28 0.964884 38.1902 0.972934 38.1522 0.989258C38.0678 0.983817 37.9644 0.972966 37.8311 0.953922Z" fill="white"/>
<path d="M38.5194 2.47821L38.4541 2.5C38.4731 2.49456 38.4922 2.48638 38.5194 2.47821Z" fill="white"/>
<path d="M41.0823 0.672852C41.1176 0.615719 41.153 0.564028 41.1721 0.536822C41.1449 0.585792 41.1122 0.629322 41.0823 0.672852Z" fill="white"/>
<path d="M63.8975 13.646C63.9056 13.6133 63.911 13.5943 63.9165 13.5671C63.911 13.6133 63.9056 13.646 63.8975 13.646Z" fill="white"/>
<path d="M65.4891 11.71L65.481 11.6829C65.5 11.5991 65.5191 11.5153 65.5354 11.4342L65.4891 11.71Z" fill="white"/>
<path d="M45.4977 2.05657C45.495 2.05929 45.4922 2.05929 45.4895 2.06201C45.4949 2.00488 45.5031 2.01848 45.4977 2.05657Z" fill="white"/>
<path d="M52.3239 5.62268C52.0844 5.9633 52.2531 6.16067 51.9565 6.52832C52.0382 6.36612 52.1225 5.82272 52.3239 5.62268Z" fill="white"/>
<path d="M40.2964 2.80518C40.3018 2.79429 40.3072 2.78065 40.3045 2.76705C40.3181 2.78609 40.3154 2.79701 40.2964 2.80518Z" fill="white"/>
<path d="M51.9564 6.52779L51.9537 6.53045L51.9238 6.56592C51.9374 6.54959 51.9456 6.53867 51.9564 6.52779Z" fill="white"/>
<path d="M47.0949 3.17483C47.0541 3.24556 47.0214 3.29722 46.9888 3.34619C47.0078 3.30266 47.0378 3.25372 47.0949 3.17483Z" fill="white"/>
<path d="M45.5063 3.10303L45.5662 3.0649C45.5363 3.09483 45.52 3.10303 45.5063 3.10303Z" fill="white"/>
<path d="M47.4812 4.08687C47.5138 4.06511 47.5465 4.01076 47.5438 4.07877C47.5302 4.09782 47.522 4.1114 47.5112 4.125C47.5302 4.06243 47.5329 4.02974 47.4812 4.08687Z" fill="white"/>
<path d="M48.1886 4.42473L48.1369 4.50098C48.1341 4.49009 48.1287 4.47918 48.126 4.4683L48.1886 4.42473Z" fill="white"/>
<path d="M61.5527 12.8131C61.6044 12.6941 61.6534 12.5617 61.6997 12.4292C61.6017 12.7374 61.686 12.878 61.5527 12.8131Z" fill="white"/>
<path d="M40.0972 2.81374C40.2114 2.81918 40.2713 2.81652 40.2958 2.80564C40.2903 2.8138 40.2794 2.82192 40.2685 2.83008C40.2032 2.82736 40.138 2.8219 40.0972 2.81374Z" fill="white"/>
<path d="M45.9248 7.33339L46.0717 7.32794C46.02 7.35243 45.9656 7.35515 45.9248 7.33339Z" fill="white"/>
<path d="M55.9971 11.0204L56.008 11.083C55.9917 11.0884 55.9862 11.0721 55.9971 11.0204Z" fill="white"/>
<path d="M46.3904 7.55518C46.4802 7.42001 46.5455 7.34703 46.5944 7.30108C46.5835 7.33622 46.5754 7.36323 46.5564 7.4146L46.3904 7.55518Z" fill="white"/>
<path d="M61.7024 12.4228L61.699 12.4297L61.7024 12.4228Z" fill="white"/>
<path d="M62.2406 13.6867C62.1181 13.6678 62.3358 13.1055 62.4011 12.7676C62.3032 12.5649 62.2215 13.1758 62.0909 13.4597C62.0419 13.2813 62.1181 12.7324 62.0474 12.7378C62.0175 12.8324 61.993 12.8623 61.9767 12.9866C62.0093 12.5027 61.7046 12.8893 61.7536 12.2837C61.7318 12.3324 61.7128 12.381 61.6992 12.4243C61.7971 12.1404 61.8814 11.8458 61.9358 11.6349C61.8869 11.6106 61.9386 11.2429 61.8134 11.6159C61.8488 11.6132 61.808 11.7674 61.7917 11.889L61.7808 11.7106C61.5795 12.2404 61.8053 11.9187 61.691 12.3188C61.6311 12.1161 61.6339 11.6268 61.506 11.7593C61.3401 12.2837 61.6475 11.9944 61.4053 12.4323L61.5904 12.2675C61.2585 13.0758 61.6855 12.2324 61.3428 13.1001C61.1305 13.2056 61.2285 12.7757 61.0163 12.8811C61.0625 12.5757 61.1523 12.4486 61.1986 12.1431C61.1115 11.5457 60.6272 13.4217 60.6544 12.6648C60.7116 12.2998 60.8884 11.624 60.6599 11.943L60.5293 12.554C60.347 12.5676 60.6871 11.6673 60.3987 12.0214C60.3606 12.2647 60.4695 12.2567 60.4232 12.3216C60.1729 12.7622 60.445 11.9593 60.3607 11.935L60.1865 12.4594C60.0369 12.3242 59.958 11.8917 59.7975 11.7349C59.7594 11.8944 59.743 12.0701 59.6505 12.2188C59.4873 11.8809 59.1146 12.1242 58.7827 12.3648L58.8344 11.8836C58.8126 11.8809 58.731 12.0782 58.7256 12.1728C58.5814 12.3161 58.8126 11.8836 58.8235 11.6917C58.7827 11.643 58.6739 11.9322 58.663 12.0782C58.6222 11.643 58.4698 11.1077 58.146 11.5429L58.1352 11.6889C57.9447 11.8322 58.2875 10.713 58.0291 11.0969L58.0264 11.1861C57.6781 11.2889 57.504 10.7725 57.0605 11.3807C57.2374 10.7157 56.6823 11.5781 56.9707 10.6643C56.6551 11.059 56.647 11.2375 56.3151 11.4619C56.2389 11.4835 56.4185 10.8671 56.3777 10.7482L56.2117 11.2213L56.2825 10.6888L56.0321 11.2348L56.005 11.0889C56.0431 11.0699 56.1383 10.8969 56.1818 10.7618C56.1464 10.5104 55.8009 10.9969 55.7111 11.2375L55.5914 10.7455C55.5289 10.9375 55.5506 11.0186 55.5424 11.151C55.5751 10.6212 55.3411 11.6376 55.371 11.1537C55.4255 11.0536 55.4608 10.8698 55.4935 10.7725C55.3275 11.0347 55.1833 10.9861 55.1181 10.8293L55.0228 11.1619C54.7997 11.1754 54.6718 10.8618 54.4515 10.7915C54.5848 10.6671 54.7725 10.1022 54.7317 10.0238L54.5222 10.5103C54.5956 10.1886 54.6583 10.3481 54.7127 9.93994C54.612 9.96697 54.4488 10.4833 54.4352 10.6617L54.4025 10.4535C54.3426 10.5995 54.3345 10.686 54.2719 10.8779C54.3454 10.5562 53.9182 11.3105 54.0597 10.7564L53.9999 10.9023C53.7822 10.8239 53.7496 10.6185 53.5836 10.5265C53.7414 10.0994 53.638 10.1669 53.7169 9.802C53.5373 9.89121 53.2653 10.1724 53.1238 10.0777C53.0966 9.82633 53.2327 9.70472 53.2816 9.43438C53.1239 9.81826 52.9823 9.72363 52.9551 10.0318C52.7946 9.89935 52.7484 9.86423 52.6396 9.45603C52.7266 9.30735 52.7837 9.25057 52.8218 9.1127C52.8055 9.0316 52.6613 9.23703 52.5933 9.42356L52.5879 9.46949C52.5607 8.78825 51.5323 10.3535 51.6466 9.46685L51.6411 9.51002L51.5975 9.00723C51.4697 9.03427 51.5377 9.32087 51.3663 9.52903C51.399 8.79642 50.9582 9.47494 50.9473 8.96671C50.3243 10.0345 50.4577 8.66657 49.9516 9.30185L50.0768 9.04234C50.1366 8.7612 49.9489 9.1668 49.8836 9.21276C49.9788 9.01 50.0414 8.99909 50.0713 8.83959C49.7748 8.33948 49.0049 8.84497 48.4499 8.88012C48.254 8.87741 48.9722 7.47716 48.4852 8.01513L48.322 8.52874C48.2621 7.79613 47.6391 8.25295 47.552 7.60685C47.5194 7.72851 47.4514 7.87456 47.4813 7.88537C47.2501 8.20707 47.2256 7.7853 47.3589 7.49875C47.2936 7.50686 47.2256 7.75291 47.1249 7.88537C46.9589 8.06109 47.1685 7.35546 46.9671 7.69067C46.9345 7.74474 46.9317 7.81505 46.9317 7.84749C46.9698 7.65555 46.7059 7.79339 46.9426 7.40952C46.7304 7.54739 46.8012 7.123 46.5917 7.31765C46.7495 6.83645 46.2815 7.43924 46.5726 6.79044C46.2597 7.45546 46.1047 7.2257 46.1809 6.87967C46.1074 7.09053 46.0149 7.05545 45.9088 7.34471C45.8272 7.29334 45.8109 7.13107 45.9904 6.80126C45.4436 7.51224 45.9904 6.012 45.4001 6.97709C45.3239 6.4986 45.2124 6.14444 45.0627 5.87952C44.739 6.53643 45.2804 6.06868 44.9212 6.74992C44.8423 6.37415 45.0029 5.75238 44.7118 5.80375C44.6111 5.86592 44.5975 6.10119 44.5594 6.22285C44.4832 5.84708 44.116 6.06869 44.1105 5.61723C44.0806 5.67671 44.0642 5.7551 44.0588 5.81457C44.0316 5.77402 43.9228 5.86596 44.0806 5.5713L44.0751 5.67135C44.3581 5.27396 44.3962 4.70087 44.5104 4.47109C44.1295 5.34967 44.2139 4.58728 43.7514 5.70646C43.7568 5.63888 43.7976 5.48208 43.9091 5.29014C43.8438 5.32799 43.7704 5.4361 43.6888 5.67941C43.6398 5.44962 43.852 5.16033 43.7296 5.10627C43.6534 5.24954 43.648 5.31724 43.5718 5.49025C43.6588 5.18207 43.7459 4.87117 43.5799 4.93876C43.5391 5.02797 43.4684 5.1334 43.501 5.14692C43.3487 5.01175 43.599 4.2547 43.2671 4.41961C42.9896 5.0657 43.093 4.5873 42.7937 5.11445L42.7774 4.90088L42.9596 4.66565C42.8644 4.6251 42.9977 4.19527 42.8263 4.32773L42.7719 4.58183L42.6604 4.38991L42.8645 4.24128C42.9243 3.91687 43.2426 3.57351 43.044 3.65731C43.0386 3.7249 42.9515 3.6168 42.7339 3.90336C42.7339 3.90336 42.7339 3.90329 42.7339 3.906C42.7828 3.71406 42.8372 3.51135 42.6985 3.60596C42.5869 3.76546 42.3856 4.20066 42.3122 4.30609C42.5162 3.83841 42.1707 4.0682 42.3802 3.56808C42.3367 3.68973 42.1815 3.96815 42.1435 4.01952L42.3094 3.64108C42.2033 3.73299 42.168 3.78709 42.0483 4.01147C41.8878 4.00876 42.4645 3.36269 42.1544 3.57085C42.1489 3.606 42.1136 3.65731 42.1081 3.7249C41.8769 3.79248 41.9503 3.34378 41.7164 3.4411C41.3736 3.94933 41.7599 3.63845 41.4606 4.06017C41.3191 3.85202 41.4225 3.19507 41.1641 3.21129L41.2321 3.1734C41.6375 2.41376 40.8784 3.46274 40.9872 3.05724C40.979 3.12483 40.7778 3.48708 40.8186 3.40057C40.62 3.44653 40.6608 3.06529 40.6063 2.72197L40.5193 2.92749C40.3424 3.05455 40.2608 2.91123 40.1302 2.95178C40.22 2.74903 40.1547 2.75168 40.3479 2.49216C39.4501 3.42481 40.2228 1.62983 39.461 2.39487C39.4855 2.4138 39.4229 2.59761 39.4011 2.5868L39.3195 2.30023C39.529 1.98935 39.4637 2.12181 39.6541 1.89473C39.7466 1.68927 39.7847 1.51085 39.7385 1.48382C39.6922 1.74604 39.4229 1.99745 39.2787 2.15424C39.344 2.05962 39.3984 1.94347 39.4637 1.84615C39.0175 2.35708 39.8419 1.19186 39.4746 1.49464L39.3794 1.66769C39.3821 1.55145 39.4719 1.30273 39.3902 1.31895C39.14 1.67579 39.3358 1.52444 39.1535 1.82992C39.0909 1.76233 39.4365 1.04055 39.14 1.36766C39.1073 1.48931 39.1536 1.51898 39.1236 1.64063C38.7808 2.02991 38.8406 1.9137 38.7427 1.94885L38.7536 1.94344L38.5033 2.06237L38.6094 1.96508C38.7155 1.75152 38.7727 1.61355 38.7999 1.52434L39.7113 1.06485C39.363 1.12703 39.8092 1.25671 39.2134 1.327C39.929 1.24049 39.6215 1.33515 40.1166 1.36488C40.2499 1.41354 40.3996 1.48111 40.5383 1.4784C40.1357 1.51625 40.843 1.61897 40.2527 1.67033C40.4104 1.68655 40.2608 1.74611 40.6607 1.76233C40.5274 1.84343 40.386 1.7191 40.1874 1.71099C39.6351 1.8056 40.8185 2.08943 40.0595 2.23001C39.7385 2.37869 39.2025 2.36788 38.9223 2.50575C39.1726 2.57874 39.5045 2.50839 39.5045 2.50839C39.7303 2.61382 39.684 2.67603 39.4936 2.74361C39.6323 2.73821 39.7494 2.76517 39.9262 2.80301C39.8799 2.86519 39.344 2.80041 39.5725 2.90584C39.7521 2.90584 40.035 2.90853 40.2146 2.88961C40.0622 2.95449 39.7603 3.00847 39.6106 3.07876C39.8854 3.12201 40.035 3.06258 40.2173 3.04906C40.084 3.13016 39.9479 3.26263 39.5072 3.25722L39.3548 3.187C39.3304 3.21944 39.7303 3.23292 39.812 3.2167C40.1602 3.16534 39.6677 3.09234 39.5099 3.07612L39.4039 3.12483C38.4789 2.99236 39.5725 2.90586 39.5263 2.78691L38.8461 2.7815L39.4175 2.7085C39.2434 2.66795 38.8679 2.62196 38.7618 2.67062C38.4326 2.56249 39.0094 2.6166 38.6421 2.51658C38.5849 2.50306 38.5523 2.50576 38.5251 2.51116L38.7346 2.44622C38.5904 2.45163 38.2585 2.39486 38.351 2.45163C37.9728 2.27592 38.8788 2.25704 38.37 2.16242L38.3265 2.17047C38.5714 1.98665 38.8243 2.18938 39.4201 2.08665L38.2013 1.88932L38.6992 1.90832C38.6829 1.8867 38.6503 1.84344 38.4489 1.83533C38.7944 1.78397 38.6639 1.86508 38.9876 1.84615C38.5441 1.71099 39.2216 1.58663 38.4326 1.50282C38.8135 1.49742 38.7155 1.62167 38.9876 1.53516C38.1388 1.43784 39.1427 1.42436 38.759 1.30271C38.3183 1.2946 38.5441 1.40007 38.1578 1.27843C38.906 1.28113 38.0082 1.08644 38.1578 1.02155C38.4054 1.04048 38.4925 1.01617 38.5224 0.975619L39.208 0.0645618L39.4256 0.521411C39.4555 0.58629 39.5671 0.572758 39.5698 0.707925C39.6677 0.534911 39.948 0.556538 40.1629 0.437592L40.2119 0.351131C39.9208 0.870173 40.084 0.840468 40.0976 0.991855C40.2799 0.686378 40.3397 0.556628 40.3805 0.394427L40.4513 0.440363C40.3696 0.613377 40.3397 0.713422 40.3506 0.799929L40.5656 0.407891C40.6472 0.486288 40.4867 0.972937 40.7642 0.794517C40.5574 1.15406 40.0649 1.7272 40.0568 2.04349C40.1765 1.85426 40.3805 1.52708 40.3941 1.42706C40.3914 1.4595 40.337 1.61093 40.4105 1.54335L40.5519 1.18642C40.6934 1.07829 40.4186 1.47569 40.4812 1.47299C40.6444 1.19725 40.6336 1.29735 40.756 1.07567C40.7614 1.04323 40.6472 1.16479 40.6961 1.04584C40.7778 1.02692 40.9355 0.902629 41.0825 0.705285C40.9845 0.859376 40.8594 1.0756 40.8757 1.13507C40.96 1.21347 41.107 0.824243 41.2484 0.716109C41.1587 0.921563 41.3382 0.759347 41.0933 1.17296C41.1233 1.18647 41.243 0.997231 41.3192 0.8918C41.262 1.10266 41.5232 1.07831 41.2076 1.48382L41.1777 1.50546C41.175 1.51628 41.1777 1.5163 41.175 1.52711C41.0988 2.03264 41.6565 1.492 41.7191 1.76233L41.8007 1.62439C41.8061 1.83796 41.964 1.84345 41.8633 2.18407C41.8932 2.20029 42.0782 1.97046 42.1625 1.79745C42.1761 1.94613 42.0973 2.10563 42.3367 1.93802C42.3993 1.65147 42.4863 1.73789 42.3611 1.71627C42.5271 1.65139 42.6767 1.44062 42.5624 1.88126C42.7311 1.5028 42.8917 1.47305 42.8781 1.60552L42.6659 1.82173C42.6876 1.90283 42.7529 1.8975 42.8155 1.89209L43.0576 1.40818C43.58 0.943206 42.8699 2.58146 43.5609 1.70557C43.4304 2.06512 43.3215 1.8785 43.1529 2.28941C43.2807 2.27589 43.7541 1.6514 43.784 1.66492C44.056 1.47298 43.5201 2.41926 43.7514 2.31383C43.6426 2.47332 43.3759 2.9139 43.3895 3.12747C43.5174 3.11665 43.8928 2.48143 43.9091 2.31383C43.8955 2.28679 43.8548 2.33533 43.8248 2.3921C43.8276 2.3137 43.8303 2.22186 43.9663 2.05696L43.8847 2.23265C44.0262 2.08667 44.1431 2.17316 44.2628 1.87849C44.2438 2.07854 44.1404 2.17317 44.0425 2.23265C44.2955 2.05152 44.2302 2.32726 44.4424 2.22723C44.3717 2.31104 44.2465 2.50028 44.2655 2.50839C44.5594 2.39756 44.1703 2.87331 44.2519 3.01118C44.4614 2.7895 44.5594 2.38129 44.5676 2.66243C44.7362 2.52727 44.826 2.2191 44.8695 2.06501C44.8042 2.45158 45.1933 1.95965 45.2885 1.93261L45.3021 1.76497C45.2939 1.865 45.3239 1.87857 45.3538 1.89209L45.1388 2.21377C45.2041 2.17322 45.2341 2.18677 45.3103 2.04349C45.2259 2.28409 44.9811 2.59486 44.8913 2.93818C45.03 2.7895 44.9348 3.19779 45.1906 2.75444C44.9648 2.83284 45.4463 2.30834 45.3619 2.17047C45.3565 2.23806 45.3865 2.24891 45.4545 2.20836C45.4871 2.1597 45.498 2.11098 45.5034 2.08124C45.8544 1.74873 45.2967 2.62461 45.4463 2.6895C45.5633 2.42457 45.7347 2.22182 45.7293 2.28941C45.6694 2.26508 45.4789 2.70034 45.4272 2.92472C45.6231 2.77333 45.449 3.12476 45.5116 3.12747L45.4082 3.19241C45.2939 3.45734 45.3565 3.44913 45.381 3.56267C45.4898 3.36532 45.3946 3.39509 45.4626 3.31939C45.3021 3.80599 45.868 2.9382 45.8109 3.29233C45.9469 3.14365 46.0639 2.81388 46.1645 2.71655C46.1047 3.10854 46.4665 2.42734 46.442 2.75985C46.2325 3.08695 46.2679 3.00046 46.1809 3.37893L46.1101 3.03824L45.9768 3.60055C45.9142 3.57622 45.9632 3.32214 45.8979 3.36269C45.8136 3.67357 45.8517 3.58438 45.6749 3.85742C46.0231 3.38163 45.6802 4.2386 45.955 3.93583L46.3876 3.08153C46.7223 2.77065 46.4121 3.64386 46.7032 3.5195L46.5699 3.63844C46.423 3.98987 46.6597 3.74116 46.6488 3.90877C46.7875 3.61951 46.8773 3.53301 46.9916 3.3681C46.8828 3.57896 47.1331 3.41401 46.8637 3.99523L47.1331 3.65731C47.3562 3.57621 46.8964 4.56029 47.0868 4.53326C47.1984 4.20075 47.3616 4.0277 47.3779 3.75737C47.4269 3.77899 47.4949 3.74647 47.397 3.94652C47.5139 3.77891 47.3371 4.40075 47.5139 4.14663C47.4731 4.2818 47.3317 4.58731 47.397 4.59002C47.4323 4.53325 47.465 4.44667 47.465 4.44667C47.397 4.58994 47.4541 4.67914 47.2528 4.97651C47.8377 4.14658 47.6364 5.23876 48.1369 4.52507C48.1941 4.67105 48.2757 4.82247 48.3601 4.89005C48.3954 4.80084 48.4281 4.74672 48.3955 4.76835C48.6539 4.56019 48.0826 5.63885 48.3737 5.40907C48.6702 4.97654 48.4144 5.11714 48.545 4.96305C49.0157 4.01688 48.6647 5.17665 49.0239 4.66842L49.0266 4.60084C49.2551 4.31158 49.043 5.0522 49.2007 5.03868C49.2007 5.03868 49.2334 4.95216 49.266 4.89269C49.1273 5.41984 49.2171 5.65504 49.2769 5.84427C49.4102 5.45229 49.3123 5.61997 49.5109 5.24962C49.5408 5.32801 49.2144 5.85512 49.2742 6.01191C49.4048 5.82268 49.5653 5.6767 49.7584 5.2739L49.666 5.20632C49.9571 4.7035 49.7911 5.28473 49.8863 5.21714L49.9842 4.98469C50.1067 5.12797 49.8455 5.71185 50.0359 5.74699L49.9407 5.91463C49.7748 6.53369 50.1638 5.62535 50.0632 6.09573L50.3516 5.52259C50.3488 5.6902 50.3134 6.18492 50.376 6.34442C50.5066 5.88214 50.4767 5.60098 50.512 5.30902C50.5746 5.33064 50.697 5.44421 50.6018 5.74699C50.6018 5.67941 50.6345 5.5226 50.5719 5.601C50.4413 6.09571 50.4413 6.36604 50.5665 6.40659C51.0426 5.25767 51.0099 6.25528 51.4806 5.40643C51.5132 5.91736 51.9812 5.4037 52.1989 5.57671C51.7336 6.43097 52.2614 5.63343 51.8588 6.54175C51.8914 6.62556 51.9213 6.62017 51.9512 6.5634L52.3566 6.09032C52.509 5.84161 52.3866 5.86592 52.4764 5.66317C52.6314 5.64695 52.6913 5.29825 52.8763 5.08739C52.7239 5.40909 52.7239 5.57404 52.849 5.47943L52.5715 5.86051C52.5471 6.4201 53.0449 5.15228 53.0231 5.70646L53.0858 5.39561C53.1075 5.60376 53.4258 5.52532 53.2164 6.29848C53.2762 6.19846 53.3986 5.9552 53.385 5.8741C53.6489 5.84977 53.5591 6.85804 53.9128 6.46876L53.9862 6.23631C54.0026 6.31741 53.8911 6.69051 54.0325 6.48236C54.0679 6.38774 54.106 6.24977 54.1304 6.24436C54.1223 6.33087 54.0842 6.68513 54.1903 6.57159L54.242 6.29848C54.5739 6.08492 54.3317 7.04192 54.4569 7.2663C54.7126 6.59857 54.9684 6.44717 55.0935 6.37148L55.1262 6.27683C55.4092 6.28765 55.3411 6.9905 55.4798 7.34193C55.8934 6.6715 56.0866 7.2176 56.4702 6.8905C56.3913 7.00133 56.2852 7.41494 56.3042 7.49875C56.4076 7.3825 56.2879 8.01776 56.5028 7.39869L56.4783 7.4041C56.7368 6.81478 56.7912 7.01492 56.8864 7.02844L56.6144 7.84208C57.2619 6.74722 57.0714 8.49092 57.5666 7.47987C57.553 7.70155 57.6237 7.72046 57.6101 7.94213L57.757 7.50693C57.9502 7.44746 58.0454 7.41773 58.2032 7.58534L58.2685 7.26089C58.3854 7.269 57.9801 8.56113 58.0753 8.62061L58.3229 7.98002C58.5106 8.05301 58.8888 7.54473 58.8806 8.19623C58.9078 8.09891 58.9649 7.90962 58.9432 7.87178C59.0384 7.88529 59.4302 7.54469 59.1091 8.42868C59.2996 7.84476 59.3241 8.43141 59.3459 8.72066L59.4683 8.28546C59.3785 8.86398 59.335 9.01534 59.4084 9.20457C59.4547 9.15861 59.5445 8.86669 59.471 8.96671C59.6397 8.76937 59.4166 9.39921 59.607 9.20457L59.6505 8.91536C59.7594 8.91266 59.705 9.05858 59.6587 9.3965C59.6669 9.58844 59.8818 9.3451 60.0179 8.95853C59.958 9.20183 59.9145 9.53705 60.007 9.44243C60.0614 9.29645 60.0668 9.19911 60.0695 9.15045C60.3253 8.90715 60.162 9.72902 60.4069 9.33974C60.4531 9.19646 60.483 9.12883 60.5048 9.08828C60.3688 9.05854 60.2572 9.04772 60.2572 9.08287C60.3797 8.68548 60.5075 8.64763 60.5919 8.06912C60.5837 8.39622 60.5293 9.09374 60.6898 8.93965C60.7062 8.9018 60.7225 8.86666 60.7442 8.80448L60.747 8.75577C60.7823 8.72333 60.7932 8.7666 60.7932 8.83959C60.8449 8.78282 60.883 8.74225 60.9156 8.74495C61.0271 8.41785 61.0897 8.60173 61.1496 8.60173C61.0136 9.03697 61.1061 8.98829 60.9319 9.32891C60.951 9.29918 60.9374 9.27483 60.9075 9.2451C60.9021 9.22888 60.8966 9.22078 60.8993 9.19375C60.8966 9.20456 60.8939 9.22075 60.8912 9.23427C60.8612 9.21264 60.8177 9.18831 60.766 9.16669C60.7415 9.40188 60.7306 9.59923 60.8612 9.37485C60.8095 9.6587 60.7524 9.95335 60.7252 10.102C60.9809 9.5127 61.2176 9.22355 61.3482 8.85319C61.438 9.14515 61.6828 9.12343 61.5468 9.97769C61.5631 10.0966 61.6693 9.75607 61.7237 9.63172C61.721 9.54251 61.6856 9.54521 61.7046 9.42356C61.7373 9.66145 61.9549 9.58576 61.8134 10.167C62.0039 9.9399 61.8978 9.61813 62.0311 9.7587L62.0583 9.5776C62.6296 8.74768 62.1644 11.1915 62.8445 10.102C62.801 10.1669 62.7793 10.1995 62.7466 10.2941C63.288 9.87778 63.4485 11.0077 64.0634 10.2805C64.2184 10.1399 64.1368 10.513 64.1341 10.8131L64.2783 10.3454L64.2592 10.9212C64.3272 11.3646 64.8414 9.82629 64.8659 10.6373L64.7598 10.9509C64.8523 10.9104 64.9557 11.1996 65.0346 10.8266C65.0292 10.886 64.9775 11.1672 65.0482 11.0077L65.1108 10.759L65.1952 11.2321C65.3856 11.0861 65.4101 10.2373 65.6331 10.24C65.6876 10.3562 65.6848 11.0212 65.6168 11.1807C65.5814 11.1861 65.4971 11.3159 65.4373 11.5646L65.4781 11.7133C65.3175 12.4514 65.1979 13.2191 64.8931 13.6867L64.8741 13.2055L64.7489 13.5516L64.8496 13.6003C64.7082 13.922 64.7408 13.6137 64.7462 13.4002C64.6918 13.5867 64.6401 13.7164 64.5993 13.7786L64.6429 13.046C64.5585 13.3299 64.5613 13.6299 64.4388 13.7678C64.4579 13.4272 64.651 13.1379 64.6047 12.9C64.4633 13.219 64.4143 13.4948 64.4116 13.192C64.3545 13.3785 64.3409 13.5029 64.349 13.5921C64.3409 13.3488 64.2048 13.4542 64.2674 13.0568C64.1014 13.4515 64.0797 12.8973 63.9137 13.5921C63.9355 13.4218 63.9382 13.019 63.8865 12.9784C63.7859 13.8354 63.6553 12.9731 63.4594 13.8706C63.5682 13.1056 63.2554 13.4704 63.2227 13.0189C63.2146 13.0811 63.1982 13.2055 63.2227 13.1704C63.1275 13.2109 63.0458 13.4299 62.9588 13.557C63.1084 12.9379 63.0241 12.7649 63.0567 12.3702C62.8064 12.9379 62.9262 13.1082 62.7466 13.6705C62.8827 13.1731 62.7085 13.1299 62.8527 12.7217C62.6813 13.0704 62.7411 12.8838 62.5697 13.3839C62.7602 12.6108 62.5344 13.2352 62.5997 12.7486C62.3929 13.1 62.3793 13.4596 62.3249 13.1974C62.2107 13.3866 62.2406 13.6867 62.2406 13.6867ZM59.8464 11.5889C59.8464 11.5943 59.8437 11.5971 59.8437 11.5971C59.8655 11.6133 59.8818 11.6295 59.8927 11.6403C59.8818 11.6295 59.8682 11.6159 59.8464 11.5889ZM59.6179 11.5106C59.6506 11.5025 59.6859 11.5105 59.724 11.5241C59.7784 11.3754 59.8165 11.2186 59.792 11.2186C59.7703 11.324 59.6914 11.3944 59.6179 11.5106ZM61.0108 8.62879C60.9945 8.5558 60.9564 8.63957 60.9238 8.72607C60.9374 8.73959 60.9537 8.75858 60.9701 8.79643C60.9673 8.81265 60.9619 8.8342 60.9592 8.85042C60.9809 8.76661 61 8.68826 61.0108 8.62879Z" fill="white"/>
<path d="M60.9023 9.21973C60.905 9.23061 60.9023 9.24962 60.9077 9.25507C60.8887 9.29315 60.8723 9.32317 60.856 9.34766C60.8668 9.29869 60.875 9.25243 60.8832 9.20618C60.8914 9.21162 60.8995 9.21429 60.9023 9.21973Z" fill="white"/>
<path d="M41.2071 1.45071L41.218 1.44526C41.2044 1.45887 41.1936 1.47258 41.1772 1.49707C41.1908 1.47531 41.1963 1.46703 41.2071 1.45071Z" fill="white"/>
<path d="M56.1765 11.3237L56.2146 11.2123L56.201 11.3156L56.1765 11.3237Z" fill="white"/>
<path d="M39.2791 2.12651C39.2573 2.15915 39.2301 2.19182 39.2029 2.21631C39.2192 2.19182 39.2464 2.16188 39.2791 2.12651Z" fill="white"/>
<path d="M38.7369 1.92114L38.5818 2.01904C38.6607 1.95647 38.707 1.93202 38.7369 1.92114Z" fill="white"/>
<path d="M40.3102 1.34277C40.2258 1.34005 40.1687 1.33739 40.1143 1.33467H40.1116L40.3102 1.34277Z" fill="white"/>
<path d="M44.0674 5.79476C44.0729 5.8002 44.0729 5.80839 44.0729 5.82199C44.0674 5.91993 44.0593 5.87366 44.0674 5.79476Z" fill="white"/>
<path d="M42.7365 3.88028C42.7148 3.96461 42.6957 4.04618 42.6902 4.10332C42.6413 4.1142 42.6114 4.10881 42.7365 3.88028Z" fill="white"/>
<path d="M45.9089 7.33643L45.9118 7.32782C45.9147 7.33071 45.9205 7.3336 45.9263 7.3336L45.9089 7.33643Z" fill="white"/>
<path d="M42.7797 4.14058C42.7035 4.20315 42.6872 4.17053 42.6926 4.09979C42.7307 4.08891 42.7851 4.0644 42.7797 4.14058Z" fill="white"/>
<path d="M40.367 3.21894L40.3833 3.24072C40.3533 3.238 40.3289 3.23807 40.3098 3.23807L40.367 3.21894Z" fill="white"/>
<path d="M40.3098 3.23784L40.2527 3.25684C40.2554 3.24595 40.2608 3.23784 40.3098 3.23784Z" fill="white"/>
<path d="M40.135 3.29492L40.2547 3.25414C40.2547 3.27318 40.2656 3.29492 40.135 3.29492Z" fill="white"/>
<path d="M40.2014 2.63518L40.3674 2.64062C40.3348 2.64062 40.2803 2.64062 40.2014 2.63518Z" fill="white"/>
<path d="M40.2638 2.4636C40.2991 2.50713 40.6093 2.59703 40.5005 2.646L40.3672 2.64055C40.6175 2.63239 39.9808 2.47993 40.2638 2.4636Z" fill="white"/>
<path d="M38.2724 1.5797L38.3921 1.73486C38.218 1.69405 37.9813 1.6424 37.935 1.70497C37.4235 1.48188 38.3268 1.77831 38.2724 1.5797Z" fill="white"/>
<path d="M38.0517 1.11306C37.9647 1.18379 37.796 1.09133 37.6953 1.08861C37.8585 1.05052 37.8994 1.04232 38.0517 1.11306Z" fill="white"/>
<path d="M42.2664 1.64062L42.4677 1.27565C42.4894 1.35675 42.3888 1.41625 42.2664 1.64062Z" fill="white"/>
<path d="M41.7457 3.81389L41.5662 4.01123L41.7294 3.66526L41.7457 3.81389Z" fill="white"/>
<path d="M43.5203 1.41261L43.5284 1.34725L43.5393 1.52686L43.5203 1.41261Z" fill="white"/>
<path d="M48.2375 4.00038L47.998 4.45459C48.0035 4.35457 48.2457 3.83277 48.2375 4.00038Z" fill="white"/>
<path d="M50.1387 5.44702C50.2666 5.22535 50.3944 5.10096 50.3291 5.34696C50.2638 5.35778 50.136 5.51731 50.1387 5.44702Z" fill="white"/>
<path d="M56.9404 7.24219L56.9513 7.06524L56.9867 7.23129L56.9404 7.24219Z" fill="white"/>
</svg>
