<svg width="74" height="25" viewBox="0 0 74 25" fill="none" xmlns="http://www.w3.org/2000/svg">
<path d="M0.0280698 10.8072C-0.0190737 10.8922 -0.0138117 11.0969 0.0961899 11.0656L0.200928 10.7291L0.0280698 10.8072Z" fill="white"/>
<path d="M0.694708 11.4995C0.834393 11.3434 1.00375 11.0623 0.949625 10.7396C0.797719 11.0588 0.778522 10.92 0.610901 11.3017C0.500899 11.3329 0.432786 11.1768 0.462469 11.0519C0.417071 11.1369 0.301857 10.9634 0.226777 11.1734C0.343763 11.451 0.520087 11.4753 0.72263 11.2705C0.755805 11.3503 0.708676 11.4371 0.694708 11.4995Z" fill="white"/>
<path d="M11.1436 12.7817L11.0774 12.7352C11.0935 12.7603 11.1168 12.7746 11.1436 12.7817Z" fill="white"/>
<path d="M17.6448 13.3154C17.5941 13.3207 17.5731 13.3538 17.5679 13.3853C17.615 13.366 17.6535 13.3469 17.6448 13.3154Z" fill="white"/>
<path d="M18.7385 13.7458C18.7153 13.7333 18.6938 13.7279 18.6724 13.719C18.6974 13.7529 18.7224 13.7726 18.7385 13.7458Z" fill="white"/>
<path d="M11.1437 12.7807L11.3113 12.8994C11.3287 12.7877 11.2257 12.8121 11.1437 12.7807Z" fill="white"/>
<path d="M2.20703 10.7858C2.16862 10.7998 2.13722 10.8295 2.10579 10.8696C2.13722 10.8574 2.1669 10.8469 2.19659 10.84C2.20008 10.8225 2.20179 10.8068 2.20703 10.7858Z" fill="white"/>
<path d="M8.25757 12.8812L8.20518 12.8777C8.18772 12.9161 8.1685 12.9632 8.15104 13.0156L8.25757 12.8812Z" fill="white"/>
<path d="M6.05197 12.7816C6.10086 12.7972 6.1393 12.5075 6.16724 12.3808C6.13057 12.4988 6.09038 12.5543 6.04498 12.5734C6.03974 12.6306 6.04149 12.6966 6.05197 12.7816Z" fill="white"/>
<path d="M2.60376 12.0073L2.53768 12.043C2.55376 12.0322 2.58411 12.0216 2.60376 12.0073Z" fill="white"/>
<path d="M9.82826 13.0463C9.83 13.0899 9.83521 13.1284 9.8422 13.1528C9.84394 13.1162 9.83873 13.0812 9.82826 13.0463Z" fill="white"/>
<path d="M71.3442 10.5485C71.3442 10.5699 71.3478 10.5842 71.3478 10.6021C71.3585 10.5699 71.362 10.5485 71.3442 10.5485Z" fill="white"/>
<path d="M73.9966 11.81L73.9634 11.8273C73.9634 11.8828 73.9652 11.9367 73.9687 11.9922L73.9966 11.81Z" fill="white"/>
<path d="M20.7625 14.2001C20.7589 14.1965 20.7571 14.1964 20.7535 14.1947C20.6963 14.225 20.7285 14.2215 20.7625 14.2001Z" fill="white"/>
<path d="M39.4925 14.3257C39.2795 14.0654 39.8365 13.9891 39.517 13.6994C39.5484 13.8122 39.2289 14.1557 39.4925 14.3257Z" fill="white"/>
<path d="M2.26003 10.83C2.28971 10.8283 2.3194 10.8283 2.35083 10.8335C2.31067 10.8213 2.28273 10.8195 2.26003 10.83Z" fill="white"/>
<path d="M39.5176 13.6978L39.5176 13.696L39.4828 13.6667C39.4974 13.6795 39.5066 13.6868 39.5176 13.6978Z" fill="white"/>
<path d="M25.467 14.1816C25.4583 14.1293 25.4409 14.0891 25.4234 14.0507C25.4234 14.0821 25.4339 14.1188 25.467 14.1816Z" fill="white"/>
<path d="M21.9811 13.6541L22.0667 13.6978C22.0335 13.6698 22.0055 13.6593 21.9811 13.6541Z" fill="white"/>
<path d="M27.2944 13.8205C27.3416 13.845 27.3555 13.8852 27.4219 13.8485C27.4166 13.8328 27.4114 13.8223 27.4026 13.8119C27.3782 13.852 27.3468 13.8694 27.2944 13.8205Z" fill="white"/>
<path d="M29.186 13.8589C29.1773 13.8362 29.1633 13.8188 29.1529 13.7995C29.1337 13.8048 29.1127 13.81 29.0935 13.8135L29.186 13.8589Z" fill="white"/>
<path d="M65.6466 11.0709C65.692 11.1507 65.7235 11.2392 65.7496 11.3276C65.7077 11.1212 65.9801 11.031 65.6466 11.0709Z" fill="white"/>
<path d="M2.19466 10.9492C2.21212 10.8759 2.2313 10.8409 2.26099 10.827C2.24003 10.8287 2.21736 10.8322 2.19815 10.8374C2.18768 10.8828 2.18243 10.923 2.19466 10.9492Z" fill="white"/>
<path d="M27.4268 11.5145L27.7253 11.5669C27.6415 11.5355 27.535 11.518 27.4268 11.5145Z" fill="white"/>
<path d="M52.1586 11.7178L52.2283 11.6803C52.1997 11.6749 52.1765 11.6838 52.1586 11.7178Z" fill="white"/>
<path d="M28.6129 11.5409C28.6635 11.645 28.7194 11.7057 28.7771 11.7456C28.7893 11.7231 28.805 11.704 28.8137 11.6711L28.6129 11.5409Z" fill="white"/>
<path d="M65.752 11.3315C65.752 11.3289 65.752 11.3262 65.752 11.3262C65.752 11.3262 65.7493 11.3289 65.752 11.3315Z" fill="white"/>
<path d="M55.7852 10.0794C55.5511 10.0889 55.6961 10.4302 55.6574 10.6349C55.3845 10.754 55.5138 10.3857 55.4075 10.2127C55.238 10.3174 55.1231 10.6491 54.9924 10.6444C54.9795 10.5872 54.9537 10.5682 54.9781 10.4936C54.8101 10.7857 54.4324 10.546 54.237 10.9111C54.2198 10.8809 54.2098 10.8523 54.204 10.8254C54.2485 10.9984 54.2643 11.1778 54.2629 11.3047C54.1581 11.3174 54.0805 11.5397 54.0274 11.3127C54.092 11.3143 54.092 11.2222 54.1193 11.1476L54.0145 11.2555C53.8981 10.9333 54.1581 11.1317 54.1451 10.8873C53.9369 11.0095 53.7014 11.3 53.5319 11.219C53.4802 10.8984 53.9111 11.0841 53.6755 10.8111L53.9369 10.9159C53.7157 10.4206 54.0934 10.9413 53.8852 10.4079C53.5463 10.3365 53.5204 10.6 53.1815 10.527C53.1154 10.7111 53.2203 10.7904 53.1542 10.9746C52.6961 11.3254 52.7392 10.1841 52.4117 10.6349C52.3327 10.8556 52.3184 11.2667 52.0585 11.0651L52.1245 10.6952C51.7985 10.6778 51.9651 11.2317 51.6147 11.0047C51.6678 10.8571 51.8631 10.8682 51.8129 10.8285C51.5788 10.5523 51.6678 11.0444 51.4984 11.0539L51.4481 10.7333C51.1063 10.8047 50.7372 11.0603 50.3567 11.1413C50.3739 11.0445 50.4342 10.9381 50.3408 10.8444C49.8669 11.0365 49.3111 10.8651 48.8387 10.6921L48.6721 10.9794C48.6304 10.9778 48.5902 10.8571 48.6333 10.7999C48.448 10.7031 48.6319 10.9778 48.5486 11.0921C48.4466 11.1159 48.4064 10.9381 48.4681 10.8508C48.1579 11.1032 47.5778 11.4031 47.2288 11.1206L47.292 11.0349C47.0248 10.9334 47.0177 11.6206 46.7635 11.373L46.808 11.3206C46.235 11.227 45.6131 11.5127 45.165 11.1048C45.0961 11.5095 44.5964 10.946 44.5763 11.508C44.2416 11.2413 44.3321 11.1381 43.8683 10.9667C43.7448 10.946 43.6959 11.3238 43.5465 11.3873L43.5351 11.0936L43.3383 11.4079L43.2191 11.0603L43.0798 11.1413C43.1372 11.1571 43.2033 11.2682 43.1976 11.354C42.9793 11.4952 42.6519 11.1698 42.6418 11.019L42.1248 11.2857C42.1334 11.1666 42.2196 11.1238 42.2871 11.046C42.0157 11.3555 42.2282 10.7381 41.9797 11.0222C42.0156 11.0873 41.9654 11.1984 41.9611 11.2571C41.829 11.0841 41.5374 11.0889 41.3249 11.1682L41.3608 10.965C40.9716 10.9238 40.5436 11.0825 40.107 11.0889C40.265 11.1794 40.2363 11.5302 40.1099 11.5683L40.0525 11.2587C39.9735 11.4523 40.1889 11.373 40.0238 11.6111C39.86 11.5794 39.9074 11.2603 39.9979 11.1571L39.8026 11.2699C39.7897 11.1778 39.8342 11.127 39.8442 11.0095C39.7667 11.2048 39.4967 10.7063 39.3861 11.0444L39.3732 10.9524C38.9366 10.9603 38.7413 11.0714 38.3866 11.0968C38.3837 11.365 38.2444 11.3079 38.141 11.5269C37.8782 11.4444 37.5852 11.2381 37.2707 11.2651C37.051 11.4016 37.209 11.4921 37.1113 11.654C37.0912 11.4095 36.7781 11.4365 36.939 11.2603C36.5613 11.3048 36.4578 11.3158 35.9811 11.5206C36.0342 11.619 36.0931 11.6619 36.0629 11.7461C35.9768 11.7873 35.8647 11.646 35.8762 11.5286L35.8992 11.5031C35.3649 11.8762 34.6555 10.8095 34.2333 11.3222L34.2577 11.2968L33.8168 11.5619C33.6129 11.5206 33.9374 11.3778 33.7867 11.227C33.3113 11.6349 33.0313 11.1698 32.6392 11.4412C32.3333 10.7222 31.5592 11.4937 31.1485 11.0349L31.1715 11.2048C31.0652 11.3714 31.0437 11.1079 30.9647 11.0698C30.9762 11.2016 31.0796 11.2222 31.0135 11.3143C30.1131 11.5206 29.1566 11.0524 28.2375 10.8936C27.9014 10.8444 28.0379 11.7682 27.6171 11.3603L27.7406 11.046C27.3988 11.2317 27.0498 11.2254 26.7037 11.2111C26.3576 11.1936 26.0144 11.1698 25.6783 11.3222C25.7185 11.2507 25.7214 11.1555 25.786 11.1587C25.6482 10.927 25.2662 11.1365 25.2604 11.3238C25.157 11.3 25.2389 11.1556 25.1771 11.0587C25.0378 10.9206 24.8181 11.3429 24.7463 11.1143C24.7348 11.0778 24.7865 11.0412 24.8138 11.0238C24.7204 11.1333 24.3858 10.9873 24.4691 11.2523C24.2207 11.1222 23.988 11.3603 23.7913 11.1999C23.6548 11.492 23.3662 11.0492 23.3159 11.4651C23.3432 11.0349 22.885 11.1095 22.7228 11.3064C22.7788 11.1778 22.5878 11.1667 22.6538 10.9889C22.4729 10.9889 22.3063 11.0634 22.3321 11.2857C22.0119 10.7603 21.6543 11.6794 21.4834 11.0127C20.942 11.227 20.4408 11.3682 19.9554 11.4539C19.9855 11.0254 20.4896 11.4286 20.481 10.9762C20.0186 11.1381 19.7443 11.4984 19.2933 11.3809C19.177 11.319 19.3651 11.1968 19.4082 11.1254C18.9458 11.2889 18.5264 11.0492 18.1114 11.2682C18.1143 11.2285 18.1588 11.1873 18.2018 11.1555C18.1214 11.1666 18.018 11.0841 18.0195 11.2793L18.0999 11.2302C18.2191 11.5191 17.7624 11.8079 17.7423 11.9571C17.8974 11.4031 17.3445 11.8 17.5858 11.1016C17.5312 11.1365 17.4623 11.2254 17.4694 11.3571C17.3919 11.3159 17.3703 11.2381 17.4551 11.0936C17.165 11.1873 17.2583 11.4 16.9984 11.3841C17.0027 11.2889 17.0558 11.2555 17.0874 11.146C16.9495 11.3238 16.8103 11.5031 16.5934 11.4142C16.6092 11.3587 16.5862 11.2825 16.6509 11.2873C16.2717 11.3 15.9888 11.7507 15.5809 11.5539C15.7188 11.1491 15.4459 11.4127 15.4373 11.0571L15.2104 11.1524L15.2923 11.3302C15.097 11.3127 14.9146 11.5634 14.7509 11.438L14.9016 11.3L14.534 11.3476L14.7351 11.4936C14.5297 11.6666 14.7379 11.9444 14.4823 11.8317C14.5369 11.7984 14.287 11.8175 14.1936 11.6016C14.1936 11.6016 14.1936 11.6015 14.1936 11.6C14.0917 11.7079 13.9883 11.8206 13.8475 11.7254C13.8145 11.6095 13.8949 11.3349 13.8734 11.2571C13.7657 11.5492 13.4124 11.3143 13.2789 11.6238C13.3219 11.5524 13.3334 11.3651 13.3219 11.327L13.2314 11.5634C13.1438 11.4809 13.1324 11.4428 13.1539 11.2952C12.8839 11.2365 13.22 11.7508 12.9054 11.5381C12.9313 11.5206 12.9212 11.4825 12.9758 11.4492C12.657 11.3302 12.3425 11.5682 12.0495 11.4333C11.9792 11.0714 12.3138 11.3603 12.2276 11.0524C11.7953 11.0952 11.3185 11.4317 10.9064 11.319L10.9825 11.3635C10.8992 11.8635 10.6852 11.0936 10.464 11.3174C10.5172 11.2841 10.5459 11.0428 10.5287 11.0968C10.2486 10.9968 9.9413 11.1826 9.50184 11.3127L9.56215 11.1873C9.4013 11.0603 9.12412 11.092 8.94605 11.0206C8.88573 11.146 8.78233 11.119 8.83546 11.3111C8.31846 10.5349 7.74688 11.6397 7.28732 10.9841C7.3462 10.9873 7.43526 10.8809 7.38787 10.8778L6.95847 10.965C6.97858 11.1872 7.00585 11.1015 7.0834 11.2793C7.02164 11.4047 6.8967 11.4968 6.79186 11.4889C6.99005 11.3587 6.81199 11.1365 6.7373 11.0079C6.74736 11.0761 6.71431 11.1476 6.71718 11.2175C6.52043 10.8095 6.65257 11.6571 6.36821 11.3698L6.39118 11.2555C6.27485 11.3063 6.16141 11.4508 6.04221 11.4079C6.00774 11.1507 6.17003 11.2984 6.19014 11.0904C6.01924 11.092 5.82392 11.546 5.68462 11.2809C5.76217 11.2159 5.86557 11.2222 5.94313 11.1571C5.79377 10.846 5.76934 10.9206 5.64727 10.8635L5.65878 10.8714L5.37874 10.7143L5.44767 10.8016C5.19204 11.4476 5.00534 10.8889 4.68939 11.3C4.99529 10.9111 4.75114 11.0667 4.79135 10.7809C4.72385 10.6952 4.61759 10.5968 4.65493 10.5191C4.50414 10.7413 4.44095 10.319 4.22697 10.6428C4.22409 10.5492 4.08189 10.6222 4.12928 10.392C3.94833 10.4508 4.15945 10.5571 4.13791 10.6714C3.84351 10.9683 3.52469 10.2317 3.10391 10.6333C2.75349 10.7825 2.6702 11.0889 2.34563 11.2175C2.25085 11.0603 2.45622 10.8873 2.45622 10.8873C2.29537 10.7365 2.16613 10.7492 1.99666 10.8412C2.03544 10.7635 2.00672 10.692 1.96507 10.5841C1.83439 10.5968 1.85447 10.9143 1.69363 10.7619C1.73096 10.6603 1.7798 10.5 1.85017 10.4016C1.6922 10.473 1.5299 10.6333 1.36618 10.7031C1.33603 10.5381 1.47964 10.4666 1.54283 10.3666C1.36044 10.4237 1.07468 10.473 1 10.7222L1.10627 10.8238C1.04021 10.8302 1.08904 10.6016 1.14074 10.5587C1.30733 10.3714 1.35328 10.6666 1.35472 10.7603L1.23839 10.8095C1.31306 11.3619 1.69507 10.7619 1.91767 10.8143L1.79415 11.2016L2.04978 10.8936C2.09143 11.0016 2.10868 11.2238 1.99379 11.273C2.14171 11.4826 2.14744 11.146 2.27095 11.3746C2.28387 11.4095 2.27525 11.4286 2.26089 11.4428L2.4275 11.3397C2.39016 11.4206 2.43323 11.6206 2.34132 11.5555C2.60987 11.8079 2.82097 11.3 2.9057 11.6079L2.87986 11.6302C3.28342 11.5318 2.93876 11.3428 3.25758 11.0301L3.40691 11.7635L3.46581 11.4777C3.50602 11.492 3.585 11.5206 3.56202 11.6349C3.72718 11.4492 3.5448 11.5063 3.64533 11.327C3.82341 11.6095 4.19248 11.2476 4.20684 11.7126C4.29157 11.4984 4.03164 11.5286 4.24993 11.3905C4.27578 11.892 4.49696 11.3238 4.66068 11.5651C4.58887 11.8175 4.42799 11.6682 4.59171 11.9111C4.72814 11.4857 4.93354 12.0333 5.09008 11.9619C5.1188 11.6175 5.42755 11.8428 5.68749 11.7476C5.66451 11.8619 6.15281 11.9746 6.37971 12.1175L6.36965 12.1746C6.43715 11.8285 6.67553 11.9143 6.85648 11.8556C6.83637 12.0635 6.80049 12.1444 6.69853 12.2302L6.8651 12.2412C6.91106 12.1317 6.96707 12.0777 7.07765 12.046L7.02022 12.3032C7.24282 12.3047 7.48407 12.0318 7.75981 12.2254C7.78997 11.9826 7.57313 11.5333 7.88333 11.3905C7.8862 11.5222 7.88476 11.7492 7.8029 11.7968C7.83019 11.7809 7.90199 11.6936 7.95082 11.754L7.81727 11.9666C7.94078 12.073 7.89626 11.7857 7.99823 11.8143C7.9853 12.0016 8.06714 11.9539 8.04416 12.1016C8.01687 12.1174 7.958 12.0174 7.91348 12.0889C8.02837 12.1301 8.16337 12.2508 8.20214 12.3968C8.19783 12.2889 8.2165 12.1444 8.3041 12.1254C8.5267 12.127 8.3673 12.3555 8.49081 12.4619C8.55256 12.3349 8.68612 12.4793 8.70479 12.1984C8.76941 12.2047 8.7737 12.3365 8.79525 12.4127C8.91732 12.2968 9.33382 12.4127 9.22037 12.1064L9.19162 12.0841C9.19736 12.0794 9.20456 12.0793 9.21174 12.073C9.2103 12.073 9.21174 12.073 9.2103 12.073L9.21174 12.073C9.60237 11.819 9.98438 12.2825 10.3635 12.1873L10.3578 12.2809C10.5861 12.1889 10.8561 12.2508 11.0255 12.0587C11.0916 12.0635 11.172 12.2396 11.139 12.3508C11.3128 12.2904 11.3372 12.1889 11.5756 12.3571C11.3961 12.5111 11.6273 12.5063 11.3946 12.4666C11.6115 12.5619 11.6546 12.7127 11.9045 12.4698C11.8126 12.7063 12.0567 12.7825 12.1659 12.7159L12.0194 12.5349C12.14 12.5063 12.242 12.5333 12.3454 12.5587L12.2736 12.8714C12.7101 13.281 13.1209 12.2603 13.4368 12.9238C13.5661 12.7095 13.197 12.754 13.3162 12.5016C13.523 12.5555 13.7197 13.0222 13.7858 13.027C14.0644 13.2175 14.0716 12.5794 14.366 12.7159C14.3329 12.6016 14.3085 12.2984 14.5369 12.2032C14.7437 12.2556 14.7738 12.6905 14.6374 12.7746C14.5872 12.781 14.5642 12.7444 14.5685 12.7063C14.4996 12.7429 14.4091 12.7873 14.4866 12.9143L14.5182 12.8032C14.6173 12.9238 14.9045 12.927 14.8298 13.1095C14.9921 13.0111 14.9045 12.9285 14.7911 12.8635C15.0524 13.0412 15.209 12.8921 15.4804 13.0143C15.4388 12.9508 15.4043 12.8159 15.4474 12.819C15.8466 12.9762 15.6341 12.6127 15.9098 12.5746C16.0592 12.754 15.838 12.9826 16.1195 12.8508C16.2832 12.9746 16.1439 13.1524 16.0735 13.2413C16.3335 13.0349 16.5374 13.4048 16.6796 13.4508L16.5432 13.5365C16.625 13.4857 16.6896 13.4905 16.7557 13.4937L16.6882 13.2651C16.7643 13.3079 16.8304 13.3111 16.8261 13.4048C16.9108 13.2603 16.7786 13.027 16.9438 12.8318C17.0429 12.9508 17.2641 12.7222 17.2885 13.0238C16.9668 12.9079 17.3143 13.327 17.0357 13.3635C17.0903 13.3302 17.1549 13.3349 17.231 13.3778C17.2411 13.4111 17.2181 13.4397 17.1966 13.4556C17.4996 13.7366 17.3517 13.1222 17.6748 13.1429C17.6274 13.3095 17.7394 13.4667 17.7926 13.4334C17.6619 13.4238 17.7394 13.1492 17.8629 13.0238C18.0654 13.1635 18.0913 12.9349 18.199 12.9555L18.0769 12.8889C18.1243 12.7222 18.2277 12.7477 18.3728 12.7016C18.3814 12.8334 18.2392 12.7873 18.288 12.846C18.4575 12.5555 18.6399 13.1699 18.8697 12.9794C18.9702 13.0984 18.8696 13.2968 18.9587 13.3793C19.2158 13.1714 19.2229 13.6206 19.4929 13.4476C19.424 13.2175 19.4082 13.273 19.6006 13.0571L19.1626 13.2032L19.4499 12.8825C19.3192 12.8746 19.1698 13.0159 19.0923 12.9746C19.2301 12.7936 19.2143 12.8492 19.1583 12.6588C19.3264 13.0048 19.5188 12.4714 19.7184 12.7079L19.6954 13.2698C19.9999 13.5301 20.2555 12.9984 20.6548 13.1539L20.5284 13.0524C20.5887 12.8302 20.7783 13.0285 20.9118 12.9428C20.8946 13.1301 20.975 13.2016 21.0267 13.3207C21.0239 13.181 21.3226 13.3428 21.3685 12.9682L21.5423 13.2222C21.8654 13.3333 21.9272 12.6984 22.2388 12.773C22.1397 12.9746 22.279 13.1127 22.0665 13.2508C22.1713 13.2556 22.2646 13.2936 22.269 13.1635C22.3278 13.2825 22.5648 12.919 22.6567 13.1015C22.7027 13.0206 22.7213 12.8238 22.8377 12.8428C22.8491 12.8809 22.8348 12.9349 22.8348 12.9349C22.8377 12.8428 23.0215 12.8127 22.9224 12.6032C23.2326 13.1968 23.8228 12.5794 24.0928 13.0889C24.3226 13.0302 24.5983 12.9762 24.8051 12.9667C24.7908 13.0222 24.8023 13.0603 24.7635 13.0397C25.0464 13.2207 24.9473 12.5031 25.269 12.7047C25.4299 13.0127 25.0938 12.865 25.1958 12.9825C25.2317 13.6016 25.5893 12.9064 25.8033 13.2714L25.7501 13.3063C25.9138 13.5206 26.1623 13.0809 26.4337 13.1301C26.4337 13.1301 26.4193 13.1841 26.4308 13.2238C26.6218 12.9142 26.9766 12.8127 27.2408 12.727C27.1561 12.9682 27.1202 12.854 27.1676 13.1C27.2853 13.0667 27.1374 12.7047 27.3729 12.6381C27.4476 12.7714 27.6171 12.8889 27.6358 13.1508L27.4132 13.1635C27.5237 13.5048 27.7004 13.154 27.8167 13.2143L27.8009 13.3619C28.1413 13.3174 28.1499 12.9429 28.5147 12.973L28.4773 12.8604C28.6798 12.4921 28.6425 13.0698 28.845 12.7968L28.9024 13.173C29.0345 13.0841 29.3663 12.8143 29.6032 12.746C29.4682 13.0238 29.1911 13.1635 29.0187 13.327C29.1494 13.3302 29.4625 13.3032 29.5329 13.1191C29.4797 13.1556 29.4137 13.246 29.362 13.1873C29.5243 12.8936 29.7354 12.7492 29.9953 12.7587C29.9465 13.4873 30.6732 12.9492 30.8599 13.5127C31.3208 13.2429 31.7746 13.6254 32.3118 13.5809C32.1207 13.0143 32.4683 13.565 32.4353 12.9825C32.5602 12.9444 32.6076 12.9539 32.6191 12.992L32.9982 13.3396C33.0887 13.5095 32.879 13.4683 32.892 13.5984C33.1663 13.6429 33.0083 13.8444 33.1892 14C33.1519 13.7921 33.284 13.7016 33.4406 13.781L33.2194 13.5127C33.6014 13.2016 33.5526 14.0016 33.9375 13.6937L33.8168 13.8778C34.015 13.7698 34.5478 13.8794 34.7388 13.4079C34.7747 13.4746 34.8221 13.6333 34.7345 13.6762C35.2084 13.7397 35.7829 13.1651 36.1534 13.4476L36.1189 13.5905C36.2065 13.5476 36.2697 13.3206 36.3817 13.4635C36.376 13.5222 36.3473 13.6064 36.3889 13.6143C36.4349 13.5651 36.6201 13.3619 36.7379 13.4429L36.6402 13.6048C37.1041 13.7858 37.344 13.2047 37.7288 13.1016C37.7331 13.5206 38.0993 13.654 38.2817 13.7159L38.276 13.7746C38.8145 13.8127 39.1836 13.4048 39.6776 13.2286C39.995 13.6762 40.7274 13.3936 41.2301 13.6365C41.1525 13.5619 41.2344 13.3095 41.322 13.2651C41.4397 13.3476 41.6365 12.9667 41.6279 13.3508L41.5862 13.3445C41.6825 13.7191 41.9209 13.6143 42.1076 13.6174L42.1262 13.1143C42.6346 13.8286 43.3986 12.8 43.6844 13.4444C43.7993 13.3143 43.9444 13.3111 44.0578 13.1809L44.0592 13.4508C44.3881 13.5079 44.5533 13.5349 44.9554 13.4571L44.8793 13.6524C45.1076 13.6619 45.1421 12.8651 45.3518 12.8413L45.4279 13.2413C45.8257 13.2222 46.2393 13.554 46.6199 13.1715C46.6156 13.2302 46.6084 13.3477 46.5437 13.3667C46.7304 13.3683 47.2776 13.6048 47.1886 13.0556C47.2072 13.4143 47.5993 13.0714 47.8075 12.9031L47.7846 13.1698C47.9526 12.8222 47.954 12.7302 48.2039 12.6238C48.2657 12.6556 48.2642 12.8333 48.1824 12.7698C48.3877 12.9 48.3274 12.5111 48.5759 12.6412L48.4926 12.8143C48.6994 12.8254 48.6793 12.7349 48.7841 12.5317C48.909 12.419 49.1762 12.5809 49.2164 12.819C49.2379 12.6714 49.3413 12.4714 49.4662 12.5349C49.4864 12.6254 49.4447 12.6825 49.4232 12.7111C49.775 12.8762 49.9201 12.3746 50.1671 12.6223C50.1757 12.7096 50.1929 12.7524 50.2145 12.7778C49.9416 12.7873 49.7219 12.7857 49.7406 12.7651C49.7506 13.0095 49.9732 13.0397 49.8124 13.3873C49.9818 13.1921 50.2662 12.7746 50.4859 12.8778C50.4974 12.9016 50.5089 12.9238 50.5175 12.9603L50.496 12.9889C50.5462 13.0111 50.5907 12.9857 50.6295 12.9413C50.6999 12.9778 50.7444 13.0047 50.8105 13.0047C50.8449 13.2047 51.069 13.0984 51.1781 13.1016C51.1566 12.8349 51.3016 12.8698 51.1566 12.6571C51.1752 12.6762 51.1379 12.6905 51.0647 12.7064C51.0489 12.7159 51.0288 12.7206 51.0187 12.7365C51.0201 12.7302 51.023 12.7206 51.0244 12.7127C50.9526 12.7254 50.8593 12.7365 50.7516 12.746C50.832 12.6048 50.9167 12.4857 51.046 12.627C51.0948 12.4524 51.148 12.2714 51.1795 12.1873C51.3476 12.5508 51.6463 12.7365 51.698 12.9635C52.0269 12.7937 52.4835 12.819 52.6688 12.3032C52.7607 12.2333 52.7851 12.4413 52.8253 12.5175C52.7722 12.5714 52.7076 12.5666 52.6803 12.6412C52.8641 12.5016 53.2432 12.5587 53.2691 12.2047C53.5175 12.3492 53.1513 12.5365 53.4773 12.4587L53.4386 12.5699C54.1179 13.0857 54.4453 11.6016 55.2036 12.2698C55.1519 12.2286 55.1246 12.2111 55.1117 12.1523C55.9503 12.4095 56.7833 11.7412 57.6234 12.1778C57.8604 12.2603 57.8704 12.0349 57.9997 11.8524L58.0672 12.1349L58.2855 11.7841C58.61 11.5143 58.9202 12.4397 59.3209 11.9476L59.252 11.7587C59.4085 11.7825 59.7345 11.6048 59.723 11.8286C59.736 11.7921 59.7604 11.6238 59.8279 11.719L59.8422 11.8683L60.2041 11.581C60.5057 11.6651 60.1998 12.1809 60.6321 12.1746C60.7886 12.1032 61.0558 11.7016 60.9897 11.6048C60.9251 11.6032 60.8188 11.5238 60.803 11.3746L60.9437 11.2841C60.9394 10.8397 61.0184 10.3777 60.6393 10.0984L60.4095 10.3889L60.3147 10.1809L60.523 10.1508C60.3894 9.95869 60.3276 10.1428 60.2515 10.273C60.2242 10.1603 60.1826 10.0841 60.1309 10.0444L59.9155 10.4873C59.8738 10.3174 60.0016 10.1349 59.8308 10.0523C59.7302 10.2571 59.9672 10.4317 59.7862 10.5746C59.6527 10.3841 59.6771 10.2175 59.5493 10.4C59.522 10.2873 59.5464 10.2127 59.5981 10.1587C59.4832 10.3048 59.2721 10.2428 59.2247 10.4841C59.084 10.246 58.8082 10.5825 58.7939 10.1635C58.7608 10.2666 58.5957 10.5095 58.4837 10.5365C58.6603 10.019 58.0543 10.5413 58.0744 10C57.9494 10.4635 57.5286 10.246 57.2716 10.5174C57.2845 10.4809 57.3104 10.4048 57.3362 10.427C57.1797 10.4016 57.1265 10.2698 57.0217 10.1921C57.0246 10.5651 56.7905 10.6683 56.6742 10.9064C56.463 10.5603 56.7617 10.4603 56.6813 10.1206C56.7086 10.4222 56.3711 10.4444 56.4501 10.6921C56.2921 10.4794 56.3194 10.5936 56.2261 10.2889C56.229 10.7555 56.0968 10.3778 55.9934 10.6714C55.7708 10.4571 55.9144 10.2397 55.6918 10.3968C55.5913 10.2587 55.7852 10.0794 55.7852 10.0794ZM50.3624 11.2334C50.3624 11.2302 50.3624 11.2285 50.3624 11.2285C50.4098 11.219 50.4486 11.2111 50.4744 11.2063C50.4514 11.2111 50.4184 11.2191 50.3624 11.2334ZM49.9028 11.2635C49.9588 11.2714 50.0292 11.2682 50.1025 11.2619C50.1226 11.3524 50.1096 11.4492 50.0637 11.4476C50.0852 11.3841 49.9746 11.3381 49.9028 11.2635ZM50.9613 13.0603C50.8895 13.1032 50.8636 13.0508 50.8507 12.9968C50.8851 12.9905 50.9254 12.9794 50.9771 12.9572C50.9785 12.9492 50.9828 12.9334 50.9842 12.9238C50.9799 12.9746 50.9742 13.0238 50.9613 13.0603Z" fill="white"/>
<path d="M61.9468 13.38C61.959 13.373 61.966 13.3607 61.9817 13.3572C61.9625 13.3328 61.9433 13.3118 61.9258 13.2944C61.9171 13.3258 61.9066 13.359 61.8996 13.3887C61.9153 13.3852 61.9328 13.3817 61.9468 13.38Z" fill="white"/>
<path d="M11.0663 12.7293L11.0789 12.7363C11.0699 12.7238 11.061 12.7113 11.0557 12.6917C11.0628 12.7077 11.061 12.7168 11.0663 12.7293Z" fill="white"/>
<path d="M52.7765 11.5529L52.7801 11.6279L52.8284 11.56L52.7765 11.5529Z" fill="white"/>
<path d="M8.04907 11.5342C8.04558 11.508 8.03511 11.48 8.01416 11.4556C8.01416 11.4748 8.02987 11.5028 8.04907 11.5342Z" fill="white"/>
<path d="M6.72461 11.3765L6.54476 11.2595C6.62159 11.3241 6.67921 11.3555 6.72461 11.3765Z" fill="white"/>
<path d="M5.71338 11.1605C5.69592 11.2111 5.69069 11.2495 5.68371 11.2844C5.68371 11.2844 5.68546 11.2844 5.68546 11.2861L5.71338 11.1605Z" fill="white"/>
<path d="M21.9827 11.6958C21.9967 11.6941 22.0106 11.6906 22.0228 11.6836C22.1171 11.6312 22.0525 11.6504 21.9827 11.6958Z" fill="white"/>
<path d="M17.1138 12.1782C17.1679 12.1276 17.2202 12.077 17.2761 12.0473C17.1906 12.0193 17.1242 12.0106 17.1138 12.1782Z" fill="white"/>
<path d="M27.394 11.5093C27.394 11.5129 27.394 11.5112 27.394 11.5148C27.4067 11.5148 27.4159 11.5148 27.4287 11.5166L27.394 11.5093Z" fill="white"/>
<path d="M17.5015 12.0632C17.4177 12.0003 17.3461 12.0091 17.2762 12.0475C17.3461 12.0702 17.4281 12.1034 17.5015 12.0632Z" fill="white"/>
<path d="M1.29956 10.6866L1.24953 10.6705C1.24953 10.6902 1.24416 10.7062 1.2388 10.7187L1.29956 10.6866Z" fill="white"/>
<path d="M1.24146 10.7159L1.18252 10.7462C1.20754 10.7498 1.23074 10.748 1.24146 10.7159Z" fill="white"/>
<path d="M1.06215 10.8125L1.18262 10.7479C1.1442 10.7426 1.09532 10.7304 1.06215 10.8125Z" fill="white"/>
<path d="M2.63911 10.9287L2.66357 10.8239C2.6531 10.8449 2.64434 10.8798 2.63911 10.9287Z" fill="white"/>
<path d="M3.05273 10.9322C2.9567 10.9009 2.82573 10.6876 2.68255 10.7431L2.66337 10.8264C2.74019 10.6719 2.94448 11.1022 3.05273 10.9322Z" fill="white"/>
<path d="M4.66797 12.3738L4.32924 12.2627C4.38163 12.3807 4.44973 12.5387 4.28909 12.5526C4.69941 12.9238 4.21923 12.2957 4.66797 12.3738Z" fill="white"/>
<path d="M5.72742 12.6116C5.53885 12.6515 5.71692 12.7747 5.70295 12.8389C5.82867 12.7452 5.85837 12.7209 5.72742 12.6116Z" fill="white"/>
<path d="M13.4719 13.1062L13.4387 13.3716C13.5836 13.3404 13.4457 13.2675 13.4719 13.1062Z" fill="white"/>
<path d="M15.0254 11.8061L14.8944 11.6344L14.8158 11.8755L15.0254 11.8061Z" fill="white"/>
<path d="M15.8021 13.7443L15.7375 13.7793L15.9819 13.6937L15.8021 13.7443Z" fill="white"/>
<path d="M28.8433 14.1102L28.8066 13.7823C28.7088 13.8395 28.6809 14.2074 28.8433 14.1102Z" fill="white"/>
<path d="M34.4784 13.8589C34.5378 14.0237 34.6949 14.1296 34.7944 13.9699C34.667 13.9456 34.543 13.8172 34.4784 13.8589Z" fill="white"/>
<path d="M51.369 14.2312L51.259 14.3447L51.4685 14.2452L51.369 14.2312Z" fill="white"/>
<path d="M35.2898 22.1832C35.2164 22.3048 35.1021 22.5995 35.1729 22.5616L35.4204 22.0831L35.2898 22.1832Z" fill="white"/>
<path d="M35.2107 23.2319C35.3685 23.0157 35.6161 22.6237 35.7766 22.156C35.5154 22.6075 35.5889 22.4019 35.2842 22.9426C35.2107 22.9804 35.2706 22.7481 35.3576 22.5723C35.2869 22.6913 35.3304 22.4317 35.1726 22.7318C35.0693 23.14 35.14 23.1886 35.3576 22.9075C35.325 23.021 35.2542 23.1427 35.2107 23.2319Z" fill="white"/>
<path d="M33.1026 21.6743L33.108 21.7451C33.1135 21.7097 33.1107 21.6879 33.1026 21.6743Z" fill="white"/>
<path d="M30.3376 20.229C30.3648 20.2263 30.3948 20.1799 30.4138 20.1364C30.3812 20.1609 30.3512 20.1828 30.3376 20.229Z" fill="white"/>
<path d="M30.0716 19.4792C30.0743 19.4982 30.0825 19.5091 30.0879 19.5254C30.0961 19.4764 30.096 19.4465 30.0716 19.4792Z" fill="white"/>
<path d="M33.1016 21.6748L33.0879 21.4871C33.0172 21.6476 33.0798 21.6231 33.1016 21.6748Z" fill="white"/>
<path d="M36.3616 22.3152C36.3344 22.3315 36.3018 22.3723 36.2637 22.4268C36.2854 22.4104 36.3072 22.3996 36.3262 22.3914C36.3371 22.3642 36.348 22.3424 36.3616 22.3152Z" fill="white"/>
<path d="M34.5386 21.7882L34.5632 21.7964C34.5931 21.7393 34.6284 21.6712 34.6665 21.6004L34.5386 21.7882Z" fill="white"/>
<path d="M35.5422 22.1101C35.5286 22.0831 35.3463 22.502 35.262 22.6831C35.3463 22.5155 35.3953 22.4371 35.4307 22.4128C35.4634 22.3317 35.4987 22.2345 35.5422 22.1101Z" fill="white"/>
<path d="M35.8413 24.1051L35.7896 24.1514C35.806 24.135 35.825 24.1242 35.8413 24.1051Z" fill="white"/>
<path d="M33.8809 21.4155C33.9054 21.353 33.9244 21.2959 33.9353 21.2605C33.9108 21.3122 33.8945 21.3638 33.8809 21.4155Z" fill="white"/>
<path d="M5.3387 13.481C5.3523 13.451 5.35777 13.432 5.36865 13.4048C5.34689 13.4456 5.33053 13.4755 5.3387 13.481Z" fill="white"/>
<path d="M5.0714 10.9321L5.09591 10.9159C5.13127 10.8375 5.16389 10.7591 5.19653 10.6807L5.0714 10.9321Z" fill="white"/>
<path d="M29.397 18.5741C29.397 18.5795 29.397 18.5795 29.397 18.585C29.4405 18.5442 29.4242 18.5469 29.397 18.5741Z" fill="white"/>
<path d="M21.0121 15.5194C20.9496 15.9357 20.6612 15.9412 20.6286 16.417C20.683 16.2467 21.0285 15.8114 21.0121 15.5194Z" fill="white"/>
<path d="M36.361 22.3805C36.3773 22.3805 36.391 22.3832 36.4019 22.394C36.391 22.3723 36.3801 22.3669 36.361 22.3805Z" fill="white"/>
<path d="M20.6277 16.4164L20.625 16.4191L20.6222 16.4653C20.625 16.4463 20.6277 16.4355 20.6277 16.4164Z" fill="white"/>
<path d="M27.2209 17.9807C27.1937 18.0569 27.1801 18.1167 27.1665 18.1738C27.1828 18.133 27.1992 18.0759 27.2209 17.9807Z" fill="white"/>
<path d="M28.5154 19.2119L28.5018 19.1385C28.499 19.1847 28.5072 19.2038 28.5154 19.2119Z" fill="white"/>
<path d="M26.1729 18.2524C26.1647 18.2116 26.1811 18.1491 26.1294 18.1953C26.1239 18.2171 26.1185 18.2333 26.1158 18.2497C26.1511 18.1952 26.1756 18.1735 26.1729 18.2524Z" fill="white"/>
<path d="M25.3382 17.9144L25.3192 18.0068C25.33 18.0041 25.3436 17.9987 25.3545 17.9959L25.3382 17.9144Z" fill="white"/>
<path d="M7.95554 14.311C7.98547 14.184 8.02898 14.0488 8.07251 13.9164C7.96369 14.2218 7.79775 14.2786 7.95554 14.311Z" fill="white"/>
<path d="M36.2609 22.5508C36.3126 22.4474 36.3425 22.3957 36.3643 22.3794C36.3534 22.3794 36.3398 22.3849 36.3262 22.3903C36.2963 22.4529 36.2691 22.51 36.2609 22.5508Z" fill="white"/>
<path d="M24.7637 21.5645L24.6575 21.4474C24.6766 21.5046 24.7174 21.5454 24.7637 21.5645Z" fill="white"/>
<path d="M13.9656 16.6895L13.9138 16.7276C13.922 16.744 13.9384 16.7358 13.9656 16.6895Z" fill="white"/>
<path d="M24.2388 21.3506C24.2769 21.1911 24.2877 21.0965 24.285 21.0289C24.266 21.0613 24.2496 21.0829 24.2252 21.1316L24.2388 21.3506Z" fill="white"/>
<path d="M8.07495 13.9096L8.07152 13.9165L8.07495 13.9096Z" fill="white"/>
<path d="M6.7884 14.5569C6.91083 14.6191 7.07138 14.0379 7.22917 13.7324C7.4441 13.6351 7.1312 14.1677 7.06591 14.4732C7.22098 14.3651 7.50395 13.8865 7.5638 13.9352C7.53115 14.0298 7.53113 14.0677 7.46855 14.1758C7.74877 13.7757 7.7733 14.2758 8.11881 13.7675C8.10793 13.8189 8.09157 13.8676 8.07796 13.9109C8.17318 13.6243 8.28747 13.3431 8.37453 13.1431C8.43439 13.1566 8.62481 12.8349 8.49695 13.208C8.46702 13.1837 8.40443 13.3269 8.33913 13.435L8.46427 13.3026C8.30375 13.846 8.30922 13.4485 8.1487 13.8351C8.3337 13.7135 8.64655 13.3377 8.67376 13.5189C8.4806 14.0352 8.39625 13.6054 8.32551 14.1082L8.26839 13.8568C8.04258 14.7029 8.20856 13.7676 7.9501 14.6651C8.06981 14.8868 8.26027 14.4867 8.37726 14.7111C8.53505 14.4434 8.53775 14.2866 8.69554 14.019C9.16077 13.6135 8.36908 15.3814 8.83702 14.7813C9.02474 14.4623 9.3104 13.8243 9.30496 14.219L9.022 14.7759C9.17436 14.9056 9.46273 13.9893 9.48722 14.4516C9.36207 14.6651 9.27234 14.5867 9.26962 14.6651C9.20161 15.168 9.48724 14.3731 9.57974 14.4083L9.38659 14.9273C9.60696 14.9219 9.96336 14.638 10.2082 14.6299C10.1348 14.7759 10.0341 14.9218 10.0178 15.0976C10.3823 14.9489 10.5456 15.3868 10.6734 15.7896L10.9509 15.3895C10.97 15.4031 10.9101 15.6058 10.8502 15.6815C10.8802 15.8897 10.97 15.4031 11.0897 15.249C11.1577 15.2409 11.0598 15.5328 10.97 15.6491C11.2965 15.3463 11.7943 15.0463 11.7807 15.5897L11.6909 15.7058C11.7589 15.941 12.2242 14.8678 12.1861 15.3328L12.129 15.4004C12.3575 15.7167 12.8635 15.4517 12.8227 16.2114C13.1301 15.595 13.0104 16.6169 13.394 15.7411C13.3886 16.252 13.2716 16.3898 13.3968 16.7845C13.4457 16.8521 13.7232 16.2709 13.8429 16.2141L13.6552 16.6764L13.9654 16.2358L13.7967 16.8116L13.9218 16.725C13.9028 16.6844 13.9436 16.4899 14.0034 16.3601C14.2102 16.1979 14.1612 16.8007 14.066 17.0386L14.5095 16.7629C14.4252 16.9467 14.3517 16.9899 14.2673 17.0954C14.6128 16.6845 14.0932 17.5928 14.4115 17.2171C14.436 17.1035 14.534 16.9467 14.5775 16.8521C14.5313 17.1603 14.6863 17.2252 14.8523 17.1549L14.6972 17.4658C14.874 17.6334 15.2032 17.4928 15.4345 17.5955C15.4127 17.4117 15.6603 16.8684 15.75 16.844L15.576 17.3441C15.7446 17.0602 15.5814 17.1305 15.8235 16.798C15.8888 16.8899 15.6521 17.3792 15.5378 17.5171L15.7147 17.3901C15.6603 17.5388 15.6032 17.6063 15.5216 17.7874C15.6902 17.5009 15.5025 18.3525 15.7854 17.8524L15.731 18.001C15.965 18.101 16.1419 17.9766 16.3432 18.0307C16.52 17.609 16.5581 17.7333 16.754 17.4171C16.8383 17.609 16.8573 18.0038 17.0423 18.0389C17.2491 17.8767 17.2246 17.6955 17.3824 17.4658C17.2328 17.855 17.4178 17.8875 17.2138 18.1281C17.4423 18.1471 17.5049 18.1578 17.8912 17.9497C17.9293 17.7821 17.9238 17.701 17.9945 17.5766C18.068 17.5334 18.0354 17.782 17.951 17.9631L17.9211 17.9984C18.4489 17.5388 18.1251 19.3905 18.6856 18.6823L18.6557 18.7174L19.0665 18.3985C19.1481 18.5093 18.8815 18.6606 18.8652 18.9309C19.3875 18.3957 19.2324 19.1905 19.6214 18.8499C19.3167 20.0502 20.2363 19.0067 20.1601 19.8204L20.2581 19.5474C20.424 19.3095 20.2636 19.7285 20.2799 19.8069C20.3588 19.596 20.318 19.542 20.4132 19.4122C21.0308 19.2879 21.2539 20.2097 21.6511 20.653C21.8034 20.799 22.3257 19.3149 22.2904 20.0448L22.021 20.5151C22.6332 20.0717 22.7638 20.8423 23.3297 20.4827C23.2616 20.5882 23.199 20.7368 23.1637 20.7206C23.0902 21.1126 23.4357 20.853 23.5609 20.5584C23.6044 20.6151 23.4629 20.8287 23.4357 20.9936C23.4249 21.2369 23.8166 20.6125 23.7078 20.9855C23.6915 21.0477 23.6371 21.0936 23.6126 21.1153C23.735 20.9612 23.8248 21.2531 23.95 20.8179C24.0017 21.072 24.2846 20.7396 24.29 21.0288C24.5512 20.5936 24.4287 21.345 24.7226 20.6989C24.4315 21.3748 24.7335 21.3424 24.9511 21.0585C24.8369 21.2531 24.9375 21.3018 24.7879 21.5721C24.8885 21.6019 25.03 21.5126 25.1579 21.1558C25.0028 22.0398 25.7891 20.6475 25.4599 21.7316C25.9006 21.4856 26.2679 21.3478 26.5944 21.2937C26.306 21.9669 26.2788 21.2451 25.9959 21.9587C26.3577 21.7803 26.7386 21.2585 26.9154 21.5208C26.9399 21.6397 26.7576 21.7993 26.6896 21.9074C27.0514 21.729 27.1412 22.1641 27.5112 21.883C27.484 21.9452 27.4323 22.0047 27.3888 22.048C27.4405 22.0426 27.4487 22.1884 27.5711 21.8776L27.4949 21.9451C27.6092 21.4694 28.0526 21.0828 28.156 20.8503C27.718 21.7019 28.2812 21.1612 27.7044 22.2263C27.7561 22.1803 27.8513 22.048 27.9302 21.8398C27.9465 21.9155 27.9112 22.0425 27.7724 22.2588C27.9955 22.1533 28.0771 21.8046 28.2131 21.8695C28.1506 22.0182 28.0989 22.0642 28.0118 22.2345C28.2022 21.9723 28.3954 21.71 28.4607 21.8857C28.4171 21.9723 28.3818 22.0939 28.3464 22.0777C28.5695 22.1155 29.013 21.4451 29.1191 21.8182C28.7872 22.4399 29.1082 22.0614 28.8878 22.6264L29.0755 22.5075L29.1408 22.2155C29.2415 22.2668 29.5027 21.8965 29.519 22.1182L29.3449 22.3183L29.587 22.2912L29.5625 22.0344C29.7883 21.7884 29.8428 21.3207 29.9189 21.5342C29.8673 21.5802 30.0224 21.583 29.9407 21.9371C30.0659 21.7803 30.1965 21.6154 30.2182 21.7857C30.1638 21.9722 29.9461 22.3993 29.9108 22.5237C30.1556 22.0776 30.2101 22.494 30.4821 22.0209C30.4114 22.129 30.289 22.4236 30.2726 22.4858L30.474 22.1236C30.4712 22.2642 30.4549 22.3263 30.3515 22.5588C30.4685 22.6886 30.5991 21.829 30.6453 22.2074C30.6181 22.2318 30.6018 22.2912 30.5501 22.3372C30.659 22.567 30.9881 22.2344 31.0698 22.4858C30.8848 23.0697 30.8739 22.567 30.7297 23.0644C31.0045 23.0563 31.4887 22.5831 31.6574 22.8075L31.6411 22.7292C32.0002 21.9453 31.6465 23.1914 31.9132 22.8616C31.8615 22.9103 31.6955 23.2888 31.739 23.2023C31.8397 23.3915 32.1335 23.1347 32.4682 22.9779L32.3539 23.1698C32.3675 23.3888 32.547 23.3725 32.6069 23.505C32.7211 23.313 32.762 23.3699 32.8518 23.0563C32.6722 24.3431 33.6843 22.667 33.551 23.7456C33.5183 23.7348 33.4013 23.8943 33.4258 23.9051L33.7305 23.8106C33.8557 23.4564 33.7876 23.5888 33.8502 23.2996C33.9645 23.1049 34.0951 22.9725 34.1495 22.9968C33.9536 23.186 33.921 23.5536 33.8856 23.7645C33.921 23.6564 33.9863 23.5456 34.0271 23.4348C33.891 24.0998 34.3345 22.7454 34.3263 23.2266L34.2419 23.4051C34.3399 23.3375 34.4977 23.1185 34.5412 23.1969C34.4025 23.6078 34.3998 23.3563 34.2583 23.6861C34.359 23.6996 34.7534 22.9995 34.6718 23.4348C34.5875 23.5294 34.5303 23.5104 34.446 23.605C34.3426 24.1133 34.4025 23.997 34.4379 24.0998L34.4352 24.0862L34.5032 24.3619L34.5167 24.2187C35.0636 23.2212 34.8296 24.1241 35.2676 23.5023C34.8486 24.089 35.0881 23.8672 34.8895 24.316C34.8759 24.4593 34.8786 24.6243 34.8079 24.7459C35.0337 24.408 34.8106 25.0837 35.137 24.5917C35.0799 24.7404 35.2105 24.6378 35.0419 25C35.1833 24.9243 35.1234 24.735 35.2078 24.5566C35.5615 24.116 35.303 25.3027 35.7982 24.7026C35.8907 24.6377 35.9777 24.5458 36.0621 24.4457L36.6062 23.1616C36.4158 23.3779 36.2389 23.6401 36.0512 23.7591C36.0947 23.5023 36.326 23.2509 36.326 23.2509C36.3287 22.9968 36.2416 23.0076 36.0838 23.1374C36.1573 23.0184 36.1845 22.9022 36.228 22.7292C36.1437 22.7373 35.9532 23.2374 35.9532 22.986C36.0403 22.8292 36.1709 22.5805 36.2743 22.4318C36.1355 22.5291 35.9369 22.767 35.7955 22.8616C35.8825 22.5994 36.0131 22.4993 36.1138 22.3452C35.9696 22.4182 35.7682 22.4697 35.5669 22.859L35.5669 23.0265C35.5234 23.0319 35.6975 22.6751 35.7546 22.6129C35.9723 22.3345 35.8117 22.8022 35.7519 22.9508L35.6513 23.0184C35.3438 23.897 35.9505 22.986 36.0512 23.086L35.7329 23.6834L36.0784 23.2212C36.0348 23.3942 35.9015 23.7483 35.8036 23.8158C35.7573 24.1592 35.975 23.6294 35.9015 24.0025C35.8879 24.0593 35.8689 24.0862 35.8526 24.1078L36.0185 23.9592C35.9451 24.0835 35.8417 24.4025 35.8308 24.2917C35.8281 24.5864 36.0458 24.2971 36.1274 24.2592L36.5164 23.3401C36.481 23.3563 36.4701 23.3239 36.511 23.1725L36.5409 23.14C36.2416 23.2644 36.3314 23.5888 35.9505 24.0619L36.3096 22.8887L36.1001 23.3375C36.0838 23.3131 36.0567 23.259 36.141 23.0806C35.9288 23.3617 36.0729 23.286 35.9043 23.5617C35.9723 23.1022 35.5342 23.6375 35.8117 22.8995C35.6295 23.232 35.8009 23.2104 35.5887 23.4051C35.8798 22.6076 35.4037 23.4861 35.4554 23.086C35.6513 22.694 35.654 22.9454 35.7084 22.5426C35.3683 23.2049 35.5833 22.3155 35.4472 22.4128C35.2187 22.9562 35.1779 22.5696 34.9657 22.694C35.05 22.5129 34.8323 22.2885 34.7888 22.0398L34.8296 21.9506C34.5766 22.4912 34.4896 22.3345 34.3481 22.4102C34.4868 22.0831 34.5576 21.9587 34.6718 21.8316L34.582 21.7965C34.4868 21.9641 34.4215 22.0452 34.3372 22.0857L34.5303 21.683C34.4025 21.656 34.0896 22.0695 34.0515 21.7316C33.8856 22.1127 33.7305 22.8508 33.4639 23.0427C33.5428 22.8319 33.6842 22.475 33.7631 22.4074C33.7386 22.429 33.6434 22.5589 33.6516 22.4589L33.8611 22.1371C33.8557 21.9559 33.7033 22.4129 33.6625 22.3588C33.7849 22.0642 33.7088 22.1317 33.8149 21.8992C33.8421 21.8776 33.8121 22.0425 33.8829 21.9343C33.8421 21.8559 33.8393 21.6478 33.9046 21.4153C33.8393 21.5856 33.7387 21.8155 33.6788 21.8344C33.551 21.8074 33.7849 21.4613 33.7795 21.2801C33.6652 21.4748 33.6788 21.2288 33.4938 21.6722C33.4611 21.656 33.54 21.445 33.5754 21.3207C33.4339 21.491 33.2653 21.2585 33.1402 21.7586L33.1429 21.7965C33.1374 21.8046 33.132 21.8046 33.1238 21.8128C32.7402 22.1696 32.8082 21.391 32.528 21.4991L32.5906 21.3505C32.4002 21.4721 32.2831 21.3424 32.0655 21.6262C32.0301 21.61 32.0927 21.3207 32.1825 21.1504C32.0438 21.2234 31.9648 21.3856 31.9349 21.0882C32.1335 20.8665 31.9975 20.8449 32.1063 20.9368C32.041 20.7611 32.1117 20.5124 31.8152 20.8638C32.0165 20.5016 31.924 20.3502 31.8206 20.4394L31.7907 20.7449C31.7036 20.7746 31.6629 20.7179 31.6193 20.6638L31.856 20.1772C31.8642 19.4716 30.9909 21.0314 31.2248 19.9393C31.0154 20.261 31.2548 20.2394 31.029 20.6233C30.9446 20.5098 31.1242 19.7473 31.0888 19.7311C31.0507 19.3932 30.6454 20.4016 30.561 20.1475C30.5093 20.334 30.3325 20.8179 30.1421 20.9368C30.0577 20.826 30.3134 20.134 30.4413 20.0205C30.4739 20.0151 30.463 20.0772 30.4386 20.1394C30.5011 20.0907 30.5801 20.0312 30.6154 19.8204L30.5284 19.9934C30.5474 19.788 30.3869 19.7447 30.542 19.469C30.3869 19.6041 30.3842 19.7474 30.4087 19.8637C30.3706 19.5474 30.1883 19.7636 30.1121 19.5311C30.0958 19.6393 30.0305 19.8582 30.0087 19.8446C29.8836 19.5365 29.7748 20.1448 29.5952 20.161C29.6224 19.8556 29.8917 19.5256 29.6496 19.6932C29.636 19.4716 29.8264 19.2121 29.9217 19.0824C29.6442 19.3716 29.7639 18.7552 29.7122 18.6606L29.8428 18.5471C29.7639 18.6147 29.7312 18.5984 29.6958 18.5822L29.5898 18.9552C29.5734 18.8768 29.5381 18.8606 29.6007 18.712C29.4619 18.9282 29.3884 19.3175 29.1708 19.6014C29.1898 19.3986 28.9205 19.7257 29.0973 19.2472C29.2061 19.4797 29.2742 18.7634 29.4537 18.7498C29.402 18.7958 29.3694 18.7769 29.353 18.6985C29.3694 18.6444 29.3993 18.6039 29.4211 18.5796C29.4292 18.0903 29.1245 19.0824 28.9558 19.0013C29.0892 18.7445 29.1245 18.4795 29.0728 18.5254C29.1408 18.5579 28.9232 18.9823 28.7736 19.1608C28.7491 18.9093 28.5886 19.2662 28.5396 19.2175L28.5668 19.3419C28.4335 19.5987 28.3927 19.542 28.2811 19.5933C28.36 19.3825 28.4117 19.4797 28.4199 19.377C28.1397 19.8095 28.4254 18.8121 28.1751 19.0797C28.1941 18.877 28.3764 18.5769 28.3791 18.4336C28.1016 18.7228 28.3845 18.0092 28.126 18.2362C28.0199 18.612 28.0635 18.5255 27.8187 18.8337L28.156 18.6769L27.7914 19.1365C27.8594 19.1689 28.0335 18.9715 28.0499 19.0499C27.8594 19.3121 27.903 19.2257 27.8132 19.5366C27.9384 18.9607 27.4949 19.7717 27.533 19.3635L27.903 18.4795C27.9003 18.0172 27.4187 18.812 27.2936 18.5012L27.299 18.6823C27.1249 19.0229 27.144 18.6768 27.0161 18.7904C27.144 18.4957 27.1466 18.3714 27.1929 18.1741C27.1058 18.3957 27.0433 18.0903 26.7794 18.6742L26.8447 18.2443C26.7358 18.0145 26.2978 19.0066 26.17 18.8363C26.3522 18.5362 26.3631 18.2929 26.5726 18.1091C26.5182 18.0821 26.491 18.0091 26.404 18.2146C26.4475 18.0172 26.0829 18.5498 26.1482 18.2471C26.072 18.3687 25.936 18.6742 25.8816 18.6255C25.9006 18.5633 25.9414 18.4795 25.9414 18.4795C25.8815 18.6255 25.7618 18.639 25.6802 18.9877C25.8897 17.9929 25.1688 18.8579 25.3456 18.0037C25.1824 18.0523 24.9947 18.0876 24.8749 18.066C24.9185 17.9795 24.9375 17.9172 24.9457 17.9577C24.9049 17.6198 24.4995 18.7687 24.4532 18.3903C24.5621 17.8739 24.6519 18.1687 24.6709 17.9659C25.0491 16.9819 24.4043 18.0118 24.524 17.3954L24.5757 17.3495C24.622 16.9818 24.203 17.6306 24.086 17.5009C24.086 17.5009 24.1295 17.4171 24.1486 17.3549C23.8439 17.8117 23.5854 17.8983 23.3868 17.9794C23.5881 17.6171 23.5337 17.8036 23.667 17.4062C23.58 17.436 23.4276 18.0361 23.2562 18.0929C23.3024 17.8685 23.2861 17.6469 23.4439 17.2305L23.5718 17.2576C23.7323 16.698 23.4113 17.2143 23.3868 17.0954L23.4902 16.8656C23.2753 16.8683 23.0304 17.4549 22.8508 17.3332L22.7992 17.5199C22.4509 18.0605 22.8454 17.1549 22.5597 17.5442L22.7719 16.9386C22.6413 17.0521 22.2877 17.4089 22.1163 17.4684C22.3693 17.0575 22.6114 16.8954 22.8101 16.671C22.742 16.6386 22.5543 16.6169 22.3965 16.8954C22.4482 16.8494 22.5434 16.7197 22.5353 16.8224C22.2578 17.2522 22.0483 17.4361 21.915 17.3685C22.4128 16.2304 21.6701 16.9304 21.9367 15.9978C21.515 16.3222 21.5204 15.6167 21.2049 15.568C20.9382 16.5034 21.1097 15.5599 20.7505 16.4845C20.658 16.5169 20.639 16.4899 20.658 16.4277L20.6798 15.7978C20.7424 15.5113 20.8267 15.6221 20.9056 15.414C20.7886 15.2842 21.0035 15.0003 21.009 14.7165C20.8947 15.0517 20.7641 15.1652 20.7315 15.0057L20.6744 15.4761C20.2663 15.8816 20.8158 14.6327 20.4077 15.0328L20.5927 14.7705C20.4159 14.8975 20.2037 14.6056 19.7956 15.3003C19.8201 15.1868 19.899 14.9247 19.9724 14.8787C19.7657 14.6651 19.0828 15.4328 19.0746 14.8976L19.1862 14.6814C19.1127 14.7273 18.9304 15.0706 18.9631 14.8192C19.0039 14.7273 19.0747 14.6029 19.0583 14.5813C19.0012 14.6489 18.7699 14.9246 18.7618 14.7678L18.9196 14.538C18.7944 14.1433 18.2857 14.9976 18.0163 15.0679C18.2884 14.4082 18.1823 14.1136 18.1306 13.9677L18.1714 13.8758C17.9157 13.6757 17.4559 14.2245 17.0832 14.3732C17.2138 13.5892 16.6452 13.8433 16.5472 13.3323C16.5391 13.4702 16.3268 13.8432 16.2534 13.8919C16.2452 13.7324 15.8915 14.2812 16.1527 13.6783L16.169 13.7C16.3676 13.0863 16.1744 13.1918 16.0792 13.135L15.7365 13.9217C15.9514 12.662 14.874 14.065 15.157 12.9755C15.0128 13.1486 14.9339 13.1134 14.7897 13.2864L14.9693 12.862C14.8387 12.6809 14.7733 12.5943 14.5149 12.6052L14.6836 12.3186C14.572 12.2429 14.0225 13.4811 13.9001 13.4595L14.1286 12.8105C13.9109 12.7322 13.9246 12.0888 13.4784 12.5781C13.5192 12.4862 13.6035 12.3051 13.647 12.2943C13.5545 12.2375 13.4348 11.7077 13.1138 12.5917C13.345 12.024 12.9179 12.4457 12.6975 12.6485L12.888 12.2375C12.5697 12.7323 12.5071 12.8782 12.3112 12.9701C12.3004 12.9026 12.42 12.624 12.42 12.7484C12.4037 12.4862 12.1724 13.1107 12.1344 12.835L12.2922 12.5863C12.1942 12.5079 12.1453 12.6565 11.9548 12.9431C11.8161 13.0836 11.7888 12.7512 11.9303 12.3673C11.8215 12.5917 11.6338 12.8755 11.612 12.7403C11.661 12.5943 11.7236 12.516 11.7535 12.4754C11.6855 12.1159 11.2774 12.8511 11.3209 12.3862C11.3753 12.2456 11.3971 12.1726 11.4025 12.1267C11.544 12.1969 11.6528 12.2673 11.6284 12.2943C11.7889 11.9077 11.6964 11.7941 12.0119 11.2994C11.797 11.5508 11.3726 12.1159 11.3345 11.8888C11.3454 11.8482 11.3536 11.8104 11.3754 11.7482L11.4053 11.7103C11.3944 11.6617 11.3563 11.686 11.3073 11.7428C11.2965 11.6644 11.2937 11.6076 11.2611 11.5886C11.378 11.2642 11.1958 11.3616 11.1441 11.3211C10.9754 11.7455 10.9264 11.6455 10.853 12.024C10.8557 11.9888 10.8856 11.978 10.9319 11.9753C10.9455 11.9671 10.9591 11.9644 10.9754 11.9428C10.97 11.9536 10.9618 11.9672 10.9564 11.978C10.9999 11.9807 11.0543 11.9914 11.1141 12.0104C10.9781 12.205 10.8557 12.3672 10.8884 12.105C10.7469 12.3564 10.6 12.6187 10.5238 12.7511C10.687 12.1294 10.6625 11.7482 10.7904 11.3778C10.5129 11.54 10.3007 11.3617 9.85997 12.1078C9.76747 12.1889 9.89534 11.8563 9.92799 11.7238C9.99056 11.6562 10.0205 11.6833 10.0831 11.5752C9.89536 11.7374 9.74568 11.5292 9.49266 12.0753C9.46546 11.7725 9.77561 11.5941 9.56068 11.6131L9.6532 11.4535C9.66953 10.4262 8.50241 12.6349 8.58403 11.3427C8.5813 11.4238 8.58127 11.4617 8.54862 11.5563C8.31465 10.8751 7.44679 11.6563 7.33797 10.6831C7.28084 10.4723 7.12033 10.8209 6.93532 11.0588L7.09586 10.5939L6.75034 11.0642C6.41027 11.3724 6.89177 9.82343 6.36125 10.4533L6.26607 10.7696C6.20622 10.6777 5.92867 10.8426 6.08647 10.4966C6.05382 10.548 5.92868 10.8021 5.96133 10.6318L6.05658 10.3938L5.68382 10.7155C5.59676 10.4803 6.09735 9.78552 5.88514 9.64495C5.76272 9.70172 5.35467 10.2344 5.32203 10.4074C5.35195 10.4344 5.34923 10.5912 5.25401 10.8291L5.12343 10.921C4.82144 11.613 4.46499 12.3051 4.45683 12.8701L4.76701 12.497L4.67177 12.8538L4.54936 12.8296C4.48134 13.1756 4.63914 12.9079 4.76429 12.7349C4.70172 12.9187 4.66632 13.054 4.66632 13.1324L5.07441 12.5187C4.97647 12.7998 4.79148 13.0377 4.81869 13.2242C5.00913 12.9404 5.01183 12.5862 5.19955 12.4267C5.13425 12.77 5.00645 13.0214 5.19417 12.7808C5.13159 12.9647 5.06625 13.0728 5.00367 13.1404C5.15875 12.9512 5.21859 13.1215 5.40632 12.7646C5.3111 13.1836 5.67571 12.7565 5.39549 13.4134C5.48255 13.2647 5.7274 12.943 5.80086 12.9403C5.36012 13.6864 6.01303 13.0809 5.63215 13.9189C6.01031 13.2404 6.06472 13.7271 6.37487 13.3919C6.34222 13.4459 6.27969 13.5541 6.28241 13.5108C6.34226 13.6027 6.27696 13.8271 6.27424 13.9839C6.52725 13.4 6.71223 13.3188 6.9326 12.9836C6.79929 13.5918 6.58437 13.6486 6.39393 14.2055C6.58437 13.727 6.76661 13.8028 6.8972 13.3919C6.82918 13.7757 6.89452 13.5891 6.734 14.0946C7.05231 13.3647 6.85912 14.0001 7.10941 13.573C7.07133 13.9812 6.85371 14.2731 7.07135 14.1C7.00606 14.3433 6.7884 14.5569 6.7884 14.5569ZM10.2626 14.4893C10.2599 14.4947 10.2599 14.4975 10.2599 14.4975C10.23 14.4975 10.2055 14.4975 10.1892 14.4975C10.2055 14.4948 10.2245 14.4947 10.2626 14.4893ZM10.5156 14.584C10.4911 14.5542 10.4558 14.5381 10.415 14.5246C10.4667 14.3759 10.5374 14.2298 10.5592 14.246C10.5048 14.338 10.5292 14.4461 10.5156 14.584ZM11.1985 11.4454C11.2611 11.4022 11.242 11.4887 11.2121 11.5779C11.1903 11.5779 11.1631 11.5832 11.1223 11.5995C11.1141 11.613 11.106 11.6319 11.0951 11.6482C11.1305 11.5725 11.1658 11.4995 11.1985 11.4454Z" fill="white"/>
<path d="M10.8999 11.9685C10.889 11.9767 10.8808 11.993 10.87 11.993C10.8618 12.0338 10.8563 12.0692 10.8536 12.0991C10.8781 12.0556 10.8999 12.0121 10.9216 11.9713C10.9135 11.9713 10.9081 11.9685 10.8999 11.9685Z" fill="white"/>
<path d="M33.1108 21.7585L33.1108 21.7476C33.1081 21.7667 33.1054 21.7858 33.0972 21.813C33.1027 21.7858 33.1054 21.7748 33.1108 21.7585Z" fill="white"/>
<path d="M13.6035 16.7871L13.647 16.6783L13.5871 16.7627L13.6035 16.7871Z" fill="white"/>
<path d="M33.8782 23.7609C33.8646 23.799 33.8537 23.8398 33.8509 23.8779C33.8618 23.848 33.87 23.8071 33.8782 23.7609Z" fill="white"/>
<path d="M34.427 24.0957L34.4487 24.2808C34.4487 24.1801 34.4406 24.1284 34.427 24.0957Z" fill="white"/>
<path d="M34.7948 24.4922C34.8302 24.4187 34.8547 24.3644 34.8792 24.3127L34.8792 24.3099L34.7948 24.4922Z" fill="white"/>
<path d="M27.3806 22.0476C27.3725 22.0476 27.3643 22.0502 27.3562 22.0583C27.28 22.1236 27.3235 22.102 27.3806 22.0476Z" fill="white"/>
<path d="M29.9324 21.9357C29.878 22.0037 29.8235 22.069 29.78 22.1071C29.8072 22.156 29.8344 22.1751 29.9324 21.9357Z" fill="white"/>
<path d="M24.7766 21.5776L24.7795 21.569C24.7738 21.569 24.768 21.5661 24.7651 21.5632L24.7766 21.5776Z" fill="white"/>
<path d="M29.6855 22.0578C29.6882 22.1585 29.729 22.1531 29.7834 22.1068C29.7644 22.066 29.7453 22.0061 29.6855 22.0578Z" fill="white"/>
<path d="M35.9775 22.1046L35.9639 22.0774C35.953 22.1046 35.9422 22.1263 35.9313 22.1426L35.9775 22.1046Z" fill="white"/>
<path d="M35.9314 22.1422L35.8851 22.1831C35.896 22.1886 35.9069 22.1885 35.9314 22.1422Z" fill="white"/>
<path d="M35.7908 22.2671L35.886 22.1829C35.8697 22.1747 35.8534 22.1501 35.7908 22.2671Z" fill="white"/>
<path d="M36.489 22.5537L36.5625 22.4041C36.5435 22.4341 36.519 22.483 36.489 22.5537Z" fill="white"/>
<path d="M36.6877 22.5858C36.6605 22.5317 36.7205 22.2154 36.6171 22.2857L36.5599 22.4047C36.6878 22.1911 36.5381 22.8236 36.6877 22.5858Z" fill="white"/>
<path d="M35.9807 22.8127L36.0841 22.9966C36.1249 22.8236 36.1794 22.5884 36.2664 22.5776C36.2719 22.0153 36.1549 22.9587 35.9807 22.8127Z" fill="white"/>
<path d="M35.6051 22.3828C35.7194 22.3396 35.7031 22.1449 35.7439 22.0557C35.6296 22.1828 35.6024 22.2152 35.6051 22.3828Z" fill="white"/>
<path d="M32.1793 20.9858L32.3452 20.6046C32.2609 20.6344 32.2854 20.7534 32.1793 20.9858Z" fill="white"/>
<path d="M30.7055 22.7022L30.6701 22.9644L30.8442 22.6264L30.7055 22.7022Z" fill="white"/>
<path d="M31.4481 19.8093L31.4998 19.7657L31.3365 19.8638L31.4481 19.8093Z" fill="white"/>
<path d="M25.6392 17.6009L25.4624 18.082C25.5413 18.0144 25.7698 17.4874 25.6392 17.6009Z" fill="white"/>
<path d="M22.9565 17.0713C23.0273 16.8226 23.0191 16.6442 22.8804 16.8577C22.9239 16.9118 22.9048 17.12 22.9565 17.0713Z" fill="white"/>
<path d="M15.8289 13.2651L15.9431 13.1264L15.7935 13.2189L15.8289 13.2651Z" fill="white"/>
<path d="M34.0157 3.71966C34.1572 3.7251 34.4728 3.6898 34.4075 3.64899L33.8661 3.65988L34.0157 3.71966Z" fill="white"/>
<path d="M34.9895 3.33546C34.7229 3.30302 34.2604 3.27871 33.768 3.3517C34.2903 3.36251 34.0754 3.3923 34.6957 3.40041C34.761 3.44096 34.5297 3.49222 34.3311 3.50033C34.4699 3.50574 34.2196 3.5788 34.5597 3.5761C34.9732 3.48419 34.9841 3.40841 34.6332 3.35975C34.7474 3.33542 34.8888 3.34087 34.9895 3.33546Z" fill="white"/>
<path d="M32.7236 1.40502L32.7808 1.4458C32.7563 1.41859 32.7372 1.40774 32.7236 1.40502Z" fill="white"/>
<path d="M30.2073 2.48145C30.2181 2.45968 30.2018 2.40807 30.1773 2.36454C30.1773 2.40535 30.1801 2.44064 30.2073 2.48145Z" fill="white"/>
<path d="M29.5195 2.18071C29.5358 2.19159 29.5467 2.19427 29.5603 2.19971C29.5277 2.16162 29.5059 2.14262 29.5195 2.18071Z" fill="white"/>
<path d="M32.7236 1.40527L32.574 1.29648C32.6583 1.44883 32.6719 1.38895 32.7236 1.40527Z" fill="white"/>
<path d="M33.641 2.83214C33.6682 2.84575 33.7199 2.85393 33.7852 2.85938C33.7607 2.84849 33.7389 2.83758 33.7253 2.8267C33.6981 2.82942 33.6709 2.83214 33.641 2.83214Z" fill="white"/>
<path d="M33.5266 0.418457L33.5457 0.407564C33.5157 0.350431 33.4831 0.282491 33.4477 0.211755L33.5266 0.418457Z" fill="white"/>
<path d="M36.1654 0.953922C36.1845 0.932157 35.7247 0.959443 35.5261 0.967605C35.7166 0.964884 35.8063 0.972934 35.8444 0.989258C35.9288 0.983817 36.0321 0.972966 36.1654 0.953922Z" fill="white"/>
<path d="M35.4772 2.47821L35.5425 2.5C35.5234 2.49456 35.5044 2.48638 35.4772 2.47821Z" fill="white"/>
<path d="M32.9143 0.672852C32.8789 0.615719 32.8435 0.564028 32.8245 0.536822C32.8517 0.585792 32.8844 0.629322 32.9143 0.672852Z" fill="white"/>
<path d="M10.0991 13.646C10.091 13.6133 10.0856 13.5943 10.0801 13.5671C10.0856 13.6133 10.091 13.646 10.0991 13.646Z" fill="white"/>
<path d="M8.50746 11.71L8.51563 11.6829C8.49658 11.5991 8.47748 11.5153 8.46116 11.4342L8.50746 11.71Z" fill="white"/>
<path d="M28.4989 2.05657C28.5016 2.05929 28.5044 2.05929 28.5071 2.06201C28.5016 2.00488 28.4935 2.01848 28.4989 2.05657Z" fill="white"/>
<path d="M21.6727 5.62267C21.9121 5.9633 21.7435 6.16067 22.04 6.52832C21.9584 6.36612 21.8741 5.82272 21.6727 5.62267Z" fill="white"/>
<path d="M33.7002 2.80518C33.6948 2.79429 33.6894 2.78065 33.6921 2.76705C33.6785 2.78609 33.6812 2.79701 33.7002 2.80518Z" fill="white"/>
<path d="M22.0401 6.52779L22.0429 6.53045L22.0728 6.56592C22.0592 6.54959 22.051 6.53867 22.0401 6.52779Z" fill="white"/>
<path d="M26.9017 3.17483C26.9425 3.24556 26.9752 3.29722 27.0078 3.34619C26.9888 3.30266 26.9588 3.25372 26.9017 3.17483Z" fill="white"/>
<path d="M28.4902 3.10303L28.4304 3.0649C28.4603 3.09483 28.4766 3.10303 28.4902 3.10303Z" fill="white"/>
<path d="M26.5154 4.08687C26.4827 4.06511 26.4501 4.01076 26.4528 4.07877C26.4664 4.09782 26.4745 4.1114 26.4854 4.125C26.4664 4.06243 26.4637 4.02974 26.5154 4.08687Z" fill="white"/>
<path d="M25.808 4.42473L25.8597 4.50098C25.8624 4.49009 25.8679 4.47918 25.8706 4.4683L25.808 4.42473Z" fill="white"/>
<path d="M12.4438 12.8131C12.3922 12.6941 12.3432 12.5617 12.2969 12.4292C12.3949 12.7374 12.3105 12.878 12.4438 12.8131Z" fill="white"/>
<path d="M33.8994 2.81374C33.7851 2.81918 33.7253 2.81652 33.7008 2.80564C33.7063 2.8138 33.7172 2.82192 33.728 2.83008C33.7933 2.82736 33.8586 2.8219 33.8994 2.81374Z" fill="white"/>
<path d="M28.0718 7.33339L27.9249 7.32794C27.9765 7.35243 28.031 7.35515 28.0718 7.33339Z" fill="white"/>
<path d="M17.9995 11.0204L17.9886 11.083C18.0049 11.0884 18.0104 11.0721 17.9995 11.0204Z" fill="white"/>
<path d="M27.6062 7.55518C27.5164 7.42001 27.4511 7.34703 27.4022 7.30108C27.413 7.33622 27.4212 7.36323 27.4402 7.4146L27.6062 7.55518Z" fill="white"/>
<path d="M12.2942 12.4228L12.2976 12.4297L12.2942 12.4228Z" fill="white"/>
<path d="M11.756 13.6867C11.8784 13.6678 11.6608 13.1055 11.5955 12.7676C11.6934 12.5649 11.7751 13.1758 11.9057 13.4597C11.9546 13.2813 11.8784 12.7324 11.9492 12.7378C11.9791 12.8324 12.0036 12.8623 12.0199 12.9866C11.9873 12.5027 12.292 12.8893 12.243 12.2837C12.2648 12.3324 12.2838 12.381 12.2974 12.4243C12.1995 12.1404 12.1152 11.8458 12.0608 11.6349C12.1097 11.6106 12.058 11.2429 12.1832 11.6159C12.1478 11.6132 12.1886 11.7674 12.2049 11.889L12.2158 11.7106C12.4171 12.2404 12.1913 11.9187 12.3056 12.3188C12.3654 12.1161 12.3627 11.6268 12.4906 11.7593C12.6565 12.2837 12.3491 11.9944 12.5913 12.4323L12.4062 12.2675C12.7381 13.0758 12.311 12.2324 12.6538 13.1001C12.866 13.2056 12.7681 12.7757 12.9803 12.8811C12.934 12.5757 12.8443 12.4486 12.798 12.1431C12.8851 11.5457 13.3694 13.4217 13.3422 12.6648C13.285 12.2998 13.1082 11.624 13.3367 11.943L13.4673 12.554C13.6496 12.5676 13.3095 11.6673 13.5979 12.0214C13.636 12.2647 13.5271 12.2567 13.5734 12.3216C13.8237 12.7622 13.5516 11.9593 13.6359 11.935L13.8101 12.4594C13.9597 12.3242 14.0386 11.8917 14.1991 11.7349C14.2372 11.8944 14.2535 12.0701 14.346 12.2188C14.5093 11.8809 14.882 12.1242 15.2139 12.3648L15.1622 11.8836C15.184 11.8809 15.2656 12.0782 15.271 12.1728C15.4152 12.3161 15.184 11.8836 15.1731 11.6917C15.2139 11.643 15.3227 11.9322 15.3336 12.0782C15.3744 11.643 15.5268 11.1077 15.8505 11.5429L15.8614 11.6889C16.0519 11.8322 15.709 10.713 15.9675 11.0969L15.9702 11.1861C16.3185 11.2889 16.4926 10.7725 16.9361 11.3807C16.7592 10.7157 17.3142 11.5781 17.0259 10.6643C17.3414 11.059 17.3496 11.2375 17.6815 11.4619C17.7577 11.4835 17.5781 10.8671 17.6189 10.7482L17.7848 11.2213L17.7141 10.6888L17.9644 11.2348L17.9916 11.0889C17.9535 11.0699 17.8583 10.8969 17.8148 10.7618C17.8502 10.5104 18.1957 10.9969 18.2855 11.2375L18.4051 10.7455C18.4677 10.9375 18.446 11.0186 18.4542 11.151C18.4215 10.6212 18.6555 11.6376 18.6255 11.1537C18.5711 11.0536 18.5358 10.8698 18.5031 10.7725C18.6691 11.0347 18.8132 10.9861 18.8785 10.8293L18.9738 11.1619C19.1969 11.1754 19.3248 10.8617 19.5451 10.7915C19.4118 10.6671 19.2241 10.1022 19.2649 10.0238L19.4744 10.5103C19.4009 10.1886 19.3383 10.3481 19.2839 9.93994C19.3846 9.96697 19.5478 10.4833 19.5614 10.6617L19.5941 10.4535C19.6539 10.5995 19.6621 10.686 19.7247 10.8779C19.6512 10.5562 20.0784 11.3105 19.9369 10.7564L19.9967 10.9023C20.2144 10.8239 20.247 10.6185 20.413 10.5265C20.2552 10.0994 20.3586 10.1669 20.2797 9.802C20.4592 9.89121 20.7313 10.1724 20.8728 10.0777C20.9 9.82633 20.7639 9.70471 20.7149 9.43438C20.8727 9.81825 21.0143 9.72363 21.0415 10.0318C21.202 9.89934 21.2482 9.86423 21.357 9.45603C21.27 9.30734 21.2129 9.25057 21.1748 9.1127C21.1911 9.0316 21.3352 9.23703 21.4033 9.42356L21.4087 9.46949C21.4359 8.78825 22.4643 10.3535 22.35 9.46685L22.3555 9.51002L22.399 9.00723C22.5269 9.03426 22.4589 9.32087 22.6302 9.52902C22.5976 8.79642 23.0384 9.47494 23.0492 8.96671C23.6723 10.0345 23.5389 8.66657 24.0449 9.30185L23.9198 9.04234C23.86 8.7612 24.0477 9.1668 24.113 9.21275C24.0177 9.01 23.9552 8.99909 23.9253 8.83959C24.2218 8.33948 24.9917 8.84497 25.5467 8.88012C25.7426 8.87741 25.0244 7.47716 25.5114 8.01513L25.6746 8.52874C25.7344 7.79613 26.3575 8.25295 26.4445 7.60685C26.4772 7.7285 26.5452 7.87456 26.5153 7.88537C26.7465 8.20707 26.771 7.7853 26.6377 7.49875C26.703 7.50686 26.771 7.75291 26.8717 7.88537C27.0376 8.06109 26.8281 7.35546 27.0294 7.69067C27.0621 7.74474 27.0648 7.81505 27.0648 7.84749C27.0268 7.65555 27.2906 7.79339 27.0539 7.40952C27.2662 7.54739 27.1954 7.123 27.4049 7.31764C27.2471 6.83645 27.7151 7.43924 27.424 6.79044C27.7368 7.45546 27.8919 7.2257 27.8157 6.87967C27.8892 7.09053 27.9817 7.05545 28.0878 7.3447C28.1694 7.29334 28.1857 7.13107 28.0062 6.80126C28.553 7.51224 28.0061 6.01199 28.5965 6.97709C28.6727 6.4986 28.7842 6.14444 28.9339 5.87952C29.2576 6.53643 28.7162 6.06867 29.0753 6.74992C29.1542 6.37415 28.9937 5.75238 29.2848 5.80375C29.3855 5.86592 29.3991 6.10119 29.4372 6.22284C29.5134 5.84708 29.8806 6.06869 29.8861 5.61723C29.916 5.67671 29.9324 5.7551 29.9378 5.81457C29.965 5.77402 30.0738 5.86596 29.916 5.5713L29.9215 5.67135C29.6385 5.27396 29.6004 4.70087 29.4861 4.47108C29.867 5.34967 29.7827 4.58728 30.2452 5.70646C30.2398 5.63888 30.199 5.48208 30.0875 5.29014C30.1528 5.32799 30.2262 5.4361 30.3078 5.6794C30.3567 5.44962 30.1446 5.16033 30.267 5.10626C30.3432 5.24954 30.3486 5.31724 30.4248 5.49025C30.3378 5.18207 30.2507 4.87117 30.4166 4.93876C30.4574 5.02797 30.5282 5.1334 30.4955 5.14692C30.6479 5.01175 30.3976 4.2547 30.7295 4.41961C31.007 5.0657 30.9036 4.5873 31.2029 5.11445L31.2192 4.90087L31.0369 4.66565C31.1322 4.6251 30.9989 4.19527 31.1703 4.32773L31.2247 4.58183L31.3362 4.38991L31.1321 4.24128C31.0723 3.91687 30.754 3.57351 30.9526 3.65731C30.958 3.7249 31.0451 3.6168 31.2627 3.90336C31.2627 3.90336 31.2627 3.90329 31.2627 3.906C31.2137 3.71406 31.1594 3.51135 31.2981 3.60596C31.4097 3.76546 31.611 4.20066 31.6844 4.30609C31.4804 3.83841 31.8259 4.0682 31.6164 3.56808C31.6599 3.68973 31.815 3.96815 31.8531 4.01952L31.6871 3.64108C31.7932 3.73299 31.8286 3.78709 31.9483 4.01146C32.1088 4.00876 31.5321 3.36269 31.8422 3.57085C31.8477 3.606 31.883 3.65731 31.8885 3.7249C32.1197 3.79248 32.0462 3.34378 32.2802 3.4411C32.623 3.94933 32.2367 3.63845 32.536 4.06017C32.6775 3.85202 32.574 3.19507 32.8325 3.21129L32.7645 3.1734C32.3591 2.41376 33.1182 3.46274 33.0094 3.05724C33.0175 3.12483 33.2188 3.48708 33.178 3.40057C33.3766 3.44653 33.3358 3.06529 33.3902 2.72197L33.4773 2.92749C33.6542 3.05455 33.7358 2.91123 33.8663 2.95178C33.7766 2.74903 33.8418 2.75168 33.6487 2.49216C34.5465 3.42481 33.7738 1.62983 34.5356 2.39487C34.5111 2.4138 34.5737 2.59761 34.5954 2.5868L34.6771 2.30023C34.4676 1.98935 34.5329 2.12181 34.3424 1.89473C34.2499 1.68927 34.2118 1.51085 34.2581 1.48382C34.3043 1.74604 34.5737 1.99744 34.7179 2.15424C34.6526 2.05962 34.5982 1.94347 34.5329 1.84615C34.9791 2.35708 34.1547 1.19186 34.522 1.49464L34.6172 1.66769C34.6145 1.55145 34.5247 1.30273 34.6063 1.31895C34.8566 1.67579 34.6608 1.52444 34.8431 1.82992C34.9056 1.76233 34.5601 1.04055 34.8566 1.36766C34.8893 1.48931 34.843 1.51898 34.873 1.64063C35.2157 2.02991 35.1559 1.9137 35.2539 1.94885L35.243 1.94344L35.4933 2.06237L35.3872 1.96508C35.2811 1.75152 35.2239 1.61355 35.1967 1.52434L34.2853 1.06485C34.6336 1.12703 34.1873 1.25671 34.7832 1.327C34.0676 1.24049 34.3751 1.33515 33.88 1.36488C33.7466 1.41354 33.597 1.48111 33.4583 1.4784C33.8609 1.51625 33.1536 1.61897 33.7439 1.67033C33.5861 1.68655 33.7358 1.74611 33.3358 1.76233C33.4691 1.84343 33.6106 1.7191 33.8092 1.71099C34.3615 1.8056 33.178 2.08943 33.9371 2.23001C34.2581 2.37869 34.7941 2.36788 35.0743 2.50575C34.824 2.57874 34.4921 2.50839 34.4921 2.50839C34.2663 2.61382 34.3125 2.67603 34.503 2.74361C34.3642 2.73821 34.2472 2.76517 34.0704 2.80301C34.1166 2.86519 34.6526 2.80041 34.4241 2.90584C34.2445 2.90584 33.9615 2.90853 33.782 2.88961C33.9343 2.95449 34.2363 3.00847 34.386 3.07876C34.1112 3.12201 33.9615 3.06258 33.7793 3.04906C33.9126 3.13016 34.0486 3.26263 34.4894 3.25722L34.6417 3.187C34.6662 3.21944 34.2662 3.23292 34.1846 3.2167C33.8364 3.16534 34.3289 3.09234 34.4866 3.07612L34.5927 3.12483C35.5177 2.99236 34.4241 2.90586 34.4703 2.78691L35.1505 2.7815L34.5791 2.7085C34.7532 2.66795 35.1287 2.62196 35.2348 2.67062C35.564 2.56249 34.9872 2.6166 35.3545 2.51658C35.4116 2.50306 35.4443 2.50576 35.4715 2.51116L35.262 2.44622C35.4062 2.45163 35.7381 2.39486 35.6456 2.45163C36.0238 2.27592 35.1178 2.25704 35.6266 2.16242L35.6701 2.17047C35.4252 1.98665 35.1723 2.18938 34.5764 2.08665L35.7953 1.88932L35.2974 1.90832C35.3137 1.8867 35.3463 1.84344 35.5477 1.83533C35.2021 1.78397 35.3327 1.86508 35.009 1.84615C35.4524 1.71099 34.775 1.58663 35.564 1.50282C35.1831 1.49742 35.281 1.62167 35.009 1.53516C35.8578 1.43784 34.8539 1.42436 35.2375 1.30271C35.6783 1.2946 35.4525 1.40007 35.8388 1.27843C35.0906 1.28113 35.9884 1.08644 35.8388 1.02155C35.5912 1.04048 35.5041 1.01617 35.4742 0.975619L34.7886 0.0645618L34.571 0.521411C34.5411 0.58629 34.4295 0.572758 34.4268 0.707925C34.3289 0.534911 34.0486 0.556537 33.8337 0.437591L33.7847 0.351131C34.0758 0.870173 33.9126 0.840468 33.899 0.991854C33.7167 0.686377 33.6569 0.556628 33.6161 0.394427L33.5453 0.440363C33.6269 0.613376 33.6568 0.713422 33.646 0.799928L33.431 0.407891C33.3494 0.486288 33.5099 0.972936 33.2324 0.794516C33.4392 1.15406 33.9316 1.7272 33.9398 2.04349C33.8201 1.85426 33.6161 1.52708 33.6025 1.42706C33.6052 1.4595 33.6596 1.61093 33.5861 1.54335L33.4446 1.18642C33.3032 1.07829 33.5779 1.47569 33.5154 1.47299C33.3521 1.19725 33.363 1.29735 33.2406 1.07567C33.2351 1.04323 33.3494 1.16479 33.3004 1.04584C33.2188 1.02692 33.061 0.902629 32.9141 0.705285C33.0121 0.859376 33.1372 1.0756 33.1209 1.13507C33.0366 1.21347 32.8896 0.824242 32.7481 0.716109C32.8379 0.921563 32.6584 0.759347 32.9032 1.17296C32.8733 1.18647 32.7536 0.99723 32.6774 0.8918C32.7345 1.10266 32.4734 1.07831 32.789 1.48381L32.8189 1.50546C32.8216 1.51628 32.8189 1.5163 32.8216 1.52711C32.8978 2.03264 32.3401 1.492 32.2775 1.76233L32.1959 1.62439C32.1905 1.83796 32.0326 1.84345 32.1333 2.18407C32.1034 2.20029 31.9184 1.97046 31.8341 1.79744C31.8205 1.94613 31.8993 2.10563 31.6599 1.93802C31.5973 1.65147 31.5103 1.73789 31.6355 1.71627C31.4695 1.65138 31.3199 1.44062 31.4341 1.88126C31.2655 1.5028 31.1049 1.47305 31.1185 1.60552L31.3307 1.82173C31.309 1.90283 31.2437 1.89749 31.1811 1.89209L30.939 1.40818C30.4166 0.943205 31.1267 2.58146 30.4356 1.70557C30.5662 2.06512 30.675 1.8785 30.8437 2.28941C30.7159 2.27589 30.2425 1.6514 30.2126 1.66492C29.9405 1.47298 30.4765 2.41926 30.2452 2.31383C30.354 2.47332 30.6207 2.9139 30.6071 3.12747C30.4792 3.11665 30.1038 2.48143 30.0875 2.31383C30.1011 2.28679 30.1418 2.33533 30.1717 2.3921C30.169 2.3137 30.1663 2.22186 30.0303 2.05695L30.1119 2.23265C29.9704 2.08667 29.8535 2.17316 29.7338 1.87849C29.7528 2.07854 29.8561 2.17317 29.9541 2.23265C29.7011 2.05152 29.7664 2.32726 29.5542 2.22723C29.6249 2.31104 29.7501 2.50028 29.731 2.50839C29.4372 2.39755 29.8263 2.87331 29.7447 3.01118C29.5352 2.7895 29.4372 2.38129 29.429 2.66243C29.2604 2.52727 29.1706 2.2191 29.1271 2.06501C29.1924 2.45158 28.8033 1.95964 28.7081 1.93261L28.6945 1.76497C28.7026 1.865 28.6727 1.87857 28.6428 1.89209L28.8577 2.21377C28.7924 2.17322 28.7625 2.18677 28.6863 2.04349C28.7706 2.28409 29.0155 2.59486 29.1053 2.93818C28.9665 2.7895 29.0617 3.19779 28.806 2.75444C29.0318 2.83283 28.5503 2.30834 28.6346 2.17047C28.6401 2.23806 28.6101 2.24891 28.5421 2.20836C28.5095 2.1597 28.4986 2.11098 28.4932 2.08124C28.1422 1.74873 28.6999 2.62461 28.5503 2.68949C28.4333 2.42457 28.2619 2.22182 28.2673 2.28941C28.3272 2.26508 28.5177 2.70034 28.5693 2.92472C28.3735 2.77333 28.5476 3.12476 28.485 3.12747L28.5884 3.19241C28.7027 3.45734 28.6401 3.44913 28.6156 3.56267C28.5067 3.36532 28.602 3.39509 28.5339 3.31939C28.6945 3.80599 28.1286 2.9382 28.1857 3.29233C28.0497 3.14365 27.9327 2.81387 27.8321 2.71655C27.8919 3.10854 27.5301 2.42734 27.5546 2.75985C27.764 3.08695 27.7287 3.00046 27.8157 3.37892L27.8865 3.03824L28.0198 3.60055C28.0823 3.57622 28.0334 3.32214 28.0987 3.36269C28.183 3.67357 28.1449 3.58438 28.3217 3.85742C27.9735 3.38163 28.3163 4.2386 28.0416 3.93583L27.609 3.08153C27.2743 2.77065 27.5845 3.64386 27.2934 3.5195L27.4267 3.63843C27.5736 3.98987 27.3369 3.74116 27.3478 3.90877C27.209 3.61951 27.1193 3.533 27.005 3.3681C27.1138 3.57896 26.8635 3.41401 27.1329 3.99523L26.8635 3.65731C26.6404 3.57621 27.1002 4.56029 26.9097 4.53326C26.7982 4.20075 26.635 4.0277 26.6187 3.75737C26.5697 3.77899 26.5017 3.74647 26.5996 3.94652C26.4826 3.77891 26.6595 4.40075 26.4827 4.14663C26.5235 4.2818 26.6649 4.58731 26.5996 4.59002C26.5643 4.53325 26.5316 4.44666 26.5316 4.44666C26.5996 4.58994 26.5425 4.67914 26.7438 4.97651C26.1589 4.14658 26.3602 5.23875 25.8596 4.52507C25.8025 4.67105 25.7209 4.82247 25.6365 4.89005C25.6012 4.80084 25.5685 4.74672 25.6011 4.76835C25.3427 4.56019 25.914 5.63885 25.6229 5.40907C25.3264 4.97654 25.5821 5.11714 25.4515 4.96305C24.9809 4.01688 25.3318 5.17665 24.9727 4.66842L24.97 4.60084C24.7415 4.31158 24.9536 5.0522 24.7958 5.03868C24.7958 5.03868 24.7632 4.95216 24.7305 4.89269C24.8693 5.41984 24.7795 5.65504 24.7197 5.84427C24.5863 5.45229 24.6843 5.61997 24.4857 5.24961C24.4558 5.32801 24.7822 5.85512 24.7224 6.01191C24.5918 5.82268 24.4313 5.6767 24.2382 5.2739L24.3306 5.20632C24.0395 4.7035 24.2055 5.28473 24.1102 5.21714L24.0123 4.98469C23.8899 5.12797 24.1511 5.71184 23.9607 5.74699L24.0558 5.91463C24.2218 6.53369 23.8328 5.62535 23.9334 6.09573L23.645 5.52259C23.6477 5.6902 23.6832 6.18492 23.6206 6.34442C23.49 5.88214 23.5199 5.60097 23.4846 5.30901C23.422 5.33064 23.2995 5.44421 23.3948 5.74699C23.3948 5.6794 23.3621 5.5226 23.4246 5.601C23.5552 6.09571 23.5552 6.36604 23.4301 6.40659C22.954 5.25767 22.9867 6.25528 22.516 5.40643C22.4834 5.91736 22.0154 5.40369 21.7977 5.57671C22.263 6.43096 21.7352 5.63343 22.1378 6.54175C22.1052 6.62556 22.0753 6.62017 22.0453 6.5634L21.64 6.09032C21.4876 5.84161 21.61 5.86592 21.5202 5.66317C21.3651 5.64695 21.3053 5.29825 21.1203 5.08739C21.2727 5.40909 21.2727 5.57404 21.1475 5.47943L21.425 5.86051C21.4495 6.4201 20.9517 5.15228 20.9734 5.70646L20.9108 5.39561C20.889 5.60376 20.5707 5.52532 20.7802 6.29848C20.7204 6.19846 20.598 5.9552 20.6116 5.8741C20.3477 5.84977 20.4375 6.85804 20.0838 6.46876L20.0103 6.23631C19.994 6.31741 20.1055 6.69051 19.964 6.48235C19.9287 6.38774 19.8906 6.24977 19.8661 6.24436C19.8743 6.33087 19.9124 6.68513 19.8063 6.57159L19.7546 6.29848C19.4226 6.08492 19.6648 7.04192 19.5397 7.2663C19.2839 6.59857 19.0282 6.44717 18.903 6.37147L18.8704 6.27683C18.5874 6.28764 18.6555 6.9905 18.5167 7.34193C18.1032 6.6715 17.91 7.2176 17.5264 6.89049C17.6053 7.00133 17.7114 7.41494 17.6924 7.49875C17.589 7.3825 17.7087 8.01776 17.4938 7.39869L17.5182 7.4041C17.2598 6.81477 17.2054 7.01492 17.1101 7.02843L17.3822 7.84208C16.7347 6.74722 16.9251 8.49092 16.43 7.47987C16.4436 7.70154 16.3729 7.72046 16.3865 7.94213L16.2396 7.50693C16.0464 7.44746 15.9512 7.41773 15.7934 7.58534L15.7281 7.26088C15.6111 7.26899 16.0165 8.56113 15.9213 8.62061L15.6737 7.98001C15.4859 8.053 15.1078 7.54472 15.116 8.19623C15.0888 8.09891 15.0317 7.90962 15.0534 7.87178C14.9582 7.88529 14.5664 7.54469 14.8874 8.42868C14.697 7.84476 14.6725 8.4314 14.6507 8.72066L14.5283 8.28546C14.6181 8.86398 14.6616 9.01534 14.5881 9.20457C14.5419 9.15861 14.4521 8.86668 14.5256 8.96671C14.3569 8.76936 14.58 9.39921 14.3895 9.20457L14.346 8.91536C14.2372 8.91266 14.2916 9.05858 14.3379 9.3965C14.3297 9.58843 14.1148 9.3451 13.9787 8.95852C14.0386 9.20182 14.0821 9.53705 13.9896 9.44243C13.9352 9.29645 13.9298 9.19911 13.9271 9.15045C13.6713 8.90715 13.8346 9.72902 13.5897 9.33974C13.5435 9.19646 13.5136 9.12883 13.4918 9.08828C13.6278 9.05854 13.7393 9.04772 13.7393 9.08287C13.6169 8.68548 13.4891 8.64763 13.4047 8.06911C13.4129 8.39622 13.4673 9.09374 13.3067 8.93965C13.2904 8.9018 13.2741 8.86666 13.2524 8.80448L13.2496 8.75577C13.2143 8.72333 13.2034 8.7666 13.2034 8.83959C13.1517 8.78282 13.1136 8.74225 13.081 8.74495C12.9694 8.41784 12.9068 8.60173 12.847 8.60173C12.983 9.03697 12.8905 8.98829 13.0646 9.32891C13.0456 9.29918 13.0592 9.27483 13.0891 9.24509C13.0945 9.22887 13.1 9.22078 13.0973 9.19375C13.1 9.20456 13.1027 9.22075 13.1054 9.23427C13.1354 9.21264 13.1789 9.18831 13.2306 9.16669C13.255 9.40188 13.266 9.59923 13.1354 9.37485C13.1871 9.6587 13.2442 9.95335 13.2714 10.102C13.0157 9.5127 12.779 9.22355 12.6484 8.85319C12.5586 9.14515 12.3138 9.12343 12.4498 9.97769C12.4335 10.0966 12.3273 9.75607 12.2729 9.63172C12.2756 9.54251 12.311 9.54521 12.292 9.42356C12.2593 9.66145 12.0417 9.58576 12.1832 10.167C11.9927 9.93989 12.0988 9.61813 11.9655 9.7587L11.9383 9.5776C11.367 8.74767 11.8322 11.1915 11.1521 10.102C11.1956 10.1669 11.2173 10.1995 11.25 10.2941C10.7086 9.87777 10.5481 11.0077 9.93323 10.2805C9.77816 10.1399 9.85977 10.513 9.86249 10.8131L9.71829 10.3454L9.73736 10.9212C9.66934 11.3646 9.15515 9.82628 9.13067 10.6373L9.23674 10.9509C9.14424 10.9104 9.04086 11.1996 8.96196 10.8266C8.9674 10.886 9.01908 11.1672 8.94834 11.0077L8.88577 10.759L8.80142 11.2321C8.61098 11.0861 8.58653 10.2373 8.36344 10.24C8.30903 10.3562 8.31176 11.0212 8.37978 11.1807C8.41515 11.1861 8.49946 11.3159 8.55931 11.5646L8.51853 11.7133C8.67905 12.4514 8.79873 13.2191 9.10344 13.6867L9.1225 13.2055L9.24763 13.5516L9.14694 13.6003C9.28841 13.922 9.2558 13.6137 9.25036 13.4002C9.30477 13.5867 9.35647 13.7164 9.39728 13.7786L9.35371 13.046C9.43805 13.3299 9.43533 13.6299 9.55775 13.7678C9.53871 13.4272 9.34558 13.1379 9.39183 12.9C9.53331 13.219 9.58227 13.4948 9.58499 13.192C9.64212 13.3785 9.65572 13.5029 9.64755 13.5921C9.65572 13.3488 9.79176 13.4542 9.72919 13.0568C9.89514 13.4515 9.91692 12.8973 10.0829 13.5921C10.0611 13.4218 10.0584 13.019 10.11 12.9784C10.2107 13.8354 10.3413 12.9731 10.5372 13.8706C10.4284 13.1056 10.7412 13.4704 10.7739 13.0189C10.782 13.0811 10.7983 13.2055 10.7739 13.1703C10.8691 13.2109 10.9508 13.4299 11.0378 13.557C10.8882 12.9379 10.9725 12.7649 10.9398 12.3702C11.1901 12.9379 11.0704 13.1082 11.25 13.6705C11.1139 13.1731 11.2881 13.1299 11.1439 12.7217C11.3153 13.0704 11.2554 12.8838 11.4268 13.3839C11.2364 12.6108 11.4622 13.2352 11.3969 12.7486C11.6036 13.1 11.6173 13.4596 11.6717 13.1974C11.7859 13.3866 11.756 13.6867 11.756 13.6867ZM14.1502 11.5889C14.1502 11.5943 14.1529 11.5971 14.1529 11.5971C14.1311 11.6133 14.1148 11.6295 14.1039 11.6403C14.1148 11.6295 14.1284 11.6159 14.1502 11.5889ZM14.3786 11.5106C14.346 11.5025 14.3107 11.5105 14.2726 11.5241C14.2182 11.3754 14.1801 11.2186 14.2046 11.2186C14.2263 11.324 14.3052 11.3943 14.3786 11.5106ZM12.9857 8.62879C13.0021 8.5558 13.0402 8.63957 13.0728 8.72607C13.0592 8.73959 13.0428 8.75858 13.0265 8.79643C13.0292 8.81265 13.0347 8.8342 13.0374 8.85042C13.0156 8.76661 12.9966 8.68826 12.9857 8.62879Z" fill="white"/>
<path d="M13.0943 9.21973C13.0916 9.23061 13.0943 9.24962 13.0889 9.25507C13.1079 9.29315 13.1243 9.32317 13.1406 9.34766C13.1297 9.29869 13.1216 9.25243 13.1134 9.20618C13.1052 9.21162 13.0971 9.21429 13.0943 9.21973Z" fill="white"/>
<path d="M32.7894 1.45071L32.7786 1.44526C32.7922 1.45887 32.803 1.47258 32.8193 1.49707C32.8057 1.47531 32.8003 1.46703 32.7894 1.45071Z" fill="white"/>
<path d="M17.8201 11.3237L17.7819 11.2123L17.7956 11.3156L17.8201 11.3237Z" fill="white"/>
<path d="M34.7175 2.12651C34.7393 2.15915 34.7665 2.19182 34.7937 2.21631C34.7774 2.19182 34.7502 2.16188 34.7175 2.12651Z" fill="white"/>
<path d="M35.2597 1.92114L35.4148 2.01904C35.3359 1.95647 35.2896 1.93202 35.2597 1.92114Z" fill="white"/>
<path d="M33.6864 1.34277C33.7707 1.34005 33.8279 1.33739 33.8823 1.33467L33.885 1.33467L33.6864 1.34277Z" fill="white"/>
<path d="M29.9292 5.79476C29.9237 5.8002 29.9237 5.80839 29.9237 5.82199C29.9292 5.91993 29.9373 5.87366 29.9292 5.79476Z" fill="white"/>
<path d="M31.26 3.88028C31.2818 3.96461 31.3009 4.04618 31.3063 4.10332C31.3553 4.1142 31.3852 4.10881 31.26 3.88028Z" fill="white"/>
<path d="M28.0876 7.33643L28.0848 7.32782C28.0819 7.33071 28.0761 7.3336 28.0703 7.3336L28.0876 7.33643Z" fill="white"/>
<path d="M31.2169 4.14058C31.2931 4.20315 31.3094 4.17053 31.304 4.09979C31.2659 4.08891 31.2115 4.0644 31.2169 4.14058Z" fill="white"/>
<path d="M33.6296 3.21894L33.6133 3.24072C33.6432 3.238 33.6677 3.23807 33.6868 3.23807L33.6296 3.21894Z" fill="white"/>
<path d="M33.6868 3.23784L33.7439 3.25684C33.7412 3.24595 33.7357 3.23784 33.6868 3.23784Z" fill="white"/>
<path d="M33.8616 3.29492L33.7419 3.25414C33.7419 3.27318 33.731 3.29492 33.8616 3.29492Z" fill="white"/>
<path d="M33.7952 2.63518L33.6292 2.64062C33.6618 2.64062 33.7163 2.64062 33.7952 2.63518Z" fill="white"/>
<path d="M33.7328 2.4636C33.6974 2.50713 33.3873 2.59703 33.4961 2.646L33.6294 2.64055C33.3791 2.63239 34.0157 2.47993 33.7328 2.4636Z" fill="white"/>
<path d="M35.7242 1.5797L35.6045 1.73486C35.7786 1.69405 36.0153 1.6424 36.0616 1.70497C36.573 1.48188 35.6698 1.77831 35.7242 1.5797Z" fill="white"/>
<path d="M35.9449 1.11306C36.0319 1.18379 36.2006 1.09133 36.3013 1.08861C36.138 1.05052 36.0972 1.04232 35.9449 1.11306Z" fill="white"/>
<path d="M31.7302 1.64062L31.5289 1.27565C31.5071 1.35675 31.6078 1.41625 31.7302 1.64062Z" fill="white"/>
<path d="M32.2509 3.81389L32.4304 4.01123L32.2672 3.66526L32.2509 3.81389Z" fill="white"/>
<path d="M30.4763 1.41261L30.4681 1.34725L30.4573 1.52686L30.4763 1.41261Z" fill="white"/>
<path d="M25.7591 4.00038L25.9985 4.45459C25.9931 4.35457 25.7509 3.83277 25.7591 4.00038Z" fill="white"/>
<path d="M23.8579 5.44702C23.73 5.22535 23.6021 5.10096 23.6674 5.34696C23.7327 5.35778 23.8606 5.51731 23.8579 5.44702Z" fill="white"/>
<path d="M17.0562 7.24219L17.0453 7.06524L17.0099 7.23129L17.0562 7.24219Z" fill="white"/>
</svg>
