<?xml version="1.0" encoding="UTF-8"?><svg id="Layer_2" xmlns="http://www.w3.org/2000/svg" viewBox="0 0 380.62 164.62"><defs><style>.cls-1{fill:none;}.cls-2{fill:#fff;}.cls-3{fill-rule:evenodd;}</style></defs><g id="Layer_1-2"><g><g><rect x="10.31" y="10.31" width="360" height="144"/><g><polygon class="cls-1" points="380.62 154.31 380.62 0 0 0 0 164.62 370.31 164.62 370.31 144 20.62 144 20.62 20.62 360 20.62 360 154.3 380.62 154.31"/><path class="cls-3" d="M355.39,153.08c-.86-.16-1.77-.17-2.72-.06,.92,0,1.76,.2,2.72,.06Z"/><path class="cls-3" d="M352.81,153.49c-.93,.04-1.76-.19-2.72-.06,.89,.06,1.74,.26,2.72,.06Z"/><path class="cls-3" d="M345.79,152.68c-.95-.11-1.01,.03-2.46,.07,.47,.11,.98,.09,1.47,.14,.61-.07,.32-.14,.99-.21Z"/><path class="cls-3" d="M319.13,148.84c-.38-.06-.77-.12-1.15-.18-.66,.15-1.23,.04-1.88,.16,.95,.17,1.97,.17,3.04,.02Z"/><path class="cls-3" d="M347.67,153.41c.5-.12-1.5-.27-2.08-.14-.05,.16,.71,.06,1.44,.22,.1-.06,.23-.13,.64-.08Z"/><path class="cls-3" d="M314.91,148.73c-1.17,0-1.16-.15-1.74-.27-.54,.14-.3,.28,.46,.43,.42-.05,.85-.11,1.27-.16Z"/><path class="cls-3" d="M329.83,152.19c.42-.15-1.72-.22-2.43-.02,.75,.2,1.67-.14,2.43,.02Z"/><path class="cls-3" d="M303.5,148.31c-.45-.02-1.33,.05-.9-.05-.58-.1-1.26,.12-1.88,.16-.43-.16-1.42-.24-2.63-.31-.08,.34-2.14,.3-3.79,.4,.91,.02,1.84-.03,2.69,.15,.06-.23,.57-.13,1.91-.24,.06,.06,.14,.11,.55,.17,.84-.1,1.65-.09,2.43,.02,.82-.09,1.58-.19,1.62-.29Z"/><path class="cls-3" d="M325.93,152.03c-.39-.06-.77-.12-1.16-.18-.06,.06-.42,.18-.95,.12-.5,.12,1.5,.23,2.11,.06Z"/><path class="cls-3" d="M321.88,153.19c-.9-.06-1.82-.02-2.78,.11,.94,.04,2.67,.1,2.78-.11Z"/><path class="cls-3" d="M278.32,147.21c-.84-.14-2.4-.11-2.46,.07,.82,0,1.61,.03,2.46-.07Z"/><path class="cls-3" d="M312.8,153.05c-1-.03-1.94-.25-3.04-.02,.99,.06,1.99,.13,3.04,.02Z"/><path class="cls-3" d="M281.89,150.08c-1.3-.08-1.19,.11-2.81,.19,.4,.01,.8,.03,1.19,.09,.54-.28,2.01-.04,1.63-.29Z"/><path class="cls-3" d="M302.27,153.57c-.42,.14,1.74,.15,2.31,.36,.97-.18-1.45-.27-2.31-.36Z"/><path class="cls-3" d="M291.75,153.2c-1.02,.01-2-.07-3.06,.06,1.19,.07,2.41,.08,3.58,.19,1.08-.08-1.59-.18-.52-.26Z"/><path class="cls-3" d="M258.79,148.22c.46-.26-1.78-.06-2.4-.1-.44,.21,1.78,.06,2.4,.1Z"/><path class="cls-3" d="M256.36,149.1c.65,.17,1.45-.08,2.08,.14,.58-.11,.62-.22,.11-.34-.91,.21-2.15-.01-2.19,.2Z"/><path class="cls-3" d="M239.61,146.52c-1.08-.11-2.17-.19-3.33-.06,1.11,.03,2.19,.12,3.33,.06Z"/><path class="cls-3" d="M298.5,155.67c-.55-.16-1.2-.06-1.76-.18-1.12,.11-.4,.22,.49,.34,.42-.05,.85-.11,1.27-.16Z"/><path class="cls-3" d="M290.67,154.56c-.75-.19-1.57-.14-2.37-.19-.41,.13,1.66,.38,2.37,.19Z"/><path class="cls-3" d="M292.17,155.5c-.19-.05-.4-.03-.61,0-2.35-.23-4.85-.04-7.23-.22-1.39,.13-.57,.28-1.36,.42,1.33,.14,1.13-.14,2.17-.11,1.11,.12,.29,.21,1.44,.22,.12-.23,1.84-.16,2.83-.28,.66,.16,1.38,.12,2.05,.23,1.39-.08-.69-.17,.7-.25Z"/><path class="cls-3" d="M241.9,148.66c.62,.06-1.21,.15-1.56,.12-.71,.22,1.17-.03,1.47,.14,1.27-.09,.53-.19,1.02-.29-.78-.09-1.58-.14-2.37-.19-.87,.13,.64,.22,1.44,.22Z"/><path class="cls-3" d="M312.09,159.46c-.98-.1-1.92-.3-3.01-.1,1,.05,1.96,.2,3.01,.1Z"/><path class="cls-3" d="M312.29,159.76c.51-.15-1.53-.16-2.11-.06,.63,.24,1.42-.01,2.11,.06Z"/><path class="cls-3" d="M308.16,159.39c-.84,.09-.53,.19-1.01,.29,.5,.04,1.01,0,1.5,.05,.43-.11,.08-.23-.49-.34Z"/><path class="cls-3" d="M238.23,148.72c.17-.26-2.39-.1-3.26-.23-.91,.28,2.2,.25,3.26,.23Z"/><path class="cls-3" d="M318.44,162.22c-.9-.06-2.31,.06-4.05,.27,1.34-.08,2.65-.05,4.05-.27Z"/><path class="cls-3" d="M226.79,148.39c-.05,.14,1.43,.33,2.37,.19,.05-.13-1.41-.38-2.37-.19Z"/><path class="cls-3" d="M290.07,158.03c-.94-.17-4.42-.06-2.81,.19,.99-.22,1.86-.11,2.81-.19Z"/><path class="cls-3" d="M269.76,155.18c-.14-.23-2.95-.25-4.25-.03,.6,.06,.29,.12-.06,.17,1.35,.21,2.94-.28,4.31-.14Z"/><path class="cls-3" d="M302.52,160.75c-1.14-.21-2.36-.21-3.61-.11,1.23-.04,2.34,.26,3.61,.11Z"/><path class="cls-3" d="M221.06,148.22c-.45-.01-.9-.03-.58-.09-1.99,.18-3.82-.1-5.81,.09,2.85,0,4.09,.49,6.39,0Z"/><path class="cls-3" d="M276.77,157.77c-.64-.19-1.44,.06-2.17,.11,.4,.01,.8,.03,1.19,.09,.06-.07,.41-.14,.98-.21Z"/><path class="cls-3" d="M214.06,148.22c.77-.15-.92-.06-1.15-.18,.5,.26-1.06,.01-2.2,.2,.63,.23,1.48-.17,2.11,.06,.43-.06,.86-.12,1.25-.08Z"/><path class="cls-3" d="M210.45,148.11c-1.93-.08-2.25-.42-3.88-.24,1.84,.15-.61,.28,1.07,.43,.14-.3,1.8-.04,2.8-.19Z"/><path class="cls-3" d="M275.23,159.59c-1.4-.06-3.43,.06-2.23,.28,1.2-.13,1.65-.09,2.23-.28Z"/><path class="cls-3" d="M200.13,148.04c-1.14-.2-2.42-.05-3.61-.11-.58-.1,.18-.2,1.01-.29-2.09-.13-2.1,.3-4.95,.22,.55,.19,.63,.1,1.74,.27,1.39-.15-.45-.05-.84-.22,2.23,0,4.37,.28,6.65,.13Z"/><path class="cls-3" d="M229.06,154.1c-1.28-.13-2.85,.04-3.41,.19,1.32,.03,2.83,.04,3.41-.19Z"/><path class="cls-3" d="M247.74,157.24c-1.11-.02-.34-.06-1.15-.18-.56,.1-.27,.2-.41,.29,.49,.05,1.04-.06,1.56-.12Z"/><path class="cls-3" d="M220,156.54c-1.3-.05-2.61-.08-3.99,.1,1.28-.07,3.62,.12,3.99-.1Z"/><path class="cls-3" d="M237.4,161.63c-.67-.12-1.4-.07-2.08-.14-1.08,.08,1.58,.18,.51,.26,.5,.05,1.04-.06,1.57-.12Z"/><path class="cls-3" d="M252.38,164.02c-1.18-.11-2.42-.02-3.7,.15,1.19-.03,3.42,.04,3.7-.15Z"/><path class="cls-3" d="M188.86,155.05c-.38-.06-.77-.12-1.15-.18-.11,.06-.22,.13-.64,.08-.59,.13,1.29,.25,1.78,.1Z"/><path class="cls-3" d="M229.79,162.51c-1.27-.15-2.64,0-3.87-.24-.58,.1,.13,.2,.2,.3-.87,.07-2.13-.09-2.17,.11,.69,.07,1.46-.12,2.11,.06,.64-.3,2.28-.04,3.73-.23Z"/><path class="cls-3" d="M182.76,155.99c-.51,0-.98-.1-1.5-.05-1.01,.11-.09,.3,.8,.3,1.39-.08-.69-.17,.7-.25Z"/><path class="cls-3" d="M212.12,162.56c-.04-.21-4.01-.3-4.25-.03,1.43-.02,2.89-.14,4.25,.03Z"/><path class="cls-3" d="M214.34,164.06c-.97-.14-1.99-.1-3.07,.06,1.03-.03,2.01,.05,3.07-.06Z"/><path class="cls-3" d="M197.18,161.78c-1-.04-1.98-.16-3.04-.02,.99,.06,1.99,.13,3.04,.02Z"/><path class="cls-3" d="M186.36,161.37c-.68-.08-1.43,.02-2.11-.06-.34,.07,.45,.14,.84,.22,.42-.05,.85-.11,1.27-.16Z"/><path class="cls-3" d="M181.77,161.46c-.76-.16-1.62,0-2.4-.1-.4,.09,1.69,.3,2.4,.1Z"/><path class="cls-3" d="M139.48,155.31c-.33,.03-.19,.06-.03,.09-.42,.04-.79-.05-1.19-.09-.74,.05-.47,.3-1.59,.2-1.09,.15,1.63,.06,.55,.17,.95-.02,3.84-.16,2.26-.37Z"/><path class="cls-3" d="M136.03,155.59c-.38-.09-.79-.05-1.22,0-.43-.06-.87-.12-.54-.17-.49-.05-1.04,.06-1.56,.12,.48,.07,.96,.15,1.44,.22,.66-.15,1.23-.04,1.88-.16Z"/><path class="cls-3" d="M129.33,154.74c-.79-.06-1.62-.01-2.46,.07,.76,.16,1.61,.06,2.46-.07Z"/><path class="cls-3" d="M165.26,160.8c-1.29-.06-1.27,.24-.72,.33,1.53,.01,.45-.21,.72-.33Z"/><path class="cls-3" d="M167.51,161.32c-1.56-.08-3.8-.22-4.6,.1,1.55-.08,2.98,.2,4.6-.1Z"/><path class="cls-3" d="M163.12,160.83c-1.02,.03-2.01-.05-3.06,.06,1,.05,2.02,.01,3,.11,.28-.05-.36-.12,.06-.17Z"/><path class="cls-3" d="M158.21,160.07c-2.69,.07-3.28-.08-1.65,.37,1.32-.12,1.21-.25,1.65-.37Z"/><path class="cls-3" d="M120.2,154.76c-.97-.13-1.98-.14-3.04-.02,1,.04,1.97,.16,3.04,.02Z"/><path class="cls-3" d="M105.46,154.28c-2.93,.22-5.37,.01-7.11,.33,2.23,0,4.46,0,6.74-.12,.29,.06-.34,.11-.67,.17,2.02,.16,2.19-.18,1.05-.38Z"/><path class="cls-3" d="M139.85,160.37c-1.56-.13-.66,.32-1.59,.2-.17,.28,2.07-.1,1.59-.2Z"/><path class="cls-3" d="M138.29,160.49c-.89-.06-1.8-.06-2.77,.11,.89,.06,1.82,.02,2.77-.11Z"/><path class="cls-3" d="M91.37,154.52c-.38-.06-.77-.12-1.15-.18-.61,.07-.32,.14-.99,.21,.72-.03,1.39,.08,2.14-.03Z"/><path class="cls-3" d="M118.31,159.29c-.48,.1,.25,.2-1.01,.29,1.42,.06,3.23-.25,1.01-.29Z"/><path class="cls-3" d="M75.1,162.82c-1.41-.26-2.64,.03-2.81,.19,.91,0,1.87-.11,2.81-.19Z"/><path class="cls-3" d="M44.48,162.49c-1.26-.17-1.22,.21-2.75,.02-.58-.16,1.2-.1,1.59-.2-1.2-.11-2.26,.01-2.81,.19,.79,.02,1.1,.07,1.15,.18-1.39,.21-2.6-.13-3.99,.1,.71,0,1.44-.03,2.08,.14,1.78-.2,3.35-.1,4.25,.03,.07-.16-1.27-.32,.46-.46Z"/><path class="cls-3" d="M32.92,162.49c-.39-.06-.77-.12-1.15-.18-1.21,.15-1.23,.07-1.91,.24,1.05,.15,2.86-.2,1.79,.1,.77,.1,1.16-.12,1.27-.16Z"/><path class="cls-3" d="M28.43,162.25c0,.11-1.09,.22-1.93,.33l.86,.13c.33-.05,.63-.06,.93-.04,.07-.16-.28-.11,.98-.21-.55-.08-.22-.14-.84-.22Z"/><path class="cls-3" d="M23.64,162.05c-1.1,.16-1.97,.01-3.16,.15,1.4,.11,2.7-.08,3.96,.15,.63-.18-.43-.11-.8-.3Z"/><path class="cls-3" d="M17.06,162.44c1.66-.09,2.27-.19,.78-.29-.72,0-1.44,.02-2.21,.08,0,.07,.51,.14,1.44,.22Z"/><path class="cls-3" d="M15.56,162.31c-.97-.07-.36-.14-1.41-.22-1.09,.06-.66,.18-1.72,.12-.64,.07,.74,.15,1.39,.22,.58-.04,1.16-.08,1.75-.12Z"/><path class="cls-3" d="M11.96,162.63c.4-.09-3.52-.37-5.23-.19,1.69,.09,3.35,.23,5.23,.19Z"/><path class="cls-3" d="M2.53,142.37c-.16-.76-.1-1.45-.2-2.2-.17,.66,.03,1.43-.14,2.08,.11,.64,.22,1.3,.34,.12Z"/><path class="cls-3" d="M2.46,132.91c.11-.78,.11-1.59,.02-2.43l-.18,1.15c.05,.42,.11,.85,.16,1.28Z"/><path class="cls-3" d="M2.54,127.16c.06-1.2,.07-2.41,.11-3.61-.09-1.01-.21,1.83-.3,.81-.05,.75,.07,.62,.12,.95,.04,.62-.1,1.18,.07,1.85Z"/><path class="cls-3" d="M2.1,123.05c.08-.68-.11-1.46-.03-2.14-.16,.1-.19,.91-.23,2.05,.08,.57,.18-.73,.25,.09Z"/><path class="cls-3" d="M2.79,116.29c-.23-1.91,.02-3.65,.04-5.46-.25-1.27-.31,2.15-.53,2.85,.24,.35,.26-.1,.33,1.94-.19,1.25-.32,1.03-.32,2.62,.24,.33,.29-.37,.48-1.96Z"/><path class="cls-3" d="M2.24,115.79c.07-1.29-.03-2.64,.07-3.93-.12,.08-.31,2.72-.07,3.93Z"/><path class="cls-3" d="M2.07,109.34c.09-.48,.04-1,.14-1.47-.12-.88-.26,.68-.38-.44-.03,.59,0,1.22,.07,1.85,.14-1.23,.04-1.27,.17,.06Z"/><path class="cls-3" d="M2.09,100.53c.11-.47,.09-.98,.14-1.47-.1,.21-.19-.58-.3,.2,.16,.15,.05,.43,.16,1.27Z"/><path class="cls-3" d="M24.83,3.65c1.47,.15,3.03,.05,4.6-.1-1.3-.08-2.57-.21-3.88-.24-.49,.11-.43,.22-.72,.33Z"/><path class="cls-3" d="M54.56,3.04c.65,.18,1.43-.01,2.11,.06,.5-.12-1.51-.23-2.11-.06Z"/><path class="cls-3" d="M85.47,3.42c-.05,.17,2.56,.19,3.64,.02-1.19-.07-2.43-.02-3.64-.02Z"/><path class="cls-3" d="M100.32,3.56c1.48-.11,4.14-.1,4.66-.27-1.43-.02-4.11,.02-4.66,.27Z"/><path class="cls-3" d="M130.22,3.34c1.09,.1,2.23,.01,3.33,.06,.13-.13-2.33-.25-3.33-.06Z"/><path class="cls-3" d="M161.61,4.06c.13-.1,.9-.19,1.02-.29-.6-.03-1.22,0-1.85,.07,.56,.07,.22,.14,.83,.22Z"/><path class="cls-3" d="M263.65,18.69c2.39,.13,4.96-.25,7.34-.12-1.11-.32-5.07,0-7.34,.12Z"/><path class="cls-3" d="M271.34,18.44c.97,.14,1.99,.1,3.06-.06-1-.04-2.02-.02-3.06,.06Z"/><path class="cls-3" d="M218.73,3.47c.27-.07,.28-.14-.23-.21,2.04,.01,2.55,.03,4.88-.05-1.99-.12-4.01-.13-6.07-.04,1.11,.11,.73,.2,1.41,.31Z"/><path class="cls-3" d="M228.24,4.13c0-.13,1.43-.25,.43-.38-1.23,0-1.35,.24-.43,.38Z"/><path class="cls-3" d="M225.78,3.31c-.34,.07,.46,.15,.84,.22,.83-.08,1.18-.16,1.3-.25-.68-.08-1.48,.17-2.14,.03Z"/><path class="cls-3" d="M298.42,2.7c1.12,.08,1.65-.11,2.2-.2-.6-.03-1.22,0-1.85,.07,.27,.04-.17,.08-.35,.13Z"/><path class="cls-3" d="M303.16,2.18c.78,.08,1.92-.18,1.91-.24-1.3-.01-1.89,.09-1.91,.24Z"/><path class="cls-3" d="M308.53,2.47c2.6,.12,5.27,0,7.93-.03-.52-.2,1.11-.16,2.23-.28-3.66,0-6.12,.24-10.15,.31Z"/><path class="cls-3" d="M317.71,2.36c1.07,.12,2.25-.06,3.38-.11-1.09-.09-2.21-.08-3.38,.11Z"/><path class="cls-3" d="M322.3,2.26c1.22,0,2.4,.11,3.65,.02-.17-.14-2.4-.23-3.65-.02Z"/><path class="cls-3" d="M325.54,2.58c1.51,.02,2.09,.11,2.98,.19,.89-.17,1.5-.18,.75-.42-.32,.29-2.51,.08-3.73,.23Z"/><path class="cls-3" d="M328.19,.22c-.43,.19,1.76,.11,2.43,.02-.47-.11-.99-.09-1.48-.14-.6,.06-.33,.18-.95,.12Z"/><path class="cls-3" d="M341.9,1.89c-.32,.03-.19,.05-.02,.08,.19,.03,.38,.06,.57,.09,.89-.2,3.99,0,5.88-.26-.39-.05-.44-.09-.26-.13-1.46,.1-2.87,.08-4.34,.23-1.46-.22,.75-.15,.72-.33-.66-.14-1.51,.25-2.17,.11-.49,.05,1.26,.31-.38,.21Z"/><path class="cls-3" d="M333.68,.17c1.92,.03,3.85,0,5.84-.17-1.92-.01-3.88,.07-5.84,.17Z"/><path class="cls-3" d="M349.86,1.77c.99-.01,.9,.28,2.34,.27-.48-.17-.19-.27,1.33-.33-1.18-.1-2.43,0-3.67,.06Z"/><path class="cls-3" d="M352.09,1.49c1.38,.1,2.86-.04,4.31-.14-2.07-.08-2.47,.06-4.31,.14Z"/><path class="cls-3" d="M370.67,1.54c.77-.07-1.32-.15-.31-.21-1.89-.01-3.9,.08-5.84,.15-.97,.03-1.93,.06-2.87,.06-.47,0-.93-.01-1.4-.02-.27,0-.37-.02-.49-.03l-.37-.04c-.01,.06,.05,.1,.17,.13,.06,.02,.13,.03,.22,.04,.04,0,.09,0,.14,.01,.07,0,.15,0,.23,0,.81,.02,1.95,0,3.21-.03,2.52-.06,5.57-.15,7.31-.07Z"/><path class="cls-3" d="M358.86,1.28l.79,.03c.39,0,.79,0,1.18,0,1,0,2.02-.03,3.04-.06,2.08-.08,4.19-.15,6.27-.23-1.93-.08-4.01-.04-6.09,.03-1.03,.04-2.08,.08-3.12,.12l-.77,.03-.48,.03-.82,.05Z"/><path class="cls-3" d="M367.65,.63c-.57,.23,4.27,0,5.99-.06-1.83-.12-4.12,.15-5.99,.06Z"/><path class="cls-3" d="M369.71,.9c3.24,.07,6.25,.21,10.05-.09-3.59,.19-6.49-.1-10.05,.09Z"/><path class="cls-3" d="M379.36,7.77c.21-3.43,.38,.61,.29,2.9-.17,1.54-.22-1.38-.29-2.9-.21,1.51,.08,3.05-.1,4.54,.19,.54,.38,2.74,.55,5.33,.04,.65,.08,1.32,.12,1.99,.02,.33,.04,.67,.05,1,.02,.17,.03,.34,.05,.51,.06,.67,.12,1.28,.16,1.76,.15,0,.1-1.05-.02-2.12-.07-.98-.14-1.97-.2-2.77-.07-.81-.13-1.37-.18-1.47,.25-.31,.06-4.43,.31-2.83-.23-4.03-.5-7.38-.84-12.35-.41,.04-1.07,.08-1.75,.12,.51,.03,1.03,.04,1.57,.05-.02,2.09,.11,4.12,.27,6.24Z"/><path class="cls-3" d="M379.77,22.13c-.07-.34-.14,.46-.22,.84,.03,.82,.19,1.69,.15,2.49,.07,.13,.14-.33,.21,.37,.03-.59,.06-1.19,.1-1.79-.11-.86-.38-.28-.24-1.91Z"/><path class="cls-3" d="M379.41,25.66c.02,.93,.11,3.09,.29,1.62-.09-1.18-.19-.87-.29-1.62Z"/><path class="cls-3" d="M379.91,27.66c-.2-.62-.02,1.36-.18,1.76,.16,.33,.17-.02,.25,1.3,.14-.97-.08-2.06-.06-3.06Z"/><path class="cls-3" d="M368.54,153.77c.43,.1-1.01,.19,.2,.3,.53-.08,1.03-.03,1.57-.12-2.46-.04,1.26-.75-1.45-.22-2.62-.05-5.27,0-7.83-.22-1.24,.18-1.62,.11-2.11-.06-.27,.05,.36,.11-.06,.17-1.18,.08-.31-.16-1.44-.22-.33,.2-.95,.17-2.6,.49,1.08,.08,2.26-.1,3.41-.19,.83,.24,1.79,.09,2.71,.06,1.86,.4,4.96,.2,5.96,.38,1.41-.17-1.45-.33-2.02-.31,1.28-.19,2.38,.15,3.67-.06Z"/><path class="cls-3" d="M342.68,152.02c-1.58-.12-3.21-.09-4.86-.03,1.08,.09,.3,.17,1.13,.26,.66-.35,2.3-.1,3.73-.23Z"/><path class="cls-3" d="M335.1,151.93c-.89,0-1.23,.09-.38,.21-.42,.04-.79-.05-1.19-.09-1.18,.09-.86,.19-1.62,.29-1.82-.02-3.61-.11-5.49,.05-2.08-.44-4.44-.08-6.62-.21,.24-.34,3.44-.1,3.79-.4-3.41,.11-5.35-.2-9.16,.11-.85-.19-1.41-.36-3.01-.11-.76-.19-.28-.4,1.07-.46-.46-.12-1.02,.01-1.5-.05,.55,.15-1.44,.27-.15,.42-2.05-.23-4.28,.07-6.39,0,2.83-.16,4.66-.33,5.29-.35-.81-.31-4.49,.1-6.45,.17-.08-.22-2.19-.17-3.29-.15-.28,.06,.36,.12-.06,.17-.32,.02-.62,0-.93,.04-.08-.07,.43-.14-.23-.21-2.53-.02-5.12,.14-7.66,.16-.18-.04,.03-.08-.26-.13,2.73-.07,3.66-.21,6.19-.3-2.06-.21-4.24-.05-6.33-.17-.77,.15,.92,.06,1.16,.18-.54,.1-1.04,.08-1.56,.12-1.36-.13-.3-.34-1.71-.35-.61,.07-.32,.14-.98,.21,.29,.04,.61-.01,.92-.04,.67,.1,.41,.44,1.16,.18,1.72,.24-.45,.33-1.62,.29,1.56-.12-1.69-.16-.49-.34-.78-.08-1.69,.21-2.49,.15-.84-.17,1.37-.27,2.23-.28,.79-.11-.67-.23,.12-.34-1.08-.12-2.26,.07-3.33-.07,.12-.19,1.26-.12,1.94-.33-1.03-.25-2.26,.07-3.3-.15-.6,.15,1.35,.08,1.73,.27-.91-.01-1.83,.01-2.71-.06,1.3,.18,.55,.28,.14,.47-.31,.02-.6,0-.92,.04-1.33-.09,.81-.16-.52-.26-1.41,.27-8.45,.02-7.81-.31-.86,.15-1.87,.06-1.91,.24-1.56-.14-.45-.26-1.39-.39,1.5,.05,3.08-.11,4.57-.01-.85-.19-4.38-.24-6.33-.17-.57-.09,.5-.17-.52-.26-1.33,.12-2.71,.26-4.57,.01-.24,.22-1.51,.18-.76,.42-.84-.19-2.07,.08-3.61-.11,.79,.31-2.53,.11-2.55,.32-2.16-.14,1.36-.25-.17-.38-.97,.17-1.89,.17-2.78,.11-.08-.1,.27-.2,.4-.29,3.16-.09,6.13,.09,8.56-.11-.65-.17-1.45,.08-2.09-.14-4.11,.46-7.8-.32-11.88,.05-3.71-.45-10.91-.04-12.6-.51-1.21-.04-2.42-.05-3.62-.11-.74,.32-2.76,.07-4.31,.14-.09-.07,.43-.14-.23-.21-.18,.22-2.35,.21-2.14,.03-3.43,.23-6.64-.16-10.03-.03,.92,.13-.79,.19-1.3,.25-.52-.1,1.32-.19,1.01-.29-2.76-.23-5.69,.03-8.53,.03,.17-.32-3.23-.36-3.91-.15-.55-.16-1.19-.06-1.76-.18-1.66,.46-7.7-.24-11.31,.14-2.53-.49-7.7,.25-9.65-.24,.89,.05,1.83,0,2.74-.02-.61-.24-3.74,.07-6.07-.04-.95-.05-4.33-.33-4.54-.07-.64,.09-1.17-.14-1.76-.18-2.19,.15-4.26,0-6.45,.17-2.46-.18-7.85-.16-11.8-.21-23.46-.38-46.96-.66-70.49-.86-21.02-.13-42.07-.27-63.13-.4,.14-29.59,.06-99.25-.05-129.02l14.95-.06c.86,.1,.08,.2-.41,.3-3.62-.15-7.3-.11-10.99-.06h-.69s-.19,.02-.19,.02l-.35,.02-.69,.03c-.46,.01-.92,0-1.43-.04l-.03,.25c.17,.31,.15,.38,.2,.7-.08,.01-.03-.15-.12-.32-.11,.24,.21,.74-.02,.91,.11,.28,.23,.07,.34,.3-.11,.14-.18,.35-.22,.59l-.03,.19c0,.24-.01,.48-.02,.72,0,.54,0,1.09-.01,1.65,0,2.25,.09,4.63,.2,6.8-.08,3.42-.21,6.82,.01,10.35-.04,.39-.09,.44-.13,.26,.23,5.44-.1,12.94,.23,16.51-.12,.82-.16,.05-.18,1.15,.05,.33,.11-.26,.17-.55-.29,6.81,.23,12.39-.13,19.43,.28,.69,0,4.11,0,5.79,0,2.81,.27,4.86,.04,6.1,.18,2.49,.18,4.93-.05,7.29,.08,1.39,.17-.69,.25,.7,.1,.31-.14,1.88-.18,1.15,.22,1.7,.01,3.25,.14,4.92-.06,.61-.12,.3-.17-.06,.22,2.2,.06,4.27,.17,6.45-.32,.15-.03,.15-.18,1.76,.11,.04,.21,.8,.2,1.59-.07,.01-.14,.32-.22,.84,.32,1.51-.13,4.38,.2,7.37-.07,.51-.14,.51-.21,.23,.09,3.58-.03,11.9,.17,12.84,.04,1.84-.25,3.56,.05,5.5-.1,.82-.19,1.98-.22,3.03-.02,.53-.02,1.03,0,1.45v.15s.01,.03,.01,.03l.02,.06s.04,.07,.06,.09c-.05,.73-.08,1.48-.09,2.21,1.33,0,2.65,0,3.99,0,4,0,8.07,.02,12.31,.09,.59-.05,.27-.11,.66-.17,.9,.13,1.24,.08,2.66,.23,6.39-.25,15.11,.28,22.55-.1,.56,.07,.22,.14,.84,.22,2.85-.03,5.73-.14,8.53-.03-.09-.12-.7-.49,2.03-.58,.77,.17,.05,.27,1.7,.35,.41,.13-1.69,.29-2.17,.11-1.17,.2,1.96,.31,1.79,.1,3.74,.34,7.74-.11,11.48,.25,.93-.29,3.48-.18,5.15,.08,.65-.05,.37-.11,.06-.17,3.39,.16,6.87,.07,10.26,.24,.31-.07-.01-.14,.38-.21,4.9,.17,11.8-.1,15.4,.32,.3-.04-.11-.09-.26-.13,5.44,.11,10.95,0,16.33,.28,3.93-.17,10.31,.05,15.18,.1,1.19-.09-.19-.2,1.01-.29,.42-.02,.83-.03,1.22,0-1.3,.46,3.69,.24,5.34,.38,.63-.23-1.36-.05-1.76-.18-.49-.18,1.42-.12,1.88-.16,1.87,.56,6.04,.24,8.96,.49,1.19-.09-.18-.2,1.01-.29,.42-.03,.78,.06,1.21,0,.3,.07-.55,.14-.98,.21,.87,.12,1.78,.12,2.75-.02,.07-.08-.97-.18,.09-.25-.58-.09-1.24,.05-1.79-.1,1.07-.17,2,.07,3.09-.15,.92,.26,1.98,.14,2.98,.19,.2,.21-1.98-.06-2.77,.11,1.88,.3-.87,.1-1.59,.2,2.84,.32,2.67-.03,5.4,.21,.54-.08-.78-.17-.52-.26,.32-.04,.6,.02,.9,.05,.5-.11,.22-.16-.55-.17,1.6-.23,3.09-.13,4.69-.35,.91,.09,1.43,.1,1.13,.26,1.32,0,2.76-.34,4.02-.18,.68,.09-1,.16-1.3,.25,.97,.12,1.87-.09,1.59-.2,.96-.12,1.76,.18,2.72,.06,.32,.09-.75,.16,.52,.26,1.48-.32,6.15-.36,6.1-.04,1.33-.02,2.59,.14,3.99-.1,1.55,.35,4.12-.03,4.77,.29,1.75-.5,5.53,.3,8.24-.07,2.49,.13,5.07,.01,7.54,.18,.81,.12-1.55,0-.06,.17,4.19-.37,8.04,.2,12.17,0-.48-.08-1-.04-1.47-.14-.23-.06,.44-.11,.06-.17,1.81,.05,3.56,.27,5.38,.29,.35-.1-.48-.09-.86-.13-.5-.16,1.36,.04,1.88-.16,.06,.11,.35,.16,1.15,.18,1.72-.47,4.77,.2,7.35-.12,1.06,.12,1.01,.23-.11,.34,.75,.16,1.62,0,2.4,.1,.34-.07-.47-.14-.84-.22,.87-.17,1.67-.12,2.49-.15,.43,.09,.11,.17-.69,.25,2.18-.15,4.25,.01,6.39,0,.32,.09-.76,.17,.52,.26,1.34-.43,7.72-.09,9.84-.27,.62,.21,3.06,.17,1.09,.35,1.29,.05,1.44-.06,1.59-.2,1.28-.02,1.47,.42,3.27,.23-.56-.15-1.22,0-1.79-.1,.42-.04,.5-.08,.34-.13,3.03,.04,5.98,.3,9.14-.02-.15,.23,.1,.21,1.07,.43,.97-.12-.22-.26-.78-.39,1.74-.34,3.17,.23,4.88-.05,1.81,.17-.86,.31,.14,.47,1.16-.15,.61-.31,1.07-.46,1.21-.15,1.15,.17,1.79,.1,.29,.07-.56,.14-.99,.21,1.05,.07,2.74-.05,2.2-.2,2.04,.3,2.08,.04,3.53,.36,2.04-.16,2.21-.09,4.26,.03,.3-.11-.77-.23,.73-.33l-1.45-.22c-1.11-.01-.6,.22-1.82-.01-.65,.05-.38,.11-.06,.17-1.87-.03-7.76,.03-6.56-.38-.57-.1-1.26,.12-1.88,.16-.99-.18-.11-.31,1.04-.37-.62-.06-3.72-.05-2.49,.15-1.34,.06-2.58-.14-3.99,.1-.52-.1,1.32-.19,1.01-.29-1-.18-4.21,.13-3.27-.23-.74-.1-1.12,.12-.67,.17-1.11,0-2.22-.02-3.29-.15-.31,.07,.01,.14-.38,.21-.73,.07-1.4-.04-2.14,.03-.04-.07,.14-.14,.38-.21-2.69,.16-5.32,.12-7.93,.03-.66-.12,.95,0,1.27-.16-.87-.13-1.84,.06-2.69-.15,1.25-.09,2.46-.09,3.62,.11,1.03-.35,4.16,.08,6.13-.13-3.99-.14-7.59-.06-10.9-.16-.76,.15,.92,.06,1.15,.18-2.02,.22-1.88-.38-3.9-.15,.59,.03,1.2,.06,1.79,.1-.89,.22-1.6-.06-2.49,.15-.76-.08-.1-.14,.38-.21-.5-.02-1.03,.05-1.5-.05-.59,.29-5.78,.08-8.21-.01-.48-.21,1.34,.1,1.85-.07-4.17,.04-8.33,.03-12.43-.13-.29-.07,.56-.14,.98-.21-1.23-.22-2.29,.07-2.2,.2-1.83,.04,.08-.25-1.7-.35-1.72,.09,1.14,.21,.2,.3-2.53-.03-5.14,.21-7.57-.09-1.01,.29-2.1,.15-3.74,.23-1.08-.09-.3-.17-1.12-.26-1.99,.17-3.89,.11-5.81,.09-.4-.16,1.62-.1,2.17-.11-1.22-.18-3.54-.08-5.2,.09-1.13-.11,.31-.2-.81-.3,.89-.14,2.16-.01,2.2-.2-3.83-.04-6.39,.06-9.84,.27-1.66-.14,1.16-.25-.17-.38-3.25,0-6.51,.03-9.66-.23-1.7,.27-2.75,.03-3.64-.03-.63,.08,.38,.17-.7,.25-2.27-.3-7.9,.13-8.12-.27-3.78,.02-9.01-.26-11.85-.04-1.84-.25-3.85,0-5.67-.34-1.4,.23-2.64,0-4.05,.27-1.08-.09-.3-.17-1.13-.26-7.08-.05-14.2,0-21.19-.31-.22,.11-1.01,.2,.23,.21-5.82-.19-11.64-.35-17.58-.2-1.45,.1-2.76-.22-4.19-.2-.27,.05,.36,.12-.06,.17-1.78-.1-4.06-.22-6.68-.05-.58-.09-1.16-.18-1.73-.27-6.25,.19-12.38,0-18.51-.17-.2,.04-.03,.08-.35,.13-10.67-.25-21.46-.13-32.15-.3-1.71,.26-9.02-.03-13.68-.05-2.53-.01-4.54,.14-6.35-.09l-1.28,.16c-1.15-.32-3.98,.09-6.01-.21-1.21,.06-2.54,.09-3.95,.1-.7,0-1.42,0-2.16,0-.34,0-.68,0-1.03,0h-.02c-.06-.05-.03-.1-.14-.03h-.03c.06-.05,.12-.1,.18-.15-.06,.05-.09,.03-.09,0,.01-1.26,.02-2.51,.03-3.76,.03-3.89,.06-7.79-.08-11.74,.28-3.35-.12-6.94,.15-10.29-.24-2.11,.07-4.03-.13-6.13,.2-5.61,.13-11.32,.03-17.03,.14-12.53-.13-25.2,0-37.73l-.16-1.27c-.04-.55,.08-.53,.13-.26-.08-6.71-.14-11.55-.22-18.34,.06-.38,.12-.77,.18-1.15-.02-1.27-.31-.56-.15-2.49,.08-.29,.03,.52,.12,.95,.06-.82,.02-2.15-.11-2.17,0-3.74,0-7.47,0-11.19v-.87s0-.09,0-.09v-.18c38.32-.3,75.93-.6,114.38-.91,.31-.04,.64-.08,.95-.12,6.65,.13,13.48-.29,20.1-.03,1.19-.05,2.25-.33,2.46-.07,.95-.12,3.72-.21,5.5-.05,.42-.05,.85-.11,1.27-.16,2.33,.02,4.63,.08,7.03-.08,11.18,.22,22.63-.33,33.74,.1,.43-.05,.85-.11,1.27-.16,1.83,.21,5.12,.15,6.1-.04,.56,.08,.22,.14,.84,.22,.86-.32,1.86-.12,2.75-.02,2.96-.26,6.5-.19,10.4-.18,.51,.07,.51,.15,.23,.21,.92,.04,1.09-.3,2.78-.11,.3-.04-.11-.09-.26-.13,.94-.07,1.79,.09,2.78-.11,.61,.06,.29,.12-.06,.17,1.07-.11,3.11-.23,4.95-.22,.8,.22-1.04,.11-1.91,.24,3.72-.2,7.41-.29,11.1-.44,.49,.07,.96,.15,1.45,.22-.33,.19,.88-.1-.55-.17,1.72-.21,3.25-.16,5.58-.3,.38,.18,2.56,.12,1.13,.26,1.02,.07,1.06-.25,3.04,.02,1.44-.17-.73-.14-1.16-.18,2.21-.22,4.26,0,6.48-.25,.28,.06-.34,.11-.66,.17,.59,.05,1.25-.09,1.79,.1-.51-.24,1.09-.09,2.22-.28,5.23,.33,11.28-.55,15.84-.06,1.05-.38,4.3-.31,6.22-.38-.12,.27-2.64,.07-3.73,.23,.48,.08,1,.04,1.47,.14-1.76,.11-3.57,.36-5.32,.43,.23-.44-4.55,0-5.49,.05,3.49,.22,9.27,.08,12.58-.3,.29,.07-.55,.14-.98,.21,1.89-.05,5.8-.05,5.93-.43,1.18-.08,.74,.17,1.45,.22,3.52-.27,5.72-.26,9.63-.57,4.66,.01,9.33,0,14.15-.41,2.71,.06,7.14-.13,8.96-.41,5.9,.18,16.2-.88,23.83-.26-1.83-.54,4.58-.3,4.23-.78,1.61,.04,3.4-.45,4.92-.14l.32-.02,.17-.02,.34-.04,.69-.08c.47-.05,.94-.09,1.42-.12,.96-.06,1.92-.09,2.84-.09,0,1.54-.1,3.15-.29,4.61,.14,.4,.27,.89,.42,.67v.22s.01,.38,.01,.38c0,.25-.01,.5-.03,.75-.03,.49-.09,.98-.18,1.46,.19,.99,.1,1.86,.11,2.78,.23,.45,.2,1.29,.41,1.97,.11-.57-.07-1.24,.01-1.82,.29,4.06,.29,10.65-.15,15.47,.31,.64,.38,2.39,.31,4.37,.63,3.88,.96,8.87,1.18,13.8-.09,.58-.18,1.15-.27,1.74,.27-.48,.2,2.73,.35,4.07-.06,.12-.11,.24-.17-.06,.11,4.4,.17,8.51,.56,12.06,.09,4.62,.22,10.81,.71,14.55-.05,3.12,.45,8.95,.64,11.48,.33,4.27,.58,8.09,1.03,11.31,0-1.16,.15-1.15,.27-1.74,.13,.86,.02,1.64,.15,2.49,.09-1.48-.07-2.15,.11-3.01-.29-1.53,.13-4.06-.18-4.63-.08-.73,.17-1.36,.23-2.05-.06-1.95-.08-3.89-.09-5.81,.21,1.8,.22,2.61,.56,5.06-.1-7.24-.17-17.1-.72-25.51-.05-.83,.01-1.62,.1-2.4-.07-.09-.14,.04-.21,.23,0-.91-.06-1.85-.11-2.78,.39-1.27-.23-4.86-.51-6.57,.15-.85,.28,.48,.41,1.36-.05-.86,.07-2.13,.23-2.05,.18,1.54,.02,1.79,.28,2.83,.13-.66-.27-1.51-.03-2.14-.08-1.14-.17-.42-.25-1.3-.02-.41-.03-.82,0-1.22,.14,.04,.27,1.37,.42,1.37,.02,.31,0,.6,.04,.92-.26-.75-.06,1.88-.02,3.03-.07,.56-.14,.23-.22,.84,.12,2.69,.56,3.26,.64,5.7-.16,.21-.3-2.11-.45-2.89,0,1.1,.08,3.42,.28,2.83-.15,2.89,.21,5.96,.41,8.97,.14-1.77-.19-3.72-.3-5.58,.41,1.16,.52,4.84,.29,6.79,.22,2.41,.41,4.81,.25,7.09,.56,7.39,.38,14.53,.83,21.89,.21-1.55,.06-3.22,.37-4.74-.08-1.75-.06-3.47,.16-5.12-.05-.59-.11-.27-.17-.66,.29-1.22,.02-2.63,.15-3.9,.1-.59,.2,.18,.29,1.01,.18-1.56-.02-3.25,.03-4.86,.11-1.21,.19,.66,.3-.19,.13-2.35-.19-3.69-.25-6.48,.24-.74,.41,2.43,.53,3.53,0-.5,.06-.99,.14-1.48-.04-.3-.09,.11-.13,.27-.1-1.24,.08-1.9-.15-2.49,.07-.56,.14-.22,.22-.84-.14-2.08-.09-4.09-.04-6.1-.11-.77-.22-.81-.34-.12-.11-.65-.15-1.27-.16-1.88,.17-.6,.35-.8,.52-1.04,.04,2.46,.37,6.18,.72,6.94,.09,3.78,.2,7.58,.05,11.28,.34-.89,.22,1.9,.19,3.41-.18,.4,.02-1.59-.11-2.17-.19,1.55,.17,3.3,.22,4.94-.12,1.13-.21-.75-.22,.84,.29,.42,.29,4.6,.21,6.77,.26,1.85,.14,3.95,.25,6.47,.29,.28,.07-2.18,.11-3,.17,2.12,.48,7.32,.18,11.02,.35,2.6-.02,11.31,.73,12.12-.11,2.22,.27,3.12,.14,4.92-.15,.01-.1-1.22-.29-1.01,.28,4.92,.71,9.78,1.29,10.18,.13-1.12,.27-3.14,.48-2.57,.2-2.58,.15-6.71,.69-7.37-.23-1.25-.13-3.47-.4-3.79-.05,.39,.04,.82,.08,1.25-.16,.57-.11-.15-.21-.98,.17-.75,.21-1.55,.19-2.37,.1-.86,.2-.51,.29,.4,.03-.78,0-1.51-.12-1.56,.31-1.85,.05-6.18-.11-9.17,.4-3.31-.14-6.94-.44-10.5,.03-.19,.06-.39,.09-.58,.45,1.49,.46,4.89,.76,6.66,.12-.57,.02-1.21,.18-1.77-.46-5.28-.29-8.46-.59-13.59,.04-.17,.09,.03,.13-.26,.05,1.85,.25,4.66,.47,5.64,.13-.77-.02-1.63,.1-2.4-.18,.33-.22-.49-.12-1.56-.11,.25-.23,.2-.34-.12,.1-1.76-.04-5.75-.39-5.01-.13-.77,.27-.27,.14-1.47,.09-.17,.08,1.22,.25,.69,.03-1.22-.29-2.36-.41-1.97-.06-.83,.23-.63,.31-1.42-.12-1.64-.25-.63-.37-1.65-.09-.81,.14-1.02,.17-.55,.08-1.26-.19-1.01-.25-1.3,.02-.37,.13-1.6,.27-1.74,.16,.77,.1,1.45,.2,2.2,.16-1.78-.15-2.64-.32-2.55-.04-2.15-.05-4.1-.39-5.61,.12-1.55,.22,.23,.34-.49,.05,1.25,.1,2.47,.15,3.7,.18-1.12,.35-1.06,.51,.18,.09-.76,0-1.51-.12-1.56,.2-.12,.02-1.44,.27-1.73-.22-1.72-.21-3.27-.22-5.55,.12-.41,.21,1.66,.03,2.14,.03,.32,.06,.18,.08,.03,.03,.21,.05,.42,.08,.63,.16-1.16,0-2.43-.06-3.67,.17-.56,.34,.15,.51-.43-.18-.68-.1-.7-.24-1.91,.11-1.11,.2-.73,.31-1.42-.07-.78-.14-.64-.21-.98,.09-.83,.17-.05,.26-1.13-.09-1.86-.06-3.67-.05-5.49,.19-.76,.1,.74,.29,1.62,.12-.87-.14-1.87,.06-2.72-.07,0-.14-.7-.21-.37,.18-4.4-.21-9-.08-13.41-.05-.33-.12,.26-.17,.55-.11-.75-.2-1.49-.2-2.2,.68-1.04-.16-5.98-.03-8.53,.6,.9,.42,4.13,.68,6.63,.14-1.28-.16-2.89,.15-3.29l-.24-1.91c.08-.74,.15-.54,.22-.84-.01,.81,.18,1.69,.07,2.46,.19-.41,.1,.78,.29,1.01,.34-1.3-.42-2.98-.06-4.28-.23-1.42-.48-2.89-.69-4.2,.12-1.19,.23-.52,.34,.12,.22-.94,.07-2,.11-3.01-.11,.18-.23-.13-.33-1.33-.05,.59,.09,1.25-.1,1.79-.1-1.05-.09-2.06,.02-3.04l-.36-2.86c.25-.43,.2,.62,.22-1.44,.12-1.42,.22,.74,.34-.49-.41-.52-.28-2.18-.61-4.17,.08-1.8,.09-3.63,.21-5.41-.1-.37-.18-.76-.24-1.17l-.05-.31c-.02-.11-.03-.18-.04-.42-.02-.4-.05-.8-.08-1.21-.08-1.63-.18-3.39-.28-5.33,.12-2.51,.22,1.89,.33,1.22-.01-2.57-.16-5.13-.34-7.25-.18-2.12-.4-3.81-.55-4.83-.11,5.05,.45,6.37,.56,9.74-.07,.96-.14,.98-.21,.5-.08,1.41,.18,3.59,.25,2.27-.09,1.16-.09,2.57-.05,4.18,0,.2,.01,.4,.02,.61,0,.16,.01,.32,.02,.48,.02,.23,.03,.47,.05,.71,.04,.48,.07,.98,.11,1.48,.15,2.02,.28,4.15,.04,5.85-.24-1.1-.37-2.82-.43-4.64-.03-.91-.04-1.84-.04-2.74,0-1.37,.02-2.68,.02-3.84-.5-3.07-.53-8.98-.55-14.93-.94,0-1.87,0-2.8,.01,1.47-.17,2.56-.31,3.26-.47,.08,.36,.17,.52,.28,.6-.03-.27-.06-.54-.07-.8-1.31,.08-2.44,.04-3.8,.16-2.17-.23-3.96-.17-5.67-.11-1.73,.07-3.38,.14-5.61-.06-1.3,.05-2.17,.08-2.82,.11-.3,.01-.54,.02-.76,.03-.13,0-.25,.02-.37,.02-.47,.02-.91,.04-2.26,.11,.81,.08-.2,.14,.23,.21-.84,.06-1.63,0-2.49,.15-1.35-.16,.37-.26,1.3-.25-.25-.19-3.78,.04-3.73,.23-1.21-.02-2.48,.14-3.62-.11-1.71-.03-3.58,.4-5.26,.26-1.07-.25,.81-.48,1.77-.71-2.21,.02-3.21,.37-6.19,.3-1.05-.17-.45-.2-1.76-.18-1.04,.15,1.88,.07,.84,.22,.9,.02,1.8,.05,2.74-.02,.4,.22,.14,.2,1.77,.18,.29,.06-.34,.11-.67,.16-.84,.07-1.54-.24-2.37-.19-.01,.07-.7,.14-.38,.21-1.04,.06-2.02-.03-3.03-.02-.43-.11-.12-.16,.66-.16,.59-.04,.24,.07,.86,.13,.18-.13,.66-.25-.17-.38-4.29,.66-8.33,.63-12.49,.94-.44-.06-.87-.12-.55-.17-.36,.13-3.55,.36-5.61,.39-.23-.22,3.09-.32,2.89-.45,.81,.19,1.6,.09,.32-.04-3.46,.19-6.58,.29-9.23,.28-.95-.29,3.23-.18,3.21-.49-1.18,0-1.55-.08-2.17,.11-3.96-.23-11.24,.41-15.38,.49-.87-.12,2.43-.21,.73-.34-.59,.24-2.13,.3-3.48,.36,.9,.05,1.79,.12,2.72,.06,.17,.04-.03,.08,.26,.13-1.88,.15-3.59-.17-5.52,.13-.56-.07-.22-.14-.83-.22-1.49,.19-2.86,.05-4.31,.14-.51-.07-.51-.14-.23-.21-.69-.07-1.46,.12-2.11-.06-.65,.05-.38,.11-.06,.17-5.62-.06-9.4,.02-14.95,.11-.43-.09-.11-.17,.7-.25-.91-.03-1.85,.07-2.75,.02-1.49,.1,.59,.23-.72,.33-1.36-.18-2.8-.11-4.27,.06-.83-.09-.06-.17-1.13-.26-.56,.1,.16,.2-.41,.29-1.64-.25-1.4,.02-3.67,.06-.83-.09-.05-.17-1.13-.26-.26,.07-.28,.14,.23,.21-1.94,.12-6.03-.18-5.93-.47-2.89,.15,2.25,.26,.43,.51-1.04,0-.71-.12-2.05-.23-1.45,.16-3.11,0-3.76,.31-1.33,0-2.85,.02-3.27-.24-.53,.07-1.06,.13-1.59,.2,1.07,.23,.43-.18,1.5,.05-.88,.31-5.31,.07-8.01,.28,.47-.17,.22-.31,1.65-.37-2.06-.24-2.53,.32-4.68,.35-1.32-.28-2.82-.04-4.28,.06-1.64-.24-3.4-.14-5.15-.08-.4-.19,1.61-.06,2.19-.2-.58-.13,.9-.25,.44-.38-1.71,.25-4.13,.28-5.67,.56-.48-.08-1.23-.01-2.4-.1-.62-.25,3.64-.03,1.33-.33,.97-.17,1.8,.06,2.78-.11-.86-.2-3.47,.13-3.29-.15-1.02,.15-2.1,.08-3.74,.23,.14-.35-1.75-.01-3.27-.23-1.91,.24-3.71,.16-5.58,.3-.06,.17,1.44,.31,2.37,.19-.22,.29-2.87,.12-3.99,.1-.26-.13,.58-.27,1.01-.29-.19-.14-1.07-.15-1.1-.35-.17,.38-1.8,.1-3.47,.36,.63,.23,1.43-.03,2.08,.14-1.02,.02-2.08,.17-3.04-.02-.29-.08,.52-.03,.95-.12-.42-.08-1.29-.05-.86-.13-1.11-.13-.46,.27-1.53,.03,.29,.14,.86,.29-.15,.42-1.46,0-.06-.14-1.13-.26-.85,.09-.55,.19-.41,.29-.51,.01-1-.06-1.53,.03-1.55-.19,1-.36-.12-.55-.35,.11-.91,.22-.72,.33-1.08,.18-1.96-.2-3.07,.06-1.11-.11-.73-.2-1.41-.31-1.38,.17-2.66,.05-3.97,.02-.8,.29-3.04,.2-4.63,.18-.82-.09,1.61-.16,.09-.25-1.4,.26-2.9,.12-4.91,.14-1.28,.09,.52,.2-.41,.29-1.78,.04-.27-.25-1.71-.35-.8,0-1.13,.05-1.27,.16-2.87-.48-6.17,.22-9.11-.06-1.09,.28-1.75,.23-3.78,.4-.55,0-.9-.17-2.09-.14-.29-.22,1.83-.11,2.52-.24-1.85-.14-3.28,.03-4.63,.18-1.5-.08-.78-.18-1.71-.35-1.22,.05-1.9-.07-2.49,.15-.38-.06-.77-.12-1.15-.18,.49,.23-2.76,.31-3.96,.02-1.01,.31-1.85,.17-3.39,.1-1.27,.15,.13,.05,.55,.17-.75,.11-1.42,0-2.14,.03-1.14-.21-.32-.2,.12-.34-1.32,0-2.62-.06-3.84-.32,.32-.05,.63-.06,.93-.04-.16-.16-3-.09-4.22-.11,3.17,.14,2.55,.41,5.61,.5-2.92,.35-3.22-.27-5.41-.21,.04,.18,2.28,.38,1.94,.57-.79-.17-2.87-.14-3.52-.36-.88,.18-.94,.36-1.71,.54,.4-.3-1.12-.29-2.28-.44-.57-.12,1.34-.22,.12-.34-.56,.13-.84,.13-.72,.33-.8,0-1.9-.16-1.25,.08-.9,0-1.78-.13-2.65-.23-.02-.13,2.78,0,2.23-.28-1.65,.14-9.03,.48-7.6,0-.91-.02-1.89,.18-2.74,.02-1.37,.4-4.54,.07-6.86,.46-.49-.28-2.39-.11-1.7-.35-1.02-.07-.83,.22-2.22,.28-2.32-.03-4.61-.16-7.03,.08-.21-.24-2.22-.18-2.43-.02-.83-.23-1.8-.09-2.66-.23,.25,.14,.71,.14,1.1,.35-1.18,.02-2.5-.16-2.95-.28-1.6-.05-.87,.25-3.03-.02-.14,.07,.33,.14-.38,.21,1.34-.05,2.63,.02,3.9,.15-2.22-.01-4.44-.03-6.67-.04-.17-.04,.03-.08-.26-.13,1.05-.07,2.92,.11,3.1-.15-1.57-.14-3.02,.19-5.14-.08-.43,.06-.86,.12-1.25,.08-.27,.07-.29,.14,.23,.21-1.37,.14-2.63-.02-3.99,.1-1.08-.09-.3-.17-1.13-.26-1.2,.1,.6,.22-.99,.2-1.12-.12,.75-.21-.83-.22-.87,.06,.1,.14-.38,.21-4.61-.53-10.41-.05-14.19-.31-.49-.09,.9-.16,.69-.25-1.69-.09-3.54,.28-5.15-.08-.26,.07-.28,.14,.23,.21-.66,.15-1.23,.04-1.88,.16-.77-.08-.09-.14,.38-.21-.87-.12-1.83,.01-2.72-.06-.33,.05,.26,.12,.55,.17-.66,.14-1.21,0-1.85,.07-.08-.07,.44-.14-.23-.21-.42,.05-.85,.11-1.27,.16-.83-.09-.05-.17-1.13-.26-2.96,.05-5.92,.1-8.84,.07,.29,.04,.57,.09,.86,.13-.8-.01-1.69,.18-2.46,.07-.77-.08-.1-.14,.37-.21-1.76-.11-5,.09-5.84,.17-.44-.18-1.15-.22-2.4-.1,1.52,.17,.13,.17-.7,.25,2.8-.07,3.93,.18,6.97,.09,.34-.08-.28-.03-.57-.09,.68-.19,1.18,.11,1.85-.07,.91,.21,.94,.16,2.31,.36-3.5-.2-8.4,.14-10.9-.16-.2,.04-.03,.09-.35,.13-1.19,.08,.31-.16-.83-.22-1.94,.34-3.69,.12-5.5,.05-.28,.12-.74,.17-1.29,.18-.42,0-.86,0-1.33,0-.49-.01-1-.02-1.51-.03,.73-.17,2.57-.33,1.22-.5,.63,0,1.47-.02,2.16-.03,.5,0,.9-.04,.93-.13-.59,.01-.89,0-1.11-.02-.11-.01-.2-.03-.3-.06-.05-.01-.1-.03-.16-.05-.09-.02-.19-.04-.31-.06-.91,.19-2.24,.14-2.7,.29-1.7,.06-3.37-.11-5.09,.06-1.86-.29-5.82-.19-9.11-.07,.01,.37,.02,.72,.03,1.07-.26-.24-.24,1.63-.06,4.49-.07,.31-.14,.21-.21-.79-.13,3.29,.15,7.01,.04,10.33,.08,.96,.18-1.21,.25,.18,.11,1.05-.22,2.06-.01,2.58-.07,.51-.15,.51-.21,.23-.04,.96,.23,0,.12,1.56-.09,.75-.18,1.01-.26,.52,.12,1.56-.13,4.28,.14,4.92-.09,.83-.17,.04-.26,1.13,.26,.07,.03,1.6,.03,1.53,.02,2.15,.36,2.91,.09,5.2,.25,.46,.11,2.95,.14,4.31-.07,.08-.14-.43-.21,.23,.27,1.01,0,2.42,.27,4.05,.18,.52,.23-1.51,.14-2.08,.04-.54,.19,1.44,.16,1.88,.2,.62,.06-1.36,.1-1.79,.07-.29,.14,.55,.21,.98,.02,.49-.28,1.67-.02,3.03-.1,.76-.21,1.47-.3,.81-.16,1.06,.06,2.25-.15,3.29,.11,.31,.26,.01,.25,1.3-.31-.75-.52-3.09-.69-5.41-.03,1-.13,1.98-.19,2.97,.08,.47,.25,.64,.12,1.56,.07,.32,.14,0,.21,.38,.11,1.39-.1,.75-.23,2.05,.36-.16,.38,5.22,0,5.79,.21,.05,0,1.29,.2,2.2,.16-.96-.05-2.04,.11-3,.16,.07,0,2.62-.03,3.64,.08,.13,.17,.48,.25,1.3,.09,.75-.14,.68-.17-.06-.07,1.05,.21,1.18,.29,.41-.06-.73,.05-1.4-.11-2.17,.09-.27,.17-.27,.26-.52,.11,1.46-.15,2.79-.03,4.25-.17,.28-.46-2.22-.51-.17,.23-.31,.11,.45,.2,1.6-.25,.12-.11-1.06-.26,1.13,.16,.16,.22,.29,.29,1.62-.32,.43,.1,2.3-.19,3.58-.03-3.68-.28-6.6-.06-10.67-.3,1.44-.11-2.82-.45-2.28-.09,.48-.05,1-.14,1.47,.27,.63,.06,3.14-.11,3.62,.25-.82,.21,1.47,.46,.46-.02,.81,.12,1.67-.02,2.43-.14,.58,.03-2.44-.21-.38-.19-.67,.11-1.18-.07-1.85-.08,.56-.14,.22-.22,.84,.27,1.84,.05,2.29-.15,2.69,.35,.12,.1,3.94,.17,5.84,.16,.68,.11-.07,.22-.84,.27,2.09,0,5.39,.25,6.48-.11,1.21-.2-.22-.3,.2,0-1.62-.05-3.26,.03-4.85-.11-.59-.22-.62-.34-.12,.08,.43,.04,.83,0,1.21,.06,.16,.11,.32,.17,.06-.27,1.64-.03,6.25,.21,7.37-.43-.85-.22,2.15-.53,2.86,.07,.54,.07,1.04,.03,1.54,.23,.62,.05-1.36,.18-1.76,.18-.48,.29,1.3,.53,2.92-.24,1.34-.24-1.35-.42-1.36-.17,1.48,.01,1.2,.11,2.78,.1-.49,.2-.13,.3-.2,.06,.73-.14,1.37,.03,2.14,.18-1.26-.17-2.69,.15-3.9-.17-1.58-.31-3.15-.27-4.66,.11-.51,.06,1.4,.07,1.85,.15,.61,.16-1.55,0-1.22,.83-.23,.09,8.71,.33,13.51,.06-.43,.12-.87,.17-.55,.13-.66-.12-1.47,.06-2.11,.12-.14,.26,2.3,.06,3.07,.2-.58,.46,2.06,.23,3.12-.05,.35-.17-1.85-.07-2.46-.25,.36-.24-.71-.46-1.07-.11,1.3-.16,.88-.27,2.34-.08-2.19,.1-3.43-.21-6.16-.21,1.24-.2-.15-.35,1.71,.14-.01,.29-1.12,.42,.75,0,2.03-.11,4.02-.04,6.07,.09-.75,.18-1.01,.26-.52,.05-.9,.05-1.8,.06-2.71,.12,.09,.19,1.28,.24,1.91-.06,.6-.12,.29-.17-.06-.12,1.72,.24,.51,.15,2.49-.13,.09-.25-.69-.38-.44,.31,2.22-.03,6.26,.28,8.62-.1,.41-.2-.39-.3,.8,.09,1.15-.03,2.22,.19,3.42,.09-.78,.18-1.06,.26-1.13,.09,1.45,0,2.85,.14,4.31-.17,.65-.48-1.14-.24-2.51-.13,.66-.25-.52-.38,.17,.29,1.32,.17,2.68,.35,5.29,.18-.65-.07-1.45,.06-2.11,.21,.11,.02,1.8,.19,2.81-.07,.56-.14,.22-.22,.84,.46,.79-.03,3.55,.18,5.23-.32,.78-.21-2.39-.41-2.57-.04,.29,.02,.62,.04,.92-.09,1.33-.16-.8-.26,.52,.12,1.11-.03,2.72,.2,2.2,.18,1.08-.1,2-.02,3.03-.11,.21-.27-.37-.16-1.27-.29,.16,.21,3.97-.2,4.19l.24,1.91c.08-.74,.15-.55,.22-.84,.1,1.2-.07,1.19-.18,1.76,.16,.98,.16,1.9,.1,2.99-.04,.85-.08,1.78-.13,2.81-.04,1.14-.09,2.39-.14,3.8,.18,2.47-.02,7.34-.02,11.67,1.11,0,2.19-.01,3.21-.05,.3-.18-1.69-.08-3.04-.12,0-.16,.01-.32,.02-.46,.02,.07,.05,.19,.06,.38,1.64-.14,5.87-.09,8.03-.07,.67,.21-3.26-.01-2.85,.2,1.52,.1,2.76,.17,2.85,.27,1.37-.08,3.91-.33,5.75-.49,2.4-.05,1.68,.23,3.44,.31,.14,0,.33,0,.54,0,.13,0,.28-.01,.44-.02,.32-.01,.67-.03,.99-.04,.63-.02,1.13-.02,.95,.12,2.41-.22,4.72-.14,7.03-.08,1.36,.14-1.19,.25,.17,.38,1.78-.11-.44-.26,1.04-.38,1.39-.12,1.42,.23,2.31,.36,.84-.08,1.6,.05,2.43,.02-.26,.11-.02,.23,1.09,.35,.06-.06,.43-.18,.96-.12,.75-.11-.93-.02-1.15-.18,.86-.15,1.62,0,2.43,.02,.67-.11-1.1-.16-1.47-.14-.08-.1,.27-.2,.41-.29,1.17,0,1.16,.15,1.85-.07,1.27,.2-.36,.15-.4,.29,1.22,.12,1.15-.09,1.59-.2,1.44-.06,2.83,.05,4.25,.03,.06,.13-.97,.25-1.05,.38,1.33,.07,2.51,.42,4.16,.28,1.13,.27,1.37,.41,4.1,.45-.78-.09-1.82-.1-1.74-.27,.95-.11,1.84-.05,2.75-.02,.63-.08-.38-.17,.69-.25-1.18,.01-3.34-.23-3.64-.02-.15-.1-.44-.2,.41-.29,1.05-.02,.66,.24,2.14-.03,1.33,.09-.81,.16,.51,.26-.17-.26,1.49-.24,2.78-.11,.8-.16-.34-.2-1.15-.18,.54-.08,1.03-.03,1.56-.12,.32,.1,2.08,.21,1.41,.31,.53,.03,2.67-.22,2.11,.06,.98,.09,1.64-.37,3.12-.23,.29,.07-.56,.14-.98,.21,1.51,.04,4.22,.29,4.86,.03,.45-.03,2.58,.06,1.15,.18,2.67-.02,6.22-.27,7.26-.76,.71,0,1.4,.04,2.14-.03,1.16,.15-1.15,.27,.45,.43-1.48,.16-1.46,.04-2.42-.02-1.46,.13-1.79,.27-.76,.42,.3-.04-.11-.09-.26-.13,.94-.07,1.89-.17,2.75-.02,.67,.12-.94,0-1.27,.16,.75,.18,1.66-.11,2.4,.1,.66-.41,3.93-.1,6.04,.13,1.03-.15,1.93-.43-.14-.47,.43,.22-.8,.14-1.85,.07-.29-.08,.53-.08,.92-.04-.45-.2-3.62-.07-5.11-.16,4.97-.26,12.36,0,18.3-.13,.29,.06-.34,.11-.66,.17,.79,.07,1.58,.11,2.46-.07,.41,.27,1.22,.04,2.37,.19,.87,.1-2.05,.18-.41,.29,1.18-.27,1.76-.1,3.96-.02,.98-.21,2.16-.34,3.67-.06,1.08-.19,2.04-.04,3.12-.23,3.05,.61,8.96,.2,14.42,.52-.08-.19,1.35-.34,1.85-.07,1.26-.09,.95-.19,1.02-.29,.41-.02,.82-.03,1.21,0-.18,.13,.15,.26-1.04,.38,1.7,.18,.55-.35,2.46-.07,.57-.3,1.07-.19,2.81-.19,.58,.1-.18,.2-1.01,.29,2.97-.21,7.36,.02,9.6-.49,1.47-.09,1.43,.05,2.4,.1,.8,.13-.85,.25,.17,.38,1.14-.11,.94-.22,.72-.34,1.48,.06,1.13-.08,2.49-.15,.83,.23-1.2,.51-2.61,.49,.61,.07,.29,.13-.03,.08,2,.26,4.83,.54,8.18,.1,1.07,.12-1.47,.22-.12,.34,1.14-.23,4.06,.06,6.07,.04,.61-.07,.31-.14,.99-.21,.08,.07-.43,.14,.22,.21,1.12,0,.38-.06,1.28-.16,.24,.06-.44,.11-.06,.17,1.25,.18,2.63,.04,2.49-.15,.28,.06,.58,.07,.9,.05,.28,.06-.34,.11-.66,.17,2.83,.03,7.16,.37,9.1,.06,2.69,.25,2.06-.06,3.61,.11,1.65-.32,2.6-.26,4.72-.44-.67-.12-1.39-.07-2.08-.14,.97-.14,1.8,.09,2.75-.02,.29,.06-.33,.11-.66,.17,1.92,.03,3.78,.22,5.69,.25,.29,.06-.34,.11-.67,.17,.91,.02,1.8,.09,2.75-.02,1.11-.46,6.99,.22,10.06-.06-3.52-.09-7.05-.15-10.56-.28,1.25-.1,2.43,0,3.64,.02,.53-.2-1.57-.06-2.08-.14,.64-.08,1.27-.16,1.91-.24,.56,.07,.22,.14,.83,.22,2.58-.09,2.57-.49,5.58-.3,.22,.15-2.06,.17-2.83,.28,.06,.1,.77,.2,.2,.3,.63-.06,2.3-.57,4.69-.35,.43,.09,.11,.17-.7,.25,1.21,.16,2.49-.35,4.34-.23,1.23,.12-.92,.22,.49,.34,.33-.03,.19-.05,.03-.08-.03-.12,1.63-.01,1.31-.25,.52,.04,2.55,.11,2.17-.11,.69,.04,1.44-.06,2.11,.06,.02,.16-2.14,.3-1.68,.46,.77-.05,1.86-.11,2.81-.19,.83,.09,.05,.17,1.13,.26,1.84-.05,3.64,.03,5.47,.04,.59,.1-1.18,.04-1.6,.2,2.3,.14,2.98-.44,5.2-.09,.62-.03,1.31-.26,1.89-.16,.75-.11-.93-.02-1.15-.18,.32-.04,.63-.08,.95-.12,1.76,.17,3.64,.02,5.4,.21,0,.22-2.49,.23-3.35,.02-.85,.1-1.68,.17-2.49,.15,.99,0,3.27,.32,4.86,.03,1.19,.14-.42,.25,.77,.39,1.26-.29,4.85-.25,7.69-.25,.65,.16-.95,.04-1.27,.16,1.29,0,.66,.15,1.73,.27,1.66-.12,3.24,.01,4.91-.14,2.16,.28,2.21-.04,5.58-.3-1.33,.02-2.67,.11-3.96,.02-.65,.05-.38,.11-.06,.17-.83,.06-1.64,.05-2.43-.02-.69-.08,.98-.11,1.24-.08-.37-.14-3.25-.55-4.77-.29-.91-.26-4.3-.26-6.33-.17-.68-.13-.29-.23-1.5-.05-3.04-.3-6.15-.38-9.34-.28-.02-.29-3.3-.09-2.31-.36-.52,.08-1.53,.07-2.78,.11,.48,.08,1,.04,1.48,.14-.62,.02-1.22,.05-1.85,.07-.22-.07-.19-.14,.37-.21-.76-.14-1.6-.05-2.36-.19-.6,.05-.28,.11-.67,.17-.67-.13-1.34-.24-2.11-.06-.48-.07-.95-.19-1.48-.14-.82-.09,1.61-.16,.09-.25-1.29,.32-6.49,.14-7.58-.09-1.07-.11-.4,.13-1.27,.16-.31,.02-.6,0-.92,.04-1.11-.11-.3-.2-1.41-.31-2.06,.26-5.91,0-8.79-.1-.77,.16-1.45,.1-2.2,.2,1.47,.2,1.25-.15,2.75-.02-.78,.13-.56,.09,.2,.3-2.04,.26-3.73,.1-4.22-.11,.86-.15,1.55,.21,2.43,.02-1.35-.01-1.92-.26-.78-.39-1.92-.01-3.81-.15-5.72-.17,.62-.23,.33-.14-1.13-.26,1.03-.05,2.02,.02,2.98,.19,.57-.08-.73-.17,.09-.25-1.14,.05-2.21-.08-3.33-.06-.78,.11,.34,.23,1.09,.35-1.73,.05-3.41-.09-5.2,.09-.27,.11,.32,.23-.12,.34-1.83,.05,.04-.22-1.41-.31-.29-.08,.52-.03,.95-.12-1.69-.3-5.76-.14-7.75-.48-2.52,.26-4.89,.06-7.31,.03-.77-.22,1.72-.18,1.97-.41-1.8-.18-2.37,.27-2.69-.15-.59,.14-.64,.28-.15,.42-2.16,.09-4.27,.03-6.36-.09-.75,.32-2.81,.19-4.31,.14-.28-.06,.34-.11,.66-.17,.52-.04,.99,.08,1.48,.14,.42-.04,.5-.08,.35-.13,.21-.03,.43-.05,.64-.08-1.08-.11-2.27,.13-3.29-.15,.75-.11,1.42,0,2.14-.03,.44-.23-1.75-.12-2.37-.19,2.09-.34-2.33-.08-3.87-.24,.08,.13-.38,.37-1.64,.37,.89-.21-.72-.22-.75-.47-.33,.05-.63,.06-.93,.04,.5,.24-1.54,.2-1.97,.41-.81-.04-3.32-.3-5.14-.08-1.06-.12-.01-.23,.12-.34-1.67-.12-3.26-.14-4.16-.28-.42,.05-.85,.11-1.27,.16l1.15,.18c1.2-.23,2.22,.05,3.33,.07-1.48,.17-2.81-.1-4.28,.06,.2-.52-3.24-.24-5.6-.5,.88,.06,1.84-.05,2.71,.06,.15-.21-2.36-.15-3.29-.15-.31,.11-.23,.23-.73,.34-1.66,.05-.76-.23-1.41-.31-.44,.09-.82,.04-1.21,0-.12,.26-1.56,.26-3.03-.02,.84,.29-.48,.09-1.94,.33-1.66-.25,2.23-.19,.14-.42-.61,.31-1.74,.22-2.58,.41-1.43-.21,1.79-.19,1.34-.33-1.48-.01-1.79-.01-2.81,.19-1.32-.19,1.04-.09,.7-.25-2.57-.32-3.48,.03-6.13,.13-.68-.1-.3-.2-1.41-.31-1.39,.19-2.63,0-3.99,.1-.36-.12,.31-.22,.12-.34,.44-.08,.82-.03,1.24-.08,1,.09-.1,.17-.09,.25,1.84-.03,2.45-.18,4.6-.1-1.29-.08-2.56-.24-3.91-.15-.99-.13,1.66,0,.67-.17,1.39,.09,2.82,.06,4.22,.11,.28-.06-.36-.12,.06-.17,1.18-.08,.31,.16,1.45,.22,.53-.07,1.04-.07,1.53-.03,.27-.53,2.92,.14,4.62-.18,1.06,.12-.33,.26,1.13,.26,.92-.16-.19-.34,.78-.5-.77-.13-1.63,.02-2.4-.1-.32,.05,.26,.12,.55,.17-1.06,.14-2.04,.02-3.04-.02-.14-.16,.98-.07,1.3-.25,1.22-.02,2.41,.06,3.67-.06,1.07,.12-.33,.26,1.13,.26,2.13-.61,8.63-.12,12.52-.13,.17,.11-1.27,.22-.72,.34-3.62-.09-7.21-.26-10.87-.24-.6,.15,1.32,.16,1.82,.01,.89,.15,2.14,.12,.81,.3,1.02-.03,2.05-.06,3.06-.06,.22,.11-.92,.22,.49,.34,1.03-.24,1.32-.16,2.78-.11,1.13,.11-.32,.2,.8,.3,2.11,.09,4.85-.06,6.16-.21-.04,.07,.61,.15,.23,.21-.9,.11-.03-.22-1.21,0,1.76,.18,3.64,.04,5.41,.21l2.23-.28c.57,.12,.58,.23,1.7,.35,1.32-.28-.71-.28-1.07-.43,1.17-.14,2.13,.31,3.33,.06,1.37,.18-1.32,.33,.43,.51,.3-.04-.1-.09-.26-.13,2.38-.13,4.66,.02,6.97,.09,1.29-.17-.62-.37-1.71-.35,1.14-.07,2.4-.47,3.45-.27,.49,.16-1.27,.04-.98,.21,.54,.19,1.25-.1,1.79,.1,.73-.16-.05-.22,1.62-.29,.69,.09,.66,.17-.09,.25,1.62,.18,1.6-.33,3.1-.15,.42,.13-1.74,.24-.44,.38,1.18-.09,.86-.19,1.62-.29,.42-.02,.82-.03,1.21,0,.02,.14-1.67,.13-1.33,.33,1.55,0,1.15,.12,2.63,.31,2.8,.17,5.86-.02,7.92-.03-1.81,.3,4.83,.21,6.88,.34-.2,.22-2.81-.05-4.02,.19,2.41,.22,4.7-.2,6.36,.09,.32-.05-.26-.12-.55-.17,.88-.2,1.62,0,2.49-.15,2.15,.43,5.27,.06,6.56,.38,2.84-.18,4.43,.07,6.76-.21-1.1-.02-.33-.06-1.15-.18,3.43-.25,4.25,.23,4.36,.58,.82-.16,.23-.34,.79-.5,1.3,.06,2.62,.04,3.9,.15,.43,.12-1.62,.09-2.19,.2-.29-.1,4.55,.18,5.43,.12,.7,.04,.62,.27-.06,.17-.02,.2,1.21,.01,1.82,.01,.33-.05-.26-.11-.54-.17,2.49,0,6.18,.54,9.62,.32,.48,.07,.96,.15,1.44,.22,.64-.08,1.2,.07,1.85-.07,2.48,.47,5.26,.04,7.75,.48,2.81-.2,5.48-.02,8.12,.27-1.71,.12-1.83,.22-3.15,.32,3.03,0,6.19-.27,7.6,0,.02-.36,2.25-.52,1.54-.92,1.5,.08,2.98,.16,4.48,.24-.03-.38-5.51-.17-5.26-.63,.64-.09,1.16,.14,1.76,.18,.31-.26,2.48,0,3.73-.23-.24,.14-.43,.28,1.07,.43-.06-.21,.91-.24,2.26-.37,.9,.17,2.57,.39,2.69,.15,1.07,.12,.44,.26,1.73,.27,.57,.16-.15,.11-.99,.21,1.3,.04,2.61,.09,3.97-.02,1,.15-1.2,.28-.15,.42,.56-.06,1.08-.4,2.2-.2,.21-.1,1-.19-.2-.3,1.75-.08,1.46-.05,2.23-.28,.66-.14,1.14,.24,1.79,.1,1.44-.15-.71-.17-1.13-.26,.82-.03,1.59,.1,2.43,.02,.58,.12-1.34,.22-.12,.34,.43-.18,2.18-.07,1.5,.05,1.92-.32,4.99-.14,7.54,.18,.12-.1,.89-.19,1.01-.29-1.27-.09-.68-.1-1.73-.27-.81,.06-.19,.14,.23,.21-2.55,.05-4.99-.22-7.49-.35,2.18-.14,4.19,.22,6.36,.09-1.09-.06-2.19-.12-3.26-.23,1.25-.09,2.39,.14,3.7-.15,.58,.12-.57,.22,.49,.34,.53-.08,1.03-.03,1.56-.12,.77,.08,.09,.14-.37,.21,.57,.09,1.23-.05,1.78,.1,.38-.24,2.32-.08,2.55-.32,1.6,.15-.13,.28,1.07,.43,1.27-.12,4.02,.05,4.19,.2,1.93-.14,1.83,.12,3.64,.02,.66,.16-.96,.04-1.27,.16,1.66,.19,3.44,.02,5.11,.16,.7-.13,.85-.17,1.04-.38,1,.05,2.96-.02,3.13-.23,1.33,.09-.81,.16,.52,.26,.9,.06,1.86-.09,2.72,.06,1.18-.1,.44-.21,1.59-.2,.95,.15-1.5,.27-1.36,.42-.75,.12-1.32-.29-2.11-.06,.23,.2,2.63,.19,3.93,.07,1.08,.09,.3,.17,1.13,.26,1.57-.14,4.75-.29,5.2-.09,.52,.05,.58-.07,.35-.13,1.12-.02,2.26-.07,3.29,.15,.77-.16,1.44-.04,2.2-.2-1.36,.13-2.53-.31-3.93-.07-.83-.22,.47-.29-1.67-.44,1.84-.27,2.26,.04,2.72,.06,1.27-.2-1.16-.16-1.1-.35-.65,.13-1.26,.13-1.82-.01-.85,.16-1.53,.04-1.59,.2,.98,.1,1.85,0,1.44,.22-.73,.07-1.35-.19-2.11-.06-.48-.17,.9-.22-.81-.3,.54,.29-1.35-.02-2.42-.02-.17-.05,.22-.3,.98-.2-.85,0-2.71-.29-4.19-.2-1.03-.37-2.98-.14-3.78-.49-1.58,.07-1.44,.25-3.12,.23-.3-.07,.56-.14,.98-.21-1.22-.28-2.59-.12-3.87-.24-.5,.11-.22,.15,.55,.17-.91,.2-2.15-.01-2.2,.2-.08-.04-.32-.27-1.16-.18-.56-.16,.15-.11,.98-.21-1.57-.16-3.25,.03-4.77-.29-.7,.44-2.19-.22-3.7,.14,.39-.26-1.26-.11-1.42-.31,1.12-.02,2.25-.07,3.29,.15,1.1-.35,3.88-.04,5.73,.17,.15-.13,.3-.25,1.65-.37-3.05,.39-8.52-.66-11.59,.09-1.91-.06-3.85,0-5.72-.17-.5,.11-.22,.16,.55,.17-.64,.08-1.27,.16-1.91,.24-.61,.02-1.21-.02-1.79-.1,.96-.13,1.82,.02,2.81-.19-.87-.12-1.79-.11-2.66-.23-.42,.05-.85,.11-1.27,.16-.51,0-1.01-.02-1.5-.05-.58-.1,.18-.2,1.01-.29-2.24-.09-1.33,.4-3.73,.23-.27,.07-.29,.14,.23,.21-.64,.07-1.26,.1-1.85,.07,1.32-.36-3.37-.5-4.94-.67,1.82-.09,6.2,.19,6.13-.13,1.83,0,3.6,.17,5.44,.12,.26-.24-2.18-.09-2.98-.19,1.47-.11,1.45-.01,2.52-.24,.63,.37,1.76,.05,2.28,.44,1.57-.14,.92-.3,.46-.46,1.19-.07,1.14,.2,1.73,.27,.74-.1,1.43-.04,2.2-.2,1.08,.09,.3,.17,1.13,.26,1.41-.2,.79,0,2.11,.06,1.46-.12,2.84,0,4.31-.14,1.21,.11-.23,.2,.2,.3-1.5,.06-4.18-.16-4.02,.19,.8,.03,1.67-.12,2.49-.15,.06,.06,.13,.11,.55,.17,1.38-.18,1.67-.19,2.75-.02,1.78-.14-.1-.31,1.68-.46,.31-.02,.61,0,.93-.04,1.06,.12,.01,.23-.12,.34,.74,.21,1.62,.03,2.37,.19,.64-.05,.37-.11,.06-.17,1.85-.09,3.54,.32,5.5-.05,3.26,.17,5.82,0,8.41,.31,1.09-.21,2.04-.04,3.07-.06,.42-.2,0-.25,1.04-.38-1.37-.2-1.4-.14-2.31-.36-.73,.2-.16,.15-1.33,.33-1.34,.05-2.6-.11-3.99,.1-.73-.16,1.4-.3,1.68-.46-.7-.11-3.02,.02-2.66-.23-2-.08-4.13,.21-6.04-.13,1.26-.12,2.45-.04,3.7-.14-.79-.04-1.63,0-2.37-.19-.39,.18-.66,.17-1.21,0-2.43,.29-4.6-.19-6.97-.09-1.19-.09,.2-.17,.69-.25-.75-.16-1.62,0-2.4-.1,.48,.16,.45,.31,1.96,.48,.04,.07-.14,.14-.37,.21-.72,.01-1.41-.04-2.11-.06-.32-.09,.75-.16-.52-.26-.79,.06-.65,.14-.99,.2-.41,.03-.79-.06-1.21,0-.68-.19,.68-.1,.7-.25,.94-.1,1.77,.16,2.74-.02-9.34-.25-18.76-.3-28.07-.66-.73,.35-3.71,.14-4.22-.11-.69,.18,.22,.37-.5,.55-1.77,.08-1.51-.27-3.3-.15-.29-.06,.34-.11,.67-.17-1.5-.06-3.09,.13-4.57,.01,1.96-.45-3.54-.28-5.87-.63-1.25,.08,.08,.17,.52,.26-2.45-.03-1.35-.07-3.58-.19-.4,.07,.75,.15,.23,.21-.62,.02-1.21-.02-1.79-.1-.13,.08-.47,.17-1.3,.25-1.39,.13-.86-.23-2.43-.02-.43-.09-.11-.17,.7-.25-3.6-.15-2.99-.27-7.55-.18-.21-.07-.19-.14,.37-.21-2.92,.23-5.67-.03-8.55,.11-.12-.06-.24-.12,.06-.17-1.11-.02-2.27,.11-3.45,.27-.94-.09-.91-.18,.09-.25-3.68,.08-7.16-.42-10.96,.01-1.12-.11,.32-.2-.8-.3,.63-.08,1.19,.07,1.85-.07-2.87,.05-6.51,.28-10.06,.06-.52,.18,2.34,.15,.48,.34-1.54-.19-2.78-.34-4.16-.28-1,.26,1.26,.03,2.08,.14-1.18,.18-2.26,.06-3.39,.1,.01-.14,.35-.28,.76-.42-3.09,.04-5.41,.34-8.88,.15-.24-.06,.44-.11,.05-.17-.47-.08-1-.04-1.47-.14-1.16,.15-.59,.17-1.91,.24-.07-.09-.36-.17-1.13-.26-1.55,.08-3.05,.02-4.57,.01-.67-.11,.99-.14,1.25-.08-1.08-.27-3.74,.02-4.66,.27-1.54-.12-.1-.23,.73-.34-2.13-.01-4.37,.32-6.45,.17-.69-.07,1.03-.25,1.25-.08-.31-.18-1.46-.26-2.94-.27,.47-.01,1.84-.05,.66-.17,.62-.04,1.18,.11,1.85-.07-.95-.16-2.02,0-3-.11,.36,.12-.53,.32-1.59,.2-.35,.08,.49,.04,.87,.13-1.25,.07-2.46,.08-3.76,.31-1.41-.12,.74-.22-.48-.34-.94,.13-2.49,.12-2.55,.32-2.56-.07-5.5-.21-7.26-.13-.06,.1,.25,.2-1.01,.29-.91-.25,.87-.37-1.68-.44,.87-.17,1.64-.04,2.46-.07-.05-.22-2.83,.02-3.93-.07-.14,.07,.34,.14-.38,.21-.95-.1-1.63-.04-2.34-.27-1.18,.09-.44,.2-1.62,.29-.91,.02-1.65-.39-3.32-.07-.83-.09-.05-.17-1.13-.26,.75-.11,1.44-.06,2.14-.03-4.41-.45-11.74-.09-17.26-.24-.02-.11,.55-.22,1.33-.33-1.09-.06-2.25,.07-3.32-.06-.84,.09-.55,.19-.4,.29-2.68-.01-7.51-.45-10.38,.1-.84-.2,1.09-.14,1.01-.29-1.95-.02-2.39-.01-3.93-.07-.31,.07,.01,.14-.38,.21-2.01,.07-5.23-.44-6.36-.08-.69-.1-.3-.2-1.41-.31-.93,.04-1.91,.24-2.75,.02-1.54,.44-5.18-.14-7.66,.16,.26-.08-1.07-.18-.52-.26-1.55,.08-3.12,.23-4.54-.07-.65,.11-1.27,.15-1.88,.16-.06-.06-.13-.11-.55-.17-.32,.13-1.97,.12-1.22,0-.99,.12-2.57,.08-4.25-.03,.33,.19-.48,.19-1.6,.2-.29-.06,.34-.11,.66-.16-1.5-.08-3.04,0-4.54-.07,1.25-.2,1.56,.05,2.2-.2-.9-.05-1.78-.12-2.72-.06-.29-.07,.56-.14,.99-.21,1.11,0,2.13,.29,3.32,.06-1.36,.05-.68-.29-2.05-.23-.32-.19,.84-.2,1.91-.24,.5,.1-.27,.2-.41,.3,1.14,.12,1.62-.09,2.2-.2,1.01,0,2.05-.06,3.01,.1-2.24-.06-1.76,.26-3.41,.19-.62,.15,1.91,.09-.09,.25-1.21,.13,.34-.26-.86-.13-1.64,.17-.23,.1,.52,.26-.41,.02-.82,.03-1.22,0,1.27,.16,5.29-.06,7.58,.09-.56-.25,1.17-.04,1.3-.25-1.42,0-2.85,.02-4.31,.14-.55-.57,4.37-.36,5.96-.51,2.18,.23-.02,.42,1.3,.65,.18-.28,1.99,.09,3.09-.15-.95,.04-3.6-.08-2.63-.31,1.61,.29,1.63-.14,3.93,.07,1.19,.14-.42,.25,.77,.39l1.6-.2c-.44-.06-.87-.12-.55-.17,2.91-.19,5.72-.09,8.59-.2-.84-.21-1.8-.06-2.69-.15,1.75-.13,4.83-.23,5.43,.12-.8-.04-1.62,0-2.48,.15-.4,.16,1.44,.06,.84,.22,1.92-.03,3.64-.36,4.86,.03,.77-.17,1.44-.06,2.14-.03,0-.07,.7-.14,.38-.21,2.18,.16,6.12-.12,7.23,.22,1.32-.03,2.66-.07,3.99-.1,.04,.07-.14,.14-.38,.21,1.12,.1,.85-.16,1.59-.2,1.18,.15,.42,.29-.14,.42,1.36,.08,3.11,0,3.55,.28,.45-.17-.65-.34,.78-.5-1.86-.14-.82,.37-3.09,.15-.34-.17,.16-.27,1.33-.33,2.36-.06,4.54,.36,6.91,.26,.79,.24-1.05,.13-1.91,.24,.97,.13,2.03,0,3.07-.06-.07-.06-.14-.11-.55-.17,.82-.04,1.08,.1,1.25-.08,1.66,.18,3.54-.25,5.12,.16,.26-.19,2.82-.2,3.04,.02,1.11-.36,3.97-.32,5.84-.17,.6-.05,.28-.11,.67-.17,1.53,.15,3.35,.04,3.23,.32,.74-.09,1.48-.19,2.23-.28,2.02,.16-.71,.28,.45,.43,1.38-.17,2.68-.12,3.96-.02,.23-.14,1.54-.27,1.97-.41,.78,.18-1.57,.33-.18,.51,.14-.41,4.03-.37,5.85-.17,1.58-.07,1.47-.33,3.12-.23-.12,.15-1.32,.32,.52,.26,.28,.13-.6,.25-1.65,.37,.18,.05,.4,.03,.61,0,.19,.03,.38,.06,.58,.09,1-.11,.33-.22,1.33-.33,1.6-.12,1.28,.22,2.92,.36,1.17-.16,2.2,.09,3.35-.02-1.13-.25-2.36-.2-3.62-.11,.03-.1-.66-.2-1.41-.31,1.3,.05,1.2-.14,2.72,.06,1.39-.08-.69-.17,.7-.25,1.25,.22,4.11,.18,6.3,.25,.41-.11-1.75-.15-2.4-.1-.31-.33,2.67-.27,4.02-.19,.84,.21-2.13,0-1.28,.16,1.47,.23,1.25-.14,2.75-.02-1.91,.4,4.67-.03,6.56,.38,.76-.17,3.06-.25,4.72-.43-.28,.37,4.74,.08,5.49-.05,.44,.06,.88,.12,.55,.17,.53-.13,1.75,.03,3.1-.15,.87,.32,2.11,.02,4.28-.06,.41,.1-.38,.19,.8,.3,3.85-.2,5.82,.01,9.77-.1,.41,.11-.39,.21,.84,.22,.17-.34,2.15-.13,3,.1-.55-.26,1.49-.43,3.16-.32,.46,.21-1.91-.01-1.59,.2,.48,.08,1,.04,1.48,.14,.49-.11-.24-.21,.98-.21,.34,.07-.85,.14-.37,.21,1.89,.12,2.56,0,2.49-.15,1.53-.06-.09,.27,1.44,.22-.14-.21,1.21-.27,2.55-.32,.46,.26,.94,.01,2.05,.23,.06-.18,1.6-.16,2.46-.07,.08,.1-.65,.05-.38,.21,.56-.26,5.21,.06,4.69-.35,1.07,.13,2.32-.24,3.38-.1,.81,.19-1.04,.12-1.94,.33,1.09,.08,2.23,0,3.33,.07,.67-.53,4.73-.25,5.9-.34-.15,.16-1.64,.21-2.23,.28-.6-.06-.29-.12,.06-.17-1.3-.11-.98,.12-2.49,.15,2.01,.07,2.52,.01,4.13,.37,1.27-.09-.09-.2,.41-.29,1.72,.32,8.89,.04,11.51,.16,.41-.03,2.56-.15,1.62-.29,1.63-.18,2.94,.2,3.1-.15,.87,.12-.17,.23-.12,.34-.52,.04-.99-.08-1.48-.14-1.01,.16,.64,.27-1.33,.33,1.55,.01,1.8-.11,3.73-.23,.07,.06,.14,.11,.55,.17,1.05-.14-.61-.11-.2-.3,.94-.07,1.8,.09,2.78-.11-4.59-.24-9.23-.29-13.88-.35-1.32-.09,.81-.16-.52-.26-1.15,0-.83,.1-1.59,.2-1.17-.18,.85-.33,2-.5,2.58,.03,5.37,.43,8.76,.19,.91,0,1.77,.18,2.69,.15-.8-.2-.55-.17,1.24-.08,1.08-.08,.07-.17,.7-.25,2.18,.34,2.79,.09,4.83,.12,.83,.09,.05,.17,1.13,.26-.07-.19,.92-.3,2.2-.2,.82,.09-1.61,.16-.09,.25,.44-.09,.83-.04,1.21,0,.06-.07,.41-.14,.99-.2,2.59,.11,3.87,.16,5.95,.38,.63-.36,1.98,.1,3.38-.1,.58,.16-1.18,.04-1.59,.2,1.12,0,2.24-.04,3.32,.07,.62-.03,1.31-.26,1.88-.16-.32-.22,.04-.2,1.65-.37-2.34,.03-3.23-.24-5.15-.08-1.06-.2,.79-.15-.2-.3-1.28,.12-1.4,.25-1.04,.38-.73,.06-1.43,0-2.17,.11,.01-.28-1.97-.15-3-.1-.72-.19,1.35-.15,1.65-.37-1.15-.04-1.22,.03-1.88,.16-.36-.07-1.21-.24-2.95-.27-.01,.11-1.09,.22-1.94,.33-.34-.14,.16-.28-1.07-.43-.85,.12-1.62-.02-2.43-.02,.36-.1-.35-.2-.2-.3-3.27,.06-6.48-.04-9.68-.15-1.92,.26-3.61-.13-5.5,.05-3.06-.46-7.87,.21-9.91-.36-.66,.15-1.24,.04-1.88,.16-.76-.17-1.56-.18-2.34-.27,1.27-.1,2.22,.08,2.81-.19-.59,.22,.71,.11,1.76,.18,.81-.18-.37-.13-1.15-.18,1.49-.19,2.86-.07,4.28-.06,.52,.09-1.42,.13-1.85,.07,.44,.22,3.64,.01,5.15,.08-.65-.17-1.43,.02-2.08-.14,2.78,.07,3.89-.13,6.45-.17,.87,.1-2.06,.18-.41,.29,.43-.05,.86-.11,1.28-.16,2.61,.19,5.78,.06,7.64-.08-1.82,.23,1.1,.17,2.66,.23,.21-.11,1.01-.2-.23-.21,2.21-.31,2.38,.19,4.27-.06,.83,.13,.35,.26,.17,.38,.82,.07,2.23-.21,2.23-.28,1.29-.1,3.55,.3,3.95-.02,.54,0,2.55,.14,2.05,.23,1.23-.19,4.6-.22,7.32-.04-1.62,.08-1.44,.05-2.84,.28,.98,.09,1.96,.18,2.95,.28,.91-.04-.83-.31,.38-.21,.62-.22-1.38,0-1.83-.01-.17-.28,3.44-.45,4.92-.14,2.01,.03,4.23-.51,6.16-.21,.42-.05,.85-.11,1.27-.16,1,.09-.1,.17-.09,.25,1.19,.08,2.52-.25,3.67-.06,.58,.16-1.2,.1-1.59,.2,3.45-.09,6.68-.24,8.79,.1,1.01,0,2.01,.04,3.09-.15-.69-.08-.84-.15-.23-.21,1.15,.22,4.53-.04,6.62,.21-.74,.11-1.49,.2-2.17,.11,.56,.15,3.79,.18,5.4,.21,1.47-.2-1.05,0-1.45-.22,1.07-.13,2.03,0,3.1-.15-.21-.07-.18-.14,.38-.21-.76-.13-1.11-.02-1.15-.18,.41,0,.82-.02,1.24-.08,1.44,.33,1.91,.25,3.81,.41-1.08,.2-1.98-.14-3.06,.06,.65,.16,1.4,.06,2.05,.23-.57-.17,2.26-.29,3.45-.27,.29,.06-.34,.11-.66,.16,.74,.21,1.61,.03,2.37,.19,.54-.08-.78-.17-.52-.26,2.17-.14,4.22,.09,6.39,0,.08-.22-1.55,.02-2.4-.1-.17-.04,.03-.08-.26-.13,1.52,.09,1.99-.07,3.7-.14,0-.24-1.51-.17-2.14,.03-1.37-.12,1.43-.25-.52-.26,.97-.12,3.1-.16,1.65-.37Zm-114.94-2.86c-1.18,.17-2.23-.02-3.32-.06,1.16-.13,2.24-.04,3.32,.06Zm-92.37-2.15c.99-.19,3.05-.01,1.62-.29,1.76-.11,3.46-.03,5.15,.08-.9,.17-1.05,.06-1.94,.33-.48-.06-.95-.18-1.47-.14-.42,.05,.21,.11-.06,.17-1.09-.08-2.28,.13-3.3-.15Zm245.68-67.02c.12,1.09,.3,.85,.11,2.17-.13-.01-.25-1.37-.11-2.17Zm4.59-.84c.09,1.92,.14,2.14,.4,3.79-.19,.64-.09,1.39,.03,2.14-.19,.94-.2,1.14-.44,1.68,.16,1.62,.34,.57,.51,.17-.1,2.47-.51,2.17-.73,.66,.32-2.02-.24-4.34-.08-6.42,.19-1.04,.09,1.2,.25,.7-.1-.99-.1-2.74,.06-2.72ZM250.53,3.9c-1.17,.15-2.22-.05-3.36,.02,1.18-.16,2.27-.13,3.36-.02Zm-95.68,.37c-.49-.15-2.54-.12-2.02-.31,.79,.2,3.02,.05,2.02,.31Zm-72.28-.41c.8,.04,1.67-.11,2.41,.1-.69,.13-2.83,.07-2.41-.1ZM217.9,163.45c1.32,0,2.64,0,3.9,.15-1.12-.02-3.85,.06-3.9-.15Zm-24.85-2.93c.15-.19,5.53-.11,4.51,.16-1.45-.22-3.07,.08-4.51-.16Zm106.65,1.32c-.34,.07-.2,.14-.99,.21-.47-.09-.99-.05-1.48-.14,.86-.12,1.71-.23,2.46-.07Zm-139.52-7.44c2.77,0,4,.02,6.36,.09-2.17,.13-4.29,.07-6.36-.09Zm58.6,.35c.92,.03,3.43-.01,3.3,.15-.93,0-3.45,.06-3.3-.15Zm29.95,.5c0-.06,1.14-.36,1.88-.16,.52,.12-1.47,.26-1.88,.16Zm75.8-2.71c.62,.06,.36-.06,.96-.12,.82,.28,1.87-.13,2.69,.15-1.11,.22-3.67,.12-3.64-.02Zm-42.43-1.35c.82,0,1.68-.14,2.43,.02-1.38,.21-2.27,0-2.43-.02Zm-41.42-1.64c.14-.17,2.07-.15,3.03,.02-1.07,.16-2.05,.06-3.03-.02Zm-8.8-.1c1.07-.1,3.64-.01,3.59,.19-1.18-.12-2.45,.04-3.59-.19Zm59.79,9.2c-2.01-.04-4.09,.08-6.07-.04,1.97-.21,5.22-.12,6.07,.04Zm-85.5-12.26c.22-.19,2.31-.17,3.35-.02-1.19,.22-2.28,.15-3.35,.02Zm38.99,6c1.01,.02,2.07-.12,3.04,.02-.87,.12-3.29,.19-3.04-.02Zm46.24,7.02c.41,.13,2.39-.04,1.76,.18-.81-.05-2.73,.06-1.76-.18Zm-2.17,.11c-.46-.25-.93-.06-2.08-.14,.52-.07-.63-.15-.23-.21,1.48,.03,1.02,.19,2.42,.02l.87,.13c-.34,.07-.2,.14-.99,.21Zm-5.57-.59c1.02-.02,2.08-.17,3.03,.02-1.09,.2-2.08,.14-3.03-.02Zm-37.39-4.5c-.63,.07-1.25,.11-1.85,.07,1.4-.13,.62-.54,2.57-.41,.46,.2-1.77,.19-.73,.33Zm27.93,4.56c.42-.05,.85-.11,1.28-.16,.28,.04,.57,.09,.86,.13-.77,.17-1.44,.06-2.14,.03Zm17.62,2.71c.4,.3,1.24-.01,2.4,.1,.1,.28-4.46,.13-2.4-.1Zm-52.26-7.24c-1.91-.19-4.41,.2-5.4-.21-.24,.25-2.34,.23-3.39,.1,2.94-.04,2.51-.34,5.35-.52,1.07,.35,1.11-.03,1.73,.27,1.55-.05,4.74-.22,5.18,0-.26-.03-1.92,0-1.25,.08,1.04-.04,2.04-.01,3.01,.11-.86,.15-1.63,.03-2.4-.1-.98,.12-2.71,.05-2.83,.28Zm-31.62-5.31c.1-.21,1.83-.15,2.78-.11-.1,.17-1.86,.21-2.78,.11Zm38.1,5.95c-.39-.06-.77-.12-1.16-.18,.64-.1,1.27-.14,1.85-.07-1.39,.08,.69,.17-.69,.25Zm35.29,6.14c.98-.19,1.76,.21,2.75-.02,.93,.12-.19,.3,1.42,.31-2.19,.29-2.37-.23-4.16-.28Zm-17.07-2.54c.95-.12,1.92-.29,2.78-.11-.92,0-1.92,.27-2.78,.11Zm11.59,1.69c1,.25-2.13,.53-3.48,.36,.04-.16,.94-.27,1.62-.29-.02,.22,1.19,.09,1.85-.07Zm-54.87-6.74c-.02,.22,1.18,.09,1.85-.07,.8,.02,1.1,.06,1.16,.18,2.2-.19,4.21,.12,6.42-.08,.94,.11-.21,.37,1.48,.14,1.01,.13,.95,.47-.72,.33,.35-.05,.66-.11,.06-.17-.38,.48-3.88,.31-5.94,.43-.48-.07-.96-.15-1.44-.22-1.22,.01-2.52,.25-3.67,.06,.64-.26,3.45-.3,4.95-.22-.28-.06,.17-.07,.64-.08-1.01-.02-1.96-.21-2.98-.19-1.61,.23-3.18,.41-4.63,.18,2.45,.02,1.86-.17,2.84-.28Zm41.11,5.16c-.57,.08,.73,.18-.09,.25-.54-.19-1.25,.1-1.79-.1,.97-.14,.75-.28,1.97-.41,.29,.04,.58,.09,.87,.13-.32,.04-.64,.08-.95,.12Zm-86.48-12.95c-.41-.13,1.69-.29,2.17-.11-.73,.06-1.53,.3-2.17,.11Zm13.6,2.9c.8-.28,3.95,.11,2.72,.06-.9-.05-1.86,.11-2.72-.06Zm75.68,11.64c.42-.05,.85-.11,1.27-.16,.29,.06,.87,.12,.55,.17-.6-.06-.73,.2-1.82-.01Zm-11.21-1.01c.6-.07,.45-.14-.23-.21,.53-.07,1.06-.13,1.59-.2,.9,.04,1.77,.16,2.66,.23-1.32,.02-2.68,.14-4.02,.19Zm10.57,1.09c-.64,.12-.43,.25-.44,.38-.58-.09-1.24,.05-1.79-.1,2.54-.28-2.15-.16-1.39-.39,1.18,.13,4.08-.13,4.19,.2-.2-.03-.39-.06-.58-.09Zm-15.83-1.72c.4,.31,2.01,.03,3.3,.15-.9,.38-4.26,.17-3.3-.15Zm-2.4-.1c-1.1-.05-.27-.27-1.15-.18-.56,.1,.16,.2-.41,.3-.39-.06-.77-.12-1.16-.18,.48-.07,1.15-.13,.39-.21,.74-.11,1.49-.2,2.16-.11-.36,.05-.67,.11-.06,.17,1.14-.08,.42-.17,1.31-.25,1.34,.16-.73,.31-1.08,.46Zm-8.12-1.16c1.37-.17,2.69-.15,3.93,.07-1.36,.12-2.66,.06-3.93-.07Zm21.78,2.99c-1.55,.09-2.98-.18-4.54-.07,1.33-.17,2.17-.13,3.99-.1-.32,.06,.11,.11,.55,.17Zm-46.45-6.43l1.28-.16c.74,.18,1.55,.19,2.43,.02,.28,.04,.57,.09,.86,.13-1.57,.14-3.06,.04-4.57,.01Zm39.89,6.05c.88,.1,1.83,.01,2.69,.14-.79,.15-3.03,.04-2.69-.14Zm-79-11.71c1.66-.11,3.21,.1,4.86,.03-.65,.27-3.37,.07-4.86-.03Zm85.27,12.94c.16,.1-.61,.19-1.01,.29-.83,.03-1.63,.03-2.43-.02-.29-.13,.23-.25,.43-.38-1.52,.29-2.9,.19-4.34,.23-1.19-.31-2.4-.27-4.42-.41,.99-.22,4.2-.02,6.07,.04-.51-.07-.49-.15-.23-.21,1.82,.01,2.32,.09,1.45,.22,1.41-.04,5.8-.16,6.91,.26-1.45-.13-1.11,.03-2.43-.02Zm-15.4-2.1c.54-.21,1.12-.33,2.81-.19-2.03-.02-.78,.24-2.81,.19Zm11.33,1.56c-.69-.07-1.41-.02-2.08-.14,.91-.15,3.05-.04,2.08,.14Zm-46.33-6.77c-.5-.04-1-.04-1.54,.03l-1.44-.22c-2.11,.19-2.57,0-4.91,.14,.63-.08-.38-.17,.69-.25,1.16,.17,2.41,.09,3.64,.02-.43-.14-.51-.29,.76-.42,.89,.07,1.79,.09,2.66,.23-.96,.14-1.83,.02-2.81,.19,.46,.17,2.8,.1,2.95,.27Zm-.83-.22c1.06-.12,2.05-.08,3,.11-1.05,.09-2.01-.05-3-.11Zm39.39,6.6c-1.33-.09,.81-.16-.52-.26,.84-.1,1.65-.09,2.43,.02-.01,.11-1.11,.25-1.91,.24Zm-86.08-13.24c.85-.1,1.69-.2,2.46-.07-.86,.15-1.66,.11-2.46,.07Zm87.78,13.59c-.62-.07-.28-.14-.83-.22,.74-.12,1.44-.07,2.11,.06-.42,.05-.85,.11-1.27,.16Zm-25.91-3.36c-.53-.07-.83-.15-.84-.22,1.34-.04,2.69-.14,3.93,.07-1.08,.19-2-.05-3.09,.15Zm20.88,2.95c-1.56-.17-3.26,.05-4.83-.12,1.61,.05,3.34-.25,4.89-.05-.42,.05,.22,.11-.06,.17Zm-6.96-.98c-.43,.05-.85,.11-1.27,.16-.34-.1-1.04-.2-.8-.3,.65,.17,1.43-.02,2.08,.14Zm8.32,1.46c-.43,.11,1.92,.24,.49,.34-1.51,0,.06-.18-1.41-.31,.53-.07,1.06-.13,1.59-.2,.32,.1,2.13,.07,1.44,.22-.72,.04-1.4-.07-2.11-.06Zm-47.75-7.08c1.28,.1,1.2-.17,2.75-.02-.8,.17-3.11,.26-2.75,.02Zm31.28,5.44c1.12-.02,2.26-.09,3.35-.02-1.18,.2-2.25,.07-3.35,.02Zm-80.62-12.31c.73-.06,1.47-.16,2.14-.03-.03,.16-1.37,.22-2.14,.03Zm71.8,11.4c1.09,.06,2.24-.01,3.3,.15-.99,.16-3.42,0-3.3-.15Zm-29.14-4.57c-1.42,.02-2.82-.06-4.22-.11,1.33-.17,4.97-.2,4.22,.11Zm42.22,8.1c1.27-.15-.12-.05-.55-.17,.77-.17,1.39,.09,2.14-.03-.93-.24-1.98-.15-2.95-.28-.23-.08-1.27-.37,.41-.29-.68,.16,1.14,.06,1.45,.22,1.3-.25,2.41,.06,3.67-.06,.84,.21,1.43,.27,2.95,.27,.52-.07-.62-.15-.23-.21,2.62,.25,1.03,.42-.27,.76-.66-.08-.14-.14-.23-.21-.53,.07-.98-.1-1.5-.05,.53,.07,.83,.15,.84,.22-1.15,.13-1.91-.03-1.59,.2-.71,0-1.43,.04-2.08-.14,.44-.09,1.25-.04,.96-.12-1.02,0-2.01-.05-3.01-.11Zm-8.61-1.5c-.02,.15-1.06,.1-1.88,.16-.45-.26-2.23-.09-3.58-.19,1.47-.24-1.31,0-1.74-.27,1.35-.08,2.6,.11,3.93,.07,2.44-.23,1.95-.72,4.46-.56-1.8,.14-4.03,.64-1.19,.8Zm-86.69-13.25c-.22-.1,1.63-.19,.41-.29-1.68,.12-.93,.25-1.65,.37-.47-.09-1-.05-1.48-.14,1.02-.31,2.25-.38,3.27-.66,2.08,.34,2.48,.32,4.72,.46-1.34,.14-3.16,.31-5.27,.26Zm45.79,6.6c.54-.17,1.57-.21,2.78-.11-.94,.08-1.86,.08-2.78,.11Zm56.32,8.66c.57-.08-.73-.17,.09-.25,1.46-.04,1.33,.33-.09,.25Zm-21-2.61c.85-.11,1.69-.22,2.54-.32,.39,.06,.8,.01,1.18,.09,.23,.19-2.34,.36-3.73,.23Zm-37.72-6.16c-.76-.11-1.51-.06-.84-.22,.58,.09,1.23-.05,1.79,.1-.32,.04-.63,.08-.95,.12Zm19.75,3.57c-1.58-.21,1.29-.32,2.2-.2-.76,.16-1.43,.04-2.2,.2Zm29.84,4.32c-.61,0-1.78-.19-.8-.3,.76,.1,1.46,.21,.8,.3Zm-51.5-7.66c.18-.03,.33-.05,.03-.08-.54,.07-1.04,.07-1.54,.03,1.06-.13,2.09-.16,3.06-.06-.52,.05-1.07,.16-1.56,.12Zm.63,.81c.96,.15,2.08-.14,3.04,.02-.88,.14-3.29,.2-3.04-.02Zm59.99,9.5c.62-.18-1.22-.09-.93,.04-.77-.1-.41-.2-.2-.3,1.35,.05,1.1-.07,3.03,.02-.46,.13-1.04,.23-1.91,.24Zm-122.65-17.44c.86-.15,1.63,0,2.43,.02-.86,.15-1.67,.14-2.43-.02Zm64.9,10.25c.75-.12,1.44-.07,2.11,.06-.75,.12-1.44,.07-2.11-.06Zm-25.74-3.87c-1.36-.14,.42-.36,1.28-.16-.9,.11-.16,.16-1.28,.16Zm20.65,3.62c-1.39,.17-4.27,.09-4.51-.16,1.23,.25,2.64-.02,3.96-.02-.56,.12,.84,.02,.55,.17Zm-75.22-10.32c1.34-.05,2.67-.1,3.93,.07-1.29,.1-3.71,.17-3.93-.07Zm111.29,16.85c.61,.07,2.76,.1,2.34,.27-.66,.07-2.76-.12-2.34-.27Zm-24.67-2.54c-.94-.22-1.98-.13-2.95-.28,1.16-.15,2.19,.1,3.41-.19,.57,.12,1.21,.02,1.76,.18-1.43,.14-1.12,.1-2.22,.28Zm-41.97-6.19c-1.12-.14-1.55-.27-.17-.38,.93,.04,1.17,.26,2.66,.23-.88,.2-1.63,0-2.49,.15Zm44.9,8.25c1.17-.14,2.33-.26,3.42-.19-1.16,.14-2.36,.36-3.42,.19Zm-24.75-4.08c.75-.12,1.44-.07,2.11,.06-.75,.12-1.44,.07-2.11-.06Zm8.55,1.67c1.16-.12,2.3-.19,3.36-.02-1.16,.12-2.25,.04-3.36,.02Zm-7.63-.82c-1.56-.18-3.26,.04-4.86-.03,1.1-.3,2.96-.16,5.24-.18,.34-.06,.2-.15,.92-.04-.13,.08-.47,.17-1.3,.25Zm-25.05-3.23c1.58-.17,3.09-.14,4.6-.1-1.58,.18-3.09,.13-4.6,.1Zm41.76,6.78c.85-.1,1.64-.06,2.46-.07-.63,.14,.06,.28-.76,.42-1.26-.12-.64-.23-1.71-.35Zm4.92-.14c.43,.22,1.19,.13,2.34,.27-2.09,.03-3.86,.48-4.91,.14,1.77-.06,1.69-.23,2.57-.41Zm-5.09-.25c.57,.18,2.82-.04,2.37,.19-1.12,0-2.25,.05-3.29-.15,.6-.07,.45-.14-.23-.21,1.05-.1,2.07-.12,3.06-.06-.48,.08-2.4,.08-1.91,.24Zm-20.4-2.6c.78,.09,1.65-.06,2.4,.1-.68,.13-2.81,.02-2.4-.1Zm3.65,.02c-.92,.09,.87,.2-.41,.29-1.31-.08-.73-.37,.41-.29Zm-6.71-.85c-.86,.15-1.65,.09-2.48,.15-.75-.19-1.58-.14-2.37-.19,1.33-.08,.75-.09,1.91-.24,.49,.17,.87,.24,2.11,.06,.52,.07,.82,.15,.83,.22Zm-46.42-6.52c.9-.18,2.19-.09,2.22-.28,.2,.03,.39,.06,.58,.09,.21-.02,.42-.04,.61,0-.58,.19-2.13,.31-3.41,.19Zm-37.37-6.28c-.77-.07-1.52,.03-1.48-.14,.87-.17,2.35,.01,1.48,.14Zm104.44,16.42c.92-.01,1.81,.04,2.69,.15-.81,.22-2.98-.08-2.69-.15Zm-60.89-8.65c1.25-.1,2.46-.09,3.65,.02-1.25,.1-2.47,.09-3.65-.02Zm49.16,8.28c.62,.06,.35-.06,.96-.12,1.28,.05,1.27,.3,3.01,.1,.18-.15-1.77-.12-.81-.3,1.2,0,1.9,.09,2.34,.27-1.71,.23-4.97,.31-5.5,.05Zm-40.58-6.69c-1.29-.07-2.7,.17-3.93-.07,1.17-.16,2.26-.08,3.42-.19,.75,.09,1.01,.18,.52,.26Zm22.67,3.93c-.6-.02-1.19-.07-1.76-.18,.89-.19,2.68,.06,1.76,.18Zm13.37,2.68c.45-.05,.56-.11,.67-.17,.6,.02,1.19,.07,1.76,.18-.85,.1-1.66,.09-2.43-.02Zm-19.41-2.81c.91,0,1.92-.27,2.78-.11-.96,.12-1.89,.16-2.78,.11Zm-8.56-.78c1.25-.2,1.57,.05,2.2-.2,.53,.07,.83,.15,.84,.22-1.07,.15-2.08,.15-3.04-.02Zm6.65,.13c-1.15-.19-2.49,.15-3.61-.11,1.11-.24,3.66-.11,3.61,.11Zm17.24,2.92c.89-.21,1.63-.02,2.4,.1-.86,.14-1.6-.06-2.4-.1Zm-19.53-2.47c.87-.17,1.64-.04,2.46-.07-.06,.2-1.62,.22-2.46,.07Zm-3.76,.31c1.64-.17,2.31-.18,2.58-.41,1.1,0,.7,.15,1.12,.26-.86,.15-1.65,.09-2.49,.15,.39,.05,1.22,.03,.87,.13-1.87,.08-2.67-.08-3.88-.24,.34-.07,.2-.14,.98-.21,1.19,.11,.4,.2,.81,.3Zm-4.39-.5c2.08-.15,4.1-.12,6.11-.04-.4,.4-4.07,.19-6.11,.04Zm28.14,3.97c1.55-.07,3.03,.05,4.54,.07-1.55,.08-3.09,.12-4.54-.07Zm-8.66-1.33c.15-.11,.33-.33,1.59-.2-.02,.05-.83,.29-1.59,.2Zm1.79,.99c-1.65-.11,1.27-.19,.41-.29-.78-.09-1.68,.16-2.43-.02,1.69-.19,3.28-.09,4.89-.05-.46,.18-2.09,.09-2.86,.36Zm-23.51-4.15c-2.06,.25-4.07-.16-3.21-.4,.88,.17,.66,.26,3.21,.4Zm-.49,.55c.53-.07,1.06-.13,1.59-.2,.29,.06,.88,.12,.55,.17-.66-.13-1.52,.27-2.14,.03Zm11.44,2.12c-.86-.11-.08-.2,.41-.29,.38,.05,.8,0,1.19,.09-.53,.07-1.07,.14-1.59,.2Zm4.82,1.01c-.63-.16-.54-.31,.47-.46,1.38,.16,.67,.45-.47,.46Zm-14.9-2.65c-.96,.19-2.42-.06-2.37-.19,1.55-.19,1.08,.05,2.37,.19Zm9.72,2.66c-.48-.08-.97-.13-1.48-.14,1.51-.09,1.77,.08,2.81-.19,.4,.27,1.48,.06,2.66,.23-1.37,.15-2.61-.06-3.99,.1Zm-8.35-.48c1.83,.31,5.49-.06,6.3,.26-1.77-.03-6.68,.2-6.3-.26Zm1.83,.01c.62-.08-.38-.17,.69-.25,.49,.05,1.01,.03,1.48,.14-1.36,.05-.86,.2-2.17,.11Zm-10.68,.05c-.65-.17-1.43,.03-2.08-.14,.85-.08,1.67-.13,2.47-.07-.39,.07-.07,.14-.38,.21Zm-26.35-2.98c1.06-.01,4.23-.19,3.29,.15-.86-.19-3.44,.03-3.29-.15Zm-29.43-4.62c-1.37-.12,.41-.37,1.3-.25-.88,.08-.16,.17-1.3,.25Zm30.27,4.84c.75-.12,1.42-.01,2.11,.06-.83,.07-.83,.36-1.62,.29,.3-.11-.42-.23-.48-.34Zm-1.05,.37c-1.51-.13-.05-.42,1.02-.29-.06,.1,.25,.2-1.02,.29Zm11.76,2.08c-.83-.25-1.85,.06-2.69-.15,1.57-.13,3.08-.1,4.6-.1-.63,.08-1.27,.16-1.91,.24Zm-11.87-1.74l1.27-.16,.87,.13c-.77,.17-1.44,.06-2.14,.03Zm-5.17-.88c-1.63,.2-1.3-.15-2.98-.19,1.05-.06,2.95,.03,2.98,.19Zm-3.87-.24l-1.15-.18c.69-.15,2.86-.19,2.43,.02-.77-.1-1.16,.12-1.28,.16Zm-29.81-4.41c.72-.02,1.39,.09,2.08,.14-4.27,.03-8.53,.05-12.72-.17,1.33-.3,2.38,.17,3.67-.06-.76-.11-1.51-.06-.84-.22,1.34,0,.72,.19,2.02,.31,1.39-.21,2.59,.13,3.99-.1-.8-.04-1.62,0-2.37-.19,.65-.12,1.22,0,1.88-.16,1.08,.07-.36,.33,1.13,.26,.92-.09-.88-.2,.4-.3,.62-.02,1.21,.02,1.79,.1-.11,.13-1.4,.25-1.05,.38Zm33.48,5.24c-1.34-.25-2.82-.06-4.19-.2,.85-.17-.17-.32,1.65-.37,1.41,.12,.26,.23,.49,.34,.93-.05,1.82,.02,2.78-.11,1.05,.12,.24,.23-.73,.34Zm10.31,1.85c1.06-.13,2.13-.3,3.09-.15-1.04,.06-2.13,.29-3.09,.15Zm-21.58-3.59c.43-.05,.85-.11,1.28-.16,.29,.04,.58,.09,.87,.13-.75,.12-1.47,.16-2.14,.03Zm-9.46,.95c-.52,.03-1.02,.03-1.5-.05,2.26-.21,3.25,.33,4.42,.41,.52-.07,1.06-.13,1.59-.2,2.25,.27,4.58,.24,6.94,.17,.33-.21,1.26-.36,1.97-.41,.05,.33,1.17-.11,2.4,.1-2,.21-3.58,.34-4.77,.61-1.84-.39-5.45,0-7.92,.03,.31-.08,1.98-.16,1.3-.25-1.15,.11-2.25,.06-3.42,.19,.39,.05,1.22,.03,.87,.13-1.08-.15-3.87,.11-3.9-.15,1.46,.12,3.83-.19,2.57-.41-.25,.31-4.18,.11-4.25-.03,1.12,.02,4.36,.16,3.7-.15Zm-1.36,.42c0,.09-1.36,.2-2.2,.2,.6-.13-1.36-.04-1.76-.18,1.36-.14,2.65-.05,3.96-.02Zm32.42,2.13c-1.54,.05-3.05,0-4.54-.07,1.46-.08,4.16-.17,4.54,.07Zm-11.93-1.57c.59,.05,1.25-.09,1.79,.1-.52,.22-2.38,0-1.79-.1Zm-5.72-.17c.77-.11,3.07-.16,2.72,.06-.89-.08-1.83,.02-2.72-.06Zm10.37,1.68c.04-.13,1.62-.21,2.46-.07-.86,.15-1.66,.11-2.46,.07Zm-50.46-7.14c.3-.19,1.83-.02,1.62-.29,1.48,.13-.74,.42-1.62,.29Zm-3.35,.02c.06-.19,1.58-.12,2.55-.32,.29,.04,.58,.09,.86,.13-1.16,.13-2.34,.33-3.41,.19Zm35.27,5.34c.75-.03,3.07-.17,2.72,.06-.9-.05-1.85,.07-2.72-.06Zm5.31,1.35c.76-.12,1.48-.16,2.14-.03-.75,.12-1.48,.16-2.14,.03Zm-17.6-1.9c-.8,0-1.62-.01-2.42-.02,1.04-.14,1.11-.3,2.52-.24-.57,.08,.73,.17-.09,.25Zm-6.24-.42c-.48-.08-.97-.13-1.48-.14,.21-.03,.43-.05,.64-.08-.16-.03-.3-.06,.03-.08,1.62,.2,.48-.18,1.3-.25,.69,.07,1.43-.03,2.08,.14-1.48,.13-1.54,.27-2.57,.41Zm3.37,.79c-.37-.07-1.18-.15-.84-.22,1.39,.09,2.89-.15,4.22,.11-1.6,.12-2.41-.07-3.39,.1ZM18.52,119.63c.12-1.05,.23-.24,.34,.72-.06,.39-.08,.78-.09,1.19-.11-.01-.25-1.11-.24-1.91Zm9.65,34.63c-1.04,.08-2.04,.04-3.01-.11,.99-.15,1.15-.47,2.83-.28-.95,.17-1.63,.3,.17,.38Zm23.51,4.15c1.16,0,1.39,.15,1.13,.26,2.2-.19,5.9-.07,6.91,.26-2.52-.21-5.53-.11-7.31,.04,.43-.11,.07-.23-.49-.34-.17,.18-.28,.2-1.6,.2-.66-.07-.14-.14-.22-.21-.7,.22-.69,.07-1.86,.07,.82,.18-1.07,.21-1.85,.07,.02-.15,1.32-.1,2.23-.28,2.09,.06,2.19,.19,3.06-.06Zm21.81,3.8c-1.54-.19-2.82,.21-3.73,.23-1.23-.23,.65-.19,1.36-.42,.55,.17,1.22-.01,1.85-.07,.75,.09,1,.18,.52,.26Zm-21.46-3.03c-1.29-.08-2.61-.1-3.9-.15,.94-.08,1.87-.12,2.78-.11-.58,.06,2.46,.05,1.13,.26Zm10.77,2.28c0-.11,1.4-.32,2.19-.2-.72,.05-1.52,.29-2.19,.2Zm1.53,.86c.76-.16,1.43-.04,2.2-.2-.76-.11-1.51-.06-.84-.22,.91,.06,3.43-.01,3.27,.23-1.33,.12-2.73,.34-4.62,.18Zm-19.44-3.61c-.47-.2-2.63,.1-2.08-.14,.87-.04,3.07-.11,2.08,.14Zm5.83,1.61c1.24-.05,2.44-.02,3.68-.06-.14,.12-3.65,.27-3.68,.06Zm10.69,1.64c.45-.05,.56-.11,.66-.17,.7,.09,2.99,.06,2.66,.23-1.06-.13-2.27,.13-3.32-.06Zm-29.3-3.26c1.91-.11,4.93-.09,7.34-.12-.42-.1-1.13-.21-.2-.3,.26,.36,1.26,.1,2.95,.27-1.17,.16-2.07,.16-1.68,.46-1.86-.48-5.56-.11-8.41-.31Zm-13.49-58.82c-.07,.99,.18,2.09-.02,3.04-.06-.85-.18-3.28,.02-3.04Zm-8.16,50.63c.14-.65,.14-1.22,.01-1.8,.13-.61,.27-.14,.36,.65,.09,.79,.12,1.9,.04,2.75-.17-1.62-.18-1.54-.41-1.6Zm44.9,11.33c1.86-.09,3.64,.03,5.47,.04-.32,.04-.64,.08-.95,.12-1.48-.12-3.03-.04-4.51-.16Zm-27.93-4.56c1.22,.02,4.05-.04,4.19,.2-1.19-.11-4.07,.1-4.19-.2Zm2.74,.87c-1.55-.2-3.23-.04-4.8-.2,1.8-.18,5.09-.06,5.75,.08-.53-.06-.89,.06-.95,.12Zm22.73,3.76c.52-.07-.63-.14-.23-.21,.78,.09,1.64-.06,2.4,.1-.75,.11-1.49,.2-2.16,.11Zm-5.73-.17c1.07-.16,2.08-.14,3.06-.06-1.02,.04-2.08,.17-3.06,.06Zm-17.5-3.05c-1.79,.18-2.06-.03-3.27-.24,.58-.07,.93-.14,.99-.2,.19,.03,.38,.06,.57,.09-.63,.2,.2,.28,1.7,.35Zm20.33,3.66c-1.6-.06-3.29,.12-4.83-.12,1.6-.03,1.18-.31,2.54-.32,1.62,.1-.16,.39,1.1,.35,.48-.1-.25-.2,1.01-.29,.83,.13,.35,.26,.17,.38Zm-7.08-.64c.13-.08,.47-.17,1.3-.25,.74,.21,1.61,.03,2.37,.19-.22,.03-.43,.05-.64,.08-.86-.17-1.54,.03-3.04-.02Zm-24.06-3.18c.25,0,.56,0,.91-.01,.32-.01,.68-.02,1.05-.03,.57-.03,1.2-.06,1.75-.08,1.12-.04,1.98-.04,1.66,.16-.78-.1-1.61-.05-2.43,0-.42,.02-.81,.04-1.25,.04-.58,0-1.14-.01-1.69-.07Zm-11.79-.74c1.2-.08,2.33-.13,3.34-.07-.13,.13-2.35,.21-3.34,.07Zm-.73,.1c0,.11,0,.24-.01,.37,2.7,.07,8.77-.18,8.25,.24-2.29-.21-6.91-.03-8.29-.2,.01-.18,.03-.31,.05-.41Zm1.13-14.11c.15,.98,.11,2.06,.07,3.06-.07-.01-.11-.51-.12-1.16-.01-.61,0-1.48,.05-1.9Zm-.65,2.48c.37-2.41,.09-3.93,.25-5.66,.13,.55,.13,1.65,.1,2.86-.04,1.53-.07,3.21-.1,4.47-.08-1.14-.17-.17-.25-1.67Zm-.17-.88c.06-.58,.07-1.06,.06-1.44-.01-.3-.05-.57-.09-.84-.08-.54-.17-1.11-.06-2.08,.13,1.7,.1,.88,.29,1.62,0,.22,0,.55,0,.89,0,.4,0,.83-.01,1.19-.02,.8-.07,1.31-.18,.66Zm.15-10.66c.17,.97,.17,1.89,.11,2.78-.16-.09-.33-1.91-.11-2.78Zm-3.32,25.81c.02,.17,.04,.34,.06,.5,1.71-.13,3.03-.02,4.51,0-1.53,.03-3.18,.14-4.6,.09l.03-.59Zm.18,.74c1.25-.13,4.78-.07,3.94,.1-1.2-.11-2.93,.13-3.94-.1Zm.14-7.31c.08,.83,.17-1.37,.26-.99,.12,1.14,.16,2.25,.03,3.41-.07-1.55-.36,.21-.29-2.42Zm-.89,.52c.07,.24,.2,2.23,.38,1.53-.08-1.19,.03-2.4,.14-3.57,.1,2.56,.35,4.98,.18,7.53-.19-3.74-.91-.54-.7-5.5Zm4.68-30.74c.18,.6,.1,2.63-.06,2.11,.07-.69-.12-1.46,.06-2.11Zm-4.01,23.19c.12,1.22,.16,2.38,.03,3.52-.12-1.19-.16-2.4-.03-3.52Zm3.06-19.87c-.03-1.44-.08-4.13,.16-4.51-.13-1.14,.11-3.16-.19-3.41,.06-.39,.12-.77,.18-1.15,.16,.84,.04,1.53,.2,1.59-.12,1.71-.13,2.61,.15,3.09-.09,1.27-.17,.2-.26,.52,.07,.53,.13,1.07,.2,1.6-.25,1.43-.37-.12-.44,2.28Zm.33-10.84c.26-1.61,.42,2.15,.23,3.12-.07-.38-.14-.06-.21-.38-.02-1.99,.32-1.3-.02-2.75Zm-.27-3.45c.17-1.44,.31,.13,.46,1.08-.07,.48,.07,1.04-.05,1.5-.28-1.19-.1-1.75-.41-2.58Zm1.03-7.25c.07,.94,.17,1.89,.02,2.74-.14-.96-.14-1.87-.02-2.74ZM18.38,21.29c-.01-.17-.03-.42-.06-.7-.01-.07-.03-.15-.03-.22,0-.14,.03-.24,.14-.18-.11,.15,.05,.4,.16,.4,0,.02-.02,0-.03,.06,0,.06-.02,.11-.03,.16-.02,.1-.04,.19-.05,.26-.04,.14-.07,.22-.11,.22ZM7.18,88.91c.26-1.69,.55,3.07,.19,2.81,.12-1.28-.17-1.2-.19-2.81ZM18.33,19.68c-.07-.38-.21-1.29,.12-1.09-.14,.33,.21,.39,.33,.65-.16,.08-.32-.1-.47-.19,.2,.37,.26,.72,.02,.63Zm.75-1.33c-.21-.04-.3,.08-.55-.02-.27-.27,.7-.18,.55,.02ZM3.74,88.62c.1,1.05,.09,2.06-.02,3.04-.19-1.08-.08-2.05,.02-3.04Zm-.22-5.55c-.33-.9,0-1.45,.02-2.43-.23,.71-.38-.83-.5-1.39,.19-1.43,.36,1.92,.55,.5-.07-.34-.14-.2-.21-.99,0-.45,.16-2.32,.27-1.74-.16,1.69,.59,8.33-.05,6.68-.01,1.22,.16,4.1-.11,4.22-.16-.76-.19-4.22,.03-4.86Zm-.41-1.97c.14,1.57,.11,3.08,.1,4.6-.11-1.56-.25-3.13-.1-4.6ZM33.9,17.81c1.29,.12,4.33-.24,4.54,.07-1.41-.03-4.19,.25-4.54-.07ZM2.98,75.58c.07-.38,.15-1.18,.22-.84-.14,1.47-.1,2.13,.11,2.78-.25,.87-.26-.81-.33-1.94Zm.51-5.61c.17-.65-.09-1.45,.14-2.08,.09,.88,.03,3.04-.14,2.08Zm-.95,2.11c.09-.75,.18-1.01,.26-.52-.05,.39-.13,.76-.09,1.18,.02,.31,.08,.64,.04,.93-.07-.53-.13-1.06-.2-1.59ZM49.11,17.83c-.34,.07-.2,.14-.98,.21-.65-.18-1.4-.07-2.08-.14,1.06-.12,2.1-.21,3.07-.06ZM3.47,59.01c.08,.22,.1-1.31,.14-1.47-.07-.39-.14-.07-.21-.38-.03-1.61,.21-2.07,.39-.78-.05,1.61,0,3.25-.12,4.83-.09-1.2-.2-1.65-.2-2.2ZM54.46,18.2l-1.15-.18c1-.19,2.61,.06,1.15,.18ZM3.7,51.18c-.06-.93-.09-1.85,.06-2.71,.14,.96,.1,1.86,.02,2.74-.03-.17-.06-.33-.09-.03ZM68.05,17.62c.68,.07,1.41,.02,2.08,.14-.47,.05,.21,.3-.99,.21,.66-.11-.04-.21-.87-.13,.24,.09,.21,.17-.09,.26-.58-.09-1.24,.05-1.79-.1,1.56-.12,.09-.25,1.65-.37ZM3.33,41.93c.09-1.3-.05-4.27,.16-4.51-.07,.89,.03,1.84,.02,2.75,.09-.47,.05-.99,.14-1.47,.07,.87,.12,2.2,.28,2.22-.2,.62-.4,.92-.6,1.01ZM74.13,17.66c-.49,.1-.18,.2-1.02,.29-.68-.12-.41-.43,1.02-.29ZM3.59,35.63c.19-1.43,.38-1.24,.56-.72-.06,.38-.08,.78-.09,1.18-.15-.72-.32,1.11-.46-.46ZM76.78,17.89c-.75,.12-1.47,.16-2.14,.03,.75-.12,1.48-.16,2.14-.03ZM3.49,31.64c.04,1.64,.09,3.28-.03,4.86-.03-1.74-.11-2.11-.1-3.38,.04,.18,.08,.12,.13-.26-.04-.42-.08-.84,0-1.21Zm.19-2.37c.07,.38,.14-.27,.21-.23,.17,1.78,.12,3.49,0,5.18-.11-1.01-.22-.33-.33-1.34,.08-1.19,.02-2.43,.11-3.61Zm80.8-11.62c-1.15,.12-2,.24-1.65,.37-.87-.12-1.83,.01-2.71-.06,1.8-.26-.82-.17,.12-.34,1.36,.17,2.86-.05,4.25,.03ZM3.22,26.98c.08-.62,.14-.28,.22-.84-.04-.32-.08-.14-.13-.35,.11-1.28,.2-.51,.29,.41-.05,.39-.13,.76-.09,1.18,.06-.28,.11,.19,.17,.66-.04,.29-.09,.57-.13,.87-.18-1.69-.12-1.39-.33-1.94Zm.62-4.05c-.05-.52-.04-1.03-.03-1.53l.03-.75c0-.4,.01-.8,.02-1.21,.02,.23,.04,.47,.07,.72,.02,.21,.03,.44,.05,.66,.03,.34,.04,.68,.04,.99,0,.62-.06,1.11-.18,1.11Zm-.29-9.73c-.03-1.53-.12-3.17-.02-4.56,.2,1.58,.04,2.73,.07,4.11,.04-.24,.09-.88,.13-.36-.06,.65-.12,.74-.17,.82ZM5.6,3.9c-.58-.03-1.16-.04-1.73-.03,0,1.08,.03,2.19-.07,3.12-.05-.77-.08-2.16-.06-3.26,1.1,.02,1.98,.07,1.87,.17Zm-.96,.08c.5,.03,.99,.02,1.46-.04,1.29,.09,1.77,.18,1.06,.26-.82-.05-1.62,0-2.44-.05,.61-.05-.46-.11-.07-.17Zm11.27,.09c-2.66,.2-5.18,.16-7.8,.05,2.58-.18,5.19,.02,7.8-.05Zm1.64-.46c-1.09,.29-4.15,.24-6.53,.19,2.15-.18,4.4-.31,6.53-.19Zm8.6,.6c.29,.07,.1,.14,.84,.22-1.37,.15-2.71,.23-3.96,.02,1.58,0,3.06-.12,3.13-.23Zm18.13-.51c-.75,.12,.93,.02,1.15,.18-.59,.13-2.58-.02-2.08-.14,.62,.07,.37-.09,.93-.04Zm125.28,.25c.79,.07,1.62,.03,2.37,.19-1.28,.19-2.5,.21-3.73,.23-.29-.04-.58-.09-.86-.13,1.74-.08,1.46-.05,2.22-.28Zm9.95,.28c-1.26-.21-3.13,.13-2.66-.23,.7,.1,3.01,0,2.66,.23Zm115.68,12.97c-2.9,.29,2.96,.1-.18,.51-.98-.19-.68-.2-2.05-.23,.28-.12,.85-.42,2.23-.28Zm-3.21,.49c-.39-.05-.77-.13-1.19-.09-.46,.09,.09,.39-1.33,.33-.21-.1,.58-.19-.2-.3,1.64-.03,1.55-.39,3.18-.4,.31,.16,.89,.32-.46,.46ZM209.41,4c.96-.11,1.84-.05,2.75-.02-.02,.15-1.32,.1-2.22,.28-1.02-.09,.05-.17-.52-.26Zm90.36,13.19c.82,.15,.24,.28,.45,.43-.77-.09-1.67,.17-2.43-.02,.92-.21,1.09-.18,1.97-.41ZM215.74,4.18c-1.46-.09-1.16,.19-2.45,.07-.26-.1,2.93-.35,2.45-.07Zm84.92,13.06c.64-.1,1.25-.09,1.82,.01-.36,.1-.66,.17-1.27,.16,.32-.05-.11-.11-.55-.17Zm4.48-13.77c-1.06-.14-2.27,.12-3.35,.02,1.01-.22,3.5-.24,3.35-.02Zm4.89-.05c-1.51-.02-3.07,.07-4.54-.07,1.57-.16,3.1-.16,4.54,.07Zm2.2-.2c-.43,.05-.85,.11-1.28,.16-.29-.04-.58-.09-.87-.13,.77-.17,1.44-.06,2.14-.03Zm57.97,45.11c-.15,.94-.28,.2-.42-.76-.1-1.47-.08-3.6-.26-5.87,.06-.3,.12-.87,.17-.55,.2,1.55,.38,4.75,.5,7.18Zm-.01,8.21c-.09,.49-.17,.76-.26,.52-.03-2.04-.17-4.12-.13-6.13,.13,1.88,.26,3.72,.39,5.61Zm3.41-53.88c-.63,.17-4.69,.33-6.6,.23,2.32-.22,4.42-.19,6.6-.23Zm-3.05,63.13c-.21-2.67-.29-4.97-.64-6.31l.18-1.15c.08,1.84,.63,4.07,.46,7.46Zm8.61-36.26c.07,.53,.11,1.06,.12,1.56-.21,1.5-.39-1.12-.6,1.01-.03-1.13-.22-2.31-.02-3.35-.02,1.98,.27,2.61,.51,.78Zm-8.85,58.69c-.12,.87-.23-.17-.34-.11,.07-.69-.04-1.43,.14-2.08,.1,.75,.04,1.43,.2,2.2Zm3.52-11.25c-.06,.84,.24,1.5,.33,1.94-.09,1.27-.17,.2-.26,.52,.02,.31,0,.61-.05,.9-.04-1.53,0-2.83-.28-2.22,0-.75,.15-1.23,.26-1.13Zm4.11-11.05c.13-.66-.12-1.46,.06-2.11,.18,.61,.1,2.63-.06,2.11Zm-.06,8.5c-.13-1.57-.24-3.13-.1-4.6,0,1.52,.25,3.13,.1,4.6Zm-.13,6.04c-.08-.84-.16-1.68,.02-2.43,.1,.85,.09,1.66-.02,2.43Zm.85-.31c-.14,.76-.14,1.07,0,1.21-.15,1.33-.31-1.42-.16-1.88,.05,.45,.11,.56,.17,.66Zm-1.85,53.83c-.16-.05-.25-1.63-.24-2.52,.11,.04,.37,1.67,.24,2.52Z"/><path class="cls-3" d="M96.81,162.5c.39-.08-.79-.04-.26-.13-3.48,.39-6.72,.05-10.12,.23,2.78,.17,5.62,.16,8.47,.14,.33-.05-.26-.11-.55-.17,.82,0,1.66-.11,2.46-.07Z"/><path class="cls-3" d="M306.47,148.5c-.97-.12-2.05,.07-3.07,.06,1.01,.03,2,.11,3.07-.06Z"/><path class="cls-3" d="M251.47,149.15c.79-.07,.65-.14,.98-.21-.49-.05-1.04,.06-1.56,.12-.06-.06-.14-.11-.55-.17-.8,.16,.35,.17,1.12,.26Z"/><path class="cls-3" d="M295.14,155.69c1.26-.04-1.9-.04-1.73-.27-.56,.1-.27,.2-.41,.29,1.29,.14,.84-.17,2.13-.03Z"/><path class="cls-3" d="M275.99,153.01c.75-.08,.78-.16,.08-.25-.04,.11-.78,.15-1.56,.12-.67,.11,1.14,.07,1.48,.14Z"/><path class="cls-3" d="M279.28,154.05c.09,.07-.43,.14,.23,.21,.83-.08,1.18-.16,1.3-.25-.58-.08-1.25,.1-1.82-.01-.3,.05,.12,.07,.29,.04Z"/><path class="cls-3" d="M237.34,147.78c-1.03-.2-.79,.1-1.27,.16-.89,.09-.06-.13-1.15-.18-1.71,.24-3.31,.17-4.89,.05-.32,.08-.37,.17-.69,.25,1.37-.12,4.22-.15,6.39,0,.74-.19,1.56-.14,1.62-.29Z"/><path class="cls-3" d="M281.96,155.09c-3.71,.04-6.15-.04-9.8,.19,.43,.08,1.29,.05,.87,.13,1.31,.09,.81-.06,2.17-.11-.3,.21,4.56,.07,3.26,.23,.72,.17,2.85-.24,3.5-.44Z"/><path class="cls-3" d="M221.74,146.27c-.87-.17-4.4-.17-6.36-.09,2.12,.03,4.23,.06,6.36,.09Z"/><path class="cls-3" d="M320.49,162.45c.03-.16,1.04-.07,1.91-.24-1.93-.1-1.9,.05-2.78,.11-.35,.08,.5,.04,.87,.13Z"/><path class="cls-3" d="M274.07,155.04c-1.13,.04-2.2-.08-3.38,.1,1.04,.2,2.25-.07,3.38-.1Z"/><path class="cls-3" d="M224.9,148.55c.87-.07-.1-.14,.38-.21-.68-.08-1.43,.02-2.14,.03-.59,.12,1.39-.05,1.76,.18Z"/><path class="cls-3" d="M290,159.99c-.3,.04,.1,.09,.26,.13-.65,.12-1.22,0-1.88,.16,1.19,.07,2.38,.16,3.67-.06-1.14-.1-1.59,0-2.05-.23Z"/><path class="cls-3" d="M256.85,157.3c-1.6,.11-1.32-.1-3-.1-.77,.19-.62,.2-1.33,.33,1.38-.11,3.9-.07,4.34-.23Z"/><path class="cls-3" d="M190.82,147.68c.5,.16-1.62,.06-1.3,.25,.66,.13,1.46-.12,2.11,.06-.22-.18,1.46-.25,.18-.51-.84,.08-1.67,.13-2.46,.07-.67,.11,1.14,.07,1.47,.14Z"/><path class="cls-3" d="M185.41,147.47c-1.37-.15-2.89,.16-4.22-.11-1.02,.15,.8,.12,.23,.21,1.33-.04,2.64,0,3.99-.1Z"/><path class="cls-3" d="M178.97,147.64c.55,.07,.22,.14,.83,.22,1.76-.1,3.47-.05,5.15,.08-.19-.36-3.2-.09-4.42-.41-1.09,.21-2.05,.07-3-.11-1.82,.05-1.84,.16-3.45,.27,.6,.03,1.2,.06,1.79,.1,.87-.06-.1-.14,.38-.21,.31-.02,.61,0,.93-.04,.32,.09-.76,.17,.52,.26,.8,0,1.14-.05,1.27-.16Z"/><path class="cls-3" d="M258.34,164.4c.31-.05-.11-.07-.29-.04-.44-.06-.87-.12-.55-.17-.49-.05-1.04,.06-1.56,.12,.79,.07,1.6,.06,2.4,.1Z"/><path class="cls-3" d="M229.29,163.06c.54-.11-3.86-.35-5.43-.12,.43,.04,2.41-.1,1.79,.1,1.18,.11,2.51-.2,3.64,.03Z"/><path class="cls-3" d="M214.03,162.32c-1.24-.09-1.73-.4-3.58-.19,.25,.34,3.33,.07,2.88,.44,1.39-.08-.69-.17,.7-.25Z"/><path class="cls-3" d="M156.42,155.6c.69-.17-1.14-.07-1.48-.14-.6,.06-.33,.18-.95,.12-.33,.03-.19,.06-.03,.08,.2,.03,.39,.06,.58,.09-.31-.06,1.57-.3,.95-.12,.57,.06,.31-.11,.93-.04Z"/><path class="cls-3" d="M179.86,161.71c.04-.16-2.58-.13-3.58-.2,.42-.25-2-.44-2.86-.53,0,.24,.78,.49,1.27,.73,.36-.43,1.91,.08,3.93,.07,.14-.11,.47-.15,1.25-.08Z"/><path class="cls-3" d="M170.12,160.83c-.36-.18-3.4-.12-4.8-.2-.96,.15,2.1,.09,1.12,.26,.56-.05,2.34-.2,3.67-.06Z"/><path class="cls-3" d="M172.92,161.53c1.26-.1-.09-.15-.58-.09-.51-.07-.51-.15-.23-.21-.49-.04-1.01,0-1.5-.05,.54,.08,.87,.36-.95,.12-.35,.07,.46,.14,.83,.22,.85-.1,1.66-.09,2.43,.02Z"/><path class="cls-3" d="M157.51,161.21c.5,.04,1.02,0,1.51,.05,1.19-.09-.18-.2,1.01-.29-.99,0-1.04,.11-2.52,.24Z"/><path class="cls-3" d="M143.5,162.99c.15-.15,.44-.05,1.28-.16-1.13-.11,.75-.19-.81-.3-.32,.04-.64,.08-.95,.12,.54,.12,1.03,.24-.66,.17-.75,.11,.93,.02,1.15,.18Z"/><path class="cls-3" d="M122.07,159.87c.77,.06,.18-.11-.29-.04-.17-.09,.14-.17,.69-.25-.97-.06-2.35,.23-1.33,.33,.32-.05,.63-.06,.92-.04Z"/><path class="cls-3" d="M88.69,154.38c-.39-.04-.48,.02-.32,.04-.96,.13-1.75-.23-2.75,.02,.94,.22,2.01,.07,3,.11,.28-.06-.36-.12,.06-.17Z"/><path class="cls-3" d="M110.92,163.06c1.15,.18,2.37,.18,3.62,.11-1.34-.25-2.78-.18-4.13-.37-.74,.3-2.78,.12-4.34,.23,.31-.01,4.45,.27,4.86,.03Z"/><path class="cls-3" d="M107.08,162.74c-1.61-.04-3.3,.16-4.86-.03-.44,.48-4.75-.14-7.03,.08-.04,.07,.6,.15,.23,.21,1.33-.03,2.72-.24,3.93,.07,1.98-.15,3.86-.02,5.78,0,.34-.07-.46-.14-.84-.22,.95-.07,1.8,.09,2.78-.11Z"/><path class="cls-3" d="M110.08,163.74c-.29-.45-7.23-.46-8.73-.27,2.82,.05,7.01-.12,8.73,.27Z"/><path class="cls-3" d="M87.47,163.12c-1.2-.06-2.4-.09-3.61-.11-.04,.17,2.57,.15,3.61,.11Z"/><path class="cls-3" d="M71.13,162.84c-1.86-.18-6.41-.22-9.36-.19,1.19,.25,2.56-.02,2.95,.28,.33-.31,2.46,.07,3.7-.14,1.11,.12-.97,.29,.8,.3-.48-.23,.39-.27,1.91-.24Z"/><path class="cls-3" d="M71.6,163.27c.06-.23-2.6-.06-3.62-.11-.69,.16,1.14,.06,1.44,.22,1.11-.17,.83-.22,2.17-.11Z"/><path class="cls-3" d="M61.16,162.64c-2.09-.15-4.2-.19-6.33-.17,.82,.53,4.31,.24,6.33,.17Z"/><path class="cls-3" d="M28.49,162.08c-.89-.04-1.79,0-3.35,.02l.86,.13c.88-.2,1.62,0,2.49-.15Z"/><path class="cls-3" d="M3.21,162.6l3.63-.24c-2.17-.06-2.9,.15-4.73,.15,0-.39,.01-.89,.04-1.5-.07-.75-.08,.47-.1,1.55,.51,0,.98,.02,1.15,.04Z"/><path class="cls-3" d="M2.3,137.42c.4-.41-.2-1.87,.23-3.27-.06-.1-.11-.22-.17-.67-.2,1.25-.03,2.63-.07,3.94Z"/><path class="cls-3" d="M2.37,108.53c-.06,.77,.11,.19,.04-.28,.1-.51,.2,.27,.29,.41,.02-1.01-.17-2.09,.02-3.04-.41-1.37-.13-2.93-.18-4.63-.08-1.39-.17,.69-.25-.7,.1,1.76-.09,3.42,.09,5.21-.07,.56-.14,.22-.22,.84,.14,.01,.21,1.36,.2,2.19Z"/><path class="cls-3" d="M2.83,59.1c.2-1.55-.21-3.32,.03-4.86-.07-.34-.14,.46-.22,.83,.25,1.41-.07,2.62,.19,4.02Z"/><path class="cls-3" d="M2.75,27.12c.16,.04,.2-3.82,.07-3.93-.04,1.3,.05,2.65-.07,3.93Z"/><path class="cls-3" d="M23.56,3.81c.49-.11,.42-.22,.72-.34-.79-.06-1.62-.01-2.46,.07,.56,.15,1.22,0,1.82,.01,.53,.09-1.97,.08-.08,.25Z"/><path class="cls-3" d="M140.86,3.37c-.26,.23,2.18,.07,2.97,.19,.33-.03,.19-.05,.03-.08-.19-.03-.38-.06-.57-.09-.85,.12-1.62-.02-2.43-.02Z"/><path class="cls-3" d="M244.39,18.94c1.71,.04,3.45-.01,5.15,.08,.78-.25,3.01-.11,4.6-.1,.2-.04,.03-.08,.35-.12-.3-.03-.15-.06,.03-.08-3.4,.16-6.71,.05-10.12,.23Z"/><path class="cls-3" d="M318.42,2.02c1.64-.1-.3-.23,1.34-.33-.29-.03-.61,0-.9-.05l-.64,.08c1.57,.11-1.36,.19,.2,.3Z"/><path class="cls-3" d="M332.02,2.33c1.64,.25-.1-.33,1.59-.2,.6-.15-1.32-.16-1.82-.01,.69,.08,.84,.15,.23,.21Z"/></g></g><g><path class="cls-2" d="M67.68,48.18h12.88l3.68,3.4v59.16h-5.06l5.89,14.17-4.6,.64-1.84-1.56-4.05-13.25h-10.4V52.41l3.5-4.23Zm9.57,5.7h-5.7c-.55,0-.83,.28-.83,.83l-.92,49.04c0,.37,.28,.55,.83,.55h2.02l-.92-2.94,3.31-.83,1.56,3.77c.31,0,.63-.06,.97-.18,.34-.12,.51-.24,.51-.37V54.71c0-.55-.28-.83-.83-.83Z"/><path class="cls-2" d="M112.2,113.5h-5.34l-2.39-25.58h-4.69l-4.23,25.58h-4.32l4.14-65.32h16.84V113.5Zm-6.35-62.38h-3.96c-.37,0-.55,.18-.55,.55v31.46c0,.31,.18,.46,.55,.46h3.96c.37,0,.55-.18,.55-.55v-31.37c0-.37-.18-.55-.55-.55Z"/><path class="cls-2" d="M125.17,48.45c2.51-.18,5-.28,7.45-.28h3.96c.98,0,1.78,.37,2.39,1.1,.61,.74,.95,1.69,1.01,2.85l.92,26.5-4.14,5.43,7.36,27.42-1.75,2.02h-5.43l-4.69-28.61-4.69,.46-1.93,28.15h-4.23V49.19c0-.31,1.26-.55,3.77-.74Zm8.92,29.62c.37,0,.55-.18,.55-.55v-22.91l-1.38-1.38-6.35,.64,.28,24.56,6.9-.37Z"/><path class="cls-2" d="M171.45,113.5h-4.05l-3.31-24.47-7.36,3.5-2.02,20.98h-5.7l4.14-65.32h14.54l3.77,65.32Zm-9.11-61.46l-3.96,.92c-.37,.18-.55,.49-.55,.92v32.38c0,.31,.18,.46,.55,.46l3.4-.55c.37,0,.55-.18,.55-.55l.55-33.03c0-.37-.18-.55-.55-.55Z"/><path class="cls-2" d="M201.26,78.9l-.28,5.24-22.17,1.01v-6.72l22.45,.46Z"/><path class="cls-2" d="M213.68,48.18h12.88l3.68,3.4v59.16h-5.06l5.89,14.17-4.6,.64-1.84-1.56-4.05-13.25h-10.4V52.41l3.5-4.23Zm9.57,5.7h-5.7c-.55,0-.83,.28-.83,.83l-.92,49.04c0,.37,.28,.55,.83,.55h2.02l-.92-2.94,3.31-.83,1.56,3.77c.31,0,.63-.06,.97-.18,.34-.12,.51-.24,.51-.37V54.71c0-.55-.28-.83-.83-.83Z"/><path class="cls-2" d="M257.42,112.3c-.89,.8-1.76,1.2-2.62,1.2h-15.36V50.29h5.52v56.86l8,.55-1.93-59.52h7.82l-.09,61.64c0,.86-.45,1.69-1.33,2.48Z"/><path class="cls-2" d="M271.73,48.45c2.51-.18,5-.28,7.45-.28h3.96c.98,0,1.78,.37,2.39,1.1,.61,.74,.95,1.69,1.01,2.85l.92,26.5-4.14,5.43,7.36,27.42-1.75,2.02h-5.43l-4.69-28.61-4.69,.46-1.93,28.15h-4.23V49.19c0-.31,1.26-.55,3.77-.74Zm8.92,29.62c.37,0,.55-.18,.55-.55v-22.91l-1.38-1.38-6.35,.64,.28,24.56,6.9-.37Z"/><path class="cls-2" d="M318,113.5h-4.05l-3.31-24.47-7.36,3.5-2.02,20.98h-5.7l4.14-65.32h14.54l3.77,65.32Zm-9.11-61.46l-3.96,.92c-.37,.18-.55,.49-.55,.92v32.38c0,.31,.18,.46,.55,.46l3.4-.55c.37,0,.55-.18,.55-.55l.55-33.03c0-.37-.18-.55-.55-.55Z"/></g></g></g></svg>