<svg width="25" height="25" viewBox="0 0 25 25" fill="none" xmlns="http://www.w3.org/2000/svg">
<path fill-rule="evenodd" clip-rule="evenodd" d="M4.32878 0.0776448C4.32476 0.229662 4.14361 0.267251 3.77398 0.192809C3.3092 0.0992036 3.22503 0.139188 3.22503 0.454094C3.22503 0.658626 3.35385 0.875688 3.51103 0.936495C3.6684 0.997302 3.74159 1.13753 3.67371 1.24827C3.49274 1.54309 4.18075 2.72716 4.49713 2.6658C4.64498 2.63706 5.05742 2.88323 5.41369 3.2127C5.76977 3.54216 6.10939 3.81229 6.16813 3.81266C6.22687 3.81321 6.63162 4.14525 7.06767 4.55063C7.50372 4.95601 7.92916 5.28768 8.01296 5.28768C8.09695 5.28768 8.16557 5.41206 8.16557 5.56408C8.16557 5.71609 8.27262 5.84047 8.40363 5.84047C8.70958 5.84047 9.62614 6.26723 9.62797 6.41058C9.6287 6.47084 9.83511 6.76105 10.0867 7.0555C10.3381 7.35014 10.5414 7.67389 10.5383 7.77523C10.5295 8.06692 10.1202 8.52168 9.72093 8.68328C9.48726 8.77799 9.43767 8.86275 9.58369 8.91766C9.93465 9.0496 9.85523 9.3177 9.4922 9.22631C9.30244 9.17858 8.87902 9.41057 8.45249 9.79642C8.05688 10.1543 7.66566 10.447 7.58332 10.447C7.50098 10.447 7.43364 10.5349 7.43364 10.6422C7.43364 10.7494 7.51598 10.7861 7.61662 10.7234C7.71726 10.6608 7.7996 10.7389 7.7996 10.8968C7.7996 11.0547 7.68616 11.1841 7.54745 11.1841C7.40894 11.1841 7.19064 11.3112 7.06255 11.4666C6.93446 11.6221 6.73922 11.7186 6.62851 11.6812C6.37655 11.5961 4.89036 13.1528 4.66712 13.7356C4.57599 13.9733 4.3447 14.2093 4.1533 14.2596C3.96172 14.3101 3.75605 14.548 3.69603 14.7881C3.63619 15.0284 3.38221 15.4314 3.13171 15.6836C2.88102 15.9361 2.67608 16.2707 2.67608 16.4273C2.67608 16.5839 2.59923 16.712 2.50536 16.712C2.2867 16.712 2.04186 17.4371 2.10792 17.8894C2.14379 18.1351 2.07718 18.2062 1.88194 18.1308C1.54049 17.9989 1.13482 18.4544 1.27242 18.8152C1.32805 18.9611 1.26327 19.1725 1.12878 19.285C0.789163 19.5688 0.980563 20.2146 1.36757 20.0906C1.61204 20.0125 1.62045 20.0291 1.41185 20.1785C1.27004 20.2801 1.05412 20.3247 0.932256 20.2775C0.648266 20.1678 0.506454 20.5436 0.579282 21.2124C0.613316 21.5251 0.489254 21.939 0.273334 22.2333C-0.0516437 22.6757 -0.0673805 22.8188 0.123837 23.5835C0.262355 24.1378 0.459611 24.4781 0.683582 24.5496C0.873701 24.6104 1.02924 24.7374 1.02924 24.8319C1.02924 24.9264 1.17343 25.002 1.34946 25C1.73079 24.9952 2.56757 23.8468 2.75495 23.0709C2.82814 22.768 2.98441 22.4582 3.10225 22.3827C3.24315 22.2926 3.20692 22.2445 2.9963 22.2426C2.82027 22.2412 2.67608 22.157 2.67608 22.0556C2.67608 21.9543 2.76135 21.8714 2.86547 21.8714C2.98953 21.8714 2.98221 21.7345 2.84424 21.4748C2.66236 21.1328 2.67608 21.0949 2.9436 21.1982C3.39155 21.3713 4.30719 20.3869 4.3877 19.6455C4.42339 19.3178 4.58807 18.9499 4.75367 18.8279C4.91927 18.7059 5.05486 18.5467 5.05486 18.4741C5.05486 18.4015 5.30317 18.0919 5.60674 17.7862C5.91012 17.4807 6.41936 16.8445 6.7383 16.3724C7.05706 15.9005 7.39576 15.4614 7.49073 15.3967C7.5857 15.332 7.60747 15.1878 7.53904 15.0763C7.4609 14.9488 7.52001 14.9143 7.6986 14.9832C7.86365 15.047 7.98259 14.9948 7.98259 14.8585C7.98259 14.7295 8.10226 14.4925 8.24864 14.3321C8.71617 13.8191 9.22907 13.3099 9.51855 13.0715C9.67335 12.944 9.75276 12.7159 9.69512 12.5648C9.63639 12.4107 9.69146 12.2897 9.8201 12.2897C9.94654 12.2897 10.3299 11.9995 10.6719 11.6448C11.0141 11.2901 11.3831 10.9998 11.4924 10.9998C11.6014 10.9998 11.8422 10.824 12.0272 10.6092C12.296 10.2971 12.3235 10.1399 12.1636 9.82608C11.9987 9.50288 12.0062 9.47432 12.2055 9.66393C12.5275 9.97054 12.9868 9.95857 12.8679 9.64661C12.7045 9.21783 13.6653 9.53108 13.8648 9.97165C13.9636 10.1902 14.4638 10.656 14.9766 11.0068C15.4893 11.3577 16.1853 11.9143 16.5235 12.2436C16.8617 12.5731 17.2604 12.8425 17.4095 12.8425C17.5586 12.8425 17.6807 12.9254 17.6807 13.0267C17.6807 13.1281 17.7903 13.211 17.9242 13.211C18.0582 13.211 18.2779 13.4183 18.4126 13.6717C18.5473 13.925 18.7632 14.1323 18.8928 14.1323C19.2221 14.1323 20.0015 14.9525 19.9164 15.2097C19.8776 15.3265 19.9352 15.4222 20.0443 15.4222C20.1531 15.4222 20.2424 15.5388 20.2424 15.6812C20.2424 15.8456 20.3703 15.9068 20.5916 15.8485C20.7983 15.794 21.0964 15.9136 21.3235 16.1422C21.5339 16.3542 21.8298 16.5277 21.9808 16.5277C22.1317 16.5277 22.2553 16.6521 22.2553 16.8041C22.2553 17.1387 22.5543 17.171 22.6836 16.8502C22.7535 16.6764 22.8139 16.6727 22.9294 16.8356C23.0135 16.9543 23.3012 17.1067 23.5687 17.1743C23.9495 17.2705 24.0994 17.2137 24.2595 16.9125C24.372 16.7009 24.5846 16.5277 24.7319 16.5277C24.9078 16.5277 25 16.3376 25 15.9749C25 15.6064 24.9085 15.4222 24.7255 15.4222C24.5746 15.4222 24.4483 15.3186 24.445 15.1918C24.4384 14.9469 23.8243 14.1323 23.6461 14.1323C23.3908 14.1323 22.8042 13.469 22.8042 13.1804C22.8042 13.0061 22.6401 12.7476 22.4393 12.6061C22.2388 12.4645 22.1358 12.2827 22.2106 12.202C22.2854 12.1211 22.1184 12.0968 21.8393 12.1476C21.4254 12.2232 21.275 12.1428 21.0223 11.7122C20.852 11.4218 20.6198 11.1841 20.5067 11.1841C20.2516 11.1841 18.7786 9.74906 18.7786 9.50067C18.7786 9.40117 18.7109 9.36174 18.6282 9.41333C18.5455 9.46474 18.3405 9.34534 18.1725 9.14781C18.0046 8.95028 17.753 8.78868 17.6133 8.78868C17.4737 8.78868 17.254 8.66062 17.1248 8.50381C16.9958 8.34719 16.7969 8.25506 16.6831 8.29909C16.363 8.42273 15.9478 8.00833 15.8926 7.51026C15.8567 7.18522 16.0338 6.89317 16.533 6.45425C16.9127 6.12055 17.2851 5.846 17.3605 5.84397C17.4359 5.84213 17.4977 5.71609 17.4977 5.56408C17.4977 5.41206 17.6069 5.28768 17.7403 5.28768C18.0223 5.28768 18.6728 4.60444 18.8371 4.13604C18.8992 3.95878 19.0556 3.81229 19.1846 3.81081C19.3597 3.8086 19.3544 3.76678 19.1634 3.64498C18.9885 3.53331 19.1215 3.4819 19.5846 3.4819C20.3065 3.4819 21.7861 2.61863 21.5958 2.30852C21.4243 2.02899 21.8642 1.64849 22.359 1.64849C22.9242 1.64849 23.4124 1.06732 23.1327 0.727724C22.8538 0.389233 21.2137 0.428113 21.0194 0.777845C20.9336 0.932441 20.6002 1.07746 20.2787 1.1003C19.9572 1.12315 19.694 1.22579 19.6939 1.32842C19.6935 1.52245 19.5112 1.63927 18.2801 2.23463C17.5674 2.5792 16.9251 3.26079 17.3133 3.26079C17.4146 3.26079 17.4977 3.37687 17.4977 3.51894C17.4977 3.71334 17.295 3.75793 16.6743 3.69952C16.0258 3.63853 15.8509 3.68165 15.8509 3.90202C15.8509 4.07468 15.6827 4.1821 15.413 4.1821C15.1722 4.1821 14.9277 4.30648 14.8697 4.4585C14.8119 4.61052 14.6708 4.73489 14.5564 4.73489C14.4419 4.73489 14.1037 4.94219 13.8047 5.19555C13.2133 5.69656 12.3742 5.81633 12.3742 5.39971C12.3742 5.25875 12.1683 5.09126 11.9167 5.02769C11.5204 4.92763 11.3623 4.63668 11.4355 4.14267C11.4461 4.07026 11.339 4.05588 11.1974 4.11061C10.8552 4.24273 10.0561 3.71758 9.24041 2.82427C8.73666 2.27277 8.44425 2.10159 8.02577 2.11357C7.55788 2.12702 7.48927 2.07266 7.57234 1.75315C7.65999 1.41576 7.61058 1.39015 7.09439 1.50439C6.62632 1.60795 6.51872 1.57349 6.51872 1.32087C6.51872 1.13126 6.41955 1.04853 6.26438 1.1086C6.1244 1.16259 5.83967 1.04705 5.63162 0.851918C5.42339 0.656599 5.15587 0.496843 5.03693 0.496843C4.91799 0.496843 4.7114 0.351644 4.57764 0.174383C4.4351 -0.0146711 4.33208 -0.0548403 4.32878 0.0776448ZM15.9758 5.13806C15.9175 5.28492 15.8741 5.24125 15.8653 5.02658C15.8574 4.83237 15.9006 4.72365 15.9614 4.78483C16.0221 4.846 16.0287 5.00502 15.9758 5.13806Z" fill="#161B22"/>
</svg>
